<svg width="330" height="226" viewBox="0 0 330 226" fill="none" xmlns="http://www.w3.org/2000/svg">
<mask id="mask0_2894_2114" style="mask-type:alpha" maskUnits="userSpaceOnUse" x="0" y="0" width="330" height="226">
<rect width="330" height="226" rx="12" fill="#FFF5BE"/>
</mask>
<g mask="url(#mask0_2894_2114)">
<path opacity="0.6" d="M532.743 24.1031C532.864 24.3399 532.864 24.3399 532.743 24.1031C542.006 55.558 544.842 87.319 542.193 118.305C534.645 203.875 483.803 282.64 403.511 323.854L249.56 402.877C187.032 434.972 114.216 440.029 47.8888 416.917C45.0214 415.995 42.0325 414.836 39.4019 413.792C1.62083 399.07 -32.0815 375.97 -59.0684 346.132C-68.1045 336.107 -76.1933 325.595 -83.5778 314.124C-83.6994 313.887 -83.8209 313.65 -84.0641 313.177C-97.3805 292.481 -108.79 272.003 -117.696 251.736C-137.819 206.704 -146.26 162.857 -139.417 123.135C-131.568 77.2111 -102.7 37.2562 -47.4057 7.97586C-45.0372 6.76012 -42.6687 5.54439 -40.3002 4.32865C114.393 -72.0825 145.284 0.340912 286.618 -33.3027C318.924 -40.9077 357.004 -54.1699 403.804 -76.0972C404.751 -76.5835 405.936 -77.1914 407.005 -77.4408C473.142 -106.002 511.012 -49.1317 532.743 24.1031Z" fill="white"/>
<path opacity="0.3" d="M406.653 -76.9608C374.744 -31.8538 319.29 27.4333 232.958 60.3759C101.919 110.58 -68.0109 164.887 -117.811 252.095C-137.934 207.062 -146.375 163.216 -139.532 123.494C-116.403 103.841 -83.1288 86.4622 -35.3773 75.7172C67.9668 52.5962 199.643 17.626 286.388 -32.5858C318.694 -40.1908 356.774 -53.453 403.574 -75.3803C404.636 -76.225 405.705 -76.4745 406.653 -76.9608Z" fill="white"/>
<path opacity="0.3" d="M532.865 24.3398C542.006 55.5578 544.964 87.5557 542.315 118.541C515.677 144.185 475.815 169.134 415.498 185.132C268.268 224.196 123.323 299.195 48.3689 417.269C45.5015 416.347 42.5126 415.188 39.882 414.144C2.10094 399.422 -31.6015 376.323 -58.5883 346.484C-30.2843 309.512 45.995 226.667 181.249 192.254C323.384 155.506 481.67 103.585 532.865 24.3398Z" fill="white"/>
<path opacity="0.3" d="M-8.31287 444.431C11.7235 470.056 35.9979 491.113 62.7183 507.023C99.0821 500.328 142.591 482.483 190.751 442.801C308.317 345.945 453.749 271.895 593.38 279.824C594.302 276.956 595.103 273.852 595.788 271.106C605.85 231.826 606.728 190.977 598.215 151.656C551.675 153.101 439.896 166.785 333.091 256.621C220.377 350.686 85.9182 449.03 -8.31287 444.431Z" fill="white"/>
<path d="M108.618 59.4065C105.802 60.8517 102.366 59.7466 100.921 56.931C102.366 59.7466 101.261 63.1827 98.4454 64.6279C101.261 63.1827 104.697 64.2878 106.142 67.1034C104.697 64.2878 105.802 60.8517 108.618 59.4065Z" fill="url(#paint0_linear_2894_2114)"/>
<path d="M167.473 68.098C165.293 69.2169 162.544 68.3328 161.425 66.153C162.544 68.3328 161.66 71.0817 159.48 72.2006C161.66 71.0817 164.409 71.9658 165.528 74.1456C164.409 71.9658 165.293 69.2169 167.473 68.098Z" fill="url(#paint1_linear_2894_2114)"/>
<path d="M128.161 16.3261C125.981 17.4449 123.232 16.5609 122.113 14.3811C123.232 16.5609 122.348 19.3097 120.168 20.4286C122.348 19.3097 125.097 20.1938 126.216 22.3736C125.097 20.1938 125.981 17.4449 128.161 16.3261Z" fill="url(#paint2_linear_2894_2114)"/>
<path d="M0.332455 160.316C-1.66568 161.342 -4.13968 160.546 -5.16531 158.548C-4.13968 160.546 -4.93536 163.02 -6.9335 164.046C-4.93536 163.02 -2.46136 163.816 -1.43573 165.814C-2.46136 163.816 -1.66568 161.342 0.332455 160.316Z" fill="url(#paint3_linear_2894_2114)"/>
<path d="M34.3621 58.0465L32.1823 59.1654C28.0044 61.3099 22.919 59.6743 20.7745 55.4964L19.7022 53.4074L20.8211 55.5872C22.9656 59.7651 21.33 64.8506 17.1521 66.9951C21.33 64.8506 26.4155 66.4862 28.56 70.6641C26.4155 66.4862 28.051 61.4007 32.229 59.2562L34.4087 58.1373L34.3621 58.0465Z" fill="url(#paint4_linear_2894_2114)"/>
<path d="M158.149 32.7201C153.971 34.8646 148.886 33.229 146.741 29.0511C148.886 33.229 147.25 38.3144 143.072 40.4589C147.25 38.3144 152.336 39.95 154.48 44.1279C152.336 39.95 153.971 34.8646 158.149 32.7201Z" fill="url(#paint5_linear_2894_2114)"/>
<path d="M251.686 19.0427C253.901 19.605 256.141 18.2722 256.703 16.0572C256.141 18.2722 257.474 20.512 259.689 21.0743C257.474 20.512 255.234 21.8448 254.672 24.0599C255.234 21.8448 253.901 19.605 251.686 19.0427Z" fill="url(#paint6_linear_2894_2114)"/>
<path d="M211.669 34.667C213.384 35.1023 215.176 34.0361 215.611 32.3212C215.176 34.0361 216.242 35.8279 217.957 36.2632C216.242 35.8279 214.45 36.8942 214.015 38.609C214.45 36.8942 213.384 35.1023 211.669 34.667Z" fill="url(#paint7_linear_2894_2114)"/>
<path d="M278.727 1.0904L280.442 1.52573C283.728 2.36012 287.043 0.387533 287.878 -2.89927L288.295 -4.54267L287.859 -2.82782C287.025 0.458979 288.998 3.77385 292.284 4.60824C288.998 3.77385 285.683 5.74644 284.848 9.03324C285.683 5.74644 283.71 2.43157 280.423 1.59718L278.709 1.16184L278.727 1.0904Z" fill="url(#paint8_linear_2894_2114)"/>
<path d="M212.516 8.26222C215.803 9.09661 219.117 7.12402 219.952 3.83722C219.117 7.12402 221.09 10.4389 224.377 11.2733C221.09 10.4389 217.775 12.4115 216.941 15.6983C217.775 12.4115 215.803 9.09661 212.516 8.26222Z" fill="url(#paint9_linear_2894_2114)"/>
<path d="M211.686 99.043C213.901 99.6053 216.141 98.2725 216.703 96.0575C216.141 98.2725 217.474 100.512 219.689 101.075C217.474 100.512 215.234 101.845 214.672 104.06C215.234 101.845 213.901 99.6053 211.686 99.043Z" fill="url(#paint10_linear_2894_2114)"/>
<path d="M304.333 95.2974C306.548 95.8597 308.788 94.5268 309.35 92.3118C308.788 94.5268 310.121 96.7666 312.336 97.3289C310.121 96.7666 307.881 98.0995 307.318 100.314C307.881 98.0995 306.548 95.8597 304.333 95.2974Z" fill="url(#paint11_linear_2894_2114)"/>
<path d="M330.291 106.107C332.506 106.669 334.746 105.336 335.308 103.121C334.746 105.336 336.079 107.576 338.294 108.139C336.079 107.576 333.839 108.909 333.277 111.124C333.839 108.909 332.506 106.669 330.291 106.107Z" fill="url(#paint12_linear_2894_2114)"/>
<path d="M171.669 114.667C173.384 115.103 175.175 114.036 175.611 112.321C175.175 114.036 176.242 115.828 177.957 116.263C176.242 115.828 174.45 116.894 174.015 118.609C174.45 116.894 173.384 115.103 171.669 114.667Z" fill="url(#paint13_linear_2894_2114)"/>
<path d="M190.973 71.8804C192.688 72.3157 194.48 71.2495 194.915 69.5346C194.48 71.2495 195.546 73.0413 197.261 73.4766C195.546 73.0413 193.754 74.1076 193.319 75.8224C193.754 74.1076 192.688 72.3157 190.973 71.8804Z" fill="url(#paint14_linear_2894_2114)"/>
<path d="M308.424 130.186C311.068 130.857 313.78 129.243 314.451 126.6C313.78 129.243 315.393 131.955 318.037 132.626C315.393 131.955 312.681 133.569 312.01 136.212C312.681 133.569 311.068 130.857 308.424 130.186Z" fill="url(#paint15_linear_2894_2114)"/>
<path d="M263.727 86.0906L265.442 86.526C268.728 87.3604 272.043 85.3878 272.878 82.101L273.295 80.4576L272.859 82.1724C272.025 85.4592 273.998 88.7741 277.284 89.6085C273.998 88.7741 270.683 90.7467 269.848 94.0335C270.683 90.7467 268.71 87.4318 265.423 86.5974L263.709 86.1621L263.727 86.0906Z" fill="url(#paint16_linear_2894_2114)"/>
<path d="M172.516 88.2625C175.802 89.0968 179.117 87.1243 179.952 83.8375C179.117 87.1243 181.09 90.4391 184.377 91.2735C181.09 90.4391 177.775 92.4117 176.941 95.6985C177.775 92.4117 175.802 89.0968 172.516 88.2625Z" fill="url(#paint17_linear_2894_2114)"/>
<path d="M100.751 145.456C105.011 144.607 107.762 140.486 106.912 136.226C107.762 140.486 111.882 143.236 116.142 142.387C111.882 143.236 109.132 147.357 109.982 151.617C109.132 147.357 105.011 144.607 100.751 145.456Z" fill="url(#paint18_linear_2894_2114)"/>
<path d="M254.795 130.302C259.055 129.453 261.805 125.332 260.955 121.072C261.805 125.332 265.926 128.082 270.186 127.233C265.926 128.082 263.175 132.203 264.025 136.463C263.175 132.203 259.055 129.453 254.795 130.302Z" fill="url(#paint19_linear_2894_2114)"/>
<path d="M289.985 58.4304C294.245 57.5808 296.995 53.46 296.145 49.2C296.995 53.46 301.116 56.2103 305.376 55.3607C301.116 56.2103 298.365 60.3311 299.215 64.5911C298.365 60.3311 294.245 57.5808 289.985 58.4304Z" fill="url(#paint20_linear_2894_2114)"/>
<path d="M44.9049 205.033C48.203 204.376 50.4032 201.079 49.7454 197.781C50.4032 201.079 53.6999 203.279 56.998 202.621C53.6999 203.279 51.4996 206.576 52.1574 209.874C51.4996 206.576 48.203 204.376 44.9049 205.033Z" fill="url(#paint21_linear_2894_2114)"/>
<path d="M42.9737 115.828C46.2718 115.17 48.4721 111.874 47.8143 108.576C48.4721 111.874 51.7686 114.074 55.0667 113.416C51.7686 114.074 49.5684 117.371 50.2262 120.669C49.5684 117.371 46.2718 115.17 42.9737 115.828Z" fill="url(#paint22_linear_2894_2114)"/>
<path d="M292.28 161.502C295.303 160.899 297.283 157.933 296.68 154.909C297.283 157.933 300.25 159.913 303.273 159.31C300.25 159.913 298.27 162.88 298.873 165.903C298.27 162.88 295.303 160.899 292.28 161.502Z" fill="url(#paint23_linear_2894_2114)"/>
<path d="M219.41 70.6149L222.708 69.9571C229.029 68.6963 233.1 62.5976 231.839 56.2762L231.209 53.1155L231.867 56.4136C233.127 62.735 239.226 66.8055 245.547 65.5447C239.226 66.8055 235.156 72.9042 236.416 79.2256C235.156 72.9042 229.057 68.8337 222.735 70.0945L219.437 70.7523L219.41 70.6149Z" fill="url(#paint24_linear_2894_2114)"/>
<path d="M24.7306 159.047C31.052 157.786 35.1225 151.687 33.8617 145.366C35.1225 151.687 41.2211 155.758 47.5425 154.497C41.2211 155.758 37.1507 161.856 38.4114 168.178C37.1507 161.856 31.052 157.786 24.7306 159.047Z" fill="url(#paint25_linear_2894_2114)"/>
</g>
<defs>
<linearGradient id="paint0_linear_2894_2114" x1="120.592" y1="95.1075" x2="88.5463" y2="32.6772" gradientUnits="userSpaceOnUse">
<stop stop-color="#FFA340"/>
<stop offset="1" stop-color="#FCD224"/>
</linearGradient>
<linearGradient id="paint1_linear_2894_2114" x1="167.419" y1="77.6399" x2="135.373" y2="15.2095" gradientUnits="userSpaceOnUse">
<stop stop-color="#FFA340"/>
<stop offset="1" stop-color="#FCD224"/>
</linearGradient>
<linearGradient id="paint2_linear_2894_2114" x1="142.785" y1="54.418" x2="74.4776" y2="-78.6572" gradientUnits="userSpaceOnUse">
<stop stop-color="#FFA340"/>
<stop offset="1" stop-color="#FCD224"/>
</linearGradient>
<linearGradient id="paint3_linear_2894_2114" x1="19.4555" y1="206.514" x2="-12.5898" y2="144.084" gradientUnits="userSpaceOnUse">
<stop stop-color="#FFA340"/>
<stop offset="1" stop-color="#FCD224"/>
</linearGradient>
<linearGradient id="paint4_linear_2894_2114" x1="71.5125" y1="154.144" x2="3.20541" y2="21.0688" gradientUnits="userSpaceOnUse">
<stop stop-color="#FFA340"/>
<stop offset="1" stop-color="#FCD224"/>
</linearGradient>
<linearGradient id="paint5_linear_2894_2114" x1="197.437" y1="127.661" x2="129.13" y2="-5.41451" gradientUnits="userSpaceOnUse">
<stop stop-color="#FFA340"/>
<stop offset="1" stop-color="#FCD224"/>
</linearGradient>
<linearGradient id="paint6_linear_2894_2114" x1="249.026" y1="46.1029" x2="261.495" y2="-3.01139" gradientUnits="userSpaceOnUse">
<stop stop-color="#FFA340"/>
<stop offset="1" stop-color="#FCD224"/>
</linearGradient>
<linearGradient id="paint7_linear_2894_2114" x1="213.248" y1="41.3738" x2="225.716" y2="-7.74064" gradientUnits="userSpaceOnUse">
<stop stop-color="#FFA340"/>
<stop offset="1" stop-color="#FCD224"/>
</linearGradient>
<linearGradient id="paint8_linear_2894_2114" x1="268.104" y1="74.7241" x2="294.681" y2="-29.9671" gradientUnits="userSpaceOnUse">
<stop stop-color="#FFA340"/>
<stop offset="1" stop-color="#FCD224"/>
</linearGradient>
<linearGradient id="paint9_linear_2894_2114" x1="200.202" y1="81.4271" x2="226.779" y2="-23.2642" gradientUnits="userSpaceOnUse">
<stop stop-color="#FFA340"/>
<stop offset="1" stop-color="#FCD224"/>
</linearGradient>
<linearGradient id="paint10_linear_2894_2114" x1="209.026" y1="126.103" x2="221.494" y2="76.9889" gradientUnits="userSpaceOnUse">
<stop stop-color="#FFA340"/>
<stop offset="1" stop-color="#FCD224"/>
</linearGradient>
<linearGradient id="paint11_linear_2894_2114" x1="297.15" y1="140.256" x2="309.618" y2="91.142" gradientUnits="userSpaceOnUse">
<stop stop-color="#FFA340"/>
<stop offset="1" stop-color="#FCD224"/>
</linearGradient>
<linearGradient id="paint12_linear_2894_2114" x1="326.434" y1="137.817" x2="353.011" y2="33.1258" gradientUnits="userSpaceOnUse">
<stop stop-color="#FFA340"/>
<stop offset="1" stop-color="#FCD224"/>
</linearGradient>
<linearGradient id="paint13_linear_2894_2114" x1="173.248" y1="121.374" x2="185.716" y2="72.2596" gradientUnits="userSpaceOnUse">
<stop stop-color="#FFA340"/>
<stop offset="1" stop-color="#FCD224"/>
</linearGradient>
<linearGradient id="paint14_linear_2894_2114" x1="186.834" y1="101.051" x2="213.411" y2="-3.63964" gradientUnits="userSpaceOnUse">
<stop stop-color="#FFA340"/>
<stop offset="1" stop-color="#FCD224"/>
</linearGradient>
<linearGradient id="paint15_linear_2894_2114" x1="298.341" y1="190.056" x2="319.308" y2="107.464" gradientUnits="userSpaceOnUse">
<stop stop-color="#FFA340"/>
<stop offset="1" stop-color="#FCD224"/>
</linearGradient>
<linearGradient id="paint16_linear_2894_2114" x1="253.104" y1="159.724" x2="279.681" y2="55.0331" gradientUnits="userSpaceOnUse">
<stop stop-color="#FFA340"/>
<stop offset="1" stop-color="#FCD224"/>
</linearGradient>
<linearGradient id="paint17_linear_2894_2114" x1="160.202" y1="161.427" x2="186.779" y2="56.7361" gradientUnits="userSpaceOnUse">
<stop stop-color="#FFA340"/>
<stop offset="1" stop-color="#FCD224"/>
</linearGradient>
<linearGradient id="paint18_linear_2894_2114" x1="118.352" y1="194.052" x2="99.5124" y2="99.5925" gradientUnits="userSpaceOnUse">
<stop stop-color="#FFA340"/>
<stop offset="1" stop-color="#FCD224"/>
</linearGradient>
<linearGradient id="paint19_linear_2894_2114" x1="279.297" y1="213.306" x2="260.457" y2="118.846" gradientUnits="userSpaceOnUse">
<stop stop-color="#FFA340"/>
<stop offset="1" stop-color="#FCD224"/>
</linearGradient>
<linearGradient id="paint20_linear_2894_2114" x1="309.34" y1="115.982" x2="269.182" y2="-85.3656" gradientUnits="userSpaceOnUse">
<stop stop-color="#FFA340"/>
<stop offset="1" stop-color="#FCD224"/>
</linearGradient>
<linearGradient id="paint21_linear_2894_2114" x1="53.107" y1="215.244" x2="34.2672" y2="120.784" gradientUnits="userSpaceOnUse">
<stop stop-color="#FFA340"/>
<stop offset="1" stop-color="#FCD224"/>
</linearGradient>
<linearGradient id="paint22_linear_2894_2114" x1="59.7664" y1="169.256" x2="19.6079" y2="-32.0922" gradientUnits="userSpaceOnUse">
<stop stop-color="#FFA340"/>
<stop offset="1" stop-color="#FCD224"/>
</linearGradient>
<linearGradient id="paint23_linear_2894_2114" x1="311.155" y1="227.484" x2="292.315" y2="133.024" gradientUnits="userSpaceOnUse">
<stop stop-color="#FFA340"/>
<stop offset="1" stop-color="#FCD224"/>
</linearGradient>
<linearGradient id="paint24_linear_2894_2114" x1="261.498" y1="205.622" x2="221.34" y2="4.27332" gradientUnits="userSpaceOnUse">
<stop stop-color="#FFA340"/>
<stop offset="1" stop-color="#FCD224"/>
</linearGradient>
<linearGradient id="paint25_linear_2894_2114" x1="63.5337" y1="294.635" x2="23.3752" y2="93.286" gradientUnits="userSpaceOnUse">
<stop stop-color="#FFA340"/>
<stop offset="1" stop-color="#FCD224"/>
</linearGradient>
</defs>
</svg>
