<svg width="9" height="14" viewBox="0 0 9 14" fill="none" xmlns="http://www.w3.org/2000/svg">
<path fill-rule="evenodd" clip-rule="evenodd" d="M0.0150298 1.20028C0.00820145 0.968756 0.0704865 0.74043 0.193942 0.544452C0.317397 0.348474 0.496427 0.193792 0.708198 0.0999771C0.91997 0.00616212 1.15489 -0.0225247 1.38299 0.0177143C1.61108 0.0579534 1.82203 0.16523 1.98892 0.325844L8.1799 6.14373C8.29602 6.25276 8.38857 6.38452 8.45183 6.53071C8.5151 6.67689 8.54773 6.8344 8.54773 6.99368C8.54773 7.15297 8.5151 7.31062 8.45183 7.4568C8.38857 7.60298 8.29602 7.7346 8.1799 7.84364L1.98892 13.6615C1.87834 13.7713 1.74689 13.8578 1.60233 13.9159C1.45777 13.9739 1.30304 14.0025 1.14727 13.9998C0.991499 13.9971 0.837854 13.9632 0.695412 13.9001C0.552969 13.837 0.424617 13.7459 0.317937 13.6323C0.211257 13.5188 0.128413 13.3851 0.0743001 13.239C0.020187 13.0929 -0.00409846 12.9375 0.00287892 12.7818C0.00985629 12.6262 0.0479551 12.4735 0.114924 12.3328C0.181893 12.1921 0.276373 12.0664 0.392785 11.9629L5.68019 6.99368L0.392785 2.02461C0.277959 1.91941 0.185373 1.79231 0.120492 1.65073C0.0556119 1.50915 0.0197521 1.35594 0.0150298 1.20028Z" fill="#2C9D81"/>
</svg>
