<svg width="236" height="220" viewBox="0 0 236 220" fill="none" xmlns="http://www.w3.org/2000/svg">
<path d="M203.767 200.592H205.517L209.337 195.269V191.776C209.337 191.776 212.042 191.61 211.723 196.184C211.405 200.758 211.75 199.594 211.75 199.594C211.75 199.594 217.494 199.616 217.971 200.115C218.318 200.477 218.475 206.183 218.535 209.277C218.565 210.834 217.61 212.283 216.161 212.651C215.955 212.704 215.747 212.734 215.543 212.734C214.11 212.734 206.791 211.57 206.791 211.57H203.768V200.592H203.767Z" fill="#ABD2DB"/>
<path d="M198.759 199.639L199.835 211.609H202.832V199.88L198.759 199.639Z" fill="#ABD2DB"/>
<path d="M114.275 20.6083L121.814 31.3877C122.64 32.5687 124.398 32.5395 125.185 31.3318L132.481 20.1211L114.275 20.6083Z" fill="#ABD2DB"/>
<path d="M133.392 26.5737H112.232C108.958 26.5737 106.302 23.9189 106.302 20.6435V8.49076C106.302 5.21591 108.957 2.56055 112.232 2.56055H133.392C136.667 2.56055 139.322 5.2154 139.322 8.49076V20.6435C139.322 23.9189 136.667 26.5737 133.392 26.5737Z" fill="#ABD2DB"/>
<path d="M122.079 9.56445V18.57L115.633 14.0675L122.079 9.56445Z" fill="white"/>
<path d="M130.706 19.2804C130.706 19.2804 130.279 12.882 125.161 12.7871H121.89V15.5363L125.113 15.5835C125.113 15.5835 128.487 15.505 130.706 19.2804Z" fill="white"/>
<path d="M31.5046 188.643H48.8927C52.7594 188.643 55.8937 191.777 55.8937 195.644V204.47C55.8937 208.336 52.7594 211.471 48.8927 211.471H44.3492L41.1477 216.048C40.3625 217.171 38.6913 217.143 37.9436 215.995L34.999 211.471H31.5046C27.638 211.471 24.5037 208.336 24.5037 204.47V195.644C24.5037 191.777 27.638 188.643 31.5046 188.643Z" fill="#ABD2DB"/>
<path d="M39.5784 195.652V204.658L33.1323 200.155L39.5784 195.652Z" fill="white"/>
<path d="M48.2048 205.368C48.2048 205.368 47.7781 198.97 42.6597 198.875H39.3889V201.624L42.612 201.671C42.612 201.671 45.9863 201.593 48.2048 205.368Z" fill="white"/>
<path d="M41.9794 94.3729C42.5666 91.8955 41.0342 89.4112 38.5568 88.824C36.0794 88.2369 33.5951 89.7693 33.0079 92.2467C32.4208 94.7241 33.9532 97.2084 36.4306 97.7955C38.908 98.3827 41.3923 96.8503 41.9794 94.3729Z" fill="#ABD2DB"/>
<path d="M37.4997 97.3633C33.1469 97.3633 29.6182 100.892 29.6182 105.245H45.3816C45.3816 100.892 41.853 97.3633 37.4997 97.3633Z" fill="#ABD2DB"/>
<path d="M166.605 6.70418C166.605 8.47494 165.17 9.91031 163.399 9.91031C161.628 9.91031 160.193 8.47494 160.193 6.70418C160.193 4.93342 161.628 3.49805 163.399 3.49805C165.17 3.49805 166.605 4.93342 166.605 6.70418Z" fill="#455A64"/>
<path d="M175.497 14.2061C175.497 15.9769 174.062 17.4123 172.291 17.4123C170.521 17.4123 169.085 15.9769 169.085 14.2061C169.085 12.4354 170.521 11 172.291 11C174.062 11 175.497 12.4354 175.497 14.2061Z" fill="#455A64"/>
<path d="M166.654 21.8546C166.654 23.6253 165.219 25.0607 163.448 25.0607C161.678 25.0607 160.242 23.6253 160.242 21.8546C160.242 20.0838 161.678 18.6484 163.448 18.6484C165.219 18.6484 166.654 20.0843 166.654 21.8546Z" fill="#455A64"/>
<path d="M163.399 6.70508L172.291 14.2066L163.448 21.8568" stroke="#455A64" stroke-miterlimit="10"/>
<path d="M221.909 81.8896C220.525 79.3599 218.23 78.9666 216.687 79.543C215.01 80.1697 214.139 81.8896 214.139 81.8896C214.139 81.8896 213.269 80.1697 211.592 79.543C210.049 78.9666 207.754 79.3599 206.369 81.8896C203.48 87.1691 214.139 94.0429 214.139 94.0429C214.139 94.0429 224.799 87.1691 221.909 81.8896Z" fill="#ABD2DB"/>
<path d="M209.304 106.507C208.318 104.705 206.682 104.425 205.583 104.836C204.388 105.282 203.768 106.507 203.768 106.507C203.768 106.507 203.147 105.282 201.953 104.836C200.854 104.425 199.218 104.705 198.232 106.507C196.174 110.269 203.768 115.166 203.768 115.166C203.768 115.166 211.362 110.269 209.304 106.507Z" fill="#ABD2DB"/>
<path d="M217.629 19.123H183.433C179.24 19.123 175.841 22.522 175.841 26.7148V47.4418C175.841 51.6346 179.24 55.0336 183.433 55.0336H194.002L199.927 63.5058C200.737 64.6638 202.461 64.635 203.232 63.451L208.711 55.0341H217.629C221.822 55.0341 225.221 51.6351 225.221 47.4423V26.7148C225.221 22.522 221.822 19.123 217.629 19.123Z" fill="white"/>
<path d="M217.629 19.1239C217.629 19.1239 217.715 19.1214 217.885 19.1265C218.054 19.1419 218.31 19.1173 218.639 19.1778C219.296 19.2511 220.294 19.4527 221.416 20.0947C222.523 20.726 223.79 21.8152 224.573 23.5188C224.964 24.3613 225.229 25.3439 225.273 26.408C225.307 27.468 225.288 28.5844 225.297 29.7664C225.305 34.4931 225.314 40.1976 225.325 46.6822C225.338 47.4868 225.318 48.3345 225.13 49.1596C224.954 49.9883 224.612 50.7919 224.151 51.5278C223.229 52.9981 221.77 54.2088 220.018 54.7683C219.149 55.0581 218.21 55.1586 217.284 55.1529C216.361 55.1534 215.428 55.1545 214.485 55.155C212.598 55.1565 210.673 55.1575 208.711 55.1591L208.815 55.1027C207.793 56.675 206.747 58.2837 205.679 59.9257C205.146 60.7467 204.607 61.5754 204.063 62.4118C203.784 62.8313 203.533 63.2477 203.227 63.6749C202.902 64.1021 202.398 64.3867 201.864 64.4652C201.33 64.5385 200.762 64.4123 200.321 64.0867C200.095 63.9349 199.913 63.7139 199.764 63.5016L199.321 62.8693C198.73 62.0242 198.134 61.1734 197.534 60.3165C196.335 58.6026 195.12 56.8657 193.892 55.1109L194.002 55.1678C192.165 55.1678 190.201 55.1678 188.221 55.1683C186.779 55.1683 185.345 55.1683 183.921 55.1683C183.213 55.1837 182.477 55.1324 181.776 54.9857C181.071 54.8324 180.4 54.5683 179.764 54.2422C178.512 53.5509 177.455 52.5345 176.754 51.3114C176.039 50.0991 175.7 48.6883 175.71 47.313C175.712 41.8735 175.715 36.6264 175.718 31.628C175.719 30.3782 175.72 29.1444 175.72 27.9264C175.724 27.3167 175.707 26.7167 175.752 26.1039C175.764 25.7988 175.835 25.5008 175.873 25.2013C175.945 24.908 176.012 24.6126 176.105 24.327C176.485 23.1854 177.123 22.1542 177.936 21.3193C178.751 20.485 179.751 19.8665 180.809 19.4819C181.071 19.3752 181.343 19.306 181.615 19.2398C181.883 19.1583 182.161 19.1327 182.434 19.088C182.983 19.0162 183.536 19.0157 184.068 19.0183C185.14 19.0198 186.192 19.0209 187.224 19.0224C189.287 19.0255 191.267 19.028 193.158 19.0311C200.713 19.0491 206.828 19.0634 211.063 19.0737C213.171 19.0844 214.81 19.0932 215.931 19.0988C216.482 19.1045 216.904 19.1091 217.197 19.1121C217.483 19.1147 217.629 19.1239 217.629 19.1239C217.629 19.1239 217.483 19.1332 217.198 19.1378C216.905 19.1409 216.483 19.1455 215.932 19.1511C214.811 19.1568 213.172 19.1655 211.064 19.1762C206.829 19.1865 200.714 19.2009 193.159 19.2188C191.268 19.2214 189.288 19.2244 187.225 19.2275C186.193 19.2291 185.141 19.2301 184.069 19.2316C183.53 19.2306 182.996 19.2327 182.463 19.3034C182.198 19.348 181.927 19.3727 181.667 19.4527C181.403 19.5173 181.139 19.585 180.885 19.6896C179.859 20.065 178.889 20.6675 178.1 21.4788C177.312 22.2906 176.695 23.2921 176.329 24.3988C176.239 24.6757 176.175 24.9618 176.105 25.2465C176.069 25.5372 176 25.8259 175.99 26.1218C175.947 26.708 175.964 27.3182 175.961 27.9259C175.962 29.1439 175.963 30.3777 175.964 31.6274C175.966 36.6259 175.969 41.873 175.971 47.3125C175.963 48.6509 176.291 50.0063 176.982 51.1786C177.659 52.3596 178.682 53.3411 179.89 54.0083C180.504 54.3227 181.152 54.5775 181.832 54.7257C182.517 54.8668 183.204 54.9165 183.921 54.9022C185.345 54.9022 186.779 54.9022 188.221 54.9022C190.201 54.9022 192.165 54.9027 194.002 54.9027H194.071L194.111 54.9596C195.338 56.715 196.553 58.4524 197.751 60.1667C198.35 61.0242 198.946 61.8754 199.536 62.7206L199.978 63.3534C200.124 63.559 200.273 63.7406 200.474 63.877C200.86 64.1621 201.357 64.2729 201.828 64.2093C202.297 64.1395 202.737 63.8923 203.023 63.517C203.303 63.1267 203.573 62.6842 203.846 62.2729C204.391 61.437 204.931 60.6083 205.465 59.7883C206.534 58.1478 207.582 56.5396 208.606 54.9688L208.643 54.9119H208.711C210.673 54.9134 212.598 54.9145 214.485 54.916C215.428 54.9165 216.361 54.9175 217.284 54.918C218.202 54.9242 219.098 54.8293 219.947 54.5498C221.646 54.0109 223.064 52.8381 223.963 51.4119C224.414 50.6981 224.747 49.9186 224.92 49.1135C225.104 48.3083 225.127 47.4991 225.116 46.6837C225.127 40.1992 225.137 34.4946 225.145 29.768C225.141 28.5885 225.165 27.4639 225.138 26.4152C225.1 25.3695 224.846 24.4018 224.466 23.5701C223.706 21.888 222.465 20.8029 221.375 20.167C220.273 19.5203 219.286 19.3065 218.633 19.2209C218.307 19.1537 218.052 19.1716 217.884 19.1491C217.716 19.1352 217.629 19.1239 217.629 19.1239Z" fill="#263238"/>
<path d="M201.505 30.1543V44.3209L211.646 37.2378L201.505 30.1543Z" fill="#FFB54A"/>
<path d="M187.936 45.4394C187.936 45.4394 188.607 35.3738 196.659 35.2246H201.804V39.5492L196.734 39.6236C196.734 39.6236 191.426 39.5 187.936 45.4394Z" fill="#FFB54A"/>
<path d="M15.3153 69.0551H85.8656C89.8323 69.0551 93.0476 65.8397 93.0476 61.8731V7.29138C93.0476 3.32474 89.8323 0.109375 85.8656 0.109375H15.3153C11.3487 0.109375 8.13281 3.32474 8.13281 7.29138V61.8731C8.13281 65.8397 11.3487 69.0551 15.3153 69.0551Z" fill="white"/>
<path d="M47.1788 66.9453C46.3076 69.0561 29.4646 84.8852 29.4646 84.8852V66.9453H47.1788Z" fill="#455A64"/>
<path d="M67.7774 30.3672C67.8204 26.7709 68.3871 23.1868 68.2491 19.5924C68.1112 15.9986 67.1651 12.2551 64.6579 9.67712C62.1502 7.09919 57.7959 6.1151 54.8621 8.19559L54.26 11.2561C55.4149 25.1237 56.5697 38.9908 57.7246 52.8579C57.8764 54.6794 58.0425 56.5537 58.8707 58.1829C59.6989 59.8122 61.3615 61.1573 63.1861 61.045C65.5733 60.8983 67.1399 58.4783 67.882 56.2045C70.5732 47.963 67.6733 39.0364 67.7774 30.3672Z" fill="#263238"/>
<path d="M59.1282 11.7206C58.6057 10.8319 58.0682 9.92936 57.3 9.24218C56.5313 8.55501 55.4816 8.10424 54.4688 8.29655C53.9918 8.38732 53.5072 8.65809 53.3467 9.11603C53.1867 9.57398 53.5288 10.1858 54.0129 10.1463L54.116 10.2345C55.1929 11.1873 56.2882 12.1181 57.4021 13.0273C57.6826 13.256 57.9734 13.4888 58.3195 13.595C58.6657 13.7011 59.0841 13.6519 59.3246 13.3811C59.7215 12.9334 59.4313 12.2365 59.1282 11.7206Z" fill="#65ADE0"/>
<path d="M61.1599 15.2493C57.5759 10.8688 52.7626 8.34681 47.1036 8.25296C43.9108 8.20014 42.5893 8.86373 40.2903 9.48423C37.9909 10.1047 35.9165 11.3381 34.5447 13.2852C32.9155 15.5975 31.5468 18.1873 31.2391 20.999C30.9227 23.8872 30.6058 26.7954 30.8237 29.6928C31.0417 32.5902 31.8283 35.5082 33.5345 37.8605L40.9067 39.1415C44.9785 39.2804 49.1062 39.4138 53.0728 38.4851C57.0394 37.5564 60.8938 35.422 63.0179 31.9456C65.9696 27.1154 64.744 19.6303 61.1599 15.2493Z" fill="#263238"/>
<path d="M40.878 52.2343C40.9272 49.6472 41.0144 46.4041 41.0144 46.4159C41.0144 46.4159 35.0027 45.7539 33.3422 38.0488C32.516 34.217 32.3627 27.8689 32.4047 22.6704C32.4427 17.991 36.4273 11.6198 42.2047 11.5992L44.7723 11.3008L54.601 15.2074C56.0205 15.2792 57.1492 16.4254 57.1989 17.8464L57.5702 51.7277L51.2723 62.2461L40.0042 53.5164L40.878 52.2343Z" fill="#FEC29E"/>
<path d="M44.8992 36.2411C44.8459 35.835 44.6202 35.476 44.332 35.2293C43.7561 34.736 42.9146 34.6883 42.2987 35.1134C41.6823 35.5385 41.3295 36.4108 41.4459 37.2211C41.7915 37.6965 42.3208 38.0175 42.9064 38.0683C42.9977 38.0765 43.089 38.0796 43.1808 38.077C43.6249 38.0657 44.0766 37.9155 44.4161 37.5878C44.7551 37.2606 44.9654 36.7421 44.8992 36.2411Z" fill="#ED7669"/>
<path d="M35.5043 28.6878C35.5146 29.2155 35.97 29.6416 36.5207 29.6406C37.0705 29.6401 37.5089 29.2129 37.4992 28.6858C37.4889 28.1586 37.0335 27.7314 36.4838 27.7324C35.9325 27.7329 35.4941 28.1606 35.5043 28.6878Z" fill="#263238"/>
<path d="M34.1687 25.2646C34.2995 25.3877 35.0241 24.7877 36.0969 24.7313C37.1677 24.66 37.9851 25.1687 38.0943 25.0308C38.1482 24.9698 38.0092 24.7421 37.6533 24.5108C37.302 24.281 36.7133 24.0708 36.0451 24.1103C35.3774 24.1508 34.8287 24.4277 34.5195 24.6969C34.2036 24.9687 34.1051 25.2098 34.1687 25.2646Z" fill="#263238"/>
<path d="M41.0586 33.6735C41.0602 33.6124 40.3874 33.534 39.2992 33.455C39.0238 33.4417 38.7617 33.4017 38.7048 33.2171C38.6294 33.0227 38.7279 32.7212 38.8433 32.395C39.0643 31.7181 39.2961 31.0084 39.5386 30.2648C40.5002 27.2335 41.1807 24.7469 41.0586 24.7094C40.9361 24.6715 40.0571 27.0981 39.0951 30.1294C38.8648 30.8766 38.6438 31.5889 38.4345 32.2699C38.3479 32.5868 38.1889 32.9499 38.3515 33.353C38.4366 33.5535 38.6458 33.6909 38.8238 33.7288C39.0022 33.773 39.1566 33.7673 39.2925 33.7678C40.3833 33.7668 41.0581 33.7345 41.0586 33.6735Z" fill="#263238"/>
<path d="M41.0121 46.4009C41.0121 46.4009 46.2593 46.4512 51.269 43.0527C51.269 43.0527 48.7916 48.5927 40.9727 48.2922L41.0121 46.4009Z" fill="#BF6358"/>
<path d="M44.2563 34.2445C44.0814 34.244 44.143 35.408 43.1917 36.2896C42.243 37.1732 40.9943 37.1106 40.9943 37.2737C40.982 37.3475 41.283 37.485 41.8076 37.4701C42.3225 37.4593 43.064 37.2532 43.6455 36.7142C44.226 36.1742 44.4501 35.4834 44.4635 35.0034C44.4814 34.5147 44.3358 34.2332 44.2563 34.2445Z" fill="#263238"/>
<path d="M34.5314 21.5071C34.7263 21.7589 35.5381 21.5389 36.5017 21.5661C37.4663 21.5625 38.275 21.802 38.4729 21.5548C38.5606 21.4343 38.4417 21.1851 38.0945 20.9394C37.7524 20.6953 37.1724 20.4835 36.5094 20.4748C35.8468 20.4676 35.2637 20.6645 34.9186 20.901C34.5678 21.1379 34.4458 21.3845 34.5314 21.5071Z" fill="#263238"/>
<path d="M47.7107 28.3872C47.7384 28.9144 47.3154 29.3718 46.7656 29.4108C46.2174 29.4498 45.7487 29.0559 45.721 28.5288C45.6933 28.0021 46.1164 27.5436 46.6646 27.5047C47.2143 27.4652 47.683 27.8606 47.7107 28.3872Z" fill="#263238"/>
<path d="M48.6834 24.8422C48.5618 24.9746 47.7962 24.4284 46.7218 24.4494C45.6485 24.4556 44.8701 25.0222 44.7511 24.8925C44.6926 24.8351 44.8152 24.5981 45.1536 24.3423C45.4875 24.0879 46.0593 23.8356 46.7285 23.8264C47.3977 23.8187 47.9649 24.0551 48.2926 24.3012C48.6269 24.5494 48.7434 24.7828 48.6834 24.8422Z" fill="#263238"/>
<path d="M48.036 21.4013C47.8288 21.6485 46.9955 21.4105 45.9991 21.4156C45.0027 21.39 44.1617 21.6115 43.9632 21.3597C43.8755 21.2372 44.0047 20.9905 44.3694 20.7531C44.7288 20.5167 45.3329 20.3182 46.0181 20.3244C46.7032 20.3321 47.3001 20.5423 47.6509 20.7864C48.0073 21.031 48.1273 21.2808 48.036 21.4013Z" fill="#263238"/>
<path d="M55.8619 30.8965C55.8317 30.3176 56.4255 28.916 56.9922 28.7955C58.5055 28.474 61.264 28.4453 61.5024 32.3206C61.8281 37.618 56.4425 36.8524 56.4235 36.7011C56.4091 36.5832 55.9671 32.8955 55.8619 30.8965Z" fill="#FEC29E"/>
<path d="M57.7665 34.6946C57.7885 34.6761 57.8629 34.7535 58.0229 34.8156C58.1793 34.8756 58.4439 34.9079 58.7137 34.7874C59.2608 34.5474 59.6772 33.63 59.6439 32.6735C59.628 32.1905 59.4988 31.7377 59.3044 31.3679C59.1188 30.9905 58.8516 30.7351 58.5665 30.7028C58.2824 30.6551 58.0931 30.8361 58.0373 30.9889C57.9752 31.1418 58.0157 31.2454 57.988 31.2561C57.9742 31.2705 57.869 31.1746 57.8983 30.9536C57.9137 30.8469 57.968 30.7177 58.0865 30.6084C58.207 30.4977 58.3906 30.433 58.5885 30.4423C58.9988 30.4459 59.3895 30.7987 59.6029 31.2043C59.8388 31.6105 59.9952 32.1187 60.0136 32.6612C60.0454 33.731 59.5603 34.7633 58.808 35.032C58.4413 35.152 58.1234 35.0587 57.9552 34.9438C57.7839 34.8222 57.749 34.7048 57.7665 34.6946Z" fill="#8A4A43"/>
<path d="M57.2104 28.8202L55.8643 30.2161C50.052 24.6525 38.6931 10.7229 39.327 11.5526C39.327 11.5526 43.309 9.91519 47.6305 10.6511C51.9525 11.3875 60.1499 13.5506 60.0243 18.648C59.8986 23.7459 57.2104 28.8202 57.2104 28.8202Z" fill="#263238"/>
<path d="M64.9076 27.6485C64.9163 27.6455 64.8886 27.5409 64.8266 27.3419C64.763 27.1439 64.6497 26.8573 64.465 26.5065C64.0968 25.8091 63.3922 24.865 62.2512 24.0152C61.1271 23.1424 59.5687 22.4301 57.7938 21.8711C56.022 21.2937 54.0241 20.846 52.0636 20.004C50.0898 19.1937 48.3303 18.1486 46.8298 17.0727C45.3339 15.9855 44.099 14.8579 43.136 13.8435C42.1724 12.8281 41.4719 11.9338 40.9996 11.3087C40.7826 11.0107 40.6067 10.7687 40.4683 10.5784C40.3452 10.4122 40.277 10.3271 40.2688 10.3322C40.2611 10.3374 40.3139 10.4323 40.4226 10.6087C40.5334 10.7835 40.6898 11.0466 40.9139 11.3702C41.3616 12.0174 42.0431 12.9348 42.996 13.9748C43.9483 15.0132 45.1806 16.1666 46.6831 17.2753C48.1898 18.3727 49.9646 19.4358 51.96 20.2553C53.9461 21.1076 55.9579 21.5501 57.7189 22.1101C59.4866 22.6532 61.0205 23.3337 62.1379 24.1701C63.2717 24.9845 63.983 25.8886 64.3738 26.5588C64.762 27.2352 64.8804 27.6588 64.9076 27.6485Z" fill="#455A64"/>
<path d="M63.3657 28.4799C63.3657 28.4799 63.419 28.046 63.16 27.3219C62.9128 26.6035 62.2862 25.6276 61.1693 24.8276C60.0631 24.0014 58.4842 23.4912 56.7488 23.0948C55.0062 22.7102 53.115 22.2184 51.2555 21.3517C49.3991 20.4917 47.7329 19.4502 46.3581 18.3287C44.9755 17.2153 43.8602 16.06 43.0007 15.0287C42.1299 14.0036 41.5468 13.081 41.1289 12.4554C40.9468 12.1538 40.7981 11.9087 40.6797 11.7133C40.5745 11.5451 40.5151 11.4585 40.5068 11.4631C40.4986 11.4672 40.5417 11.5626 40.632 11.74C40.7386 11.9426 40.8735 12.1974 41.0386 12.5102C41.4309 13.1554 41.9935 14.1005 42.8525 15.1502C43.7002 16.2056 44.8125 17.3871 46.2012 18.523C47.5822 19.6671 49.2642 20.7286 51.1432 21.5989C53.0211 22.4753 54.9544 22.9697 56.6929 23.3389C58.4257 23.7204 59.9718 24.203 61.059 24.9845C62.1595 25.7435 62.7913 26.6717 63.0621 27.3599C63.3441 28.0532 63.3298 28.486 63.3657 28.4799Z" fill="#455A64"/>
<path d="M57.035 37.7869C57.0298 37.751 57.4837 37.6926 58.2683 37.4874C59.0478 37.27 60.1519 36.7931 61.2329 35.8305C62.3267 34.8823 63.2995 33.4059 63.9867 31.6167C64.6708 29.826 65.0826 27.7219 65.1354 25.505C65.158 24.3978 65.0728 23.3178 64.8795 22.2922C64.6728 21.2696 64.3672 20.3076 64.0011 19.4214C63.2436 17.6563 62.237 16.2209 61.2565 15.1476C59.2847 12.9912 57.6416 12.122 57.7006 12.0481C57.7067 12.0379 57.8078 12.0907 57.9939 12.2004C58.177 12.3153 58.4601 12.4671 58.7939 12.7076C59.4744 13.1691 60.4221 13.9066 61.438 14.9804C62.4565 16.0486 63.5057 17.4963 64.2964 19.2942C64.679 20.1968 64.999 21.1793 65.2149 22.226C65.4175 23.2747 65.5072 24.3829 65.4841 25.5132C65.4298 27.769 65.0016 29.909 64.2862 31.7331C63.5677 33.5552 62.5447 35.0613 61.3954 36.0157C60.259 36.9849 59.1057 37.4382 58.3026 37.6187C57.9042 37.729 57.577 37.7321 57.3647 37.768C57.1493 37.7921 57.036 37.7987 57.035 37.7869Z" fill="#455A64"/>
<path d="M23.9835 60.7308L24.1163 60.5626C29.9527 54.3867 40.6952 52.3185 40.6952 52.3185C40.6952 52.3185 41.3521 56.3621 47.3741 56.8134C53.3961 57.2652 57.8197 51.1309 57.8197 51.1309L65.854 52.256C65.854 52.256 69.898 52.7329 72.416 54.2139C78.0867 57.5498 81.0964 69.0548 81.0964 69.0548L19.1394 69.3041L23.9835 60.7308Z" fill="#455A64"/>
<path d="M18.3178 0.109865C18.3178 0.109865 18.1716 0.124224 17.885 0.14166C17.7404 0.150378 17.5619 0.161147 17.3501 0.173455C17.1378 0.192942 16.8937 0.242172 16.6152 0.283198C15.5224 0.48576 13.8404 0.924732 12.1199 2.27447C11.2671 2.94164 10.4117 3.82471 9.71169 4.95752C9.01272 6.08623 8.47478 7.46828 8.27837 9.02262C8.18247 9.79852 8.18862 10.6134 8.19426 11.459C8.1958 12.3036 8.19683 13.1764 8.19837 14.0769C8.20093 15.878 8.2035 17.7903 8.20657 19.8087C8.21426 27.8825 8.22401 37.6506 8.23478 48.7911C8.23683 51.5767 8.23837 54.4474 8.24093 57.3992C8.24503 58.1361 8.22606 58.8838 8.28042 59.6192C8.32709 60.3582 8.4799 61.0905 8.68298 61.812C9.11887 63.2474 9.90451 64.591 10.9471 65.7181C11.4604 66.2915 12.0681 66.7766 12.6999 67.2289C13.3578 67.6417 14.0424 68.0304 14.786 68.2904L15.3414 68.492L15.9152 68.6391C16.2947 68.755 16.6916 68.7909 17.0839 68.8561C17.4768 68.9176 17.8788 68.9073 18.2773 68.9366C18.6819 68.9371 19.0875 68.9376 19.4942 68.9381C22.749 68.9366 26.0747 68.9356 29.4659 68.934H29.5875V69.0556C29.589 74.0571 29.591 79.4037 29.5926 84.8847L29.3787 84.7924C31.9982 82.3216 34.6679 79.7673 37.3643 77.1401C40.0505 74.5047 42.8007 71.8258 45.4217 68.9668L45.4617 68.9232H45.5197C53.9391 68.9227 62.7288 68.9222 71.6949 68.9212C74.3923 68.9212 77.0743 68.9212 79.7379 68.9212C80.404 68.9212 81.0686 68.9212 81.7327 68.9212C82.3979 68.9263 83.0599 68.9238 83.7086 68.8786C85.0096 68.7699 86.283 68.4058 87.4363 67.814C89.7501 66.6386 91.5506 64.5453 92.3681 62.1253C92.7932 60.9146 92.9291 59.6433 92.9183 58.3659C92.9183 57.0828 92.9188 55.8054 92.9188 54.5336C92.9214 44.3593 92.9239 34.5455 92.9265 25.1964C92.9286 20.522 92.9301 15.9636 92.9322 11.5349C92.9363 10.4242 92.9429 9.33493 92.7306 8.27391C92.5034 7.21905 92.1178 6.20982 91.5942 5.28624C91.0788 4.3565 90.3906 3.53856 89.6194 2.83703C88.8455 2.13806 87.9794 1.54268 87.0363 1.1314C86.0984 0.719605 85.1148 0.407299 84.1076 0.301659C83.1076 0.187301 82.0917 0.22012 81.0886 0.214991C79.083 0.213453 77.1148 0.212428 75.1851 0.210889C71.3261 0.207812 67.6226 0.205249 64.0877 0.202172C49.9504 0.184224 38.51 0.169865 30.5987 0.159608C26.648 0.148839 23.5793 0.140121 21.4937 0.13448C20.4557 0.128839 19.6634 0.124223 19.126 0.121147C18.5911 0.119095 18.3178 0.109865 18.3178 0.109865C18.3178 0.109865 18.5911 0.100634 19.1244 0.0960187C19.6619 0.0929418 20.4542 0.0883259 21.4921 0.0826849C23.5777 0.0770439 26.6459 0.0683262 30.5972 0.057557C38.5084 0.0473007 49.9488 0.0329417 64.0862 0.0149931C67.621 0.012429 71.3246 0.00935298 75.1836 0.00627608C77.1133 0.00473763 79.0815 0.00371229 81.0871 0.00217384C82.0881 0.00627638 83.103 -0.029622 84.1327 0.0862746C85.1614 0.193453 86.1671 0.510374 87.1265 0.930884C88.0906 1.35088 88.9773 1.95754 89.7691 2.67139C90.5583 3.38779 91.2624 4.22317 91.7906 5.17342C92.327 6.117 92.7229 7.1493 92.9557 8.22878C93.1742 9.3139 93.1681 10.4354 93.165 11.5359C93.167 15.9646 93.1686 20.5231 93.1706 25.1974C93.1732 34.5466 93.1757 44.3603 93.1783 54.5346C93.1783 55.8064 93.1788 57.0838 93.1788 58.3669C93.1916 59.6515 93.0516 60.9751 92.6157 62.212C91.7773 64.6961 89.9301 66.8443 87.5553 68.0515C86.3717 68.6586 85.064 69.033 83.7286 69.1448C83.0563 69.1915 82.3932 69.1935 81.7307 69.1884C81.0671 69.1884 80.402 69.1884 79.7358 69.1884C77.0717 69.1884 74.3902 69.1884 71.6928 69.1884C62.7267 69.1879 53.937 69.1868 45.5176 69.1863L45.615 69.1427C42.9827 72.0119 40.233 74.6883 37.5433 77.3247C34.8443 79.9519 32.1731 82.5052 29.5505 84.976L29.3367 85.1775V84.8837C29.3387 79.4027 29.3403 74.056 29.3418 69.0545L29.4634 69.1761C26.0721 69.1745 22.7465 69.173 19.4916 69.172C19.0844 69.1709 18.6788 69.1699 18.2737 69.1694C17.866 69.1397 17.4552 69.1489 17.0532 69.0858C16.6522 69.0191 16.246 68.9812 15.8578 68.8627L15.2706 68.7115L14.7024 68.5053C13.9419 68.2381 13.2419 67.8407 12.5701 67.4171C11.9245 66.954 11.304 66.4576 10.7799 65.871C9.71528 64.7176 8.91426 63.3433 8.47016 61.8761C8.2635 61.1387 8.10862 60.39 8.06145 59.6351C8.00709 58.8772 8.0276 58.1377 8.02452 57.3992C8.02657 54.4474 8.02862 51.5762 8.03016 48.7911C8.04093 37.6506 8.05068 27.8825 8.05837 19.8087C8.06144 17.7908 8.06401 15.8785 8.06657 14.0769C8.06811 13.1764 8.06914 12.3036 8.07068 11.459C8.06811 10.617 8.06401 9.79441 8.16401 9.00827C8.36811 7.43699 8.91734 6.04265 9.6281 4.90624C10.3394 3.76574 11.2071 2.87959 12.0701 2.2119C13.8117 0.862167 15.5075 0.433964 16.6065 0.243197C16.887 0.205248 17.1322 0.159095 17.3455 0.142685C17.5583 0.133967 17.7373 0.126275 17.8824 0.120634C18.1716 0.110378 18.3178 0.109865 18.3178 0.109865Z" fill="#263238"/>
<path d="M149.045 220L85.0615 219.964C77.3662 219.96 71.1303 214.013 71.1318 206.68L71.1631 53.8185C71.1647 46.4811 77.4092 40.535 85.1087 40.5391L149.093 40.575C156.788 40.5796 163.024 46.5262 163.022 53.8595L162.991 206.722C162.989 214.058 156.745 220.004 149.045 220Z" fill="#263238"/>
<path d="M149.026 45.9871L136.62 45.9804C134.957 45.9794 133.608 47.3224 133.608 48.9794L133.607 51.124C133.607 52.7814 132.257 54.1239 130.594 54.1234L106.413 54.1096C104.749 54.1091 103.401 52.7645 103.401 51.107L103.402 48.9624C103.402 47.305 102.053 45.9609 100.39 45.9599L96.0268 45.9573L85.169 45.9512C79.7767 45.9481 75.4034 50.1127 75.4023 55.2511L75.3716 204.455C75.3706 209.591 79.7377 213.756 85.1269 213.759L148.983 213.794C154.375 213.797 158.748 209.633 158.749 204.494L158.78 55.2901C158.782 50.1547 154.415 45.9901 149.026 45.9871Z" fill="white"/>
<path d="M114.95 83.1833C116.729 83.0484 118.271 81.4274 118.316 79.6438C118.361 77.8597 116.903 76.1633 115.133 75.9392C116.004 74.6218 115.926 72.75 114.95 71.509C113.975 70.268 112.174 69.7516 110.688 70.287C110.332 68.7695 109.136 67.4773 107.651 67.0039C106.166 66.5306 104.444 66.8926 103.275 67.9239C101.306 66.7978 98.569 67.2649 97.0865 68.9808C95.547 68.9906 94.0773 70.0931 93.6362 71.568C93.1952 73.0429 93.8188 74.771 95.0998 75.6244" fill="#263238"/>
<path d="M115.566 83.5847C113.429 75.8212 105.689 71.0012 97.7788 72.5074L96.9927 72.6571C88.6122 74.7658 85.7204 83.0611 88.0599 91.3801L93.9255 121.586L111.191 134.912L115.66 123.787L113.901 113.734C113.901 113.734 121.807 110.916 120.357 102.751C119.656 98.8082 117.553 90.8052 115.566 83.5847Z" fill="#FEC29E"/>
<path d="M113.966 113.709C113.966 113.709 108.823 115.012 102.698 112.617C102.698 112.617 106.228 118.181 114.217 115.9L113.966 113.709Z" fill="#7C4236"/>
<path d="M114.839 91.4C114.978 92.0102 114.576 92.6308 113.941 92.7872C113.308 92.9431 112.681 92.5769 112.542 91.9667C112.404 91.3564 112.806 90.7354 113.439 90.579C114.074 90.4226 114.701 90.7903 114.839 91.4Z" fill="#263238"/>
<path d="M114.574 87.9063C114.459 88.0853 113.453 87.6007 112.202 87.8428C110.949 88.0663 110.153 88.8853 109.988 88.7576C109.908 88.7022 110.003 88.4002 110.348 88.033C110.686 87.6679 111.304 87.2581 112.085 87.113C112.865 86.9694 113.576 87.131 114.009 87.353C114.45 87.5751 114.632 87.8248 114.574 87.9063Z" fill="#263238"/>
<path d="M103.483 93.8048C103.621 94.4151 103.219 95.0351 102.584 95.1915C101.951 95.3479 101.324 94.9812 101.185 94.371C101.047 93.7612 101.45 93.1397 102.082 92.9833C102.717 92.8269 103.344 93.1946 103.483 93.8048Z" fill="#263238"/>
<path d="M102.314 90.4817C102.198 90.6607 101.192 90.1771 99.9413 90.4186C98.6885 90.6422 97.8921 91.4607 97.727 91.3335C97.6475 91.2786 97.7408 90.9771 98.087 90.6094C98.4254 90.2443 99.0429 89.8345 99.8234 89.6894C100.604 89.5453 101.315 89.7074 101.747 89.9294C102.187 90.1509 102.371 90.4007 102.314 90.4817Z" fill="#263238"/>
<path d="M108.624 98.8994C108.605 98.8291 109.357 98.5466 110.587 98.1455C110.901 98.0517 111.191 97.9307 111.204 97.702C111.235 97.4568 111.036 97.1379 110.81 96.7948C110.362 96.0789 109.893 95.3276 109.401 94.5404C107.428 91.3251 105.936 88.6564 106.066 88.5779C106.196 88.5 107.901 91.0425 109.873 94.2584C110.351 95.0527 110.809 95.8097 111.245 96.5343C111.434 96.8748 111.721 97.2471 111.649 97.7573C111.609 98.0127 111.407 98.2307 111.213 98.325C111.02 98.4266 110.841 98.464 110.684 98.5035C109.428 98.8137 108.643 98.9691 108.624 98.8994Z" fill="#263238"/>
<path d="M101.882 86.1471C101.777 86.4958 100.639 86.3563 99.3101 86.565C97.9768 86.744 96.9111 87.2045 96.7275 86.8973C96.6455 86.7502 96.826 86.4204 97.2532 86.0758C97.6768 85.7317 98.3573 85.3989 99.1557 85.282C99.9537 85.1666 100.69 85.2932 101.18 85.5045C101.674 85.7148 101.926 85.9814 101.882 86.1471Z" fill="#263238"/>
<path d="M113.882 83.4451C113.672 83.7795 112.583 83.681 111.338 83.9036C110.086 84.0897 109.08 84.5313 108.781 84.28C108.647 84.1559 108.759 83.8395 109.167 83.4826C109.569 83.1282 110.285 82.7646 111.143 82.6236C112.001 82.4836 112.79 82.6005 113.278 82.8092C113.772 83.019 113.972 83.2841 113.882 83.4451Z" fill="#263238"/>
<path d="M90.8783 99.0599C90.5876 97.8122 89.3153 97.026 88.0855 97.3835C86.5937 97.8168 85.0676 99.0014 85.7655 102.122C87.0035 107.657 92.3055 105.272 92.2793 105.111C92.2619 105.002 91.4173 101.371 90.8783 99.0599Z" fill="#FEC29E"/>
<path d="M90.6091 103.299C90.5809 103.287 90.5276 103.388 90.3814 103.5C90.2389 103.608 89.9768 103.719 89.664 103.676C89.0312 103.592 88.3312 102.774 88.0815 101.782C87.9548 101.281 87.9527 100.778 88.0425 100.341C88.1209 99.8977 88.3194 99.5567 88.602 99.4388C88.8799 99.3054 89.1276 99.4346 89.2302 99.5757C89.3389 99.7141 89.3286 99.8321 89.3599 99.8352C89.3784 99.8454 89.4579 99.7157 89.3625 99.4972C89.3148 99.3926 89.2209 99.2762 89.0671 99.1993C88.9102 99.1208 88.7025 99.1095 88.5025 99.1777C88.082 99.3023 87.7861 99.7813 87.6871 100.261C87.5651 100.748 87.5553 101.316 87.6979 101.878C87.983 102.986 88.7871 103.902 89.6394 103.954C90.0517 103.968 90.3502 103.779 90.4886 103.611C90.6291 103.436 90.6307 103.305 90.6091 103.299Z" fill="#7C4236"/>
<path d="M108.732 72.8809C108.655 72.7517 108.563 72.6291 108.462 72.5209C107.689 71.6979 106.505 71.3363 105.389 71.4692C104.656 71.2553 103.945 71.1071 103.281 71.021C102.25 69.8497 100.669 69.1569 99.1078 69.2871C97.336 69.4343 95.7099 70.6271 94.9806 72.242C94.7586 72.3179 94.5375 72.3999 94.3165 72.484C93.0129 71.8712 91.4442 71.8327 90.1227 72.4107C88.6402 73.0589 87.512 74.4609 87.1945 76.0476C85.772 75.9491 84.3274 76.7671 83.6802 78.0373C83.033 79.3076 83.2202 80.9573 84.1356 82.0501C83.2433 82.8127 82.5756 83.9706 82.7746 85.127C82.9617 86.2152 84.1576 87.0911 85.1776 86.7639C85.4889 89.4695 86.3745 92.5582 87.0417 95.3023C87.512 97.2346 90.2155 97.9203 90.6376 99.212C92.7919 105.804 94.2899 101.648 92.4755 87.4988C92.5955 87.3639 92.715 87.2208 92.8355 87.0629C93.0776 86.7439 93.0832 86.3957 93.2811 86.0475C93.517 85.6321 94.0996 85.6373 94.5755 85.5983C96.2273 85.4619 97.6673 84.0009 97.7801 82.3475C98.3109 82.887 99.2693 82.6768 99.8175 82.1552C100.366 81.6332 100.643 80.8973 101.025 80.244C101.408 79.5906 101.999 78.9594 102.755 78.924C103.177 78.904 103.61 79.0758 104.017 78.9604C104.736 78.7563 104.93 77.8317 104.903 77.085C104.88 76.4558 104.827 75.7466 105.135 75.2317C105.543 74.9394 105.976 74.6938 106.473 74.5584C106.756 74.5368 107.048 74.5399 107.325 74.5281C107.454 74.523 107.588 74.5035 107.722 74.4768C107.895 74.4994 108.075 74.5332 108.266 74.584C110.952 75.306 114.072 79.9983 114.072 79.9983C113.628 76.7337 111.358 74.3743 108.732 72.8809Z" fill="#263238"/>
<path d="M83.469 82.483C83.4649 82.481 83.4772 82.4502 83.5054 82.3923C83.5357 82.3353 83.5736 82.2461 83.6413 82.14C83.7777 81.9297 84.008 81.6302 84.3906 81.3425C84.7716 81.062 85.3029 80.7784 85.9721 80.6743C86.6316 80.5595 87.4449 80.6251 88.1864 81.0538L88.0449 81.1292C88.0875 79.9897 88.7326 78.7569 89.8172 77.9041C90.3557 77.4754 90.9941 77.1267 91.6987 76.9144C92.4044 76.7026 93.1618 76.6236 93.9274 76.6518C95.4218 76.7133 96.8012 77.1723 97.991 77.6954L97.8371 77.7764C98.1043 76.4154 98.9223 75.321 99.8484 74.6646C100.783 73.9944 101.816 73.7775 102.64 73.7754C103.475 73.7734 104.118 73.9759 104.53 74.1477C104.737 74.2354 104.891 74.3154 104.99 74.3769C105.09 74.4369 105.141 74.4713 105.138 74.4764C105.129 74.4923 104.919 74.3698 104.503 74.2164C104.088 74.0687 103.453 73.8923 102.642 73.9139C101.839 73.9354 100.848 74.1626 99.9587 74.818C99.0756 75.46 98.3017 76.52 98.0551 77.8174L98.0289 77.9538L97.9012 77.8985C96.7243 77.3892 95.369 76.9451 93.9177 76.8856C93.1751 76.858 92.4413 76.9344 91.7649 77.1354C91.0895 77.3369 90.4736 77.6692 89.9546 78.0779C88.9075 78.8928 88.2864 80.0595 88.231 81.1395L88.2228 81.2943L88.089 81.2148C87.4008 80.8051 86.6295 80.7266 85.9941 80.8241C85.3495 80.9102 84.8306 81.1702 84.4521 81.4292C83.6921 81.9733 83.5013 82.5102 83.469 82.483Z" fill="#455A64"/>
<path d="M105.121 74.8614C105.128 74.8639 105.106 74.9439 105.067 75.0952C105.035 75.2491 104.996 75.4778 104.979 75.7788C104.959 76.0798 104.959 76.4506 104.945 76.886C104.917 77.3167 104.924 77.8367 104.659 78.3603C104.523 78.6172 104.266 78.8398 103.956 78.926C103.649 79.0219 103.321 79.0224 102.998 79.0449C102.676 79.068 102.34 79.1121 102.065 79.2936C101.789 79.4767 101.57 79.767 101.373 80.0762C101.177 80.3875 101.003 80.7326 100.812 81.0782C100.627 81.4167 100.467 81.8157 100.147 82.1259C99.8354 82.4321 99.4343 82.6464 99.0041 82.7675C98.7877 82.8275 98.5595 82.8654 98.3215 82.8521C98.0872 82.8429 97.8282 82.7552 97.6487 82.5603L97.8467 82.4885C97.8282 82.8254 97.7749 83.1685 97.6538 83.4982C97.5287 83.8249 97.3513 84.1362 97.1256 84.4152C96.6656 84.9649 96.0323 85.3803 95.3303 85.6069C95.0421 85.7095 94.7421 85.7633 94.4446 85.8085C94.1334 85.8392 93.8631 85.8269 93.6359 85.9633C93.3995 86.0905 93.2446 86.2885 93.1277 86.5505C92.997 86.81 92.8441 87.0541 92.679 87.2864C92.0226 88.2044 91.1206 88.9623 90.0677 89.1736C89.0154 89.3495 88.0113 89.0346 87.2416 88.5505C86.4673 88.0561 85.9165 87.3654 85.6206 86.6623L85.7257 86.7039C85.0421 86.9895 84.3319 86.8823 83.8319 86.6146C83.3196 86.3438 83.0252 85.9126 82.877 85.55C82.7252 85.1813 82.7068 84.868 82.7139 84.6634C82.7196 84.5603 82.7283 84.4823 82.7401 84.431C82.7504 84.3798 82.7575 84.3536 82.7611 84.3541C82.797 84.3475 82.6504 84.8028 82.957 85.5151C83.1119 85.8592 83.4032 86.2592 83.8898 86.5023C84.3652 86.7449 85.036 86.83 85.6616 86.5572L85.735 86.5254L85.7673 86.5992C86.0606 87.2685 86.597 87.9233 87.3426 88.389C88.0806 88.8464 89.0529 89.1341 90.0257 88.9638C90.9959 88.7654 91.8631 88.0418 92.4918 87.1541C92.6498 86.9305 92.7964 86.6946 92.9216 86.4454C93.0318 86.188 93.2421 85.9028 93.5246 85.7592C93.6646 85.6828 93.8195 85.6346 93.9785 85.6146L94.4159 85.5772C94.6985 85.5341 94.9831 85.4828 95.2564 85.3859C95.9221 85.1716 96.5169 84.7792 96.9467 84.2685C97.1564 84.009 97.3215 83.7218 97.4385 83.4198C97.5513 83.1152 97.6015 82.7972 97.6205 82.4834L97.6369 82.2147L97.8185 82.4116C98.079 82.6946 98.56 82.6629 98.9456 82.5562C99.3456 82.4454 99.7149 82.25 99.9979 81.9747C100.283 81.7049 100.439 81.3326 100.632 80.9818C100.826 80.6367 101.002 80.2936 101.209 79.9721C101.416 79.6542 101.647 79.347 101.965 79.1398C102.289 78.9326 102.659 78.8942 102.987 78.8742C103.318 78.8562 103.633 78.8578 103.91 78.7752C104.189 78.7008 104.406 78.5162 104.534 78.2906C104.784 77.8234 104.797 77.3065 104.832 76.8814C104.857 76.4496 104.87 76.0762 104.901 75.7732C104.931 75.4696 104.984 75.2388 105.028 75.086C105.08 74.9337 105.115 74.8593 105.121 74.8614Z" fill="#455A64"/>
<path d="M105.138 101.828C104.907 103.35 105.569 104.841 107.016 105.368C107.517 105.551 108.107 105.513 108.586 105.277C109.171 104.988 109.681 104.566 109.819 103.884C109.949 103.244 110.034 102.588 109.853 101.96C108.527 101.884 106.465 101.905 105.138 101.828Z" fill="#C5573F"/>
<path d="M109.556 104.505C109.563 104.511 109.544 104.547 109.5 104.613C109.458 104.681 109.386 104.774 109.277 104.88C109.064 105.095 108.678 105.355 108.129 105.449C107.589 105.533 106.896 105.466 106.264 105.071C105.642 104.675 105.146 103.958 105.01 103.118C104.977 102.908 104.966 102.698 104.978 102.491C104.998 102.288 105.011 102.073 105.139 101.869C105.202 101.769 105.31 101.68 105.424 101.644C105.538 101.606 105.645 101.604 105.741 101.604C105.925 101.609 106.107 101.614 106.284 101.62C106.99 101.654 107.619 101.725 108.146 101.778C109.2 101.893 109.853 101.924 109.853 101.961C109.854 101.997 109.193 102.033 108.131 101.966C107.601 101.937 106.972 101.886 106.275 101.866C106.1 101.863 105.922 101.861 105.741 101.858C105.56 101.858 105.431 101.888 105.358 102.01C105.278 102.132 105.257 102.32 105.242 102.507C105.233 102.693 105.243 102.884 105.273 103.074C105.397 103.837 105.844 104.497 106.398 104.865C106.956 105.231 107.601 105.317 108.101 105.261C108.611 105.197 108.984 104.983 109.207 104.801C109.438 104.624 109.534 104.487 109.556 104.505Z" fill="#263238"/>
<path d="M140.525 86.8058C140.525 86.8058 147.022 85.9981 156.789 78.2294C166.557 70.4613 171.843 59.4208 172.934 59.5798C174.025 59.7388 179.021 57.9675 186.259 78.6289C193.497 99.2903 189.477 103.551 187.669 103.343C185.861 103.135 173.884 98.5483 166.118 98.6975C158.352 98.8472 148.1 101.921 148.1 101.921L140.525 86.8058Z" fill="#FFB54A"/>
<path d="M128.837 102.241L132.309 101.5L130.431 96.9336L127.495 98.3962L128.837 102.241Z" fill="#455A64"/>
<path d="M129.245 96.8058L130.528 100.663L131.326 102.604C132.421 105.266 135.408 106.605 138.124 105.651L152.213 101.691L146.16 83.8516L132.164 89.7536C129.417 90.9007 128.112 94.052 129.245 96.8058Z" fill="#263238"/>
<path d="M134.295 102.731L139.014 111.099L141.17 110.402L155.899 121.398L159.556 113.438C159.556 113.438 150.986 110.162 149.304 107.225C147.621 104.287 149.393 103.531 149.393 103.531L145.243 99.1934L134.295 102.731Z" fill="#263238"/>
<path d="M185.489 78.9201C189.323 90.1041 190.439 99.8538 187.981 100.696C185.524 101.539 180.424 93.1548 176.589 81.9708C172.755 70.7868 171.639 61.0371 174.096 60.1951C176.554 59.3525 181.654 67.736 185.489 78.9201Z" fill="#263238"/>
<path d="M175.837 75.6064C175.837 75.6064 181.692 72.6977 184.014 80.4561C186.336 88.2145 180.4 88.895 180.4 88.895C178.366 84.9776 176.831 80.5627 175.837 75.6064Z" fill="#FAFAFA"/>
<path d="M170.792 66.1426C170.759 66.1452 170.79 66.66 170.874 67.5908C170.963 68.5205 171.085 69.8692 171.287 71.5303C171.445 72.3538 171.619 73.2533 171.804 74.2174C171.898 74.701 171.996 75.2005 172.097 75.7143C172.147 75.9718 172.199 76.2328 172.25 76.4974C172.309 76.7605 172.393 77.021 172.465 77.2882C172.767 78.3538 173.083 79.4717 173.411 80.6302C173.493 80.9199 173.577 81.2122 173.661 81.5066C173.741 81.8025 173.868 82.0856 173.97 82.3789C174.188 82.962 174.409 83.5532 174.633 84.1517C174.858 84.7502 175.08 85.3409 175.298 85.924C175.413 86.2127 175.504 86.5096 175.637 86.786C175.767 87.0635 175.896 87.3389 176.024 87.6112C176.538 88.7004 177.034 89.7517 177.506 90.7537C177.628 91.0024 177.735 91.2542 177.864 91.4911C177.999 91.7255 178.132 91.9563 178.263 92.184C178.525 92.6388 178.78 93.0804 179.026 93.5075C179.52 94.3573 179.981 95.1501 180.403 95.8762C181.34 97.2578 182.132 98.3521 182.675 99.1111C183.222 99.8675 183.538 100.277 183.565 100.258C183.592 100.24 183.328 99.7952 182.828 99.007C182.309 98.2029 181.579 97.0742 180.683 95.6875C180.28 94.9578 179.839 94.1614 179.367 93.307C179.13 92.8798 178.884 92.4383 178.631 91.984C178.505 91.7568 178.376 91.5265 178.246 91.2932C178.121 91.0568 178.017 90.8045 177.899 90.5563C177.438 89.5573 176.953 88.5091 176.452 87.423C176.326 87.1512 176.199 86.8778 176.071 86.6019C175.94 86.3276 175.851 86.0322 175.737 85.745C175.521 85.1661 175.301 84.5789 175.079 83.9845C174.857 83.3907 174.636 82.8035 174.419 82.225C174.316 81.9343 174.189 81.6533 174.108 81.3599C174.024 81.0676 173.94 80.7779 173.857 80.4907C173.522 79.343 173.199 78.2348 172.89 77.1784C172.816 76.9138 172.729 76.6559 172.668 76.3953C172.613 76.1333 172.559 75.8748 172.505 75.62C172.397 75.1107 172.292 74.6154 172.191 74.1369C171.986 73.1815 171.794 72.2908 171.619 71.4749C171.385 69.8441 171.194 68.5164 171.059 67.5708C170.918 66.6493 170.825 66.14 170.792 66.1426Z" fill="#263238"/>
<path d="M152.213 101.688C152.217 101.706 151.992 101.777 151.579 101.889C151.115 102.01 150.529 102.164 149.832 102.347C148.356 102.728 146.32 103.267 144.077 103.886C141.834 104.505 139.803 105.071 138.321 105.438C137.58 105.622 136.977 105.761 136.56 105.848C136.141 105.934 135.908 105.973 135.904 105.955C135.9 105.937 136.124 105.863 136.534 105.747C136.996 105.616 137.578 105.451 138.272 105.255C139.793 104.823 141.793 104.255 144.006 103.628C146.251 103.008 148.298 102.497 149.787 102.162C150.532 101.995 151.136 101.866 151.556 101.787C151.976 101.707 152.209 101.67 152.213 101.688Z" fill="#455A64"/>
<path d="M143.933 98.7744C143.946 98.8077 143.422 99.0369 142.557 99.3605C141.692 99.6841 140.485 100.097 139.136 100.501C137.786 100.903 136.549 101.219 135.649 101.423C134.749 101.627 134.185 101.722 134.177 101.688C134.168 101.651 134.716 101.49 135.603 101.241C136.489 100.991 137.713 100.647 139.06 100.245C140.405 99.8431 141.618 99.4595 142.496 99.1821C143.374 98.9046 143.92 98.7385 143.933 98.7744Z" fill="#455A64"/>
<path d="M141.696 94.7016C141.717 94.7724 139.771 95.4226 137.35 96.1544C134.928 96.8867 132.948 97.4226 132.927 97.3518C132.905 97.2811 134.851 96.6308 137.273 95.8985C139.694 95.1667 141.674 94.6308 141.696 94.7016Z" fill="#455A64"/>
<path d="M139.512 90.778C139.541 90.8457 137.884 91.636 135.811 92.5436C133.737 93.4513 132.033 94.1323 132.003 94.0647C131.973 93.997 133.63 93.2067 135.704 92.299C137.777 91.3919 139.482 90.7108 139.512 90.778Z" fill="#455A64"/>
<path d="M123.662 134.913L115.104 120.482L92.988 119.568L93.011 121.58C93.011 121.58 86.9357 127.689 84.9788 136.013C83.4973 142.315 89.7311 166.367 91.4849 174.703C93.6418 184.953 96.6331 197.927 96.6331 197.927C96.189 200.224 93.2398 202.083 93.4433 205.15L142.603 204.612L140.077 194.649L123.662 134.913Z" fill="#266999"/>
<path d="M140.714 198.465C140.714 198.539 130.931 198.599 118.867 198.599C106.799 198.599 97.0188 198.539 97.0188 198.465C97.0188 198.392 106.799 198.332 118.867 198.332C130.931 198.332 140.714 198.392 140.714 198.465Z" fill="white"/>
<path d="M137.317 186.135C137.317 186.209 127.623 186.269 115.668 186.269C103.709 186.269 94.0176 186.209 94.0176 186.135C94.0176 186.062 103.709 186.002 115.668 186.002C127.623 186.002 137.317 186.061 137.317 186.135Z" fill="white"/>
<path d="M133.981 172.727C133.981 172.801 124.494 172.86 112.795 172.86C101.091 172.86 91.606 172.8 91.606 172.727C91.606 172.654 101.091 172.594 112.795 172.594C124.494 172.593 133.981 172.653 133.981 172.727Z" fill="white"/>
<path d="M131.648 159.233C131.648 159.307 121.877 159.366 109.825 159.366C97.7702 159.366 88.0005 159.306 88.0005 159.233C88.0005 159.159 97.7702 159.1 109.825 159.1C121.877 159.1 131.648 159.16 131.648 159.233Z" fill="white"/>
<path d="M126.486 142.493C126.486 142.567 117.24 142.626 105.836 142.626C94.4291 142.626 85.1846 142.566 85.1846 142.493C85.1846 142.419 94.4286 142.359 105.836 142.359C117.24 142.359 126.486 142.419 126.486 142.493Z" fill="white"/>
<path d="M119.445 127.163C119.445 127.236 112.616 127.296 104.193 127.296C95.7676 127.296 88.9395 127.236 88.9395 127.163C88.9395 127.089 95.7676 127.029 104.193 127.029C112.616 127.029 119.445 127.089 119.445 127.163Z" fill="white"/>
<path opacity="0.3" d="M91.2483 143.816C91.2483 143.816 94.3775 149.337 99.317 153.436C104.256 157.534 119.284 164.891 119.284 164.891L120.535 162.296L131.747 164.913L129.67 158.014L91.2483 143.816Z" fill="black"/>
<path d="M143.986 125.611L140.077 146.861L106.558 130.926L101.157 149.827C114.329 156.269 140.999 166.994 144.432 166.684C149.312 166.243 152.685 163.328 154.204 156.178C155.145 151.753 154.7 122.074 154.7 122.074L143.986 125.611Z" fill="#FEC29E"/>
<path d="M108.75 128.069C108.75 128.069 96.2131 120.324 90.7454 130.083C86.8378 139.6 91.1623 147.202 100.813 151.922C105.466 154.198 111.804 157.008 118.206 159.677L127.533 138.978L108.75 128.069Z" fill="#266999"/>
<path d="M108.75 128.069C108.75 128.069 108.87 128.126 109.095 128.251C109.328 128.382 109.66 128.569 110.089 128.81C110.968 129.313 112.244 130.043 113.875 130.976C117.152 132.866 121.853 135.579 127.586 138.886L127.669 138.934L127.629 139.021C124.972 144.935 121.792 152.015 118.325 159.73L118.273 159.846L118.156 159.797C114.874 158.431 111.489 156.978 108.047 155.437C106.522 154.754 105.018 154.067 103.539 153.373C102.06 152.68 100.605 151.985 99.2023 151.223C98.5116 150.826 97.8326 150.417 97.1777 149.986C96.5413 149.526 95.8844 149.104 95.3049 148.59C94.087 147.637 93.0511 146.511 92.1311 145.344C91.9178 145.039 91.705 144.736 91.4937 144.434C91.2685 144.141 91.1234 143.8 90.9362 143.487C90.5511 142.865 90.3106 142.181 90.0265 141.528C89.9039 141.194 89.8198 140.849 89.7162 140.513L89.568 140.008C89.5265 139.839 89.505 139.665 89.4727 139.494C89.4137 139.152 89.3547 138.812 89.2968 138.474C89.266 138.134 89.2542 137.793 89.2327 137.456C89.1598 136.781 89.2506 136.117 89.2711 135.462C89.3229 134.809 89.4619 134.176 89.5506 133.547C89.7127 132.934 89.8634 132.328 90.0327 131.739C90.2419 131.163 90.448 130.598 90.6496 130.042L90.6511 130.038L90.6547 130.031C91.4316 128.657 92.4501 127.497 93.6208 126.674C94.7977 125.855 96.1075 125.408 97.3475 125.206C99.8572 124.849 102.038 125.328 103.725 125.827C105.421 126.347 106.675 126.937 107.508 127.359C107.925 127.573 108.236 127.748 108.443 127.87C108.65 127.996 108.75 128.069 108.75 128.069C108.75 128.069 108.64 128.014 108.429 127.899C108.217 127.786 107.902 127.62 107.482 127.415C106.642 127.011 105.384 126.441 103.693 125.94C102.011 125.46 99.8418 125.004 97.3741 125.37C96.1552 125.578 94.8757 126.022 93.7285 126.828C92.5875 127.64 91.5947 128.779 90.8357 130.133L90.8408 130.122C90.6429 130.672 90.4414 131.234 90.2362 131.804C90.0711 132.387 89.9244 132.987 89.766 133.593C89.6809 134.214 89.545 134.839 89.4962 135.483C89.4783 136.128 89.3901 136.783 89.4639 137.446C89.4865 137.778 89.4988 138.112 89.5296 138.448C89.588 138.78 89.6465 139.113 89.7055 139.45C89.7378 139.618 89.7583 139.788 89.7998 139.954L89.947 140.45C90.0501 140.78 90.1332 141.119 90.2542 141.446C90.5357 142.087 90.7716 142.759 91.1526 143.369C91.3378 143.675 91.4803 144.01 91.7024 144.299C91.9111 144.595 92.1208 144.893 92.3316 145.193C93.2403 146.341 94.2629 147.45 95.4685 148.391C96.0413 148.898 96.6926 149.315 97.3229 149.77C97.9721 150.196 98.6454 150.601 99.3305 150.994C100.719 151.747 102.175 152.441 103.652 153.133C105.129 153.825 106.633 154.511 108.156 155.194C111.596 156.734 114.978 158.187 118.256 159.556L118.086 159.624C121.57 151.916 124.766 144.844 127.436 138.935L127.48 139.07C121.765 135.729 117.08 132.989 113.813 131.079C112.195 130.125 110.928 129.379 110.057 128.864C109.634 128.611 109.308 128.416 109.078 128.278C108.859 128.145 108.75 128.069 108.75 128.069Z" fill="#263238"/>
<path d="M143.485 129.249L144.241 121.332C144.241 121.332 141.216 115.239 141.275 114.629C141.333 114.019 141.511 110.662 141.511 110.662L149.075 103.854C149.075 103.854 151.525 103.854 151.587 106.278C151.587 106.278 153.945 105.781 153.976 108.605C153.976 108.605 156.527 108.699 156.594 110.763C156.594 110.763 158.132 110.56 158.079 112.716C158.04 114.267 157.363 120.211 157.363 120.211L154.2 125.713L153.939 131.215L143.485 129.249Z" fill="#FEC29E"/>
<path d="M144.269 154.623C144.182 154.652 143.625 152.73 142.479 150.573C141.334 148.412 140.008 146.912 140.078 146.856C140.102 146.835 140.462 147.184 140.972 147.811C141.483 148.437 142.131 149.355 142.714 150.447C143.294 151.539 143.699 152.586 143.948 153.354C144.196 154.124 144.301 154.613 144.269 154.623Z" fill="#7C4236"/>
<path d="M101.157 125.44C101.173 125.448 101.054 125.704 100.823 126.159C100.594 126.615 100.25 127.267 99.8171 128.069C98.952 129.673 97.7182 131.867 96.3346 134.278C94.9597 136.667 93.7167 138.828 92.7849 140.447C92.3474 141.204 91.9844 141.832 91.7049 142.314C91.4469 142.754 91.2967 142.993 91.2808 142.984C91.2644 142.975 91.3839 142.72 91.6136 142.265C91.8428 141.809 92.1864 141.157 92.6198 140.355C93.4849 138.751 94.7187 136.556 96.1028 134.145C97.4772 131.757 98.7202 129.596 99.652 127.977C100.089 127.22 100.453 126.592 100.732 126.109C100.99 125.67 101.14 125.431 101.157 125.44Z" fill="white"/>
<path d="M111.377 129.916C111.385 129.92 111.357 130 111.295 130.147C111.218 130.323 111.125 130.534 111.014 130.788C110.765 131.343 110.391 132.14 109.919 133.119C108.976 135.077 107.623 137.759 106.045 140.677C104.466 143.596 102.961 146.196 101.839 148.058C101.278 148.988 100.816 149.737 100.488 150.249C100.336 150.482 100.21 150.675 100.106 150.835C100.015 150.967 99.9645 151.035 99.9568 151.03C99.9492 151.025 99.9845 150.948 100.06 150.807C100.153 150.64 100.265 150.438 100.399 150.195C100.722 149.63 101.153 148.876 101.677 147.961C102.757 146.077 104.233 143.464 105.811 140.549C107.387 137.635 108.764 134.969 109.751 133.034C110.231 132.095 110.625 131.322 110.921 130.743C111.051 130.497 111.159 130.293 111.248 130.124C111.324 129.984 111.369 129.912 111.377 129.916Z" fill="white"/>
<path d="M122.811 136.317C122.828 136.324 122.718 136.625 122.503 137.164C122.29 137.704 121.963 138.478 121.54 139.426C120.697 141.322 119.445 143.906 117.903 146.674C116.359 149.442 114.818 151.866 113.648 153.58C113.064 154.438 112.579 155.123 112.231 155.588C111.885 156.054 111.687 156.307 111.672 156.296C111.657 156.285 111.826 156.012 112.146 155.529C112.487 155.007 112.941 154.314 113.491 153.476C114.619 151.737 116.129 149.305 117.67 146.545C119.208 143.784 120.483 141.22 121.368 139.347C121.793 138.439 122.144 137.688 122.407 137.124C122.652 136.597 122.795 136.309 122.811 136.317Z" fill="white"/>
<path d="M93.012 214.642L94.0807 205.149L140.977 204.635L142.173 214.642H93.012Z" fill="#263238"/>
<path d="M151.09 213.801C151.09 213.875 136.643 213.935 118.825 213.935C101.002 213.935 86.5574 213.875 86.5574 213.801C86.5574 213.727 101.001 213.668 118.825 213.668C136.643 213.668 151.09 213.728 151.09 213.801Z" fill="#455A64"/>
<path d="M124.957 51.0258H107.511C106.934 51.0258 106.467 50.5586 106.467 49.9822V49.2233C106.467 48.6469 106.934 48.1797 107.511 48.1797H124.957C125.534 48.1797 126.001 48.6469 126.001 49.2233V49.9822C126.002 50.5581 125.534 51.0258 124.957 51.0258Z" fill="#455A64"/>
<path d="M130.735 49.6028C130.735 50.3889 130.098 51.0258 129.312 51.0258C128.526 51.0258 127.889 50.3884 127.889 49.6028C127.889 48.8166 128.526 48.1797 129.312 48.1797C130.098 48.1797 130.735 48.8166 130.735 49.6028Z" fill="#455A64"/>
<path d="M72.8 94.0663H71.6441C69.8882 94.0663 68.4646 92.6427 68.4646 90.8868V73.449C68.4646 71.6931 69.8882 70.2695 71.6441 70.2695H72.8V94.0663Z" fill="#263238"/>
<path d="M72.5126 128.642H71.3567C69.6008 128.642 68.1772 127.219 68.1772 125.463V108.025C68.1772 106.269 69.6008 104.846 71.3567 104.846H72.5126V128.642Z" fill="#263238"/>
<path d="M71.438 140.112C71.3642 140.112 71.3047 122.839 71.3047 101.537C71.3047 80.2281 71.3647 62.959 71.438 62.959C71.5113 62.959 71.5713 80.2281 71.5713 101.537C71.5719 122.839 71.5119 140.112 71.438 140.112Z" fill="#455A64"/>
<path d="M55.4111 167.82H5.98379C2.75253 167.82 0.133057 165.201 0.133057 161.97V124.038C0.133057 120.807 2.75253 118.188 5.98379 118.188H55.4111C58.6424 118.188 61.2619 120.807 61.2619 124.038V161.97C61.2614 165.202 58.6424 167.82 55.4111 167.82Z" fill="white"/>
<path d="M33.1536 166.301C33.7807 167.82 45.9058 179.216 45.9058 179.216V166.301H33.1536Z" fill="#3588AF"/>
<path d="M41.6715 129.209C41.0822 127.272 39.6792 125.598 37.8756 124.678C35.8941 123.667 33.5331 123.581 31.3654 124.08C29.1977 124.578 27.1941 125.623 25.3018 126.791C24.2398 127.447 23.1829 128.164 22.4347 129.163C21.0691 130.986 19.7521 133.953 19.6803 136.23C19.6224 138.071 20.4573 142.651 21.2819 144.298C21.5752 144.884 22.2629 145.403 23.0896 145.839C23.9793 147.463 25.1434 148.935 26.5439 150.147C26.9347 148.901 27.3254 147.655 27.7162 146.409L41.6715 129.209Z" fill="#263238"/>
<path d="M40.548 126.974L36.9075 126.43C39.0218 131.088 39.8664 141.856 41.1413 146.81C42.4208 144.835 45.3531 138.846 45.1202 136.504C44.8879 134.162 44.8402 126.451 40.548 126.974Z" fill="#263238"/>
<path d="M23.5997 135.312C23.7161 132.552 25.4346 130.241 28.091 129.482L36.3709 127.116C39.9642 126.624 42.498 130.99 42.8375 134.601C43.2144 138.613 43.497 142.85 43.1129 145.864C42.3406 151.924 37.7417 152.834 37.7417 152.834C37.7406 152.825 37.8227 155.704 37.8699 157.465L36.5206 165.36L25.6028 156.039L23.5802 135.385C23.5751 135.283 23.5941 135.45 23.5997 135.312Z" fill="#FFBF9D"/>
<path d="M41.0159 139.619C41.0431 140.027 40.72 140.386 40.2939 140.423C39.8693 140.459 39.5021 140.158 39.4749 139.75C39.4483 139.342 39.7713 138.982 40.1959 138.946C40.6221 138.91 40.9888 139.211 41.0159 139.619Z" fill="#263238"/>
<path d="M41.9995 136.989C41.9067 137.093 41.3072 136.677 40.4754 136.704C39.6436 136.72 39.0462 137.168 38.9524 137.068C38.9067 137.024 38.999 136.839 39.259 136.637C39.5149 136.436 39.9559 136.235 40.4744 136.221C40.9929 136.208 41.4349 136.386 41.6913 136.573C41.9534 136.762 42.0457 136.942 41.9995 136.989Z" fill="#263238"/>
<path d="M33.5189 139.62C33.5461 140.028 33.2225 140.387 32.7969 140.423C32.3723 140.459 32.0051 140.158 31.9779 139.75C31.9507 139.342 32.2743 138.982 32.6989 138.946C33.1251 138.91 33.4923 139.211 33.5189 139.62Z" fill="#263238"/>
<path d="M34.0953 137.215C34.002 137.319 33.402 136.903 32.5702 136.931C31.7384 136.947 31.141 137.394 31.0476 137.295C31.002 137.251 31.0933 137.066 31.3543 136.864C31.6102 136.663 32.0507 136.461 32.5692 136.448C33.0876 136.435 33.5297 136.613 33.7866 136.8C34.0476 136.989 34.1404 137.168 34.0953 137.215Z" fill="#263238"/>
<path d="M36.8835 143.679C36.8784 143.632 37.3928 143.527 38.2281 143.394C38.4399 143.365 38.6399 143.317 38.6712 143.171C38.7168 143.016 38.621 142.789 38.5102 142.545C38.2943 142.037 38.0686 141.504 37.8317 140.946C36.8881 138.669 36.1979 136.793 36.2897 136.756C36.3815 136.719 37.2215 138.535 38.1651 140.812C38.3927 141.374 38.6102 141.909 38.8174 142.422C38.9051 142.66 39.0522 142.93 38.9533 143.252C38.9009 143.413 38.7486 143.533 38.6133 143.574C38.4784 143.619 38.3589 143.626 38.2538 143.635C37.4112 143.707 36.8881 143.727 36.8835 143.679Z" fill="#263238"/>
<path d="M29.6809 150.916C29.6809 150.916 31.7619 155.003 37.7809 154.253L37.7419 152.834C37.7419 152.834 33.7752 153.208 29.6809 150.916Z" fill="#FF9A6C"/>
<path d="M33.7481 134.215C33.6732 134.444 32.8383 134.362 31.866 134.51C30.8901 134.638 30.1117 134.948 29.9758 134.749C29.9148 134.654 30.0455 134.437 30.3573 134.208C30.666 133.98 31.1635 133.756 31.7476 133.673C32.3317 133.591 32.8717 133.667 33.2317 133.801C33.5937 133.935 33.7799 134.107 33.7481 134.215Z" fill="#263238"/>
<path d="M41.6555 134.452C41.515 134.645 40.9355 134.467 40.2457 134.478C39.5555 134.466 38.976 134.645 38.836 134.451C38.7739 134.357 38.8601 134.165 39.1098 133.978C39.356 133.792 39.7719 133.633 40.2457 133.633C40.7201 133.633 41.1355 133.792 41.3816 133.978C41.6314 134.166 41.7175 134.357 41.6555 134.452Z" fill="#263238"/>
<path d="M41.0424 129.138C40.6476 128.241 39.6363 127.724 38.6563 127.702C37.6763 127.681 36.7312 128.078 35.8973 128.593C32.3645 130.772 30.6615 135.84 27.1733 138.089C26.3154 138.643 25.1656 138.191 24.4431 138.912C23.7205 139.633 23.2708 140.765 23.7082 141.687C23.2128 141.047 22.7102 140.394 22.4174 139.64C22.1246 138.885 22.0651 137.998 22.4497 137.286C22.7415 136.745 23.2723 136.323 23.4046 135.723C23.5205 135.194 23.2979 134.652 23.3051 134.111C23.3123 133.561 23.5569 133.044 23.8138 132.557C25.1338 130.059 26.983 127.78 29.4066 126.327C30.9902 125.377 32.8148 124.797 34.6609 124.807C36.5071 124.817 38.3686 125.442 39.7542 126.662C40.5691 127.379 41.4255 128.121 41.0424 129.138Z" fill="#263238"/>
<path d="M24.5509 139.658C24.4827 139.487 21.3038 138.441 21.3576 141.786C21.4099 145.036 24.6699 144.303 24.674 144.21C24.6776 144.116 24.5509 139.658 24.5509 139.658Z" fill="#FFBF9D"/>
<path d="M23.6475 143.002C23.6332 142.992 23.5916 143.043 23.4967 143.089C23.4044 143.133 23.2444 143.166 23.0737 143.106C22.728 142.986 22.4285 142.447 22.4014 141.861C22.3875 141.566 22.4439 141.283 22.5444 141.048C22.6393 140.808 22.7896 140.639 22.9619 140.605C23.1332 140.562 23.2578 140.663 23.2988 140.754C23.3439 140.844 23.325 140.909 23.3419 140.914C23.3511 140.923 23.4106 140.859 23.3819 140.725C23.367 140.661 23.3275 140.585 23.2501 140.524C23.1711 140.462 23.0557 140.432 22.9357 140.447C22.6855 140.469 22.4644 140.704 22.3537 140.963C22.2296 141.222 22.1593 141.54 22.1747 141.872C22.208 142.527 22.5552 143.133 23.0275 143.26C23.2573 143.315 23.4465 143.243 23.5439 143.164C23.6434 143.081 23.6593 143.008 23.6475 143.002Z" fill="#FF9A6C"/>
<path d="M23.211 138.025C23.2136 138.029 23.2802 137.989 23.4038 137.91C23.5259 137.827 23.7146 137.717 23.9387 137.548C24.3833 137.207 24.9982 136.668 25.6469 135.901C26.2997 135.138 26.9782 134.153 27.7125 133.054C28.4484 131.957 29.2561 130.743 30.2987 129.638C30.8299 129.098 31.391 128.61 31.9894 128.222C32.5863 127.83 33.215 127.537 33.834 127.32C35.0735 126.882 36.2725 126.76 37.2637 126.799C38.2591 126.833 39.0509 127.022 39.5822 127.185C39.8514 127.259 40.0514 127.343 40.1904 127.391C40.3288 127.441 40.4027 127.465 40.4047 127.46C40.4068 127.456 40.3371 127.422 40.2017 127.363C40.0658 127.306 39.8683 127.213 39.5996 127.13C39.0704 126.948 38.2745 126.742 37.2684 126.694C36.2663 126.64 35.0499 126.753 33.7894 127.19C33.1597 127.406 32.5192 127.702 31.911 128.099C31.3002 128.493 30.7299 128.987 30.1915 129.535C29.1361 130.653 28.3289 131.876 27.5992 132.977C26.871 134.08 26.2054 135.066 25.5669 135.832C24.9331 136.603 24.3346 137.148 23.9033 137.501C23.6859 137.675 23.5033 137.793 23.3874 137.883C23.2695 137.972 23.2085 138.02 23.211 138.025Z" fill="white"/>
<path d="M24.054 138.92C24.0284 139.809 24.0146 140.748 24.4469 141.524C24.8792 142.301 25.9284 142.808 26.6879 142.344C27.3068 141.967 27.4725 141.155 27.5586 140.435C27.8079 138.357 27.8889 136.261 28.1561 134.186L24.054 138.92Z" fill="#263238"/>
<path d="M40.1986 127.616C40.1956 127.635 39.9099 127.57 39.3889 127.568C38.8709 127.569 38.1079 127.66 37.2499 128.023C36.8228 128.203 36.3689 128.44 35.9228 128.754C35.4756 129.068 35.0212 129.442 34.5633 129.855C33.6541 130.687 32.7166 131.683 31.9264 132.865C31.5305 133.457 31.1818 134.063 30.8013 134.626C30.4248 135.19 30.0023 135.703 29.5407 136.127C28.6197 136.975 27.6633 137.578 26.8479 138.042C26.0295 138.505 25.3433 138.833 24.87 139.059C24.6464 139.162 24.4644 139.246 24.3213 139.311C24.1946 139.367 24.1269 139.393 24.1244 139.388C24.1213 139.382 24.1839 139.345 24.3049 139.278C24.4444 139.204 24.6208 139.11 24.8382 138.995C25.3013 138.749 25.9772 138.405 26.7833 137.93C27.5864 137.453 28.5259 136.845 29.4264 136.003C29.8746 135.585 30.2833 135.084 30.6536 134.525C31.0269 133.968 31.3746 133.361 31.7751 132.763C32.5771 131.563 33.5274 130.562 34.451 129.729C34.9171 129.315 35.3776 128.943 35.8371 128.628C36.2961 128.312 36.7622 128.078 37.2012 127.901C38.0827 127.546 38.8643 127.474 39.3899 127.496C39.654 127.505 39.8576 127.534 39.9935 127.562C40.1294 127.592 40.1997 127.61 40.1986 127.616Z" fill="#455A64"/>
<path d="M23.9076 136.916C23.9132 136.925 23.8132 136.997 23.6261 137.118C23.4071 137.255 23.1378 137.424 22.8168 137.625C22.7291 137.679 22.6384 137.734 22.544 137.792C22.4425 137.851 22.3296 137.904 22.1917 137.919C22.124 137.925 22.043 137.921 21.9702 137.874C21.8979 137.828 21.8502 137.748 21.8425 137.663C21.8312 137.493 21.9189 137.364 21.984 137.248C22.2635 136.771 22.5702 136.247 22.8953 135.691L23.0276 135.807C22.7296 136.041 22.3799 136.232 21.9984 136.357C21.6153 136.484 21.2199 136.539 20.8394 136.528C20.7461 136.527 20.6409 136.517 20.543 136.486C20.4471 136.455 20.3348 136.393 20.2845 136.273C20.2327 136.156 20.2748 136.023 20.3297 135.943C20.384 135.858 20.4522 135.795 20.5091 135.735C20.9789 135.254 21.3266 134.751 21.5758 134.308C22.0722 133.414 22.2025 132.78 22.2368 132.791C22.2471 132.794 22.2245 132.952 22.1471 133.231C22.0671 133.509 21.9302 133.908 21.6897 134.369C21.4507 134.829 21.1061 135.351 20.6307 135.851C20.5127 135.969 20.3963 136.105 20.4461 136.205C20.4876 136.307 20.6738 136.352 20.8445 136.348C21.204 136.357 21.5784 136.303 21.9414 136.183C22.303 136.064 22.6343 135.886 22.9173 135.666L23.2973 135.371L23.0496 135.782C22.7173 136.333 22.404 136.853 22.1184 137.327C22.0466 137.441 21.9825 137.554 21.9891 137.648C21.9958 137.74 22.0763 137.792 22.1804 137.78C22.3907 137.763 22.5773 137.615 22.7573 137.523C23.0886 137.34 23.3671 137.187 23.5932 137.062C23.7917 136.959 23.9019 136.907 23.9076 136.916Z" fill="white"/>
<path d="M33.7615 145.305C33.8579 144.806 34.3538 144.412 34.8605 144.448C35.2323 144.474 35.5738 144.716 35.7512 145.043C35.9287 145.371 35.9471 145.774 35.8317 146.129L35.8164 146.207C35.4861 146.593 34.9 146.742 34.4328 146.543C33.9656 146.344 33.6656 145.803 33.7615 145.305Z" fill="#FF9A6C"/>
<path d="M36.4206 146.205C36.418 146.079 35.5775 146.143 34.9247 145.47C34.2698 144.799 34.2939 143.896 34.176 143.899C34.1221 143.891 34.0283 144.111 34.0478 144.49C34.0642 144.862 34.2257 145.394 34.6252 145.806C35.0257 146.216 35.5288 146.366 35.8755 146.368C36.2293 146.372 36.4303 146.263 36.4206 146.205Z" fill="#263238"/>
<path d="M49.8516 161.831L49.7562 161.71C45.5547 157.264 37.8214 155.775 37.8214 155.775C37.8214 155.775 37.3486 158.686 33.0133 159.011C28.6784 159.336 25.4938 154.92 25.4938 154.92L19.7103 155.73C19.7103 155.73 16.799 156.073 14.9867 157.139C10.9047 159.54 8.73804 167.823 8.73804 167.823L53.3393 168.002L49.8516 161.831Z" fill="#3588AF"/>
<path d="M53.93 118.188C53.93 118.188 54.0351 118.186 54.2423 118.193C54.45 118.195 54.7592 118.208 55.1617 118.279C55.954 118.414 57.1766 118.722 58.433 119.693C59.0556 120.174 59.6817 120.812 60.1956 121.634C60.7089 122.453 61.1058 123.459 61.254 124.592C61.3263 125.16 61.3243 125.753 61.3227 126.359C61.3243 126.966 61.3253 127.595 61.3268 128.243C61.3294 129.54 61.332 130.916 61.335 132.369C61.3427 138.182 61.3525 145.214 61.3632 153.233C61.3653 155.238 61.3673 157.304 61.3689 159.43C61.3668 159.961 61.3817 160.493 61.3427 161.041C61.3089 161.587 61.1971 162.128 61.0479 162.661C60.7273 163.722 60.1484 164.716 59.3786 165.55C58.6125 166.388 57.6356 167.053 56.5428 167.455L56.132 167.604L55.7074 167.714C55.4264 167.799 55.133 167.827 54.8428 167.875C54.2556 167.945 53.6659 167.941 53.0838 167.938C50.7407 167.939 48.3469 167.94 45.9054 167.942L46.0269 167.82C46.0285 171.421 46.0305 175.269 46.0321 179.216V179.509L45.8182 179.308C43.93 177.529 42.007 175.692 40.0634 173.8C38.1265 171.902 36.147 169.975 34.2506 167.908L34.348 167.952C28.287 167.953 21.9594 167.953 15.5051 167.954C13.563 167.954 11.6328 167.954 9.71487 167.954H8.27898C7.80257 167.958 7.32463 167.956 6.83745 167.922C5.8713 167.842 4.92515 167.571 4.06875 167.131C2.3503 166.258 1.01441 164.703 0.407749 162.906C0.0923667 162.012 -0.00865852 161.052 0.000572183 160.126C0.000572183 159.202 0.00108472 158.283 0.00108472 157.368C0.0036488 150.043 0.00621355 142.978 0.00877764 136.249C0.0108289 132.884 0.0123672 129.603 0.0144185 126.414C0.0123672 125.624 0.00775161 124.812 0.166212 124.027C0.334929 123.247 0.621081 122.501 1.00928 121.819C1.39133 121.131 1.90056 120.528 2.47133 120.01C3.04363 119.494 3.68465 119.055 4.38208 118.752C5.07541 118.448 5.8031 118.22 6.54668 118.142C7.29232 118.059 8.02257 118.085 8.74308 118.082C10.1867 118.083 11.6041 118.084 12.9928 118.086C15.7707 118.089 18.4369 118.092 20.9815 118.094C31.1568 118.112 39.3916 118.127 45.0895 118.137C47.9315 118.148 50.1397 118.157 51.6438 118.162C52.3889 118.168 52.9587 118.172 53.3484 118.175C53.7335 118.179 53.93 118.188 53.93 118.188C53.93 118.188 53.733 118.197 53.3494 118.202C52.9597 118.205 52.39 118.209 51.6448 118.215C50.1407 118.221 47.9326 118.229 45.0905 118.24C39.3926 118.25 31.1578 118.265 20.9825 118.283C18.4379 118.285 15.7717 118.288 12.9938 118.291C11.6046 118.293 10.1877 118.294 8.7441 118.295C8.02154 118.299 7.29027 118.276 6.57437 118.358C5.85284 118.434 5.14772 118.658 4.47541 118.953C3.79952 119.248 3.1785 119.675 2.62415 120.176C2.07133 120.68 1.578 121.266 1.20928 121.932C0.8339 122.594 0.558005 123.317 0.395442 124.074C0.243648 124.834 0.248263 125.614 0.251852 126.415C0.253391 129.603 0.255442 132.885 0.257493 136.249C0.260057 142.979 0.262622 150.044 0.265186 157.368C0.265186 158.283 0.265699 159.203 0.265699 160.126C0.258006 161.045 0.355442 161.953 0.660056 162.821C1.24518 164.554 2.53491 166.053 4.19234 166.895C5.01797 167.318 5.93028 167.579 6.86207 167.657C7.32565 167.689 7.80206 167.691 8.28103 167.687H9.71692C11.6349 167.687 13.5651 167.687 15.5071 167.687C21.9615 167.688 28.2891 167.689 34.3501 167.69H34.408L34.448 167.733C36.3331 169.79 38.3131 171.718 40.2465 173.615C42.1875 175.506 44.109 177.345 45.9941 179.124L45.7803 179.216C45.7823 175.27 45.7839 171.422 45.7859 167.821V167.699H45.9074C48.3485 167.701 50.7428 167.702 53.0859 167.703C53.6746 167.707 54.253 167.711 54.8166 167.645C55.0976 167.598 55.3823 167.573 55.654 167.49L56.0653 167.384L56.4633 167.24C57.5222 166.852 58.471 166.21 59.215 165.397C59.9627 164.59 60.5258 163.626 60.8386 162.598C60.9843 162.081 61.094 161.556 61.1273 161.026C61.1663 160.5 61.153 159.96 61.1561 159.43C61.1581 157.305 61.1602 155.238 61.1617 153.233C61.1725 145.214 61.1822 138.183 61.1899 132.37C61.193 130.917 61.1955 129.541 61.1981 128.244C61.1996 127.595 61.2012 126.967 61.2022 126.359C61.2063 125.75 61.2114 125.164 61.1432 124.607C61.0032 123.49 60.6176 122.497 60.1161 121.686C59.614 120.871 58.9997 120.236 58.3874 119.755C57.1515 118.784 55.9428 118.466 55.1566 118.319C54.7576 118.242 54.45 118.223 54.2433 118.214C54.0351 118.2 53.93 118.188 53.93 118.188Z" fill="#263238"/>
<path d="M171.406 180.406H229.655C232.901 180.406 235.532 177.775 235.532 174.53V129.445C235.532 126.2 232.901 123.568 229.655 123.568H171.406C168.161 123.568 165.529 126.2 165.529 129.445V174.529C165.529 177.775 168.16 180.406 171.406 180.406Z" fill="white"/>
<path d="M197.718 178.666C197 180.406 183.115 193.456 183.115 193.456V178.666H197.718Z" fill="#455A64"/>
<path d="M192.345 166.753C192.348 164.958 192.346 163.461 192.335 163.277C192.335 163.277 186.264 162.703 185.828 156.694C185.618 153.79 185.671 147.774 185.783 142.332C185.903 136.487 190.498 131.717 196.333 131.367L196.913 131.332C203.192 131.322 206.708 136.648 206.544 142.924L206.324 166.482L196.167 174.637L195.431 174.571L192.345 166.753Z" fill="#FFBF9D"/>
<path d="M192.333 163.299C192.333 163.299 196.137 163.294 200.024 160.514C200.024 160.514 198.378 165.021 192.345 164.839L192.333 163.299Z" fill="#FF9A6C"/>
<path d="M196.014 144.923C196.131 145.046 196.832 144.497 197.838 144.483C198.842 144.454 199.588 144.972 199.696 144.844C199.748 144.787 199.627 144.563 199.302 144.329C198.982 144.095 198.439 143.872 197.813 143.885C197.186 143.9 196.662 144.144 196.363 144.391C196.057 144.64 195.956 144.868 196.014 144.923Z" fill="#263238"/>
<path d="M196.758 147.674C196.769 148.103 197.141 148.449 197.59 148.446C198.039 148.443 198.394 148.093 198.384 147.663C198.373 147.234 198.001 146.888 197.552 146.891C197.103 146.893 196.747 147.244 196.758 147.674Z" fill="#263238"/>
<path d="M193.404 151.885C193.406 151.832 192.825 151.767 191.887 151.704C191.65 151.694 191.424 151.66 191.374 151.502C191.308 151.335 191.392 151.074 191.49 150.793C191.677 150.209 191.873 149.596 192.079 148.954C192.895 146.338 193.47 144.192 193.365 144.161C193.259 144.129 192.512 146.224 191.697 148.84C191.502 149.485 191.314 150.099 191.137 150.688C191.064 150.961 190.929 151.275 191.07 151.621C191.145 151.793 191.325 151.911 191.479 151.943C191.633 151.979 191.766 151.974 191.883 151.974C192.823 151.968 193.404 151.937 193.404 151.885Z" fill="#263238"/>
<path d="M196.514 141.693C196.608 141.917 197.416 141.759 198.379 141.821C199.343 141.863 200.132 142.106 200.246 141.893C200.297 141.791 200.149 141.584 199.825 141.381C199.502 141.178 198.997 140.997 198.419 140.965C197.841 140.935 197.321 141.061 196.981 141.228C196.639 141.395 196.473 141.586 196.514 141.693Z" fill="#263238"/>
<path d="M187.078 142.274C187.181 142.457 187.968 142.266 188.919 142.249C189.871 142.214 190.658 142.363 190.761 142.175C190.807 142.084 190.652 141.92 190.323 141.771C189.996 141.622 189.49 141.506 188.919 141.521C188.349 141.537 187.843 141.681 187.516 141.847C187.187 142.013 187.032 142.187 187.078 142.274Z" fill="#263238"/>
<path d="M206.319 147.405C206.419 147.355 210.377 145.935 210.492 150.054C210.608 154.173 206.449 153.44 206.439 153.321C206.428 153.204 206.319 147.405 206.319 147.405Z" fill="#FFBF9D"/>
<path d="M207.654 151.741C207.672 151.727 207.727 151.789 207.85 151.841C207.97 151.892 208.174 151.924 208.387 151.837C208.818 151.665 209.164 150.964 209.164 150.221C209.164 149.847 209.075 149.492 208.934 149.2C208.8 148.902 208.599 148.697 208.379 148.664C208.159 148.62 208.008 148.756 207.961 148.873C207.909 148.99 207.937 149.071 207.916 149.079C207.904 149.09 207.825 149.012 207.854 148.841C207.868 148.759 207.914 148.66 208.008 148.579C208.105 148.496 208.249 148.451 208.402 148.463C208.721 148.476 209.015 148.76 209.17 149.08C209.343 149.402 209.451 149.8 209.451 150.221C209.448 151.052 209.045 151.841 208.454 152.03C208.166 152.113 207.922 152.033 207.795 151.939C207.665 151.84 207.64 151.749 207.654 151.741Z" fill="#FF9A6C"/>
<path d="M194.679 155.385C194.635 155.28 195.445 155.049 196.021 154.299C196.309 153.931 196.478 153.527 196.605 153.232C196.729 152.934 196.822 152.748 196.866 152.762C196.908 152.776 196.895 152.978 196.825 153.302C196.751 153.623 196.606 154.081 196.279 154.5C195.958 154.923 195.53 155.173 195.217 155.291C194.902 155.414 194.689 155.42 194.679 155.385Z" fill="#263238"/>
<path d="M211.882 140.823C211.043 139.36 210.865 137.625 210.417 135.999C209.969 134.373 209.088 132.682 207.507 132.096L207.471 132.111C206.052 131.519 204.293 131.488 203.109 132.464C202.847 130.32 200.993 128.601 198.911 128.027C196.83 127.452 193.476 127.735 191.463 128.516C189.906 129.119 188.392 130.376 186.549 132.229C185.772 133.01 185.054 133.851 184.416 134.748L182.527 140.332L184.045 143.293C184.136 143.494 184.229 143.695 184.343 143.895L184.345 143.881L185.667 150.097C185.778 148.408 185.731 142.528 185.841 140.838C188.45 140.76 190.824 139.737 192.598 137.822C193.534 136.812 194.276 135.54 195.519 134.946C197.121 134.178 199.011 134.776 200.681 135.38L200.611 135.315C201.478 135.73 202.265 136.314 202.914 137.023C202.494 140.346 202.797 143.758 203.801 146.953C203.952 147.434 204.369 148.427 204.837 148.615C205.757 148.984 206.018 148.046 206.581 147.553C206.995 147.19 207.604 147.15 208.268 147.16C208.671 146.139 209.096 144.414 209.453 142.903C210.009 143.079 210.603 143.133 211.179 143.041C211.008 142.614 210.836 142.188 210.665 141.761C210.893 141.91 211.13 142.062 211.4 142.105C211.669 142.149 211.981 142.052 212.105 141.809C212.265 141.496 212.057 141.129 211.882 140.823Z" fill="#263238"/>
<path d="M201.209 133.119C201.197 133.135 201.459 133.281 201.805 133.678C202.147 134.072 202.528 134.757 202.7 135.683C202.789 136.144 202.841 136.659 202.834 137.211C202.83 137.764 202.777 138.356 202.727 138.979C202.678 139.603 202.626 140.261 202.657 140.947C202.672 141.29 202.709 141.639 202.779 141.988C202.85 142.331 202.935 142.703 203.19 143.001C203.392 143.243 203.735 143.354 204.033 143.296C204.334 143.247 204.603 143.091 204.801 142.876C205.193 142.43 205.297 141.86 205.399 141.357L205.273 141.37C205.473 141.826 205.679 142.276 205.988 142.638C206.291 143.001 206.714 143.244 207.148 143.289C207.363 143.311 207.581 143.279 207.768 143.188C207.958 143.099 208.098 142.944 208.194 142.78C208.286 142.612 208.336 142.428 208.329 142.249C208.321 142.07 208.253 141.901 208.142 141.78L208.077 141.835C208.534 142.369 209.019 142.659 209.355 142.82C209.524 142.901 209.66 142.949 209.752 142.98C209.845 143.009 209.894 143.021 209.895 143.018C209.896 143.013 209.85 142.994 209.76 142.958C209.672 142.92 209.539 142.865 209.375 142.779C209.05 142.606 208.58 142.309 208.143 141.781L208.078 141.837C208.277 142.053 208.284 142.429 208.107 142.729C208.017 142.877 207.889 143.015 207.721 143.091C207.555 143.17 207.356 143.198 207.159 143.175C206.762 143.13 206.367 142.902 206.083 142.557C205.792 142.211 205.593 141.773 205.395 141.317L205.311 141.123L205.269 141.33C205.166 141.832 205.056 142.38 204.699 142.782C204.521 142.974 204.275 143.116 204.012 143.158C203.748 143.205 203.472 143.115 203.295 142.907C203.072 142.65 202.985 142.297 202.916 141.96C202.848 141.619 202.811 141.278 202.794 140.941C202.762 140.266 202.812 139.611 202.856 138.988C202.903 138.365 202.951 137.771 202.951 137.211C202.953 136.651 202.894 136.129 202.798 135.663C202.61 134.724 202.207 134.031 201.846 133.641C201.48 133.249 201.209 133.119 201.209 133.119Z" fill="#455A64"/>
<path d="M182.559 138.728C182.558 138.73 182.574 138.743 182.607 138.769C182.647 138.799 182.696 138.836 182.756 138.88C182.821 138.93 182.904 138.989 183.008 139.047C183.111 139.108 183.228 139.181 183.371 139.243C183.925 139.516 184.816 139.791 185.935 139.739C187.043 139.691 188.377 139.316 189.576 138.448C190.787 137.6 191.856 136.343 192.735 134.899C193.181 134.178 193.547 133.437 193.948 132.754C194.347 132.07 194.785 131.439 195.313 130.943C195.835 130.445 196.438 130.079 197.057 129.915C197.365 129.828 197.675 129.811 197.971 129.822C198.267 129.841 198.546 129.905 198.804 129.993C199.319 130.173 199.733 130.465 200.046 130.763C200.36 131.064 200.57 131.38 200.712 131.651C200.978 132.206 200.989 132.56 201.011 132.555C201.013 132.554 201.012 132.533 201.006 132.492C200.999 132.442 200.991 132.381 200.98 132.308C200.953 132.147 200.887 131.913 200.761 131.627C200.624 131.348 200.417 131.02 200.101 130.707C199.786 130.396 199.366 130.092 198.837 129.899C198.573 129.806 198.284 129.737 197.978 129.714C197.672 129.699 197.347 129.714 197.028 129.802C196.385 129.967 195.761 130.341 195.224 130.849C194.681 131.354 194.233 131.996 193.83 132.683C193.423 133.372 193.058 134.111 192.615 134.825C191.742 136.258 190.689 137.501 189.501 138.341C188.325 139.201 187.021 139.578 185.93 139.639C184.829 139.702 183.949 139.447 183.394 139.193C182.835 138.936 182.571 138.711 182.559 138.728Z" fill="#455A64"/>
<path d="M186.841 145.2C186.959 145.323 187.659 144.774 188.665 144.76C189.669 144.731 190.416 145.249 190.523 145.121C190.576 145.064 190.454 144.841 190.129 144.606C189.809 144.373 189.266 144.149 188.64 144.163C188.013 144.177 187.49 144.422 187.19 144.669C186.884 144.918 186.783 145.145 186.841 145.2Z" fill="#263238"/>
<path d="M188.378 147.805C188.388 148.234 188.761 148.58 189.21 148.577C189.658 148.574 190.014 148.224 190.003 147.794C189.993 147.365 189.62 147.018 189.172 147.022C188.723 147.024 188.367 147.375 188.378 147.805Z" fill="#263238"/>
<path d="M184.926 134.062C184.415 134.737 183.628 135.352 182.786 135.261C182.538 135.235 181.891 134.998 181.891 134.998C181.597 135.176 181.666 136.183 181.868 136.461C182.071 136.738 182.499 137.114 182.499 137.114C181.512 137.644 180.613 137.382 179.561 136.997C179.745 138.789 180.965 140.436 182.624 141.137C183.155 141.361 183.799 141.482 184.282 141.17C184.708 140.894 184.883 140.367 185.012 139.877C185.484 138.077 185.734 136.218 185.752 134.357L184.926 134.062Z" fill="#263238"/>
<path d="M178.596 173.543L178.706 173.404C183.518 168.313 192.373 166.608 192.373 166.608C192.373 166.608 192.915 169.941 197.88 170.313C202.844 170.686 206.491 165.629 206.491 165.629L213.114 166.557C213.114 166.557 216.448 166.949 218.524 168.17C223.198 170.92 225.679 180.405 225.679 180.405L174.603 180.611L178.596 173.543Z" fill="#455A64"/>
<path d="M173.925 123.568C173.925 123.568 173.805 123.581 173.568 123.597C173.449 123.604 173.301 123.613 173.127 123.624C172.952 123.64 172.751 123.681 172.521 123.715C171.621 123.883 170.235 124.246 168.819 125.359C168.117 125.909 167.412 126.636 166.836 127.57C166.261 128.5 165.819 129.638 165.658 130.918C165.579 131.557 165.585 132.228 165.589 132.925C165.591 133.622 165.592 134.341 165.593 135.083C165.596 136.568 165.598 138.145 165.602 139.808C165.609 146.465 165.619 154.518 165.63 163.701C165.632 165.997 165.634 168.364 165.636 170.798C165.639 171.406 165.624 172.023 165.669 172.627C165.707 173.235 165.833 173.837 166 174.43C166.359 175.611 167.005 176.716 167.863 177.642C168.716 178.575 169.805 179.312 171.02 179.758L171.477 179.923L171.949 180.045C172.261 180.14 172.588 180.169 172.91 180.223C173.557 180.299 174.221 180.295 174.894 180.291C177.577 180.289 180.319 180.288 183.115 180.287H183.236V180.408C183.238 184.531 183.24 188.939 183.241 193.458L183.028 193.365C185.187 191.329 187.388 189.222 189.61 187.057C191.824 184.885 194.092 182.676 196.252 180.32L196.292 180.277H196.35C203.29 180.276 210.537 180.275 217.928 180.275C220.152 180.275 222.363 180.275 224.559 180.275C225.108 180.275 225.655 180.275 226.203 180.275C226.752 180.279 227.298 180.277 227.83 180.24C228.899 180.151 229.946 179.851 230.894 179.365C232.796 178.399 234.276 176.678 234.948 174.689C235.298 173.693 235.41 172.65 235.401 171.597C235.401 170.539 235.401 169.486 235.401 168.438C235.404 160.05 235.406 151.96 235.409 144.253C235.411 140.4 235.412 136.642 235.414 132.99C235.418 132.074 235.423 131.179 235.249 130.306C235.063 129.438 234.746 128.608 234.315 127.849C233.891 127.084 233.325 126.412 232.691 125.835C232.054 125.26 231.342 124.77 230.567 124.432C229.795 124.093 228.986 123.836 228.158 123.749C227.336 123.655 226.499 123.682 225.671 123.678C224.018 123.676 222.395 123.675 220.805 123.674C217.624 123.671 214.57 123.668 211.656 123.665C200.002 123.647 190.572 123.633 184.048 123.622C180.792 123.612 178.263 123.603 176.542 123.597C175.688 123.592 175.035 123.587 174.59 123.584C174.15 123.578 173.925 123.568 173.925 123.568C173.925 123.568 174.15 123.559 174.59 123.555C175.035 123.552 175.688 123.547 176.542 123.541C178.263 123.536 180.792 123.527 184.048 123.516C190.572 123.506 200.002 123.492 211.656 123.474C214.57 123.471 217.624 123.468 220.805 123.465C222.396 123.463 224.018 123.462 225.671 123.461C226.496 123.464 227.333 123.434 228.185 123.53C229.035 123.618 229.866 123.88 230.659 124.227C231.455 124.574 232.188 125.076 232.842 125.665C233.494 126.257 234.076 126.947 234.513 127.733C234.956 128.513 235.284 129.365 235.476 130.257C235.657 131.154 235.652 132.081 235.649 132.988C235.651 136.639 235.653 140.397 235.655 144.25C235.657 151.958 235.66 160.048 235.663 168.435C235.663 169.484 235.663 170.537 235.663 171.594C235.673 172.654 235.558 173.75 235.197 174.772C234.504 176.826 232.977 178.601 231.014 179.599C230.036 180.101 228.955 180.411 227.851 180.502C227.295 180.541 226.748 180.542 226.202 180.539C225.655 180.539 225.107 180.539 224.558 180.539C222.361 180.539 220.15 180.539 217.927 180.539C210.535 180.538 203.289 180.537 196.348 180.537L196.446 180.493C194.275 182.859 192.008 185.066 189.79 187.239C187.565 189.405 185.363 191.51 183.2 193.547L182.987 193.749V193.455C182.989 188.936 182.99 184.529 182.992 180.405L183.113 180.527C180.317 180.525 177.576 180.523 174.893 180.522C174.226 180.526 173.551 180.531 172.88 180.451C172.549 180.396 172.213 180.365 171.892 180.267L171.407 180.142L170.938 179.972C169.689 179.512 168.572 178.753 167.697 177.794C166.817 176.841 166.155 175.706 165.789 174.493C165.618 173.884 165.49 173.266 165.451 172.641C165.407 172.015 165.424 171.406 165.421 170.797C165.423 168.364 165.425 165.996 165.427 163.7C165.438 154.516 165.448 146.464 165.455 139.807C165.458 138.144 165.461 136.567 165.464 135.082C165.465 134.34 165.466 133.62 165.468 132.924C165.466 132.23 165.463 131.552 165.546 130.903C165.714 129.606 166.168 128.456 166.755 127.518C167.343 126.577 168.059 125.847 168.771 125.296C170.209 124.183 171.608 123.831 172.515 123.675C172.746 123.644 172.948 123.606 173.124 123.593C173.299 123.586 173.447 123.58 173.567 123.576C173.805 123.568 173.925 123.568 173.925 123.568Z" fill="#263238"/>
</svg>
