<svg width="20" height="20" viewBox="0 0 20 20" fill="none" xmlns="http://www.w3.org/2000/svg">
<path d="M10 20C15.5228 20 20 15.5228 20 10C20 4.47715 15.5228 0 10 0C4.47715 0 0 4.47715 0 10C0 15.5228 4.47715 20 10 20Z" fill="#FAAA52" fill-opacity="0.2"/>
<path d="M17.0452 9.0783C17.5529 12.9171 14.854 16.418 11.0151 16.9257C10.4957 16.9969 9.97157 17.0067 9.46154 16.9598C8.83345 16.9035 8.21002 16.7481 7.63851 16.5454C7.12367 16.3568 6.62766 16.0927 6.18358 15.7813C6.04657 15.6869 5.90956 15.5926 5.77727 15.4793C5.19142 15.0122 4.6858 14.4647 4.27458 13.8605C4.18478 13.7378 4.11388 13.6198 4.04768 13.4829C3.59858 12.7087 3.29581 11.8306 3.16772 10.8957C3.14877 10.8107 3.14872 10.7304 3.13449 10.6265C2.77797 6.90566 5.44389 3.53704 9.19775 3.04827C10.1091 2.93436 11.0158 2.9999 11.8659 3.21186C12.0359 3.25425 12.1823 3.31083 12.3524 3.35322C13.0561 3.58889 13.6939 3.92848 14.2844 4.37672C14.4214 4.47108 14.5348 4.57962 14.6529 4.66927C15.0829 5.03733 15.4798 5.45735 15.8012 5.93882C16.1415 6.42499 16.4299 6.95842 16.6522 7.5155C16.8083 7.93568 16.9219 8.36533 17.0072 8.82805C17.0262 8.91304 17.0262 8.99331 17.0452 9.0783Z" fill="#FFCE4F"/>
<path d="M15.6522 9.27308C15.6712 9.35806 15.6712 9.43834 15.6902 9.52333C15.9376 12.4746 13.8049 15.1534 10.8395 15.5378C7.87423 15.9222 5.12934 13.8933 4.61277 10.9753C4.59383 10.8904 4.59378 10.8101 4.57483 10.7251C4.17152 7.67478 6.33724 4.8637 9.38754 4.46038C12.4378 4.05706 15.2536 6.20389 15.6522 9.27308Z" fill="#FA8A00"/>
<path d="M15.6713 9.51854C15.9187 12.4698 13.786 15.1486 10.8207 15.533C10.7593 15.5378 10.6979 15.5425 10.6129 15.5615C9.95655 15.6185 9.28596 15.5717 8.68614 15.4021C8.0627 15.2467 7.48643 14.9826 6.97148 14.6335C6.83448 14.5391 6.71637 14.4495 6.57937 14.3551C6.01241 13.8927 5.53039 13.3311 5.18998 12.6843C5.1096 12.5238 5.02922 12.3633 4.94884 12.2028C4.78332 11.8204 4.665 11.4097 4.575 10.9658C4.32758 8.01461 6.46033 5.33576 9.42564 4.95139C9.79866 4.90393 10.1812 4.89896 10.5401 4.90818C10.7195 4.91279 10.9131 4.941 11.0879 4.9645C11.8388 5.09153 12.5331 5.36497 13.1567 5.76124C13.2937 5.8556 13.4118 5.94525 13.5488 6.03961C14.0354 6.4218 14.4655 6.87014 14.8152 7.39881C15.1508 7.90387 15.4109 8.47038 15.5577 9.08889C15.6192 9.24469 15.6429 9.39106 15.6713 9.51854Z" fill="#FFAC00"/>
<g filter="url(#filter0_d_4792_22283)">
<g filter="url(#filter1_d_4792_22283)">
<path d="M9.11264 11.8604L7.89001 11.8604L7.89001 7.40039L9.89415 7.40039C11.0878 7.40039 11.7824 7.95245 11.7824 8.949C11.7824 9.95287 11.0878 10.5049 9.89415 10.5049L9.11264 10.5049L9.11264 11.8604ZM9.83609 9.52973C10.386 9.52973 10.5958 9.33636 10.5958 8.95632C10.5958 8.57629 10.386 8.37539 9.83609 8.37539L9.11264 8.37539L9.11264 9.52973L9.83609 9.52973Z" fill="white"/>
</g>
<path d="M11.2657 12.2163L12.1231 13.3926L11.4181 13.3926L10.9008 12.6805L10.3931 13.4001L9.73059 13.4001L10.5855 12.2517L9.79199 11.1606L10.4973 11.1606L10.9468 11.7873L12.0113 10.3193L12.6738 10.3193L11.2657 12.2163Z" fill="white"/>
<path d="M9.78381 11.1605L10.9153 12.6995L12.6738 10.3193L12.0113 10.3193L10.9469 11.7876L10.497 11.1605L9.78381 11.1605Z" fill="#FFD6A3"/>
</g>
<defs>
<filter id="filter0_d_4792_22283" x="7.89001" y="7.40039" width="4.98381" height="6.2" filterUnits="userSpaceOnUse" color-interpolation-filters="sRGB">
<feFlood flood-opacity="0" result="BackgroundImageFix"/>
<feColorMatrix in="SourceAlpha" type="matrix" values="0 0 0 0 0 0 0 0 0 0 0 0 0 0 0 0 0 0 127 0" result="hardAlpha"/>
<feOffset dx="0.2" dy="0.2"/>
<feComposite in2="hardAlpha" operator="out"/>
<feColorMatrix type="matrix" values="0 0 0 0 0.980392 0 0 0 0 0.541176 0 0 0 0 0 0 0 0 1 0"/>
<feBlend mode="normal" in2="BackgroundImageFix" result="effect1_dropShadow_4792_22283"/>
<feBlend mode="normal" in="SourceGraphic" in2="effect1_dropShadow_4792_22283" result="shape"/>
</filter>
<filter id="filter1_d_4792_22283" x="7.89001" y="7.40039" width="4.09233" height="4.65996" filterUnits="userSpaceOnUse" color-interpolation-filters="sRGB">
<feFlood flood-opacity="0" result="BackgroundImageFix"/>
<feColorMatrix in="SourceAlpha" type="matrix" values="0 0 0 0 0 0 0 0 0 0 0 0 0 0 0 0 0 0 127 0" result="hardAlpha"/>
<feOffset dx="0.2" dy="0.2"/>
<feComposite in2="hardAlpha" operator="out"/>
<feColorMatrix type="matrix" values="0 0 0 0 0.958333 0 0 0 0 0.529 0 0 0 0 0 0 0 0 1 0"/>
<feBlend mode="normal" in2="BackgroundImageFix" result="effect1_dropShadow_4792_22283"/>
<feBlend mode="normal" in="SourceGraphic" in2="effect1_dropShadow_4792_22283" result="shape"/>
</filter>
</defs>
</svg>
