<svg width="296" height="285" viewBox="0 0 296 285" fill="none" xmlns="http://www.w3.org/2000/svg">
<path d="M269.876 195.359C270.183 193.417 270.387 191.441 270.387 189.465L150.324 119.689C149.813 135.497 140.716 151.238 127.292 159.619L247.356 229.395C259.246 222.104 267.321 208.987 269.876 195.359Z" fill="white"/>
<path d="M247.322 229.6L247.22 229.566L126.917 159.653L127.156 159.517C140.614 151.136 149.642 135.532 150.119 119.723V119.45L270.558 189.363V189.465C270.558 191.373 270.387 193.349 270.047 195.359C267.355 209.703 258.906 222.479 247.424 229.497L247.322 229.6ZM127.599 159.619L247.322 229.191C258.701 222.206 267.049 209.532 269.706 195.325C270.047 193.349 270.217 191.407 270.217 189.567L150.494 119.996C149.881 135.702 140.92 151.204 127.599 159.619Z" fill="#26C6DC"/>
<path d="M253.284 186.535C232.706 177.779 227.323 217.675 251.819 212.701C251.104 208.885 250.422 205.239 248.889 199.482C250.491 196.006 252.024 192.736 253.284 186.535Z" fill="#F65841"/>
<path d="M253.284 186.535C252.535 189.976 251.853 193.247 248.855 199.481C249.911 203.502 250.729 206.704 251.785 212.701C264.221 209.532 265.073 194.132 253.284 186.535Z" fill="#8CC1E3"/>
<path d="M168.654 137.337C155.945 130.728 148.927 147.32 151.176 155.258C154.549 167.796 177.614 166.604 177.001 150.897C170.63 150.863 169.335 150.829 165.008 150.761C166.712 147.354 168.313 144.151 169.744 138.053C169.062 137.576 168.688 137.371 168.654 137.337Z" fill="#3992D8"/>
<path d="M169.744 138.053C168.96 141.29 168.143 144.662 165.008 150.761C170.289 150.829 170.971 150.863 177.001 150.897C176.592 145.685 174.173 141.358 169.744 138.053Z" fill="#F65841"/>
<path d="M149.131 164.934C148.995 164.832 148.995 164.764 149.131 164.628C149.608 164.185 149.608 164.185 149.711 164.185C150.699 164.151 149.336 165.275 149.131 164.934ZM150.29 163.912C149.268 163.265 147.428 165.343 149.234 165.207C148.654 165.718 148.654 165.718 148.586 165.718C148.177 165.82 148.007 165.445 148.348 165.309L147.973 165.071C147.155 165.752 148.143 166.093 148.416 166.093C148.825 166.127 149.063 165.922 149.165 165.854C150.665 164.423 150.971 164.662 150.29 163.912Z" fill="#F65841"/>
<path d="M152.402 165.207L151.176 164.491L150.835 164.798L151.653 165.275C150.869 165.684 149.813 166.229 148.995 166.604L149.404 166.842C150.358 166.331 151.619 165.888 152.402 165.207Z" fill="#F65841"/>
<path d="M150.869 167.183L150.46 166.944L150.12 167.217L150.528 167.455L150.869 167.183Z" fill="#F65841"/>
<path d="M154.412 166.365L153.254 165.684L151.959 166.842L152.334 167.081C152.675 166.774 152.981 167.047 152.947 167.149C152.947 167.217 152.879 167.251 152.845 167.285C152.232 167.796 152.232 167.796 152.164 167.83C151.721 167.932 151.619 167.558 151.925 167.387L151.516 167.183C150.665 167.898 151.823 168.205 151.959 168.239C152.675 168.273 153.561 167.285 153.492 167.183C153.561 166.91 153.015 166.638 152.709 166.74L153.288 166.229L154.038 166.672L154.412 166.365Z" fill="#F65841"/>
<path d="M153.458 168.75C153.288 168.648 153.288 168.546 153.424 168.409C153.799 168.103 153.799 168.069 153.935 168.069C154.889 168.103 153.765 169.091 153.458 168.75ZM154.549 167.83C154.174 167.66 154.923 167.149 154.991 167.183C155.741 167.251 154.821 168.103 154.549 167.83ZM155.503 166.944C154.957 166.536 153.833 167.081 154.003 167.762C152.913 167.694 152.232 169.057 153.629 169.193C154.276 169.193 154.957 168.682 154.753 168.205C155.298 168.273 156.388 167.524 155.503 166.944Z" fill="#F65841"/>
<path d="M212.979 163.094C211.957 167.898 211.071 170.828 208.311 176.518C204.53 177.711 200.952 178.835 195.297 180.13C204.734 203.536 236.488 179.721 212.979 163.094Z" fill="#004166"/>
<path d="M212.979 163.094C200.51 156.621 193.866 172.225 195.297 180.164C199.249 179.21 202.622 178.392 208.312 176.552C210.628 171.748 211.787 168.818 212.979 163.094Z" fill="#F2A444"/>
<path d="M193.457 191.271L194.752 190.725L193.832 191.509L193.457 191.271ZM195.74 190.385L195.263 190.112C194.99 190.248 192.844 191.032 192.741 191.305L193.525 191.748L193.048 192.156L193.457 192.395L193.934 191.986L194.138 192.122L194.479 191.85L194.275 191.713L195.74 190.385Z" fill="#F2A444"/>
<path d="M197.375 191.339L196.251 190.691L194.956 191.85L195.331 192.054C195.671 191.748 195.944 192.02 195.944 192.122C195.944 192.19 195.876 192.224 195.842 192.259C195.229 192.77 195.229 192.77 195.16 192.804C194.717 192.906 194.615 192.531 194.956 192.361L194.547 192.156C193.695 192.872 194.82 193.178 194.99 193.178C195.671 193.247 196.591 192.156 196.523 192.122C196.591 191.85 196.046 191.577 195.774 191.679L196.353 191.168L197.102 191.611L197.375 191.339Z" fill="#F2A444"/>
<path d="M196.285 193.553L195.876 193.315L195.535 193.621L195.91 193.86L196.285 193.553Z" fill="#F2A444"/>
<path d="M199.249 192.361C198.806 192.122 198.397 192.225 198.022 192.565L198.397 192.77C198.874 192.361 199.01 192.77 199.01 192.804C198.772 193.213 198.397 193.383 198.056 193.11L197.716 193.383C198.465 193.621 197.579 194.167 197.409 194.201C197.034 194.235 196.966 193.894 197.273 193.724L196.864 193.519C195.978 194.235 197.137 194.541 197.307 194.575C197.954 194.575 198.636 194.03 198.431 193.587C198.976 193.655 200.067 192.906 199.249 192.361Z" fill="#F2A444"/>
<path d="M198.772 195.086C198.601 194.984 198.601 194.882 198.738 194.746C199.112 194.439 199.112 194.405 199.249 194.405C200.169 194.439 199.044 195.427 198.772 195.086ZM199.862 194.166C199.487 193.996 200.237 193.485 200.305 193.519C201.054 193.587 200.135 194.439 199.862 194.166ZM200.816 193.281C200.271 192.872 199.147 193.451 199.317 194.098C198.261 194.03 197.545 195.359 198.908 195.495C199.555 195.495 200.237 194.984 200.032 194.507C200.578 194.575 201.668 193.826 200.816 193.281Z" fill="#F2A444"/>
<path d="M236.828 214.268L235.67 213.587L234.375 214.745L234.75 214.984C235.091 214.677 235.397 214.949 235.363 215.052C235.363 215.12 235.295 215.154 235.261 215.188C234.648 215.699 234.648 215.699 234.58 215.733C234.137 215.835 234.034 215.46 234.341 215.29L233.932 215.086C233.081 215.801 234.239 216.108 234.375 216.142C235.091 216.176 235.976 215.188 235.908 215.086C235.976 214.813 235.431 214.541 235.125 214.643L235.704 214.132L236.453 214.575L236.828 214.268Z" fill="#004166"/>
<path d="M235.874 216.619C235.704 216.517 235.704 216.414 235.84 216.278C236.215 215.972 236.215 215.937 236.351 215.937C237.271 215.972 236.147 216.994 235.874 216.619ZM236.931 215.733C236.556 215.563 237.305 215.052 237.373 215.086C238.123 215.154 237.237 216.006 236.931 215.733ZM237.884 214.847C237.339 214.438 236.215 214.983 236.385 215.665C235.295 215.597 234.614 216.96 236.011 217.096C236.658 217.096 237.339 216.585 237.135 216.108C237.68 216.142 238.77 215.392 237.884 214.847Z" fill="#004166"/>
<path d="M237.373 217.436L236.964 217.198L236.624 217.505L237.033 217.743L237.373 217.436Z" fill="#004166"/>
<path d="M238.566 217.471L239.895 216.925L238.975 217.709L238.566 217.471ZM240.849 216.619L240.372 216.346C240.099 216.483 237.953 217.266 237.85 217.539L238.634 217.982L238.157 218.39L238.566 218.629L239.043 218.22L239.247 218.356L239.588 218.084L239.384 217.948L240.849 216.619Z" fill="#004166"/>
<path d="M239.963 219.004C239.792 218.902 239.792 218.799 239.929 218.663C240.303 218.356 240.303 218.322 240.44 218.322C241.394 218.356 240.269 219.379 239.963 219.004ZM241.053 218.118C240.678 217.948 241.428 217.437 241.496 217.471C242.245 217.539 241.326 218.391 241.053 218.118ZM242.007 217.232C241.462 216.823 240.337 217.368 240.508 218.05C239.418 217.982 238.736 219.345 240.133 219.481C240.78 219.481 241.462 218.97 241.257 218.493C241.803 218.527 242.893 217.777 242.007 217.232Z" fill="#004166"/>
<path d="M127.258 159.619L74.4834 190.078L194.547 259.854L247.322 229.395L127.258 159.619Z" fill="white"/>
<path d="M194.547 260.058L194.479 260.024L74.1768 190.112L127.292 159.449L127.36 159.483L247.663 229.395L194.547 260.058ZM74.8241 190.078L194.547 259.65L246.981 229.361L127.258 159.79L74.8241 190.078Z" fill="#26C6DC"/>
<path d="M193.32 205.682L173.389 194.098L172.776 194.473L192.707 206.057L193.32 205.682Z" fill="#0477BF"/>
<path d="M189.471 207.931L155.707 188.306L155.094 188.647L188.857 208.272L189.471 207.931Z" fill="#0477BF"/>
<path d="M185.314 210.316L151.55 190.691L150.937 191.066L184.701 210.691L185.314 210.316Z" fill="#0477BF"/>
<path d="M181.157 212.701L147.394 193.076L146.781 193.451L180.544 213.075L181.157 212.701Z" fill="#0477BF"/>
<path d="M177.001 215.12L143.237 195.495L142.624 195.836L176.388 215.46L177.001 215.12Z" fill="#0477BF"/>
<path d="M232.195 228.271L212.264 216.687L211.616 217.028L231.547 228.611L232.195 228.271Z" fill="#0477BF"/>
<path d="M228.311 230.485L194.547 210.861L193.934 211.236L227.697 230.86L228.311 230.485Z" fill="#0477BF"/>
<path d="M224.154 232.904L190.391 213.28L189.777 213.621L223.541 233.245L224.154 232.904Z" fill="#0477BF"/>
<path d="M219.998 235.289L186.234 215.665L185.621 216.04L219.384 235.664L219.998 235.289Z" fill="#0477BF"/>
<path d="M215.875 237.674L182.077 218.05L181.464 218.424L215.228 238.049L215.875 237.674Z" fill="#0477BF"/>
<path d="M168.177 220.196L148.246 208.612L147.632 208.987L167.563 220.571L168.177 220.196Z" fill="#0477BF"/>
<path d="M164.327 222.445L130.563 202.82L129.916 203.195L163.679 222.785L164.327 222.445Z" fill="#0477BF"/>
<path d="M160.17 224.83L126.406 205.205L125.759 205.58L159.523 225.205L160.17 224.83Z" fill="#0477BF"/>
<path d="M156.014 227.249L122.25 207.624L121.603 207.965L155.366 227.589L156.014 227.249Z" fill="#0477BF"/>
<path d="M151.857 229.634L118.093 210.009L117.446 210.384L151.244 230.008L151.857 229.634Z" fill="#0477BF"/>
<path d="M207.017 242.785L187.086 231.201L186.472 231.576L206.404 243.16L207.017 242.785Z" fill="#0477BF"/>
<path d="M203.167 245.033L169.403 225.409L168.756 225.75L202.519 245.374L203.167 245.033Z" fill="#0477BF"/>
<path d="M199.01 247.418L165.247 227.794L164.633 228.169L198.397 247.793L199.01 247.418Z" fill="#0477BF"/>
<path d="M194.854 249.803L161.09 230.179L160.477 230.553L194.24 250.178L194.854 249.803Z" fill="#0477BF"/>
<path d="M190.697 252.222L156.933 232.598L156.32 232.938L190.084 252.563L190.697 252.222Z" fill="#0477BF"/>
<path d="M146.201 181.424C139.592 181.322 132.233 182.037 125.93 182.855C126.27 181.118 126.1 179.38 125.01 177.881L119.252 181.22L132.88 189.124L146.201 181.424ZM145.213 180.504L132.914 173.349L126.134 177.268C127.36 178.392 128.178 179.687 128.246 181.322C133.766 180.538 139.66 180.129 145.213 180.504Z" fill="#D9E8F5"/>
<path d="M148.075 181.492C147.462 181.458 146.849 181.458 146.201 181.424L132.846 189.124L119.218 181.22L124.976 177.881C124.805 177.608 124.601 177.336 124.362 177.097L117.037 181.322L132.607 190.385L148.075 181.492ZM148.075 180.811L133.084 172.089L125.282 176.586C125.555 176.791 125.827 177.029 126.1 177.234L132.88 173.315C134.924 174.338 145.69 181.595 148.075 180.811Z" fill="#0477BF"/>
<path d="M107.225 196.177L95.5388 196.108L107.293 202.922L107.225 196.177ZM120.546 196.245L109.508 196.177L109.576 202.582L120.546 196.245ZM107.123 188.204L95.7773 194.78L107.191 194.848L107.123 188.204ZM120.717 194.916L109.44 188.374L109.508 194.848L120.717 194.916Z" fill="#D9E8F5"/>
<path d="M109.337 186.978L108.349 186.398L92.3702 195.631L107.94 204.694L109.065 204.047L107.327 204.251V202.957L95.5728 196.142H93.4945L93.9375 194.814H95.8113L107.157 188.238V187.216L109.337 186.978ZM123.919 195.427L109.405 187.012V188.374L120.683 194.916H122.591L122.148 196.245H120.512L109.542 202.582V203.706L123.919 195.427Z" fill="#0477BF"/>
<path d="M152.641 181.867C144.838 179.482 136.253 180.334 128.212 181.322C128.042 177.983 124.805 175.905 121.875 174.849C124.601 176.654 126.815 179.516 125.964 182.855C134.379 181.833 144.021 180.811 152.641 181.867Z" fill="#BE1E2D"/>
<path d="M109.508 196.177H107.225C107.225 197.096 107.293 203.468 107.293 204.217C107.702 204.183 109.201 204.013 109.576 203.979C109.576 203.093 109.508 197.199 109.508 196.177ZM109.405 186.944C109.337 186.944 107.191 187.182 107.123 187.182C107.123 187.591 107.191 194.201 107.191 194.814H109.474C109.474 193.792 109.439 187.863 109.405 186.944Z" fill="#D9E8F5"/>
<path d="M122.591 194.95C114.175 194.882 102.285 194.814 93.8693 194.78L93.4264 196.108C101.808 196.177 113.766 196.245 122.148 196.279L122.591 194.95Z" fill="#D9E8F5"/>
<path d="M126.641 196.867C118.838 194.482 110.253 195.334 102.212 196.322C102.042 192.983 98.8052 190.905 95.8751 189.849C98.6007 191.654 100.815 194.516 99.9636 197.855C108.379 196.833 118.021 195.811 126.641 196.867Z" fill="#BE1E2D"/>
<path d="M191.617 261.217C192.639 260.876 193.593 260.399 194.547 259.854L74.4835 190.078C71.2468 191.986 66.9539 193.144 63.5128 191.134C64.5349 191.611 183.576 261.115 184.599 261.387C186.847 262.307 189.368 262.034 191.617 261.217Z" fill="white"/>
<path d="M187.631 262.137C186.609 262.137 185.553 261.966 184.53 261.557C183.917 261.387 146.304 239.514 100.922 213.075C81.4338 201.73 65.7955 192.633 63.6491 191.407C63.581 191.373 63.4788 191.305 63.4106 191.27L63.581 190.964C63.6151 190.964 63.6832 191.032 63.8195 191.1C67.8398 193.247 72.5415 190.998 74.4153 189.908L74.5175 189.874L74.6197 189.908L194.922 259.82L194.649 259.956C193.627 260.535 192.639 261.012 191.719 261.319C190.595 261.796 189.164 262.137 187.631 262.137ZM65.557 192.156C70.5654 195.052 84.432 203.127 101.058 212.803C135.912 233.109 183.679 260.91 184.599 261.251C186.575 262.034 189.028 261.966 191.549 261.046C192.401 260.74 193.252 260.365 194.172 259.854L74.4494 190.282C72.814 191.236 69.1344 192.974 65.557 192.156Z" fill="#26C6DC"/>
<path d="M270.115 103.948L150.051 34.1725L150.324 119.689L270.387 189.465L270.115 103.948Z" fill="white"/>
<path d="M270.558 189.771L270.285 189.635L150.153 119.825V119.723L149.915 33.8999L150.187 34.0362L270.285 103.846V103.948L270.558 189.771ZM150.494 119.587L270.217 189.158L269.979 104.017L150.256 34.445L150.494 119.587Z" fill="#26C6DC"/>
<path d="M262.722 107.049L161.533 48.2434V49.5381L262.722 108.309V107.049Z" fill="#0477BF"/>
<path d="M262.892 173.554L161.737 114.749V116.043L262.926 174.849L262.892 173.554Z" fill="#0477BF"/>
<path d="M190.391 80.7465L161.601 63.9839L161.703 102.415L190.527 119.178L190.391 80.7465Z" fill="#F65841"/>
<path d="M262.994 125.004L225.21 103.062V104.357L262.994 126.298V125.004Z" fill="#0477BF"/>
<path d="M263.028 133.112L199.01 95.9077V97.2024L263.028 134.373V133.112Z" fill="#0477BF"/>
<path d="M263.028 141.8L199.044 104.596V105.89L263.028 143.095V141.8Z" fill="#0477BF"/>
<path d="M263.062 150.488L199.078 113.318V114.578L263.062 151.783V150.488Z" fill="#0477BF"/>
<path d="M263.096 159.176L199.078 122.006V123.266L263.096 160.471V159.176Z" fill="#0477BF"/>
<path d="M289.535 70.321L169.471 0.545126L170.459 0L290.489 69.7759L289.535 70.321Z" fill="#DBDBDB"/>
<path d="M270.149 102.517C271.137 89.7071 278.564 77.1011 289.501 70.3211L169.437 0.545166C158.126 7.59771 150.46 20.817 150.051 34.1384L270.115 103.914C270.115 103.471 270.149 102.994 270.149 102.517Z" fill="white"/>
<path d="M270.285 104.221L270.013 104.085L149.847 34.2747V34.1725C150.256 20.7828 157.921 7.52951 169.335 0.442895L169.437 0.374756L169.539 0.442895L289.842 70.3551L289.603 70.4914C278.871 77.1351 271.307 89.707 270.319 102.551C270.285 102.994 270.285 103.471 270.285 103.948V104.221ZM150.222 34.0702L269.944 103.642C269.944 103.267 269.944 102.892 269.979 102.517C270.967 89.6729 278.496 77.0669 289.194 70.321L169.471 0.749526C158.228 7.80207 150.699 20.851 150.222 34.0702Z" fill="#26C6DC"/>
<path d="M263.914 82.5522C262.756 85.1757 261.427 88.1738 260.541 93.114L263.062 94.579L260.541 93.114C261.052 90.5247 261.631 87.5606 263.914 82.5522Z" fill="#D5E8F5"/>
<path d="M264.527 70.6277C261.223 75.0568 257.202 81.2576 255.567 90.2522L258.088 91.7172L255.567 90.2522C256.112 87.4243 256.555 85.4482 258.02 81.8368C258.906 82.3479 259.689 82.5523 260.848 82.5864C263.948 77.9869 262.858 75.0909 264.527 70.6277Z" fill="#D5E8F5"/>
<path d="M265.038 64.2906C264.595 64.0862 264.119 63.8818 262.96 63.984C254.102 73.2852 251.444 82.6545 250.661 87.3903L253.182 88.8553L250.661 87.3903C251.206 84.6646 251.921 80.9169 254.851 75.159C254.988 76.9988 255.328 78.2935 255.976 79.5541C257.339 76.5559 259.928 70.9684 265.788 65.1083C265.686 64.9379 265.515 64.5291 265.038 64.2906Z" fill="#D5E8F5"/>
<path d="M257.645 65.7216C256.964 66.0623 256.385 66.3689 255.601 66.8118C255.431 67.6976 255.328 68.3109 255.226 68.9923C255.942 68.0043 256.896 66.7096 257.645 65.7216Z" fill="#D5E8F5"/>
<path d="M244.085 71.1387C242.927 73.7621 241.632 76.7603 240.746 81.6323L243.268 83.0973L240.746 81.6323C241.257 79.043 241.837 76.1129 244.085 71.1387Z" fill="#D5E8F5"/>
<path d="M243.029 61.4969C241.291 64.1544 237.237 70.3211 235.806 78.7706L238.327 80.2356L235.806 78.7706C236.317 76.1812 237.646 69.3672 243.029 61.4969Z" fill="#D5E8F5"/>
<path d="M242.654 52.9792C240.303 55.5345 233.183 63.2685 230.832 75.8745L233.353 77.3395L230.832 75.8745C231.513 72.3652 232.058 70.4232 233.66 66.5051C238.804 65.8237 239.145 60.7813 243.676 56.0115C243.983 55.8411 244.153 54.1717 242.654 52.9792Z" fill="#D5E8F5"/>
<path d="M239.179 52.7068C231.275 54.751 228.89 61.4628 225.926 73.0127L228.447 74.4777L225.926 73.0127C226.505 70.1167 227.016 67.3911 229.469 62.0761C229.776 63.7796 230.219 64.8017 231.036 65.6535C232.672 62.008 234.75 57.7151 239.179 52.7068Z" fill="#D5E8F5"/>
<path d="M221.701 52.4342C219.01 57.17 217.204 61.0881 216.045 67.2888L218.567 68.7539L216.045 67.2888C217.136 61.6332 218.601 57.7492 221.701 52.4342Z" fill="#D5E8F5"/>
<path d="M223.302 41.0547C216.693 48.0391 212.809 55.4323 211.071 64.3928L213.592 65.8578L211.071 64.3928C210.935 61.7013 217.715 43.133 223.2 43.2352C223.336 42.0768 223.336 41.5657 223.302 41.0547Z" fill="#D5E8F5"/>
<path d="M221.837 38.4994C220.917 38.0224 219.963 37.8521 218.498 38.0224C210.049 46.8466 207.119 55.6708 206.131 61.4969L208.652 62.9619L206.131 61.4969C206.812 58.0558 207.426 55.4323 209.776 50.3559C210.969 50.0833 212.025 49.5382 214.308 48.1072C217.033 43.8144 218.601 41.8383 221.974 38.5676C221.939 38.5676 221.871 38.5335 221.837 38.4994Z" fill="#D5E8F5"/>
<path d="M213.252 39.726C211.344 40.6458 209.879 41.5317 207.153 43.3033C205.62 45.9267 202.417 51.378 201.191 58.6349L203.712 60.1L201.191 58.6349C201.906 55.0235 202.724 51.5483 205.722 45.8245C205.858 47.6643 206.233 48.7886 207.051 49.6745C208.38 46.9148 209.776 44.0869 213.252 39.726Z" fill="#D5E8F5"/>
<path d="M195.739 40.2371C194.002 43.7122 192.332 47.2896 191.31 52.9112L193.832 54.3762L191.31 52.9112C191.992 49.2998 192.809 45.8587 195.739 40.2371Z" fill="#D5E8F5"/>
<path d="M197.307 28.0057C191.31 34.922 187.631 42.3153 186.336 50.0151L188.857 51.4802L186.336 50.0151C187.869 42.2471 190.356 38.0565 190.629 37.5795C196.694 33.8999 196.659 34.8879 197.307 28.0057Z" fill="#D5E8F5"/>
<path d="M195.739 23.8832C195.194 23.5766 194.786 23.4744 194.07 23.3722C185.484 32.1623 182.452 41.1569 181.396 47.1532L183.917 48.6183L181.396 47.1532C182.248 42.8945 182.929 40.5095 185.246 35.6034C185.689 36.9662 186.302 37.7498 187.222 38.1587C190.084 32.4008 192.435 29.0279 196.659 24.7691C196.557 24.5646 196.285 24.1899 195.739 23.8832Z" fill="#D5E8F5"/>
<path d="M189.573 24.1217C188.244 24.6328 187.086 25.1779 185.518 26.0637C185.178 27.8694 185.041 29.0619 184.905 30.4247C186.643 27.7332 187.256 26.8473 189.573 24.1217Z" fill="#D5E8F5"/>
<path d="M169.301 29.4026C167.87 32.9459 167.257 34.8538 166.575 38.5334L169.097 39.9984L166.575 38.5334C167.257 35.0583 167.768 33.1503 169.301 29.4026Z" fill="#D5E8F5"/>
<path d="M166.746 21.7368C165.349 24.2921 162.794 29.0619 161.635 35.6375L164.156 37.1025L161.635 35.6375C162.317 32.1623 162.828 30.2544 164.395 26.4385C165.451 26.7111 166.405 26.7451 167.529 26.5407C167.632 26.3363 167.734 26.0637 167.666 25.8593C167.086 24.0877 166.814 22.316 166.746 21.7368Z" fill="#D5E8F5"/>
<path d="M167.529 26.5407C166.405 26.7451 165.451 26.711 164.395 26.4385C163.032 29.8455 162.385 31.6172 161.635 35.6374L164.156 37.1025C164.633 34.5131 165.213 31.549 167.529 26.5407Z" fill="#3992D8"/>
<path d="M178.023 20.374C175.842 21.8731 173.764 23.5085 171.516 24.8713C168.858 29.7774 167.563 33.2526 166.541 38.5335L169.062 39.9985C170.051 35.0242 171.958 28.3124 178.023 20.374Z" fill="#3992D8"/>
<path d="M185.416 17.9891C185.007 17.7847 184.701 17.6825 184.122 17.6825C175.57 26.4726 172.538 35.4331 171.516 41.3954L174.037 42.8604C175.808 33.8659 179.726 26.4045 186.336 19.4541C186.268 19.0794 186.098 18.398 185.416 17.9891Z" fill="#3992D8"/>
<path d="M185.893 24.0536C180.749 30.6973 177.921 36.7618 176.456 44.2913L178.977 45.7563C179.522 43.0648 180.612 37.4773 184.905 30.4929C185.075 28.2783 185.416 26.5748 185.893 24.0536Z" fill="#3992D8"/>
<path d="M185.28 35.5695C183.1 40.1689 182.316 42.5539 181.43 47.1193L183.951 48.5843C184.462 45.995 185.042 43.0649 187.29 38.0907C186.064 37.6477 185.553 36.5234 185.28 35.5695Z" fill="#3992D8"/>
<path d="M196.08 34.2065C191.072 37.3751 191.072 37.3751 190.663 37.5795C188.959 41.0206 187.324 44.5639 186.37 50.0151L188.891 51.4802C189.368 48.9249 190.697 42.0768 196.08 34.2065Z" fill="#3992D8"/>
<path d="M205.62 31.4469C204.598 30.9699 203.507 30.9358 201.804 31.4128C197.443 36.3871 192.809 44.1892 191.31 52.8771L193.832 54.3421C194.445 51.1395 196.353 41.3613 205.62 31.4469Z" fill="#3992D8"/>
<path d="M206.983 34.0021C201.123 40.8843 197.818 47.5961 196.217 55.773L198.738 57.238C199.113 54.5124 200.85 48.8908 202.622 45.6541C205.109 41.1568 207.119 39.4192 206.983 34.0021Z" fill="#3992D8"/>
<path d="M205.688 45.8246C203.507 50.1174 202.145 53.4222 201.157 58.635L203.678 60.1C204.189 57.5107 204.768 54.5806 207.017 49.6404C206.233 48.7887 205.858 47.6644 205.688 45.8246Z" fill="#3992D8"/>
<path d="M214.308 48.1414C212.025 49.5723 210.969 50.1174 209.776 50.39C208.141 53.9674 207.085 56.4886 206.131 61.531L208.652 62.996C209.742 57.3403 211.241 53.4563 214.308 48.1414Z" fill="#3992D8"/>
<path d="M225.824 42.5197C217.34 43.7121 213.729 53.9332 211.105 64.3928L213.626 65.8578C214.717 60.2021 217.17 51.6164 225.824 42.5197Z" fill="#3992D8"/>
<path d="M229.469 42.9285C229.435 42.8944 229.367 42.8944 229.333 42.8604C222.723 49.2315 217.885 57.3402 216.011 67.2547L218.533 68.7197C221.633 50.3558 234.716 45.2112 229.469 42.9285Z" fill="#3992D8"/>
<path d="M230.525 49.7426C225.347 56.3863 222.11 63.2344 220.952 70.1166L223.473 71.5816C224.052 68.4131 224.904 65.4489 226.437 61.9056C227.459 59.5889 229.197 57.6128 229.571 54.9894C229.844 53.2177 230.219 51.5142 230.525 49.7426Z" fill="#3992D8"/>
<path d="M229.469 62.0759C228.14 65.006 226.88 67.7657 225.926 73.0125L228.447 74.4775C229.06 71.343 229.537 69.4351 231.07 65.6533C230.219 64.8015 229.776 63.7454 229.469 62.0759Z" fill="#3992D8"/>
<path d="M237.816 64.6654C235.908 65.8579 234.852 66.3348 233.694 66.5052C232.229 70.0485 231.581 72.0246 230.866 75.8745L233.387 77.3395C234.068 73.7622 234.886 70.3211 237.816 64.6654Z" fill="#3992D8"/>
<path d="M249.298 58.192C247.492 58.9075 244.937 59.623 243.029 61.4628C241.291 64.1202 237.237 70.287 235.806 78.7364L238.327 80.2014C239.963 71.8201 243.642 64.4269 249.298 58.192Z" fill="#3992D8"/>
<path d="M254.851 58.2261C254.613 58.0898 254.238 57.8854 253.523 57.7491C246.709 64.972 243.029 70.9343 240.746 81.6324L243.268 83.0974C245.55 71.5476 251.41 63.7796 255.942 59.3164C255.771 59.0438 255.533 58.635 254.851 58.2261Z" fill="#3992D8"/>
<path d="M256.282 62.9279C252.364 67.5614 247.663 74.2051 245.687 84.5284L248.208 85.9934C249.468 79.6223 251.376 75.0228 255.226 69.0264C255.533 66.9822 256.01 64.9721 256.282 62.9279Z" fill="#3992D8"/>
<path d="M254.851 75.1589C253.523 77.8846 251.683 81.6664 250.661 87.3902L253.182 88.8552C253.863 85.38 254.408 83.438 255.976 79.5881C255.328 78.2934 254.988 76.9987 254.851 75.1589Z" fill="#3992D8"/>
<path d="M260.848 82.5863C260.371 82.5863 259.212 82.5182 258.02 81.8368C256.93 84.7328 256.214 86.7429 255.567 90.2522L258.088 91.7172C258.701 88.6168 259.11 86.8111 260.848 82.5863Z" fill="#3992D8"/>
<path d="M268.173 80.6785C266.469 81.3599 265.345 81.7687 264.152 82.1094C262.79 85.1076 261.529 87.9014 260.541 93.1482L263.062 94.6132C263.539 91.9898 264.493 87.1859 268.173 80.6785Z" fill="#3992D8"/>
<path d="M177.955 251.677V245.851L57.8571 176.075C57.5846 181.731 57.789 190.214 62.6951 192.497L182.759 262.273C179.795 260.535 177.955 256.856 177.955 251.677Z" fill="#CCCCCC"/>
<path d="M290.489 69.776V71.0366C243.813 97.9862 300.54 200.572 247.288 230.656L194.513 261.149C181.328 268.269 176.762 257.708 177.887 245.851L178.977 245.204C177.921 256.174 181.805 266.668 194.479 259.854L247.254 229.361C299.347 199.72 241.905 98.5654 290.489 69.776Z" fill="#CCCCCC"/>
<path d="M186.915 263.602C185.246 263.602 183.781 263.193 182.52 262.307C178.772 259.82 177.001 253.653 177.75 245.783V245.681L179.215 244.829L179.181 245.17C178.466 252.631 180.101 258.423 183.508 260.706C186.2 262.477 189.879 262.137 194.445 259.684V259.718C194.649 259.581 195.194 259.241 196.693 258.389L247.22 229.225C273.59 214.2 271.716 180.334 269.91 147.626C269.059 131.92 268.139 115.669 270.49 101.972C273.113 86.6066 279.62 76.0107 290.387 69.6396L290.659 69.5033V71.1727L290.557 71.2068C268.071 84.1876 269.638 114.442 271.341 146.502C273.113 180.3 274.953 215.256 247.39 230.86V230.826C247.22 230.962 246.675 231.269 245.141 232.155L194.615 261.319C191.753 262.818 189.164 263.602 186.915 263.602ZM178.091 245.953C177.376 253.619 179.079 259.649 182.691 262.068C185.587 264.01 189.539 263.636 194.445 261.012C194.956 260.706 247.049 230.656 247.22 230.553C274.612 215.086 272.772 180.232 271.001 146.536C270.149 130.353 269.365 115.089 271.58 101.802C274.101 86.7428 280.029 76.9647 290.319 71.0024V70.1506C279.791 76.4877 273.42 86.9473 270.83 102.109C268.514 115.771 269.399 132.022 270.251 147.695C272.057 180.538 273.931 214.472 247.39 229.634C246.879 229.94 194.717 260.058 194.615 260.126C189.913 262.648 186.098 262.988 183.304 261.149C179.829 258.832 178.159 253.074 178.807 245.647L178.091 245.953Z" fill="#26C6DC"/>
<path d="M177.921 245.851L57.8571 176.075L58.9473 175.428L179.011 245.204L177.921 245.851Z" fill="#E6E6E6"/>
<path d="M131.8 45C131.8 54.2628 123.623 61.8 113.5 61.8C103.377 61.8 95.2 54.2628 95.2 45C95.2 35.7372 103.377 28.2 113.5 28.2C123.623 28.2 131.8 35.7372 131.8 45Z" fill="white" stroke="#26C6DC" stroke-width="0.4"/>
<circle cx="250" cy="240.4" r="42.8" fill="white" stroke="#26C6DC" stroke-width="0.4"/>
<path d="M108.8 67.5C108.8 69.8392 106.467 71.8 103.5 71.8C100.533 71.8 98.2 69.8392 98.2 67.5C98.2 65.1608 100.533 63.2 103.5 63.2C106.467 63.2 108.8 65.1608 108.8 67.5Z" fill="white" stroke="#26C6DC" stroke-width="0.4"/>
<path d="M98.925 75C98.925 76.5156 97.4531 77.8 95.5625 77.8C93.6719 77.8 92.2 76.5156 92.2 75C92.2 73.4844 93.6719 72.2 95.5625 72.2C97.4531 72.2 98.925 73.4844 98.925 75Z" fill="white" stroke="#26C6DC" stroke-width="0.4"/>
<path d="M105.925 54.7342L105.729 53.9821L112.166 48.7129L112.358 49.4692L105.925 54.7342Z" fill="#2C75AE"/>
<path d="M107.626 34.2137L107.431 33.4617L109.483 34.5048L107.626 34.2137Z" fill="#729BB6"/>
<path d="M115.177 33.2505L113.483 40.5616C112.654 40.3686 111.809 40.4914 111.094 40.8652L107.626 34.2179C109.893 33.0322 112.564 32.6448 115.177 33.2505Z" fill="#729BB6"/>
<path d="M107.545 34.5439L111.012 41.1912C110.276 41.5737 109.677 42.2194 109.363 43.0551C108.812 44.5261 109.322 46.1361 110.513 47.0408L105.969 53.0115C102.216 50.151 100.598 45.0651 102.335 40.4267C103.322 37.7857 105.221 35.7514 107.545 34.5439Z" fill="#002840"/>
<path d="M117.641 34.3072C123.311 36.4282 126.196 42.7703 124.071 48.441L117.042 45.8084C117.716 44.0115 116.805 42.0059 115.008 41.3318C114.866 41.2762 114.72 41.2331 114.574 41.2025L116.268 33.8914C116.726 33.9995 117.185 34.1367 117.641 34.3072Z" fill="#CA5544"/>
<path d="M116.871 46.9322L123.9 49.5648C122.167 54.1908 117.629 56.9648 112.937 56.6739L113.399 49.1852C114.887 49.2753 116.324 48.3989 116.871 46.9322Z" fill="#D28D38"/>
<path d="M112.358 49.4692L111.896 56.9579C110.836 56.8935 109.77 56.6715 108.725 56.2831C107.697 55.8986 106.754 55.3714 105.925 54.7384L110.469 48.7677C110.734 48.9665 111.032 49.1356 111.358 49.2585C111.688 49.3772 112.025 49.446 112.358 49.4692Z" fill="#2C75AE"/>
<path d="M114.574 41.2024L114.378 40.4503L116.985 40.4086L114.574 41.2024Z" fill="#CA5544"/>
<path d="M117.042 45.8084L116.846 45.0563L117.752 44.181C117.752 44.181 117.69 45.5977 117.699 45.6225C117.716 45.6471 117.042 45.8084 117.042 45.8084Z" fill="#CA5544"/>
<path d="M114.981 32.4984L115.177 33.2505L114.034 34.1258L114.981 32.4984Z" fill="#729BB6"/>
<path d="M112.937 56.6698L112.741 55.9177L123.704 48.8086L123.9 49.5607L112.937 56.6698Z" fill="#D28D38"/>
<path d="M107.112 34.256L110.58 40.9033C109.843 41.2857 109.244 41.9314 108.931 42.7672C108.38 44.2381 108.89 45.8481 110.081 46.7528L105.536 52.7235C101.783 49.863 100.166 44.7772 101.902 40.1387C102.89 37.4977 104.788 35.4634 107.112 34.256Z" fill="#004166"/>
<path d="M114.981 32.4984L113.288 39.8095C112.458 39.6165 111.614 39.7394 110.898 40.1131L107.431 33.4658C109.701 32.2801 112.368 31.8885 114.981 32.4984Z" fill="#8CC1E3"/>
<path d="M117.445 33.5551C123.115 35.6762 126 42.0182 123.875 47.6889L116.846 45.0563C117.52 43.2594 116.609 41.2538 114.812 40.5797C114.67 40.5241 114.524 40.481 114.378 40.4504L116.072 33.1393C116.53 33.2475 116.989 33.3847 117.445 33.5551Z" fill="#F65841"/>
<path d="M116.679 46.176L123.708 48.8086C121.975 53.4345 117.437 56.2086 112.745 55.9177L113.207 48.429C114.691 48.5233 116.128 47.6469 116.679 46.176Z" fill="#F2A444"/>
<path d="M112.166 48.713L111.704 56.2017C110.644 56.1373 109.578 55.9153 108.533 55.5269C107.505 55.1423 106.562 54.6151 105.733 53.9822L110.277 48.0115C110.542 48.2102 110.84 48.3794 111.166 48.5023C111.492 48.6252 111.829 48.694 112.166 48.713Z" fill="#3992D8"/>
<path d="M257.242 206.076L251.664 228.365C249.135 227.729 246.543 228.06 244.332 229.165L234.077 208.63C241.079 205.123 249.275 204.081 257.242 206.076Z" fill="#2C75AE"/>
<path d="M233.06 211.032L243.315 231.567C241.041 232.698 239.173 234.642 238.169 237.184C236.402 241.656 237.876 246.612 241.473 249.446L227.24 267.478C215.906 258.519 211.229 242.864 216.795 228.759C219.959 220.728 225.881 214.603 233.06 211.032Z" fill="#729BB6"/>
<path d="M264.727 209.444C281.971 216.242 290.459 235.811 283.648 253.055L262.274 244.617C264.435 239.153 261.753 232.965 256.289 230.805C255.857 230.627 255.412 230.487 254.968 230.385L260.546 208.097C261.944 208.452 263.342 208.897 264.727 209.444Z" fill="#CA5544"/>
<path d="M261.69 248.048L283.064 256.486C277.51 270.553 263.469 278.8 249.122 277.656L250.94 254.758C255.489 255.114 259.936 252.509 261.69 248.048Z" fill="#E0983F"/>
<path d="M247.737 255.571L245.92 278.469C242.68 278.215 239.427 277.478 236.25 276.233C233.124 275 230.265 273.336 227.761 271.353L241.993 253.322C242.794 253.944 243.696 254.478 244.687 254.872C245.691 255.253 246.721 255.482 247.737 255.571Z" fill="#00314E"/>
<path d="M234.077 208.618L233.518 206.305L239.745 209.609L234.077 208.618Z" fill="#2C75AE"/>
<path d="M243.303 231.567L242.756 229.254L238.423 228.86L240.316 231.605L243.303 231.567Z" fill="#729BB6"/>
<path d="M241.46 249.446L240.913 247.133L235.83 249.23L241.46 249.446Z" fill="#729BB6"/>
<path d="M227.761 271.341L227.202 269.028L247.191 253.246L247.737 255.571L227.761 271.341Z" fill="#00314E"/>
<path d="M254.968 230.385L254.409 228.072L262.389 228.085L254.968 230.385Z" fill="#CA5544"/>
<path d="M262.274 244.617L261.715 242.305L264.536 239.674C264.536 239.674 264.269 244.007 264.295 244.084C264.346 244.16 262.274 244.617 262.274 244.617Z" fill="#CA5544"/>
<path d="M256.683 203.763L257.242 206.076L253.697 208.694L256.683 203.763Z" fill="#2C75AE"/>
<path d="M249.122 277.643L248.563 275.331L282.504 254.16L283.064 256.473L249.122 277.643Z" fill="#E0983F"/>
<path d="M232.501 208.719L242.756 229.254C240.481 230.385 238.613 232.329 237.61 234.871C235.843 239.344 237.317 244.3 240.913 247.133L226.681 265.165C215.346 256.206 210.67 240.551 216.236 226.446C219.4 218.415 225.322 212.29 232.501 208.719Z" fill="#8CC1E3"/>
<path d="M256.683 203.763L251.105 226.052C248.576 225.417 245.984 225.747 243.773 226.853L233.518 206.318C240.532 202.81 248.716 201.756 256.683 203.763Z" fill="#3992D8"/>
<path d="M264.168 207.131C281.411 213.929 289.9 233.498 283.089 250.742L261.715 242.305C263.875 236.84 261.194 230.652 255.73 228.492C255.298 228.314 254.853 228.174 254.409 228.072L259.987 205.784C261.385 206.14 262.783 206.584 264.168 207.131Z" fill="#F65841"/>
<path d="M261.144 245.723L282.517 254.161C276.964 268.227 262.923 276.474 248.576 275.331L250.393 252.432C254.93 252.801 259.377 250.196 261.144 245.723Z" fill="#F2A444"/>
<path d="M247.191 253.246L245.374 276.144C242.133 275.89 238.88 275.153 235.703 273.908C232.577 272.675 229.718 271.01 227.215 269.028L241.447 250.996C242.248 251.619 243.15 252.153 244.141 252.547C245.132 252.941 246.161 253.169 247.191 253.246Z" fill="#004166"/>
<path d="M11.5294 174.921C11.5294 174.921 17.424 172.956 20.2403 186.579C23.0567 200.202 23.5151 207.734 23.5151 207.734C23.5151 207.734 24.4321 210.681 26.5934 209.503C28.7548 208.324 32.3571 204.328 35.1079 205.966C37.9242 207.669 37.9897 211.336 36.0248 216.118C34.06 220.899 30.2612 231.64 29.8682 232.623C29.5407 233.605 29.6717 235.177 31.3091 234.587C32.881 233.998 43.0329 227.514 45.8492 232.492C48.6655 237.469 41.068 249.979 40.2821 251.42C39.4961 252.795 39.6271 253.516 40.2166 254.105C40.806 254.695 44.0153 252.14 46.9626 250.437C49.9099 248.669 53.6432 247.228 55.0186 250.241C56.394 253.254 54.2982 263.602 40.0201 277.553L33.012 283.578L24.2356 280.631C5.76576 273.23 -0.128864 264.454 0.0021274 261.113C0.133119 257.773 4.12836 257.773 7.53415 258.231C10.9399 258.69 14.8697 259.803 15.1972 259.083C15.5246 258.362 15.3936 257.642 14.0837 256.66C12.8393 255.677 0.984565 247.032 1.70502 241.334C2.42547 235.635 14.2802 237.797 15.9176 237.731C17.6205 237.666 17.162 236.094 16.5071 235.373C15.7866 234.587 8.18911 226.204 4.52134 222.471C0.919069 218.737 -0.456343 215.332 1.50853 212.712C3.40791 210.158 8.2546 212.515 10.6779 212.712C13.1013 212.908 12.8393 209.896 12.8393 209.896C12.8393 209.896 10.3505 202.756 7.79613 189.133C5.24179 175.445 11.5949 175.052 11.5949 175.052" fill="#E0D9E0"/>
<path d="M33.0776 281.548C31.1782 271.527 28.3619 257.708 25.2181 242.447C22.0743 227.187 19.258 213.367 17.2931 203.346C16.3107 198.368 15.5247 194.308 14.9353 191.491C14.6733 190.116 14.4113 189.002 14.2803 188.282C14.2148 187.955 14.1493 187.627 14.0838 187.431C14.0183 187.234 14.0183 187.169 14.0183 187.169C14.0183 187.169 14.0183 187.3 14.0838 187.431C14.1493 187.627 14.1493 187.889 14.2148 188.282C14.3458 189.068 14.5423 190.116 14.8043 191.491C15.3282 194.308 16.0487 198.368 17.0311 203.346C18.9305 213.367 21.7468 227.187 24.8906 242.447C28.0344 257.708 30.8507 271.527 32.8156 281.548" fill="white"/>
<path d="M30.1958 211.795C30.1958 211.795 30.0648 211.991 29.8028 212.319C29.5408 212.646 29.2133 213.236 28.8204 213.891C28.0344 215.201 26.9865 217.035 25.8731 219.13C24.7596 221.161 23.7772 222.995 23.0567 224.436C22.7293 225.091 22.4018 225.615 22.2053 226.008C22.0088 226.4 21.8778 226.597 21.9433 226.597C21.9433 226.597 22.0743 226.4 22.3363 226.073C22.5983 225.746 22.9257 225.156 23.3187 224.501C24.1047 223.191 25.1526 221.292 26.266 219.261C27.3795 217.231 28.3619 215.397 29.1478 214.022C29.4753 213.367 29.8028 212.843 29.9993 212.45C30.1303 212.057 30.2613 211.795 30.1958 211.795Z" fill="white"/>
<path d="M21.0264 226.466C21.0919 226.4 17.3586 224.043 12.7739 221.226C8.1892 218.41 4.39044 216.183 4.32495 216.314C4.25945 216.38 7.99271 218.737 12.5774 221.554C17.2276 224.37 20.9609 226.597 21.0264 226.466Z" fill="white"/>
<path d="M26.921 249.717C26.921 249.717 26.7245 249.652 26.266 249.521C25.8075 249.39 25.1526 249.193 24.4976 249.062C22.9912 248.669 20.8953 248.08 18.603 247.359C16.3106 246.639 14.2803 245.918 12.8394 245.394C12.1844 245.132 11.5949 244.936 11.071 244.739C10.678 244.608 10.416 244.543 10.416 244.543C10.416 244.543 10.6125 244.674 11.0055 244.87C11.3985 245.067 11.9879 245.329 12.7084 245.591C14.1493 246.18 16.1796 246.901 18.472 247.621C20.7644 248.342 22.8602 248.866 24.3666 249.259C25.1526 249.455 25.742 249.586 26.2005 249.652C26.659 249.717 26.8555 249.717 26.921 249.717Z" fill="white"/>
<path d="M38.1207 238.255C38.1207 238.255 37.9242 238.386 37.6622 238.648C37.3347 238.91 36.9418 239.303 36.4178 239.827C35.3699 240.81 33.929 242.25 32.3571 243.757C30.7852 245.329 29.4098 246.704 28.3618 247.752C27.8379 248.276 27.4449 248.669 27.1829 248.997C26.9209 249.324 26.7899 249.455 26.7899 249.455C26.7899 249.455 26.9864 249.324 27.2484 249.062C27.5759 248.8 27.9688 248.407 28.4928 247.883C29.5407 246.901 30.9817 245.46 32.5536 243.953C34.1255 242.381 35.5009 241.006 36.5488 239.958C37.0728 239.434 37.4657 239.041 37.7277 238.714C37.9897 238.452 38.1207 238.255 38.1207 238.255Z" fill="white"/>
<path d="M45.9146 258.1C45.9146 258.1 45.6526 258.297 45.3251 258.624C44.9322 259.017 44.3427 259.541 43.6877 260.131C42.3123 261.375 40.4784 263.209 38.4481 265.174C36.4177 267.139 34.5838 268.973 33.2739 270.283C32.6844 270.938 32.1605 271.462 31.7675 271.855C31.44 272.247 31.2435 272.444 31.2435 272.444C31.2435 272.444 31.5055 272.247 31.833 271.92C32.226 271.527 32.8154 271.003 33.4704 270.414C34.8458 269.169 36.6797 267.335 38.71 265.37C40.7404 263.406 42.5743 261.572 43.8842 260.262C44.4737 259.607 44.9976 259.083 45.3906 258.69C45.7181 258.297 45.9146 258.1 45.9146 258.1Z" fill="white"/>
<path d="M31.5056 271.985C31.5056 271.985 31.2436 271.854 30.7196 271.723C30.1302 271.527 29.4097 271.331 28.4928 271.003C26.5934 270.414 23.9736 269.562 21.0917 268.58C18.2099 267.597 15.6556 266.615 13.8217 265.96C12.9048 265.632 12.1843 265.37 11.5949 265.108C11.0709 264.912 10.8089 264.846 10.7434 264.846C10.7434 264.846 11.0054 264.977 11.5294 265.239C12.0533 265.436 12.7738 265.763 13.6907 266.156C15.5246 266.942 18.0789 267.925 20.9608 268.907C23.8426 269.89 26.4624 270.676 28.3618 271.2C29.3442 271.461 30.0647 271.658 30.6541 271.789C31.1781 271.92 31.5056 271.985 31.5056 271.985Z" fill="white"/>
<path d="M68.6257 240.216C68.6257 240.216 66.2438 239.558 65.4089 245.027C64.574 250.496 64.5486 253.497 64.5486 253.497C64.5486 253.497 64.2458 254.687 63.3629 254.263C62.48 253.84 60.9663 252.328 59.9079 253.036C58.8249 253.771 58.8752 255.229 59.755 257.087C60.6349 258.945 62.3671 263.131 62.5436 263.513C62.6941 263.897 62.6748 264.524 62.0122 264.324C61.3757 264.122 57.2091 261.759 56.1942 263.794C55.1793 265.829 58.457 270.639 58.7991 271.195C59.1398 271.725 59.1028 272.014 58.881 272.26C58.6592 272.507 57.3315 271.559 56.1255 270.944C54.9182 270.303 53.4056 269.809 52.9221 271.034C52.4386 272.259 53.4863 276.325 59.447 281.568L62.3556 283.815L65.7797 282.462C72.9608 279.138 75.1191 275.53 74.9975 274.206C74.876 272.883 73.2893 272.966 71.9463 273.219C70.6033 273.472 69.0658 273.996 68.9207 273.716C68.7757 273.437 68.8127 273.148 69.3125 272.731C69.7863 272.315 74.3143 268.635 73.9096 266.387C73.5049 264.139 68.8419 265.244 68.1902 265.252C67.5126 265.261 67.6619 264.627 67.9071 264.328C68.1768 264.001 71.0196 260.513 72.3985 258.954C73.7514 257.397 74.2268 256.015 73.3919 255.016C72.5844 254.041 70.7087 255.078 69.7504 255.207C68.7921 255.335 68.8334 254.133 68.8334 254.133C68.8334 254.133 69.6732 251.246 70.4041 245.783C71.1336 240.293 68.6024 240.269 68.6024 240.269" fill="#E0D9E0"/>
<path d="M63.2874 283.01C63.8331 278.991 64.664 273.444 65.5949 267.318C66.5258 261.192 67.3566 255.645 67.9284 251.625C68.2149 249.628 68.4425 247.998 68.618 246.868C68.6934 246.316 68.7743 245.868 68.8113 245.58C68.8305 245.448 68.8497 245.317 68.8717 245.237C68.8936 245.158 68.8922 245.132 68.8922 245.132C68.8922 245.132 68.8949 245.184 68.8717 245.237C68.8497 245.317 68.8552 245.421 68.8374 245.578C68.8017 245.893 68.7455 246.313 68.6701 246.865C68.5206 247.994 68.319 249.622 68.0324 251.619C67.4867 255.639 66.6558 261.185 65.7249 267.311C64.794 273.437 63.9632 278.984 63.3914 283.005" fill="white"/>
<path d="M62.9799 255.249C62.9799 255.249 63.036 255.324 63.1469 255.449C63.2577 255.573 63.4001 255.801 63.5697 256.052C63.9091 256.556 64.3635 257.263 64.8493 258.072C65.3337 258.855 65.7621 259.563 66.0782 260.12C66.2219 260.374 66.3628 260.575 66.449 260.727C66.5352 260.879 66.5914 260.954 66.5653 260.955C66.5653 260.955 66.5092 260.88 66.3984 260.756C66.2875 260.631 66.1452 260.404 65.9755 260.152C65.6361 259.648 65.1804 258.915 64.696 258.132C64.2115 257.349 63.7832 256.641 63.4424 256.111C63.2987 255.858 63.1578 255.657 63.0716 255.505C63.0114 255.351 62.9539 255.25 62.9799 255.249Z" fill="white"/>
<path d="M66.9268 260.884C66.8994 260.86 68.333 259.846 70.0951 258.632C71.8573 257.418 73.3196 256.454 73.3483 256.505C73.3757 256.53 71.9421 257.544 70.18 258.758C68.3918 259.973 66.9555 260.935 66.9268 260.884Z" fill="white"/>
<path d="M65.0698 270.241C65.0698 270.241 65.1465 270.211 65.3258 270.149C65.5052 270.088 65.7612 269.996 66.0186 269.93C66.6086 269.743 67.4287 269.465 68.3241 269.131C69.2195 268.797 70.0108 268.469 70.5722 268.231C70.8268 268.113 71.0568 268.023 71.2608 267.934C71.4142 267.874 71.5168 267.842 71.5168 267.842C71.5168 267.842 71.4415 267.899 71.2896 267.985C71.1376 268.071 70.9089 268.187 70.6283 268.306C70.0683 268.57 69.277 268.899 68.3816 269.233C67.4862 269.566 66.6647 269.818 66.0747 270.006C65.7666 270.1 65.5353 270.164 65.3546 270.2C65.1738 270.235 65.0958 270.239 65.0698 270.241Z" fill="white"/>
<path d="M60.3834 265.922C60.3834 265.922 60.4642 265.97 60.5737 266.069C60.7092 266.166 60.8734 266.314 61.0924 266.511C61.529 266.879 62.1313 267.421 62.7869 267.987C63.4439 268.579 64.0187 269.096 64.4567 269.491C64.6757 269.688 64.8399 269.836 64.9508 269.96C65.0617 270.085 65.1164 270.134 65.1164 270.134C65.1164 270.134 65.0356 270.086 64.9261 269.988C64.7906 269.89 64.6264 269.742 64.4074 269.545C63.9708 269.177 63.3686 268.635 62.7129 268.069C62.056 267.478 61.4811 266.96 61.0431 266.566C60.8241 266.368 60.6599 266.221 60.549 266.096C60.4395 265.997 60.3834 265.922 60.3834 265.922Z" fill="white"/>
<path d="M57.7013 273.966C57.7013 273.966 57.8094 274.038 57.9463 274.161C58.1105 274.309 58.3555 274.505 58.6279 274.725C59.2 275.191 59.9665 275.881 60.8137 276.619C61.661 277.357 62.4274 278.047 62.9749 278.54C63.2227 278.788 63.4416 278.985 63.6059 279.133C63.7441 279.283 63.8262 279.357 63.8262 279.357C63.8262 279.357 63.7181 279.284 63.5812 279.161C63.417 279.013 63.172 278.817 62.8996 278.597C62.3275 278.131 61.561 277.441 60.7138 276.703C59.8666 275.965 59.1001 275.275 58.5526 274.782C58.3049 274.534 58.0859 274.337 57.9216 274.189C57.7834 274.039 57.7013 273.966 57.7013 273.966Z" fill="white"/>
<path d="M63.7126 279.18C63.7126 279.18 63.8139 279.122 64.0193 279.06C64.2493 278.969 64.5313 278.876 64.8886 278.727C65.6307 278.453 66.6534 278.061 67.7774 277.611C68.9015 277.16 69.8954 276.717 70.6101 276.419C70.9674 276.27 71.2481 276.151 71.4768 276.034C71.6808 275.945 71.7834 275.914 71.8094 275.913C71.8094 275.913 71.7081 275.97 71.5055 276.085C71.3015 276.174 71.0222 276.319 70.6662 276.494C69.9543 276.844 68.9603 277.288 67.8363 277.738C66.7122 278.188 65.6882 278.555 64.9447 278.802C64.56 278.927 64.278 279.02 64.0466 279.084C63.8413 279.147 63.7126 279.18 63.7126 279.18Z" fill="white"/>
<path d="M70.9751 8.32007H12.3451V93.2751H70.9751V8.32007Z" fill="#CAC0CA"/>
<path d="M68.0498 8.31982H9.4198V93.2748H68.0498V8.31982Z" fill="#E0D9E0"/>
<path d="M60.7701 17.5499H16.7001V84.1099H60.7701V17.5499Z" fill="white"/>
<path d="M60.7051 84.11C60.7051 84.11 60.7051 83.98 60.7051 83.785C60.7051 83.59 60.7051 83.265 60.7051 82.81C60.7051 81.965 60.7051 80.73 60.7051 79.17C60.7051 75.985 60.7051 71.305 60.6401 65.455C60.6401 53.69 60.5751 37.115 60.5751 17.55L60.7051 17.68C47.2501 17.68 32.3651 17.68 16.6351 17.68L16.7651 17.55C16.7651 42.64 16.7651 65.78 16.7651 84.11L16.6351 83.98C30.0251 83.98 41.0101 84.045 48.6801 84.045C52.5151 84.045 55.5051 84.045 57.5201 84.045C58.5601 84.045 59.3401 84.045 59.8601 84.045C60.4451 84.045 60.7051 84.11 60.7051 84.11C60.7051 84.11 60.4451 84.11 59.9251 84.11C59.4051 84.11 58.6251 84.11 57.6501 84.11C55.6351 84.11 52.6451 84.11 48.8101 84.11C41.1401 84.11 30.0901 84.175 16.7001 84.175H16.5701V84.045C16.5701 65.78 16.5701 42.575 16.5701 17.485V17.355H16.7001C32.3651 17.355 47.2501 17.355 60.7701 17.355H60.9001V17.485C60.9001 37.115 60.8351 53.755 60.8351 65.52C60.8351 71.37 60.8351 75.985 60.7701 79.17C60.7701 80.73 60.7701 81.965 60.7701 82.81C60.7701 83.2 60.7701 83.525 60.7701 83.72C60.7051 83.98 60.7051 84.11 60.7051 84.11Z" fill="#E0E0E0"/>
<path d="M68.18 8.32007C68.245 8.32007 67.79 8.90507 67.14 9.81507C66.49 10.7251 65.515 11.9601 64.41 13.3251C63.305 14.6901 62.265 15.8601 61.485 16.7051C60.705 17.5501 60.25 18.0701 60.185 18.0051C60.12 18.0051 60.575 17.4201 61.29 16.5101C62.07 15.5351 63.045 14.3651 64.085 13.0651C65.125 11.7651 66.1 10.5951 66.88 9.62007C67.66 8.84007 68.115 8.32007 68.18 8.32007Z" fill="#E0E0E0"/>
<path d="M60.9651 83.85C63.1751 87.36 65.7101 90.545 68.6351 93.47L60.9651 83.85Z" fill="white"/>
<path d="M68.635 93.47C68.635 93.47 68.115 93.015 67.27 92.235C66.49 91.455 65.45 90.285 64.345 88.985C63.305 87.62 62.395 86.385 61.81 85.41C61.225 84.435 60.9 83.85 60.9 83.85C60.965 83.85 61.355 84.37 62.005 85.28C62.655 86.19 63.565 87.425 64.605 88.725C65.645 90.025 66.685 91.195 67.4 92.04C68.18 92.95 68.635 93.47 68.635 93.47Z" fill="#E0E0E0"/>
<path d="M9.42004 93.21C11.955 90.025 14.555 86.905 17.09 83.72L9.42004 93.21Z" fill="white"/>
<path d="M17.09 83.72C17.155 83.785 15.465 85.93 13.385 88.53C11.24 91.13 9.48503 93.21 9.42003 93.145C9.35503 93.08 11.045 90.935 13.125 88.335C15.205 85.735 17.025 83.72 17.09 83.72Z" fill="#E0E0E0"/>
<path d="M9.42005 8.32001C9.48505 8.25501 11.1751 10.27 13.1251 12.805C15.1401 15.34 16.7001 17.42 16.5701 17.485C16.5051 17.55 14.8151 15.535 12.8651 13C10.9151 10.465 9.35505 8.38501 9.42005 8.32001Z" fill="#E0E0E0"/>
<path d="M46.9901 31.0701H32.2351V72.9301H46.9901V31.0701Z" fill="#E0D9E0"/>
<path d="M295.225 283.715C295.225 283.78 231.265 283.91 152.42 283.91C73.51 283.91 9.55005 283.845 9.55005 283.715C9.55005 283.65 73.51 283.52 152.42 283.52C231.33 283.585 295.225 283.65 295.225 283.715Z" fill="#263238"/>
<g opacity="0.3">
<path d="M110.952 102.163L111.65 107.709C111.65 107.709 129.2 107.538 137.239 106.456L137.115 109.951L154.451 99.1689L131.042 98.999L110.952 102.163Z" fill="black"/>
</g>
<path d="M108.376 106.58L107.034 91.6724C117.857 93.1538 128.988 93.8477 141.774 92.8078L142.94 105.422C131.452 106.389 119.893 107.037 108.376 106.58Z" fill="#FF725E"/>
<path d="M138.066 99.0867L137.804 89.3497L146.545 94.044L155.286 98.6924L146.807 103.781L138.328 108.824L138.066 99.0867Z" fill="#FF725E"/>
<path d="M83.5202 253.922L82.6102 266.857C82.6102 266.857 96.1302 272.122 96.2602 274.527L69.7402 273.682L70.3252 253.532L83.5202 253.922Z" fill="#263238"/>
<path d="M74.4202 265.427C73.9002 265.557 73.5102 266.077 73.6402 266.597C73.7702 267.117 74.2902 267.442 74.8102 267.377C75.3302 267.247 75.7852 266.662 75.6552 266.142C75.5252 265.687 74.8102 265.297 74.2902 265.492" fill="#E0E0E0"/>
<path d="M69.6752 273.617L69.8052 271.602L95.1552 273.162C95.1552 273.162 96.3252 273.682 96.1302 274.462L69.6752 273.617Z" fill="#455A64"/>
<path d="M83.0002 266.662C83.0002 266.792 82.3502 266.792 81.7002 267.182C81.0502 267.572 80.6602 268.092 80.5952 268.027C80.4652 268.027 80.7252 267.247 81.5052 266.857C82.2852 266.402 83.0652 266.597 83.0002 266.662Z" fill="white"/>
<path d="M85.7952 267.832C85.7952 267.962 85.2752 268.157 84.8202 268.677C84.3652 269.197 84.2352 269.717 84.1052 269.717C83.9752 269.717 83.9102 269.002 84.4952 268.417C85.0152 267.767 85.7952 267.767 85.7952 267.832Z" fill="white"/>
<path d="M87.2252 271.082C87.0952 271.082 86.9652 270.497 87.2902 269.847C87.6152 269.197 88.2652 268.937 88.3302 269.067C88.3952 269.197 88.0052 269.522 87.6802 270.042C87.4202 270.562 87.3552 271.082 87.2252 271.082Z" fill="white"/>
<path d="M82.8702 263.737C82.8052 263.867 82.2202 263.672 81.5052 263.672C80.7902 263.672 80.2052 263.867 80.1402 263.802C80.0752 263.737 80.6602 263.282 81.5052 263.282C82.3502 263.217 82.9352 263.607 82.8702 263.737Z" fill="white"/>
<path d="M51.8651 253.662L51.0851 269.327L54.2051 281.872C54.4001 282.782 53.8151 283.692 52.8401 283.822C52.3201 283.887 51.7351 283.757 51.3451 283.367C48.8751 281.027 39.8401 272.317 39.9701 271.212C40.1001 269.912 39.6451 254.637 39.6451 254.637L51.8651 253.662Z" fill="#263238"/>
<path d="M52.9051 283.822L40.1001 270.172V270.822C40.1001 271.407 40.2951 271.927 40.6851 272.382C41.7251 273.552 44.5851 276.802 51.4101 283.367C51.7351 283.757 52.3201 283.887 52.9051 283.822Z" fill="#455A64"/>
<g opacity="0.6">
<path d="M43.6101 265.167C44.0001 265.427 44.1301 266.012 43.8701 266.467C43.6101 266.857 42.9601 266.987 42.5701 266.727C42.1801 266.467 41.9851 265.752 42.3101 265.362C42.6351 264.972 43.4151 264.907 43.7401 265.232" fill="white"/>
</g>
<path d="M49.2651 276.867C49.3301 276.932 49.7201 276.087 50.7601 275.697C51.7351 275.242 52.6451 275.502 52.6451 275.372C52.6451 275.307 52.4501 275.177 52.0601 275.177C51.6701 275.112 51.0851 275.177 50.5651 275.372C50.0451 275.632 49.6551 276.022 49.4601 276.282C49.2651 276.672 49.2651 276.867 49.2651 276.867Z" fill="white"/>
<path d="M50.4352 279.012C50.5002 279.077 51.0852 278.557 51.9302 278.362C52.7752 278.102 53.4902 278.297 53.5552 278.232C53.6202 278.167 52.8402 277.777 51.8652 278.037C50.8252 278.297 50.3052 278.947 50.4352 279.012Z" fill="white"/>
<path d="M47.1851 274.137C47.2501 274.202 48.0951 273.422 49.3951 273.032C50.6951 272.577 51.8651 272.642 51.8651 272.577C51.8651 272.512 50.6951 272.252 49.2651 272.707C47.8351 273.162 47.1201 274.137 47.1851 274.137Z" fill="white"/>
<path d="M46.9901 269.392C47.0551 269.457 47.9651 269.132 49.1351 269.132C50.3051 269.132 51.2801 269.392 51.2801 269.327C51.3451 269.262 50.3701 268.742 49.1351 268.807C47.8351 268.807 46.9251 269.327 46.9901 269.392Z" fill="white"/>
<path d="M47.1201 264.777C47.1851 264.842 48.0951 264.387 49.3301 264.452C50.5651 264.517 51.4751 265.102 51.5401 265.037C51.5401 265.037 51.4101 264.777 51.0201 264.582C50.6301 264.387 50.0451 264.127 49.3951 264.127C48.7451 264.062 48.0951 264.257 47.7051 264.387C47.2501 264.582 47.0551 264.777 47.1201 264.777Z" fill="white"/>
<path d="M49.3301 263.607C49.3301 263.607 49.3951 263.412 49.3951 263.022C49.3951 262.632 49.2651 262.112 48.9401 261.462C48.7451 261.137 48.6151 260.812 48.1601 260.552C47.9651 260.422 47.5751 260.487 47.3801 260.682C47.1851 260.877 47.1201 261.137 47.1201 261.397C47.1201 262.372 47.9651 263.347 49.1351 263.542C50.3051 263.672 51.4101 263.087 51.9301 262.242C52.0601 262.047 52.1251 261.722 51.9951 261.462C51.8651 261.202 51.5401 261.072 51.2801 261.137C50.7601 261.202 50.5001 261.462 50.1751 261.657C49.5901 262.047 49.2001 262.502 49.0051 262.827C48.8101 263.152 48.7451 263.347 48.7451 263.347C48.8101 263.412 49.2001 262.567 50.3051 261.787C50.5651 261.592 50.9551 261.397 51.2801 261.332C51.4751 261.332 51.6051 261.397 51.6701 261.527C51.7351 261.657 51.6701 261.852 51.6051 262.047C51.2151 262.762 50.1751 263.282 49.2001 263.152C48.2251 263.022 47.4451 262.177 47.4451 261.332C47.4451 261.137 47.5101 260.942 47.6401 260.812C47.7701 260.682 47.9001 260.682 48.0951 260.747C48.4201 260.877 48.6151 261.202 48.8101 261.462C49.3301 262.697 49.2651 263.607 49.3301 263.607Z" fill="white"/>
<path d="M90.9951 148.297C90.9951 148.297 93.3351 155.577 92.9451 164.612C92.8151 168.122 84.4951 264.582 84.4951 264.582L67.7901 265.232L68.7001 174.752L67.3351 175.077C67.3351 175.077 59.8601 213.947 59.3401 220.187C58.8851 225.842 52.9051 266.792 52.9051 266.792L37.6301 267.507L40.2301 213.492L43.7401 161.622L45.2351 146.477L90.9951 148.297Z" fill="#263238"/>
<path d="M69.3501 169.617C69.3501 169.617 69.3501 169.682 69.4801 169.747C69.5451 169.812 69.6751 169.877 69.8701 169.942C70.2601 170.007 70.8451 169.942 71.4301 169.487C72.0151 169.032 72.3401 168.187 72.4051 167.277C72.4701 166.367 72.4701 165.392 72.4701 164.352C72.4701 162.337 72.5351 160.452 72.4701 159.087C72.4701 157.722 72.4051 156.942 72.4051 156.942C72.3401 156.942 72.3401 157.787 72.2751 159.087C72.2101 160.452 72.2101 162.272 72.1451 164.352C72.1451 165.392 72.1451 166.367 72.0801 167.212C72.0151 168.057 71.7551 168.837 71.2351 169.227C70.7801 169.682 70.1951 169.747 69.8701 169.682C69.5451 169.747 69.4151 169.617 69.3501 169.617Z" fill="#455A64"/>
<path d="M44.6501 160.907C44.6501 160.907 44.7801 160.972 45.1051 161.037C45.4301 161.102 45.8851 161.167 46.4051 161.232C47.5101 161.297 49.1351 161.102 50.7601 160.387C52.3851 159.672 53.5551 158.567 54.2701 157.722C54.5951 157.267 54.8551 156.877 55.0501 156.617C55.1801 156.357 55.2451 156.162 55.2451 156.162C55.1801 156.162 54.8552 156.747 54.1402 157.592C53.4252 158.437 52.2551 159.412 50.6951 160.127C49.1351 160.842 47.5751 161.037 46.4701 161.037C45.3651 160.972 44.6501 160.842 44.6501 160.907Z" fill="#455A64"/>
<path d="M85.9902 155.057C85.9252 155.057 85.9902 155.707 86.3152 156.682C86.6402 157.657 87.1602 159.022 88.1352 160.322C89.0452 161.622 90.1502 162.597 90.9952 163.182C91.8402 163.767 92.4252 164.027 92.4902 164.027C92.5552 163.962 90.2152 162.727 88.3952 160.192C86.5102 157.592 86.0552 154.992 85.9902 155.057Z" fill="#455A64"/>
<path d="M81.9602 51.1221C83.4552 51.2521 84.9502 50.1471 85.2102 48.6521C85.4702 47.1571 84.4952 45.5971 83.0652 45.1421C83.9752 44.1671 84.1702 42.6071 83.5202 41.4371C82.8702 40.2671 81.4402 39.6171 80.1402 39.8121C80.0752 38.5121 79.2302 37.2771 78.0602 36.6921C76.8902 36.1071 75.3952 36.1721 74.2902 36.8221C72.7952 35.5871 70.4552 35.6521 69.0252 36.8221C67.7252 36.6271 66.3602 37.3421 65.8402 38.5121C65.2552 39.6821 65.5802 41.1771 66.4902 42.0871" fill="#263238"/>
<path d="M68.5052 39.9421H69.1552C75.9152 39.7471 81.6352 44.8171 82.3502 51.5771C83.0002 57.8171 83.6502 64.7721 83.7152 68.0871C83.7802 75.0421 76.8902 76.2771 76.8902 76.2771L77.6702 84.5971L60.7702 84.4671L58.5602 54.1771C57.7802 46.9621 61.2902 40.5271 68.5052 39.9421Z" fill="#F3CBA5"/>
<path d="M76.9552 76.2121C76.9552 76.2121 72.5352 76.6021 67.7902 73.7421C67.7902 73.7421 70.0652 78.6821 76.9552 77.9021V76.2121Z" fill="#6F4439"/>
<path d="M80.9201 50.537C80.7251 50.797 79.8151 50.537 78.7751 50.537C77.7351 50.537 76.8251 50.732 76.6301 50.472C76.5651 50.342 76.6951 50.082 77.0851 49.887C77.4751 49.627 78.1251 49.432 78.8401 49.432C79.5551 49.432 80.2051 49.627 80.5951 49.887C80.9201 50.147 81.0501 50.407 80.9201 50.537Z" fill="#263238"/>
<path d="M81.7002 48.327C81.7002 48.327 79.7502 44.037 77.6052 43.062C75.0052 41.892 74.0302 44.687 71.5602 44.102C69.0902 43.452 66.6852 42.347 64.2152 44.297C61.5502 46.442 62.8502 47.807 62.7852 50.927C62.3952 63.472 60.1852 67.047 59.4052 61.197C59.3402 60.547 57.5202 60.092 57.1952 57.362C56.7402 53.852 56.5452 49.562 57.2602 47.027C57.8452 44.882 59.0152 43.387 61.1602 41.762C64.5402 39.162 69.2202 38.967 72.4052 39.227C75.5902 39.357 81.8302 42.867 81.7002 48.327Z" fill="#263238"/>
<path d="M59.8601 60.937C59.7951 59.832 58.8201 59.052 57.7801 59.182C56.4801 59.312 55.0501 60.092 55.1801 62.757C55.4401 67.502 60.1851 66.267 60.1851 66.137C60.1851 66.072 59.9901 62.952 59.8601 60.937Z" fill="#F3CBA5"/>
<path d="M59.0151 64.4471C59.0151 64.4471 58.9501 64.5121 58.8201 64.5771C58.6901 64.6421 58.4301 64.7071 58.1701 64.6421C57.6501 64.5121 57.1951 63.7321 57.1301 62.8871C57.0651 62.4321 57.1301 62.0421 57.3251 61.7171C57.4551 61.3921 57.6501 61.1321 57.9101 61.0671C58.1701 61.0021 58.3651 61.1321 58.4301 61.2621C58.4951 61.3921 58.4951 61.4571 58.4951 61.5221C58.4951 61.5221 58.6251 61.4571 58.5601 61.2621C58.5601 61.1971 58.4951 61.0671 58.3651 61.0021C58.2351 60.9371 58.1051 60.8721 57.9101 60.9371C57.5201 61.0021 57.2601 61.3271 57.0651 61.7171C56.8701 62.1071 56.8051 62.5621 56.8701 63.0821C56.9351 64.0571 57.5201 64.9021 58.1701 65.0971C58.4951 65.1621 58.7551 65.0321 58.9501 64.9021C59.0151 64.5121 59.0801 64.4471 59.0151 64.4471Z" fill="#6F4439"/>
<path d="M59.7301 51.7071C60.3801 52.0971 61.0301 52.5521 61.7451 52.6171C62.4601 52.6821 63.3051 52.2271 63.4351 51.5121C63.5001 51.1871 63.3701 50.7971 63.6301 50.5371C63.8901 50.2121 64.3451 50.2771 64.7351 50.3421C66.1001 50.4721 67.7251 48.9121 68.0501 47.5471C68.4401 48.0671 69.2201 48.1971 69.7401 47.8721C70.2601 47.5471 70.4551 47.2871 70.8451 46.8321C71.2351 46.3121 71.8201 45.9221 72.4701 45.9871C72.7951 46.0521 73.1851 46.2471 73.5101 46.1821C74.1601 46.1171 74.4201 45.4021 74.4851 44.7521C74.5501 44.1021 74.6151 43.3871 75.1351 43.0621C75.5901 42.7371 76.2401 42.9321 76.8251 42.9971C77.4101 43.0621 78.1251 42.9321 78.2551 42.3471C78.3201 42.0221 78.1901 41.7621 77.9951 41.5021C77.2151 40.3321 75.5901 39.8771 74.3551 40.3971C73.8351 38.8371 72.3401 37.6671 70.7151 37.5371C69.0901 37.4071 67.4001 38.3171 66.6851 39.8121C65.6451 38.9021 64.2151 38.5771 62.8501 38.9021C61.5501 39.2271 60.3801 40.2671 59.9251 41.5021C58.7551 41.2421 57.4551 41.6971 56.7401 42.6721C56.0251 43.6471 55.9601 45.0121 56.5451 46.0521C55.7001 46.5721 54.9851 47.4171 54.9851 48.3921C54.9851 49.3671 55.9601 50.3421 56.9351 50.0821C56.5451 50.8621 56.9351 51.9021 57.6501 52.2921C58.4301 52.6821 59.4701 52.4221 59.9251 51.7071" fill="#263238"/>
<path d="M74.7451 41.697C74.7451 41.697 74.7451 41.697 74.7451 41.762C74.7451 41.827 74.7451 41.892 74.7451 42.022C74.6801 42.217 74.6151 42.542 74.4201 42.932C74.2251 43.322 73.9001 43.712 73.3801 44.102C72.8601 44.427 72.2101 44.752 71.4301 44.687L71.4951 44.557C71.6251 44.947 71.6251 45.467 71.4301 45.857C71.2351 46.312 70.9751 46.702 70.6501 47.027C70.5201 47.222 70.3251 47.417 70.1301 47.612C69.9351 47.742 69.6751 47.872 69.4151 47.937C68.8951 48.002 68.2451 47.872 67.8551 47.417L68.0501 47.352C67.9201 48.327 67.4651 49.237 66.6201 49.887C66.1651 50.212 65.6451 50.407 65.0601 50.407C64.5401 50.407 64.0201 50.277 63.5001 50.082L63.6301 50.017C63.3701 50.602 62.9801 51.122 62.5251 51.512C62.0701 51.902 61.4201 52.097 60.9001 52.032C59.7951 51.837 59.0151 50.927 58.8201 50.017L58.9501 50.082C58.4301 50.407 57.7801 50.472 57.3251 50.342C56.8051 50.277 56.4801 50.082 56.1551 49.887C55.8951 49.692 55.7001 49.497 55.6351 49.302C55.5701 49.172 55.5051 49.042 55.5051 49.042C55.5051 49.042 55.7001 49.432 56.2201 49.757C56.4801 49.952 56.8701 50.147 57.3251 50.212C57.7801 50.277 58.3651 50.212 58.8851 49.952L58.9501 49.887V50.017C59.1451 50.862 59.8601 51.707 60.9001 51.902C61.4201 52.032 61.9401 51.772 62.3951 51.447C62.8501 51.057 63.1751 50.602 63.4351 50.017L63.5001 49.952H63.5651C64.0201 50.082 64.5401 50.277 65.0601 50.212C65.5801 50.212 66.1001 50.017 66.4901 49.692C67.2701 49.107 67.7901 48.197 67.8551 47.352V47.157L67.9851 47.352C68.3101 47.742 68.8951 47.872 69.3501 47.807C69.6101 47.742 69.8051 47.677 70.0001 47.547C70.1951 47.417 70.3251 47.222 70.5201 47.027C70.8451 46.637 71.1051 46.312 71.3001 45.857C71.4951 45.467 71.4951 45.012 71.3651 44.687L71.3001 44.557H71.4301C72.1451 44.557 72.7951 44.362 73.3151 44.037C73.8351 43.712 74.0951 43.322 74.3551 42.932C74.7451 42.152 74.7451 41.697 74.7451 41.697Z" fill="#455A64"/>
<path d="M79.8151 58.402C79.8151 58.922 79.4251 59.377 78.9051 59.442C78.3851 59.507 77.8651 59.117 77.8651 58.597C77.8651 58.077 78.2551 57.622 78.7751 57.557C79.2951 57.492 79.7501 57.882 79.8151 58.402Z" fill="#263238"/>
<path d="M80.9851 54.9571C80.8551 55.0871 80.0751 54.5671 79.0351 54.5671C77.9951 54.5671 77.2151 55.1521 77.0851 55.0221C77.0201 54.9571 77.1501 54.6971 77.4751 54.5021C77.8001 54.2421 78.3851 53.9821 79.0351 53.9821C79.6851 53.9821 80.2701 54.1771 80.5951 54.4371C80.9201 54.6321 81.0501 54.8921 80.9851 54.9571Z" fill="#263238"/>
<path d="M70 58.402C70 58.922 69.6101 59.377 69.0901 59.442C68.5701 59.507 68.05 59.117 68.05 58.597C68.05 58.077 68.44 57.622 68.96 57.557C69.545 57.492 70 57.882 70 58.402Z" fill="#263238"/>
<path d="M70.5201 55.412C70.3901 55.542 69.6101 55.022 68.5701 55.022C67.5301 55.022 66.7501 55.607 66.6201 55.477C66.5551 55.412 66.6851 55.152 67.0101 54.957C67.3351 54.697 67.9201 54.437 68.5701 54.437C69.2201 54.437 69.8051 54.632 70.1301 54.892C70.4551 55.087 70.5851 55.347 70.5201 55.412Z" fill="#263238"/>
<path d="M74.5501 63.212C74.5501 63.147 75.2001 63.017 76.3051 62.887C76.5651 62.822 76.8251 62.822 76.8901 62.627C76.9551 62.432 76.8251 62.107 76.6951 61.847C76.4351 61.197 76.1101 60.4821 75.8501 59.7671C74.6801 56.8421 73.7701 54.437 73.9001 54.372C74.0301 54.307 75.0701 56.647 76.3051 59.572C76.5651 60.287 76.8901 61.002 77.1501 61.652C77.2801 61.977 77.4751 62.3021 77.3451 62.6921C77.2801 62.8871 77.0851 63.082 76.8901 63.082C76.6951 63.147 76.5651 63.147 76.4351 63.147C75.2651 63.277 74.5501 63.277 74.5501 63.212Z" fill="#263238"/>
<path d="M71.3001 51.252C71.1701 51.512 70.2601 51.252 69.0901 51.252C67.9851 51.187 67.0101 51.447 66.8801 51.187C66.8151 51.057 67.0101 50.797 67.4001 50.602C67.7901 50.407 68.4401 50.212 69.0901 50.212C69.7401 50.212 70.3901 50.407 70.7151 50.667C71.2351 50.862 71.3651 51.122 71.3001 51.252Z" fill="#263238"/>
<path d="M74.8751 66.657C74.8751 66.462 73.7051 66.722 72.6001 65.942C71.5601 65.162 71.3651 63.862 71.2351 63.927C71.1701 63.927 71.1051 64.252 71.1701 64.772C71.3001 65.292 71.6251 66.007 72.2751 66.462C72.9251 66.982 73.6401 67.047 74.1601 66.982C74.6151 66.917 74.8751 66.722 74.8751 66.657Z" fill="#263238"/>
<path d="M92.1 124.507L92.0351 122.947L88.9151 84.5971C88.0051 84.3371 79.425 82.5171 79.425 82.5171L77.475 78.0971L71.4301 81.9971L59.9251 77.1221L58.3651 81.4121L45.6901 86.9371L45.4301 87.5221L47.7051 122.037L43.8051 144.007L44.6501 150.637L74.875 155.317C76.37 155.447 77.93 155.382 79.425 155.122L93.1401 152.587L94.6351 148.687L92.1 124.507Z" fill="#455A64"/>
<path d="M48.2901 86.222C48.2901 86.222 38.6701 87.327 36.7201 99.352C35.1601 109.362 30.7401 131.852 32.9501 135.622C39.0601 145.827 47.5101 137.702 47.5101 137.702L48.3551 123.532L49.5901 103.317L48.2901 86.222Z" fill="#455A64"/>
<path d="M88.7851 84.597C88.7851 84.597 97.8851 85.247 99.9001 95.192C100.615 98.637 102.305 129.447 102.305 129.447L99.8351 156.292L88.1351 155.382L87.2251 107.867L88.7851 84.597Z" fill="#455A64"/>
<path d="M44.0651 142.642C44.0651 142.642 44.0651 142.512 44.1301 142.317C44.1951 142.057 44.2601 141.797 44.3901 141.407C44.6501 140.562 44.9101 139.457 45.3651 138.027C46.2101 135.102 47.3801 131.137 48.6801 126.587V126.652C48.5501 125.027 48.4851 123.337 48.4201 121.582C48.2251 115.602 48.0951 110.142 47.9651 106.242C47.9001 104.292 47.8351 102.732 47.8351 101.562C47.8351 101.042 47.8351 100.652 47.7701 100.327C47.7701 100.067 47.7701 99.8721 47.7701 99.8721C47.7701 99.8721 47.8351 100.002 47.8351 100.327C47.8351 100.652 47.9001 101.042 47.9651 101.562C48.0301 102.667 48.0951 104.227 48.2251 106.242C48.4201 110.142 48.5501 115.602 48.7451 121.582C48.8101 123.337 48.8751 125.027 49.0051 126.652C47.6401 131.202 46.4051 135.167 45.5601 138.092C45.1051 139.457 44.7801 140.627 44.5201 141.407C44.3901 141.797 44.3251 142.057 44.2601 142.317C44.0651 142.512 44.0651 142.642 44.0651 142.642Z" fill="#263238"/>
<path d="M92.8151 97.2721C92.8801 97.2721 92.8151 101.692 92.5551 107.087C92.3601 112.547 92.1001 116.902 91.9701 116.902C91.9051 116.902 91.9701 112.482 92.2301 107.087C92.4901 101.692 92.7501 97.2721 92.8151 97.2721Z" fill="#263238"/>
<path d="M71.4301 81.997C71.4301 81.997 70.9751 82.517 70.3901 83.492C69.7401 84.467 68.8951 85.897 68.1151 87.587L68.0501 87.782L67.9201 87.652C67.3351 87.262 66.6851 86.872 66.0351 86.417C64.0201 85.052 62.2001 83.817 60.8351 82.907C60.1851 82.452 59.6651 82.062 59.2751 81.802C58.8851 81.542 58.6901 81.412 58.7551 81.347C58.7551 81.347 59.0151 81.477 59.3401 81.672C59.7301 81.932 60.2501 82.257 60.9651 82.647C62.3301 83.492 64.1501 84.727 66.1651 86.027C66.8151 86.482 67.4651 86.872 68.0501 87.262L67.7901 87.327C68.5701 85.572 69.4801 84.207 70.1951 83.232C70.5201 82.777 70.8451 82.387 71.0401 82.127C71.3001 82.062 71.4301 81.997 71.4301 81.997Z" fill="#263238"/>
<path d="M72.275 84.6621C72.275 84.6621 72.275 84.7271 72.275 84.8571C72.275 84.9871 72.275 85.1821 72.275 85.3771C72.275 85.8971 72.34 86.6121 72.34 87.4571C72.405 89.2771 72.47 91.9421 72.535 95.1921C72.665 101.692 72.73 110.727 72.6 120.737C72.405 130.682 72.08 139.717 71.69 146.282C71.495 149.532 71.365 152.197 71.235 154.017C71.17 154.927 71.105 155.642 71.105 156.097C71.105 156.292 71.04 156.487 71.04 156.617C71.04 156.747 71.04 156.812 71.04 156.812C71.04 156.812 71.04 156.747 71.04 156.617C71.04 156.487 71.04 156.292 71.04 156.097C71.04 155.577 71.105 154.862 71.105 154.017C71.17 152.197 71.3 149.532 71.495 146.282C71.755 139.782 72.145 130.747 72.275 120.802C72.405 110.857 72.405 101.822 72.34 95.2571C72.275 92.0071 72.275 89.3421 72.21 87.5221C72.21 86.6121 72.21 85.8971 72.21 85.4421C72.21 85.2471 72.21 85.0521 72.21 84.9221C72.21 84.7271 72.21 84.6621 72.275 84.6621Z" fill="#263238"/>
<path d="M78.2551 103.187C78.2551 103.187 78.5151 103.187 78.9701 103.122C79.4901 103.122 80.2051 103.122 81.0501 103.057C82.9351 103.057 85.5351 102.992 88.6551 102.992H88.7851V103.122C88.6551 106.047 88.5251 109.557 88.3301 113.197V113.327L88.2001 113.392C86.3151 114.042 84.5601 114.692 82.8051 115.342H82.7401H82.6751C81.1151 114.627 79.6851 113.977 78.3201 113.392L78.2551 113.327V113.262C78.1901 110.272 78.1901 107.737 78.1251 105.917C78.1251 105.072 78.1251 104.422 78.1251 103.902C78.2551 103.382 78.2551 103.187 78.2551 103.187C78.2551 103.187 78.2551 103.447 78.3201 103.967C78.3201 104.487 78.3851 105.202 78.3851 106.047C78.4501 107.867 78.5151 110.337 78.6451 113.327L78.5801 113.197C79.9451 113.782 81.3751 114.432 82.9351 115.147H82.8051C84.4951 114.497 86.3151 113.847 88.1351 113.197L88.0051 113.327C88.2001 109.622 88.3301 106.177 88.5251 103.252L88.6551 103.382C85.6001 103.382 83.0001 103.317 81.1151 103.317C80.2051 103.317 79.4901 103.317 78.9701 103.252C78.5151 103.187 78.2551 103.187 78.2551 103.187Z" fill="#263238"/>
<path d="M79.2301 82.907C79.2951 82.907 78.9701 83.427 78.3201 84.142C77.9951 84.467 77.6051 84.857 77.0851 85.247C76.8251 85.442 76.5651 85.637 76.3051 85.832C76.1751 85.897 76.0451 86.027 75.8501 86.092C75.6551 86.157 75.3951 86.222 75.2001 86.092C74.8101 85.897 74.6151 85.637 74.3551 85.377C74.0951 85.117 73.9001 84.922 73.6401 84.662C73.1851 84.207 72.8601 83.817 72.5351 83.427C71.9501 82.712 71.6251 82.192 71.6901 82.192C71.7551 82.192 72.0801 82.582 72.7301 83.297C73.0551 83.622 73.4451 84.012 73.9001 84.467C74.0951 84.662 74.3551 84.922 74.6151 85.117C74.8751 85.312 75.1351 85.637 75.3951 85.767C75.6551 85.897 75.9151 85.702 76.1751 85.507C76.4351 85.312 76.6951 85.117 76.9551 84.922C77.4101 84.532 77.8651 84.207 78.1901 83.882C78.7751 83.297 79.1651 82.842 79.2301 82.907Z" fill="#263238"/>
<path d="M39.5151 124.767C39.5151 124.767 38.6051 124.052 35.8751 125.092C33.1451 126.132 33.2101 133.607 33.2101 133.607C33.2101 133.607 33.0151 137.507 38.8651 138.482C44.7151 139.457 47.4451 135.492 47.4451 135.492L50.2401 129.512L39.5151 124.767Z" fill="#F3CBA5"/>
<path d="M49.0051 123.532C49.0051 123.532 50.1101 122.622 51.4751 123.142C52.9051 123.727 52.1901 126.067 52.1901 126.067L50.1101 125.092L49.0051 123.532Z" fill="#F3CBA5"/>
<path d="M40.4251 118.982C44.1301 122.167 57.0651 133.217 57.0651 133.217L59.4051 133.932L58.4951 131.657L42.0501 117.032C41.5301 116.577 40.7501 116.577 40.2301 117.162C39.7751 117.747 39.8401 118.527 40.4251 118.982Z" fill="#FF725E"/>
<path d="M49.2651 125.677C49.2651 125.677 49.8501 124.962 49.3951 124.247C48.9401 123.532 48.2251 123.467 47.4451 123.467C46.6651 123.402 41.9201 124.052 40.5551 124.312C39.1901 124.637 37.2401 126.262 37.9551 128.017L38.5401 128.732C38.5401 128.732 37.0451 130.617 37.9551 131.852L38.9951 132.632C38.9951 132.632 38.5401 135.102 39.6451 135.687C40.7501 136.272 42.1151 135.817 42.1151 135.817C42.1151 135.817 43.4801 136.467 44.9101 136.402C46.3401 136.337 51.7351 131.982 52.0601 131.527C52.7751 130.682 52.1901 129.772 52.1901 129.772C52.1901 129.772 52.5151 129.122 52.1901 128.277C51.8651 127.432 51.2151 127.497 51.2151 127.497C51.2151 127.497 51.2151 126.522 50.8251 126.197C50.3701 125.742 49.2651 125.677 49.2651 125.677Z" fill="#F3CBA5"/>
<path d="M49.2652 125.677C49.2652 125.677 49.3302 125.677 49.4602 125.677C49.5902 125.677 49.7852 125.677 50.0452 125.742C50.3052 125.807 50.6302 125.872 50.8902 126.197C51.1502 126.522 51.2152 126.977 51.2152 127.497L51.1502 127.432C51.6052 127.432 52.0602 127.757 52.1902 128.277C52.3852 128.732 52.4502 129.317 52.1902 129.902V129.772C52.4502 130.162 52.5802 130.682 52.3852 131.137C52.3202 131.397 52.1902 131.592 51.9952 131.787C51.8002 131.982 51.6052 132.112 51.4102 132.307C50.6302 132.957 49.7852 133.672 48.8752 134.322C47.9652 134.972 46.9902 135.687 45.8202 136.272C45.6902 136.337 45.5602 136.402 45.3652 136.467C45.2352 136.532 45.0402 136.597 44.8452 136.597C44.5202 136.597 44.1952 136.597 43.8702 136.532C43.2202 136.467 42.5702 136.272 41.9202 136.012H42.0502C41.4002 136.207 40.7502 136.272 40.0352 136.077C39.7102 136.012 39.3852 135.882 39.0602 135.557C38.8002 135.297 38.6702 134.907 38.6052 134.582C38.4752 133.932 38.5402 133.282 38.6702 132.632L38.7352 132.827C38.3452 132.567 38.0202 132.307 37.6952 132.047C37.3052 131.527 37.3052 130.812 37.5002 130.227C37.6952 129.642 37.9552 129.122 38.2802 128.667V128.862C38.0852 128.602 37.8902 128.407 37.6952 128.147C37.5002 127.562 37.5002 126.912 37.7602 126.392C38.0202 125.872 38.4102 125.417 38.8002 125.092C39.2552 124.767 39.7102 124.507 40.2302 124.312C40.7502 124.182 41.2052 124.117 41.7252 124.052C43.6102 123.792 45.3002 123.597 46.6652 123.467C46.9902 123.467 47.3802 123.402 47.6402 123.467C47.9652 123.467 48.2252 123.532 48.5502 123.597C49.0702 123.792 49.3952 124.247 49.5252 124.637C49.5902 125.027 49.4602 125.352 49.3952 125.482C49.3952 125.612 49.3302 125.677 49.2652 125.677C49.2652 125.677 49.3302 125.612 49.3952 125.417C49.4602 125.222 49.5902 124.962 49.4602 124.572C49.3302 124.247 49.0702 123.792 48.5502 123.662C48.2902 123.597 48.0302 123.532 47.7052 123.532C47.3802 123.532 47.0552 123.532 46.7302 123.597C45.3652 123.727 43.6752 123.987 41.7902 124.247C41.3352 124.312 40.8152 124.377 40.3602 124.507C39.9052 124.637 39.4502 124.897 39.0602 125.222C38.6702 125.547 38.3452 125.937 38.0852 126.457C37.8902 126.912 37.8252 127.497 38.0202 127.952V127.887C38.2152 128.147 38.4102 128.342 38.6052 128.602L38.6702 128.732L38.6052 128.862C38.2802 129.252 38.0202 129.772 37.8902 130.292C37.7602 130.812 37.7602 131.397 38.0202 131.787L37.9552 131.722C38.2802 131.982 38.6702 132.242 38.9952 132.502L39.0602 132.567V132.697C38.9302 133.282 38.9302 133.932 38.9952 134.517C39.0602 134.842 39.1252 135.102 39.3202 135.362C39.5152 135.557 39.7752 135.687 40.1002 135.752C40.6852 135.882 41.3352 135.882 41.9202 135.687H41.9852H42.0502C42.6352 135.947 43.2852 136.142 43.8702 136.207C44.1952 136.272 44.5202 136.272 44.7802 136.272C44.9102 136.272 45.0402 136.207 45.1702 136.142C45.3002 136.077 45.4302 136.012 45.5602 135.947C46.6652 135.427 47.6402 134.712 48.5502 133.997C49.4602 133.347 50.3052 132.632 51.0852 132.047C51.4752 131.722 51.8652 131.462 51.9952 131.007C52.1252 130.617 52.0602 130.162 51.8652 129.837V129.772V129.707C52.2552 128.797 51.8002 127.562 51.0202 127.562H50.9552V127.497C50.9552 127.042 50.8902 126.587 50.6952 126.327C50.5002 126.067 50.1752 126.002 49.9152 125.872C49.5902 125.677 49.2652 125.677 49.2652 125.677Z" fill="#6F4439"/>
<path d="M49.2652 125.677C49.2652 125.742 47.3152 126.067 45.0402 126.717C42.7002 127.367 40.8152 127.887 40.8152 127.757C40.8152 127.692 41.2702 127.562 41.9852 127.302C42.7652 127.042 43.8052 126.717 44.9752 126.392C47.3152 125.677 49.2652 125.547 49.2652 125.677Z" fill="#6F4439"/>
<path d="M51.2152 127.432C51.2152 127.497 50.7602 127.757 49.9152 128.212C49.0702 128.667 47.9002 129.252 46.6002 129.837C45.3002 130.422 44.0652 130.877 43.1552 131.137C42.2452 131.397 41.6602 131.527 41.6602 131.462C41.6602 131.397 42.1802 131.202 43.0902 130.877C44.0002 130.552 45.1702 130.032 46.4702 129.447C49.0702 128.342 51.1502 127.367 51.2152 127.432Z" fill="#6F4439"/>
<path d="M52.1901 129.707C52.1901 129.772 51.8001 130.032 51.0851 130.487C50.4351 130.942 49.4601 131.592 48.4201 132.307C47.3801 133.022 46.3401 133.542 45.5601 133.867C44.7801 134.192 44.3251 134.387 44.2601 134.322C44.2601 134.257 44.7151 134.062 45.4301 133.672C46.1451 133.282 47.1201 132.697 48.2251 131.982C50.3701 130.682 52.1251 129.642 52.1901 129.707Z" fill="#6F4439"/>
<path d="M108.415 161.492H75.0701C74.2901 161.492 73.5751 160.907 73.5751 160.257V118.267C73.5751 117.552 74.2251 117.032 75.0701 117.032H108.415C109.195 117.032 109.91 117.617 109.91 118.267V160.257C109.845 160.972 109.195 161.492 108.415 161.492Z" fill="#E0E0E0"/>
<path d="M108.415 161.492C108.415 161.492 108.48 161.492 108.545 161.492C108.61 161.492 108.74 161.492 108.87 161.427C109 161.362 109.195 161.297 109.325 161.232C109.52 161.102 109.65 160.972 109.78 160.712C109.845 160.582 109.845 160.452 109.845 160.322C109.845 160.192 109.845 160.062 109.845 159.867C109.845 159.542 109.845 159.217 109.845 158.827C109.845 158.112 109.845 157.267 109.845 156.292C109.845 152.522 109.845 146.997 109.845 140.237C109.845 136.857 109.845 133.152 109.845 129.187C109.845 127.172 109.845 125.157 109.845 123.012C109.845 121.972 109.845 120.867 109.845 119.762C109.845 119.242 109.845 118.657 109.845 118.137C109.845 117.877 109.715 117.617 109.52 117.357C109.325 117.162 109.065 116.967 108.74 116.967C108.61 116.967 108.415 116.902 108.285 116.967C108.155 116.967 107.96 116.967 107.83 116.967C107.505 116.967 107.18 116.967 106.855 116.967C106.205 116.967 105.555 116.967 104.905 116.967C103.605 116.967 102.24 116.967 100.875 116.967C98.1451 116.967 95.4151 116.967 92.6201 116.967C86.9651 116.967 81.1801 116.967 75.2001 116.967C74.8101 116.967 74.4851 117.097 74.2251 117.292C73.9651 117.487 73.7701 117.812 73.7701 118.137C73.7701 118.787 73.7701 119.437 73.7701 120.087C73.7701 121.387 73.7701 122.622 73.7701 123.857C73.7701 126.392 73.7701 128.862 73.7701 131.267C73.7701 136.142 73.7701 140.822 73.7701 145.307C73.7701 149.792 73.7701 154.017 73.7701 158.047C73.7701 158.567 73.7701 159.022 73.7701 159.542C73.7701 159.802 73.7701 160.062 73.7701 160.257C73.7701 160.517 73.9001 160.712 74.0301 160.907C74.1601 161.102 74.4201 161.232 74.6801 161.362C74.8101 161.427 74.9401 161.427 75.0701 161.427C75.2001 161.427 75.3301 161.427 75.4601 161.427C75.9801 161.427 76.5651 161.427 77.0851 161.427C79.2301 161.427 81.2451 161.427 83.1951 161.427C90.9951 161.427 97.3651 161.427 101.72 161.427C103.93 161.427 105.62 161.427 106.725 161.427C107.31 161.427 107.765 161.427 108.025 161.427C108.22 161.492 108.415 161.492 108.415 161.492C108.415 161.492 108.285 161.492 107.96 161.492C107.635 161.492 107.245 161.492 106.66 161.492C105.49 161.492 103.8 161.492 101.655 161.492C97.3001 161.492 90.9301 161.492 83.1301 161.492C81.1801 161.492 79.1001 161.492 77.0201 161.492C76.5001 161.492 75.9151 161.492 75.3951 161.492C75.2651 161.492 75.1351 161.492 75.0051 161.492C74.8751 161.492 74.7451 161.427 74.6151 161.427C74.3551 161.362 74.0951 161.167 73.9651 160.972C73.7701 160.777 73.7051 160.517 73.7051 160.257C73.7051 159.997 73.7051 159.802 73.7051 159.542C73.7051 159.022 73.7051 158.567 73.7051 158.047C73.7051 154.082 73.7051 149.792 73.7051 145.307C73.7051 140.822 73.7051 136.142 73.7051 131.267C73.7051 128.862 73.7051 126.327 73.7051 123.857C73.7051 122.622 73.7051 121.322 73.7051 120.087C73.7051 119.437 73.7051 118.787 73.7051 118.137C73.7051 117.812 73.9001 117.487 74.1601 117.292C74.4201 117.032 74.8101 116.902 75.2001 116.902C81.1801 116.902 86.9651 116.902 92.6201 116.902C95.4151 116.902 98.2101 116.902 100.875 116.902C102.24 116.902 103.54 116.902 104.905 116.902C105.555 116.902 106.205 116.902 106.855 116.902C107.18 116.902 107.505 116.902 107.83 116.902C108.025 116.902 108.155 116.902 108.285 116.902C108.415 116.902 108.61 116.902 108.805 116.967C109.13 117.032 109.39 117.162 109.65 117.422C109.845 117.617 109.975 117.942 109.975 118.202C109.975 118.787 109.975 119.307 109.975 119.827C109.975 120.932 109.975 121.972 109.975 123.077C109.975 125.222 109.975 127.237 109.975 129.252C109.975 133.217 109.975 136.922 109.975 140.302C109.975 147.062 109.975 152.522 109.975 156.357C109.975 157.332 109.975 158.112 109.975 158.892C109.975 159.282 109.975 159.607 109.975 159.932C109.975 160.062 109.975 160.257 109.975 160.387C109.975 160.517 109.91 160.647 109.845 160.777C109.715 161.037 109.585 161.167 109.39 161.297C109.195 161.427 109.065 161.492 108.935 161.492C108.805 161.557 108.675 161.557 108.61 161.557C108.415 161.492 108.415 161.492 108.415 161.492Z" fill="#263238"/>
<g opacity="0.3">
<path d="M77.0201 160.387L107.44 160.257L107.83 155.187L106.855 152.132L76.7601 156.162L77.0201 160.387Z" fill="black"/>
</g>
<path d="M108.415 161.492C108.415 161.492 108.48 161.492 108.545 161.492C108.61 161.492 108.74 161.492 108.87 161.427C109 161.362 109.195 161.297 109.325 161.232C109.52 161.102 109.65 160.972 109.78 160.712C109.845 160.582 109.845 160.452 109.845 160.322C109.845 160.192 109.845 160.062 109.845 159.867C109.845 159.542 109.845 159.217 109.845 158.827C109.845 158.112 109.845 157.267 109.845 156.292C109.845 152.522 109.845 146.997 109.845 140.237C109.845 136.857 109.845 133.152 109.845 129.187C109.845 127.172 109.845 125.157 109.845 123.012C109.845 121.972 109.845 120.867 109.845 119.762C109.845 119.242 109.845 118.657 109.845 118.137C109.845 117.877 109.715 117.617 109.52 117.357C109.325 117.162 109.065 116.967 108.74 116.967C108.61 116.967 108.415 116.902 108.285 116.967C108.155 116.967 107.96 116.967 107.83 116.967C107.505 116.967 107.18 116.967 106.855 116.967C106.205 116.967 105.555 116.967 104.905 116.967C103.605 116.967 102.24 116.967 100.875 116.967C98.1451 116.967 95.4151 116.967 92.6201 116.967C86.9651 116.967 81.1801 116.967 75.2001 116.967C74.8101 116.967 74.4851 117.097 74.2251 117.292C73.9651 117.487 73.7701 117.812 73.7701 118.137C73.7701 118.787 73.7701 119.437 73.7701 120.087C73.7701 121.387 73.7701 122.622 73.7701 123.857C73.7701 126.392 73.7701 128.862 73.7701 131.267C73.7701 136.142 73.7701 140.822 73.7701 145.307C73.7701 149.792 73.7701 154.017 73.7701 158.047C73.7701 158.567 73.7701 159.022 73.7701 159.542C73.7701 159.802 73.7701 160.062 73.7701 160.257C73.7701 160.517 73.9001 160.712 74.0301 160.907C74.1601 161.102 74.4201 161.232 74.6801 161.362C74.8101 161.427 74.9401 161.427 75.0701 161.427C75.2001 161.427 75.3301 161.427 75.4601 161.427C75.9801 161.427 76.5651 161.427 77.0851 161.427C79.2301 161.427 81.2451 161.427 83.1951 161.427C90.9951 161.427 97.3651 161.427 101.72 161.427C103.93 161.427 105.62 161.427 106.725 161.427C107.31 161.427 107.765 161.427 108.025 161.427C108.22 161.492 108.415 161.492 108.415 161.492C108.415 161.492 108.285 161.492 107.96 161.492C107.635 161.492 107.245 161.492 106.66 161.492C105.49 161.492 103.8 161.492 101.655 161.492C97.3001 161.492 90.9301 161.492 83.1301 161.492C81.1801 161.492 79.1001 161.492 77.0201 161.492C76.5001 161.492 75.9151 161.492 75.3951 161.492C75.2651 161.492 75.1351 161.492 75.0051 161.492C74.8751 161.492 74.7451 161.427 74.6151 161.427C74.3551 161.362 74.0951 161.167 73.9651 160.972C73.7701 160.777 73.7051 160.517 73.7051 160.257C73.7051 159.997 73.7051 159.802 73.7051 159.542C73.7051 159.022 73.7051 158.567 73.7051 158.047C73.7051 154.082 73.7051 149.792 73.7051 145.307C73.7051 140.822 73.7051 136.142 73.7051 131.267C73.7051 128.862 73.7051 126.327 73.7051 123.857C73.7051 122.622 73.7051 121.322 73.7051 120.087C73.7051 119.437 73.7051 118.787 73.7051 118.137C73.7051 117.812 73.9001 117.487 74.1601 117.292C74.4201 117.032 74.8101 116.902 75.2001 116.902C81.1801 116.902 86.9651 116.902 92.6201 116.902C95.4151 116.902 98.2101 116.902 100.875 116.902C102.24 116.902 103.54 116.902 104.905 116.902C105.555 116.902 106.205 116.902 106.855 116.902C107.18 116.902 107.505 116.902 107.83 116.902C108.025 116.902 108.155 116.902 108.285 116.902C108.415 116.902 108.61 116.902 108.805 116.967C109.13 117.032 109.39 117.162 109.65 117.422C109.845 117.617 109.975 117.942 109.975 118.202C109.975 118.787 109.975 119.307 109.975 119.827C109.975 120.932 109.975 121.972 109.975 123.077C109.975 125.222 109.975 127.237 109.975 129.252C109.975 133.217 109.975 136.922 109.975 140.302C109.975 147.062 109.975 152.522 109.975 156.357C109.975 157.332 109.975 158.112 109.975 158.892C109.975 159.282 109.975 159.607 109.975 159.932C109.975 160.062 109.975 160.257 109.975 160.387C109.975 160.517 109.91 160.647 109.845 160.777C109.715 161.037 109.585 161.167 109.39 161.297C109.195 161.427 109.065 161.492 108.935 161.492C108.805 161.557 108.675 161.557 108.61 161.557C108.415 161.492 108.415 161.492 108.415 161.492Z" fill="#263238"/>
<g opacity="0.3">
<path d="M77.0201 160.387L107.44 160.257L107.83 155.187L106.855 152.132L76.7601 156.162L77.0201 160.387Z" fill="black"/>
</g>
<path d="M108.025 118.787H75.4601V159.412H108.025V118.787Z" fill="white"/>
<path d="M108.025 159.412C108.025 159.152 108.025 142.772 108.025 118.787C98.1451 118.787 87.0951 118.787 75.4601 118.787H75.5251C75.5251 134.062 75.5251 148.167 75.5251 159.412C95.2851 159.412 107.83 159.412 108.025 159.412C107.83 159.412 95.2851 159.412 75.4601 159.412C75.4601 148.167 75.4601 134.062 75.4601 118.787H75.5251C87.1601 118.787 98.2101 118.787 108.09 118.787C108.025 142.772 108.025 159.152 108.025 159.412Z" fill="#263238"/>
<path d="M84.43 129.772H77.28V131.202H84.43V129.772Z" fill="#E0E0E0"/>
<path d="M99.575 126.652H85.275V128.082H99.575V126.652Z" fill="#F5F5F5"/>
<path d="M84.0401 126.652H77.2151V128.082H84.0401V126.652Z" fill="#F5F5F5"/>
<path d="M105.62 126.652H100.42V128.082H105.62V126.652Z" fill="#F5F5F5"/>
<path d="M86.445 150.312H77.28V151.937H86.445V150.312Z" fill="#E0E0E0"/>
<path d="M105.49 133.347H77.28V134.972H105.49V133.347Z" fill="#E0E0E0"/>
<path d="M104.97 137.052C104.97 137.117 98.9251 137.247 91.3851 137.247C83.9101 137.247 77.8 137.182 77.8 137.052C77.8 136.922 83.8451 136.857 91.3851 136.857C98.8601 136.857 104.97 136.922 104.97 137.052Z" fill="#263238"/>
<path d="M104.97 138.417C104.97 138.482 98.9251 138.612 91.3851 138.612C83.9101 138.612 77.8 138.547 77.8 138.417C77.8 138.352 83.8451 138.222 91.3851 138.222C98.8601 138.287 104.97 138.352 104.97 138.417Z" fill="#263238"/>
<path d="M104.97 139.847C104.97 139.912 98.9251 140.042 91.3851 140.042C83.9101 140.042 77.8 139.977 77.8 139.847C77.8 139.782 83.8451 139.652 91.3851 139.652C98.8601 139.652 104.97 139.717 104.97 139.847Z" fill="#263238"/>
<path d="M89.8901 141.212C89.8901 141.277 87.1601 141.407 83.8451 141.407C80.5301 141.407 77.8 141.342 77.8 141.212C77.8 141.147 80.5301 141.017 83.8451 141.017C87.225 141.082 89.8901 141.147 89.8901 141.212Z" fill="#263238"/>
<path d="M104.97 142.642C104.97 142.707 98.9251 142.837 91.3851 142.837C83.9101 142.837 77.8 142.772 77.8 142.642C77.8 142.512 83.8451 142.447 91.3851 142.447C98.8601 142.447 104.97 142.577 104.97 142.642Z" fill="#263238"/>
<path d="M104.97 144.072C104.97 144.137 98.9251 144.267 91.3851 144.267C83.9101 144.267 77.8 144.202 77.8 144.072C77.8 144.007 83.8451 143.877 91.3851 143.877C98.8601 143.877 104.97 143.942 104.97 144.072Z" fill="#263238"/>
<path d="M99.5751 145.437C99.5751 145.502 94.7001 145.632 88.7201 145.632C82.7401 145.632 77.8651 145.567 77.8651 145.437C77.8651 145.372 82.7401 145.242 88.7201 145.242C94.7001 145.307 99.5751 145.372 99.5751 145.437Z" fill="#263238"/>
<path d="M104.97 146.867C104.97 146.932 98.9251 147.062 91.3851 147.062C83.9101 147.062 77.8 146.997 77.8 146.867C77.8 146.802 83.8451 146.672 91.3851 146.672C98.8601 146.672 104.97 146.737 104.97 146.867Z" fill="#263238"/>
<path d="M104.97 148.297C104.97 148.362 98.9251 148.492 91.3851 148.492C83.9101 148.492 77.8 148.427 77.8 148.297C77.8 148.167 83.8451 148.102 91.3851 148.102C98.8601 148.102 104.97 148.167 104.97 148.297Z" fill="#263238"/>
<path d="M100.875 120.347H84.17V117.227C84.17 116.447 84.82 115.797 85.6 115.797H99.38C100.16 115.797 100.81 116.447 100.81 117.227V120.347H100.875Z" fill="#263238"/>
<path d="M94.635 114.042H90.41L90.93 117.487H94.115L94.635 114.042Z" fill="#263238"/>
<path d="M99.835 115.797C99.835 115.797 96.585 115.862 92.555 115.862C88.525 115.862 85.275 115.862 85.275 115.797C85.275 115.797 88.525 115.732 92.555 115.732C96.585 115.732 99.835 115.797 99.835 115.797Z" fill="#455A64"/>
<path d="M84.56 119.632C84.56 119.632 84.495 118.982 84.495 118.202C84.495 117.422 84.495 116.772 84.56 116.772C84.625 116.772 84.625 117.422 84.625 118.202C84.56 118.982 84.56 119.632 84.56 119.632Z" fill="#455A64"/>
<path d="M100.355 119.307C100.355 119.307 100.29 118.722 100.29 118.007C100.29 117.292 100.29 116.707 100.355 116.707C100.42 116.707 100.42 117.292 100.42 118.007C100.355 118.657 100.355 119.307 100.355 119.307Z" fill="#455A64"/>
<path d="M99.5101 119.892C99.5101 119.892 96.1951 119.957 92.0351 119.957C87.8751 119.957 84.5601 119.957 84.5601 119.892C84.5601 119.892 87.8751 119.827 92.0351 119.827C96.1951 119.827 99.5101 119.892 99.5101 119.892Z" fill="#455A64"/>
<g opacity="0.3">
<path d="M100.875 117.097L101.59 119.047V119.957H100.81L100.875 117.097Z" fill="black"/>
</g>
<path d="M82.3096 124.02C82.3096 124.191 82.2696 124.347 82.1896 124.488C82.1123 124.627 81.9936 124.739 81.8336 124.824C81.6763 124.907 81.4829 124.948 81.2536 124.948H80.8656V125.9H80.0816V123.08H81.2536C81.4803 123.08 81.6723 123.12 81.8296 123.2C81.9896 123.28 82.1096 123.391 82.1896 123.532C82.2696 123.673 82.3096 123.836 82.3096 124.02ZM81.1776 124.324C81.3989 124.324 81.5096 124.223 81.5096 124.02C81.5096 123.815 81.3989 123.712 81.1776 123.712H80.8656V124.324H81.1776ZM84.1766 125.928C83.9126 125.928 83.6699 125.867 83.4486 125.744C83.2272 125.619 83.0512 125.447 82.9206 125.228C82.7926 125.007 82.7286 124.757 82.7286 124.48C82.7286 124.203 82.7926 123.955 82.9206 123.736C83.0512 123.515 83.2272 123.343 83.4486 123.22C83.6699 123.097 83.9126 123.036 84.1766 123.036C84.4432 123.036 84.6859 123.097 84.9046 123.22C85.1259 123.343 85.3006 123.515 85.4286 123.736C85.5566 123.955 85.6206 124.203 85.6206 124.48C85.6206 124.757 85.5566 125.007 85.4286 125.228C85.3006 125.447 85.1259 125.619 84.9046 125.744C84.6832 125.867 84.4406 125.928 84.1766 125.928ZM84.1766 125.2C84.3766 125.2 84.5339 125.135 84.6486 125.004C84.7659 124.873 84.8246 124.699 84.8246 124.48C84.8246 124.256 84.7659 124.08 84.6486 123.952C84.5339 123.821 84.3766 123.756 84.1766 123.756C83.9739 123.756 83.8152 123.821 83.7006 123.952C83.5859 124.08 83.5286 124.256 83.5286 124.48C83.5286 124.701 83.5859 124.877 83.7006 125.008C83.8152 125.136 83.9739 125.2 84.1766 125.2ZM87.601 125.9L87.041 124.86H86.957V125.9H86.173V123.08H87.409C87.6357 123.08 87.8277 123.12 87.985 123.2C88.1423 123.277 88.261 123.385 88.341 123.524C88.421 123.66 88.461 123.813 88.461 123.984C88.461 124.176 88.4077 124.345 88.301 124.492C88.197 124.636 88.0437 124.739 87.841 124.8L88.477 125.9H87.601ZM86.957 124.324H87.345C87.4517 124.324 87.5317 124.299 87.585 124.248C87.6383 124.197 87.665 124.124 87.665 124.028C87.665 123.937 87.637 123.867 87.581 123.816C87.5277 123.763 87.449 123.736 87.345 123.736H86.957V124.324ZM91.1415 123.08V123.704H90.3895V125.9H89.6055V123.704H88.8615V123.08H91.1415ZM93.5436 123.08V123.704H92.4156V124.2H93.2476V124.796H92.4156V125.9H91.6316V123.08H93.5436ZM95.4258 125.928C95.1618 125.928 94.9191 125.867 94.6978 125.744C94.4764 125.619 94.3004 125.447 94.1698 125.228C94.0418 125.007 93.9778 124.757 93.9778 124.48C93.9778 124.203 94.0418 123.955 94.1698 123.736C94.3004 123.515 94.4764 123.343 94.6978 123.22C94.9191 123.097 95.1618 123.036 95.4258 123.036C95.6924 123.036 95.9351 123.097 96.1538 123.22C96.3751 123.343 96.5498 123.515 96.6778 123.736C96.8058 123.955 96.8698 124.203 96.8698 124.48C96.8698 124.757 96.8058 125.007 96.6778 125.228C96.5498 125.447 96.3751 125.619 96.1538 125.744C95.9324 125.867 95.6898 125.928 95.4258 125.928ZM95.4258 125.2C95.6258 125.2 95.7831 125.135 95.8978 125.004C96.0151 124.873 96.0738 124.699 96.0738 124.48C96.0738 124.256 96.0151 124.08 95.8978 123.952C95.7831 123.821 95.6258 123.756 95.4258 123.756C95.2231 123.756 95.0644 123.821 94.9498 123.952C94.8351 124.08 94.7778 124.256 94.7778 124.48C94.7778 124.701 94.8351 124.877 94.9498 125.008C95.0644 125.136 95.2231 125.2 95.4258 125.2ZM98.2062 125.3H99.0822V125.9H97.4222V123.08H98.2062V125.3ZM100.371 123.08V125.9H99.5871V123.08H100.371ZM102.37 125.928C102.106 125.928 101.863 125.867 101.642 125.744C101.42 125.619 101.244 125.447 101.114 125.228C100.986 125.007 100.922 124.757 100.922 124.48C100.922 124.203 100.986 123.955 101.114 123.736C101.244 123.515 101.42 123.343 101.642 123.22C101.863 123.097 102.106 123.036 102.37 123.036C102.636 123.036 102.879 123.097 103.098 123.22C103.319 123.343 103.494 123.515 103.622 123.736C103.75 123.955 103.814 124.203 103.814 124.48C103.814 124.757 103.75 125.007 103.622 125.228C103.494 125.447 103.319 125.619 103.098 125.744C102.876 125.867 102.634 125.928 102.37 125.928ZM102.37 125.2C102.57 125.2 102.727 125.135 102.842 125.004C102.959 124.873 103.018 124.699 103.018 124.48C103.018 124.256 102.959 124.08 102.842 123.952C102.727 123.821 102.57 123.756 102.37 123.756C102.167 123.756 102.008 123.821 101.894 123.952C101.779 124.08 101.722 124.256 101.722 124.48C101.722 124.701 101.779 124.877 101.894 125.008C102.008 125.136 102.167 125.2 102.37 125.2Z" fill="black"/>
<path d="M97.69 162.467L96.91 161.232C96.91 161.232 96.65 158.177 95.22 158.112C93.79 158.047 93.595 159.737 93.595 159.737C93.595 159.737 93.465 158.502 92.23 158.372C90.995 158.242 90.93 159.867 90.93 159.867C90.93 159.867 90.8 157.982 89.76 158.177C88.72 158.307 88.265 159.282 88.265 159.282C88.265 159.282 88.265 157.722 87.745 157.592C87.225 157.397 86.705 157.592 86.25 158.177C85.795 158.762 85.99 161.622 85.99 161.622C85.99 161.622 85.99 162.662 87.095 162.857L87.94 162.727C87.94 162.727 87.68 165.457 89.63 165.717C91.58 165.977 91.515 165.132 91.515 165.132C91.515 165.132 92.36 166.302 93.79 166.042C95.22 165.782 95.025 164.872 95.025 164.872C95.025 164.872 96.52 165.522 97.235 165.002C97.95 164.547 97.69 162.467 97.69 162.467Z" fill="#F3CBA5"/>
<path d="M87.94 162.792C87.875 162.792 87.615 161.947 87.81 160.842C87.94 159.737 88.33 158.957 88.395 159.022C88.46 159.087 88.265 159.867 88.135 160.907C88.005 161.947 88.07 162.792 87.94 162.792Z" fill="#6F4439"/>
<path d="M91.645 165.262C91.58 165.327 91.06 164.092 90.865 162.532C90.735 160.972 90.93 159.672 90.995 159.672C91.125 159.672 90.995 160.972 91.19 162.467C91.385 164.027 91.71 165.197 91.645 165.262Z" fill="#6F4439"/>
<path d="M95.1551 164.937C95.0901 164.937 94.8951 164.742 94.6351 164.287C94.3751 163.832 94.1801 163.182 93.9851 162.467C93.5951 161.037 93.4651 159.802 93.5951 159.802C93.7251 159.802 93.9851 160.972 94.3101 162.402C94.5051 163.117 94.7001 163.767 94.8951 164.222C95.0901 164.612 95.2201 164.937 95.1551 164.937Z" fill="#6F4439"/>
</svg>
