<svg width="306" height="311" viewBox="0 0 306 311" fill="none" xmlns="http://www.w3.org/2000/svg">
<path d="M229.893 243.341C229.893 243.341 230.083 243.297 230.384 243.159C230.701 243.085 231.177 242.84 231.703 242.517C232.291 242.179 232.898 241.636 233.525 240.889C234.073 240.093 234.625 239.029 234.801 237.787C234.921 237.158 234.885 236.432 234.722 235.736C234.559 235.04 234.381 234.28 234.203 233.521C233.848 232.002 233.385 230.308 232.955 228.472C232.033 224.816 230.977 220.591 229.803 215.859C225.013 196.819 218.176 169.314 209.622 135.334C205.37 118.305 200.684 99.7082 195.736 79.7046C193.254 69.6711 190.65 59.3993 188.02 48.7329C186.713 43.4314 185.312 38.0181 183.96 32.5267C183.26 29.82 182.608 27.0353 181.893 24.2653C181.504 22.8877 180.687 21.6772 179.564 20.8719C178.441 20.0666 176.997 19.6034 175.594 19.598C174.868 19.6343 174.172 19.7972 173.476 19.9602C172.78 20.1231 172.083 20.286 171.339 20.5271C169.946 20.8529 168.506 21.2569 167.113 21.5827C164.28 22.3126 161.432 22.9791 158.535 23.7237C152.791 25.1349 146.934 26.639 141.063 28.0798C129.273 31.0394 117.292 34.0436 105.058 37.1069C80.5904 43.2336 55.2368 49.5677 29.3135 56.0351C27.7313 56.4054 26.3119 57.4719 25.4245 58.8145C24.5371 60.157 24.2112 61.9022 24.5815 63.4844C25.3369 66.7122 26.1556 69.9252 26.9743 73.1382C28.6117 79.5641 30.171 85.9416 31.7787 92.2409C34.931 104.854 38.0536 117.341 41.1169 129.575C47.2436 154.043 53.0997 177.639 58.7673 200.145C64.3716 222.665 69.6944 243.983 74.7062 263.972C75.362 266.489 75.9396 268.957 76.5806 271.411C76.862 272.613 77.1582 273.879 77.5029 275.067C77.8476 276.254 78.5573 277.29 79.4757 278.076C80.394 278.863 81.5211 279.4 82.764 279.576C83.3781 279.633 83.9773 279.626 84.5617 279.556C85.1461 279.486 85.7642 279.275 86.3338 279.141C88.724 278.515 91.0658 277.967 93.3294 277.371C102.603 275.067 111.498 272.852 120.012 270.726C154.007 262.236 181.576 255.383 200.567 250.672C210.094 248.309 217.469 246.449 222.454 245.216C224.986 244.623 226.87 244.115 228.136 243.819C229.26 243.489 229.893 243.341 229.893 243.341C229.893 243.341 229.26 243.489 227.946 243.864C226.68 244.16 224.733 244.682 222.279 245.323C217.294 246.557 209.919 248.416 200.406 250.843C181.367 255.632 153.861 262.47 119.882 271.023C111.367 273.149 102.473 275.364 93.1988 277.668C90.8719 278.28 88.5301 278.828 86.2032 279.439C85.6336 279.572 85.0007 279.72 84.4311 279.854C83.7834 279.939 83.1842 279.945 82.5553 279.826C81.3124 279.649 80.122 279.127 79.1888 278.277C78.2557 277.427 77.4679 276.343 77.1717 275.077C76.827 273.89 76.5307 272.624 76.2493 271.421C75.6083 268.968 75.0307 266.5 74.3749 263.983C69.3631 243.994 64.0255 222.613 58.436 200.156C52.8318 177.635 46.9124 154.054 40.7857 129.586C37.7223 117.352 34.6145 104.929 31.4475 92.2517C29.8397 85.9523 28.2804 79.5749 26.643 73.1489C25.8243 69.9359 25.0056 66.723 24.2502 63.4952C23.9284 61.8348 24.2395 60.0264 25.1754 58.6057C26.1113 57.1851 27.5939 56.1038 29.2246 55.6554C55.1479 49.188 80.5016 42.8539 104.969 36.7272C117.203 33.6638 129.184 30.6597 140.989 27.7633C146.86 26.3225 152.717 24.8185 158.461 23.4073C161.358 22.6627 164.206 21.9961 167.039 21.2663C168.495 20.9256 169.872 20.5365 171.265 20.2106C171.961 20.0477 172.657 19.8848 173.417 19.707C174.113 19.5441 174.872 19.3663 175.598 19.33C177.064 19.3206 178.571 19.769 179.709 20.6376C180.847 21.5061 181.742 22.7652 182.146 24.2061C182.861 26.976 183.513 29.7608 184.213 32.4674C185.565 37.9588 186.966 43.3721 188.273 48.6737C190.903 59.34 193.522 69.6751 195.989 79.6453C201.001 99.6342 205.623 118.245 209.876 135.274C218.365 169.269 225.218 196.838 229.929 215.829C231.104 220.561 232.159 224.787 233.082 228.443C233.511 230.278 233.974 231.972 234.33 233.491C234.508 234.25 234.749 234.995 234.848 235.706C234.948 236.417 234.984 237.143 234.928 237.757C234.766 239.063 234.214 240.127 233.651 240.859C233.04 241.67 232.418 242.15 231.829 242.487C231.241 242.825 230.813 242.992 230.433 243.081C230.083 243.297 229.893 243.341 229.893 243.341Z" fill="#263238"/>
<g opacity="0.3">
<path d="M92.2306 271.82L224.186 238.068L219.326 212.169L211.487 197.782L85.7349 250.91L92.2306 271.82Z" fill="black"/>
</g>
<path d="M229.893 243.341C229.893 243.341 230.083 243.297 230.384 243.159C230.701 243.085 231.177 242.84 231.703 242.517C232.291 242.179 232.898 241.636 233.525 240.889C234.073 240.093 234.625 239.029 234.801 237.787C234.921 237.158 234.885 236.432 234.722 235.736C234.559 235.04 234.381 234.28 234.203 233.521C233.848 232.002 233.385 230.308 232.955 228.472C232.033 224.816 230.977 220.591 229.803 215.859C225.013 196.819 218.176 169.314 209.622 135.334C205.37 118.305 200.684 99.7082 195.736 79.7046C193.254 69.6711 190.65 59.3993 188.02 48.7329C186.713 43.4314 185.312 38.0181 183.96 32.5267C183.26 29.82 182.608 27.0353 181.893 24.2653C181.504 22.8877 180.687 21.6772 179.564 20.8719C178.441 20.0666 176.997 19.6034 175.594 19.598C174.868 19.6343 174.172 19.7972 173.476 19.9602C172.78 20.1231 172.083 20.286 171.339 20.5271C169.946 20.8529 168.506 21.2569 167.113 21.5827C164.28 22.3126 161.432 22.9791 158.535 23.7237C152.791 25.1349 146.934 26.639 141.063 28.0798C129.273 31.0394 117.292 34.0436 105.058 37.1069C80.5904 43.2336 55.2368 49.5677 29.3135 56.0351C27.7313 56.4054 26.3119 57.4719 25.4245 58.8145C24.5371 60.157 24.2112 61.9022 24.5815 63.4844C25.3369 66.7122 26.1556 69.9252 26.9743 73.1382C28.6117 79.5641 30.171 85.9416 31.7787 92.2409C34.931 104.854 38.0536 117.341 41.1169 129.575C47.2436 154.043 53.0997 177.639 58.7673 200.145C64.3716 222.665 69.6944 243.983 74.7062 263.972C75.362 266.489 75.9396 268.957 76.5806 271.411C76.862 272.613 77.1582 273.879 77.5029 275.067C77.8476 276.254 78.5573 277.29 79.4757 278.076C80.394 278.863 81.5211 279.4 82.764 279.576C83.3781 279.633 83.9773 279.626 84.5617 279.556C85.1461 279.486 85.7642 279.275 86.3338 279.141C88.724 278.515 91.0658 277.967 93.3294 277.371C102.603 275.067 111.498 272.852 120.012 270.726C154.007 262.236 181.576 255.383 200.567 250.672C210.094 248.309 217.469 246.449 222.454 245.216C224.986 244.623 226.87 244.115 228.136 243.819C229.26 243.489 229.893 243.341 229.893 243.341C229.893 243.341 229.26 243.489 227.946 243.864C226.68 244.16 224.733 244.682 222.279 245.323C217.294 246.557 209.919 248.416 200.406 250.843C181.367 255.632 153.861 262.47 119.882 271.023C111.367 273.149 102.473 275.364 93.1988 277.668C90.8719 278.28 88.5301 278.828 86.2032 279.439C85.6336 279.572 85.0007 279.72 84.4311 279.854C83.7834 279.939 83.1842 279.945 82.5553 279.826C81.3124 279.649 80.122 279.127 79.1888 278.277C78.2557 277.427 77.4679 276.343 77.1717 275.077C76.827 273.89 76.5307 272.624 76.2493 271.421C75.6083 268.968 75.0307 266.5 74.3749 263.983C69.3631 243.994 64.0255 222.613 58.436 200.156C52.8318 177.635 46.9124 154.054 40.7857 129.586C37.7223 117.352 34.6145 104.929 31.4475 92.2517C29.8397 85.9523 28.2804 79.5749 26.643 73.1489C25.8243 69.9359 25.0056 66.723 24.2502 63.4952C23.9284 61.8348 24.2395 60.0264 25.1754 58.6057C26.1113 57.1851 27.5939 56.1038 29.2246 55.6554C55.1479 49.188 80.5016 42.8539 104.969 36.7272C117.203 33.6638 129.184 30.6597 140.989 27.7633C146.86 26.3225 152.717 24.8185 158.461 23.4073C161.358 22.6627 164.206 21.9961 167.039 21.2663C168.495 20.9256 169.872 20.5365 171.265 20.2106C171.961 20.0477 172.657 19.8848 173.417 19.707C174.113 19.5441 174.872 19.3663 175.598 19.33C177.064 19.3206 178.571 19.769 179.709 20.6376C180.847 21.5061 181.742 22.7652 182.146 24.2061C182.861 26.976 183.513 29.7608 184.213 32.4674C185.565 37.9588 186.966 43.3721 188.273 48.6737C190.903 59.34 193.522 69.6751 195.989 79.6453C201.001 99.6342 205.623 118.245 209.876 135.274C218.365 169.269 225.218 196.838 229.929 215.829C231.104 220.561 232.159 224.787 233.082 228.443C233.511 230.278 233.974 231.972 234.33 233.491C234.508 234.25 234.749 234.995 234.848 235.706C234.948 236.417 234.984 237.143 234.928 237.757C234.766 239.063 234.214 240.127 233.651 240.859C233.04 241.67 232.418 242.15 231.829 242.487C231.241 242.825 230.813 242.992 230.433 243.081C230.083 243.297 229.893 243.341 229.893 243.341Z" fill="#263238"/>
<g opacity="0.3">
<path d="M92.2306 271.82L224.186 238.068L219.326 212.169L211.487 197.782L85.7349 250.91L92.2306 271.82Z" fill="black"/>
</g>
<path d="M229.893 243.341L85.0196 279.516C81.4902 280.409 77.9123 278.242 77.0977 274.761L24.3876 63.7968C23.4949 60.2674 25.6616 56.6895 29.1425 55.8749L174.016 19.7003C177.545 18.8075 181.123 20.9742 181.938 24.4552L234.648 235.419C235.589 238.871 233.422 242.448 229.893 243.341Z" fill="#AFC6BF"/>
<path d="M174.636 28.9943L32.9989 64.3839L84.0034 268.516L225.641 233.126L174.636 28.9943Z" fill="white"/>
<path d="M225.632 233.123C225.351 231.921 204.648 149.449 174.522 28.9945L174.678 29.0914C131.726 39.8112 83.6768 51.8572 33.0328 64.5106L33.1297 64.3544C52.2801 141.048 69.9897 211.871 84.1135 268.513L83.9573 268.416C170.13 246.98 224.698 233.409 225.632 233.123C224.683 233.345 170.145 247.044 84.0017 268.606L83.8751 268.635L83.8455 268.509C69.6584 211.882 51.9488 141.059 32.7984 64.3652L32.7688 64.2386L32.8954 64.209C83.4761 51.5704 131.603 39.5728 174.556 28.8531L174.682 28.8234L174.712 28.95C204.789 149.482 225.366 231.984 225.632 233.123Z" fill="#263238"/>
<path d="M91.2269 128.727L60.2634 136.464L61.9021 143.022L92.8656 135.286L91.2269 128.727Z" fill="#E0E0E0"/>
<path d="M153.515 97.948L91.3993 113.468L93.038 120.027L155.154 104.506L153.515 97.948Z" fill="#F5F5F5"/>
<path d="M85.8751 114.704L56.3621 122.078L58.0008 128.636L87.5138 121.262L85.8751 114.704Z" fill="#F5F5F5"/>
<path d="M179.501 91.4466L157.05 97.056L158.689 103.614L181.139 98.0051L179.501 91.4466Z" fill="#F5F5F5"/>
<path d="M186.766 122.266L64.2362 152.881L66.0955 160.322L188.625 129.707L186.766 122.266Z" fill="#E0E0E0"/>
<path d="M146.902 85.654C146.916 85.7173 132.117 89.5145 113.886 94.0483C95.591 98.5969 80.8256 102.253 80.796 102.126C80.7812 102.063 95.5803 98.2656 113.812 93.7318C132.107 89.1832 146.887 85.5907 146.902 85.654Z" fill="#263238"/>
<path d="M145.217 43.2626L72.5592 61.4017L68.292 44.3094C67.7103 42.1091 69.0529 39.8589 71.2681 39.3405L135.918 23.209C138.118 22.6273 140.368 23.9699 140.887 26.1851L145.217 43.2626Z" fill="#263238"/>
<path d="M110.913 21.0502L92.4286 25.6432L98.5514 40.9661L112.479 37.4395L110.913 21.0502Z" fill="#263238"/>
<path d="M135.285 23.3572C135.3 23.4205 121.134 27.0696 103.662 31.4257C86.1898 35.7817 71.9792 39.2409 71.9644 39.1776C71.9495 39.1143 86.1157 35.4652 103.588 31.1092C121.06 26.7532 135.27 23.2939 135.285 23.3572Z" fill="#455A64"/>
<path d="M73.3417 57.6137C73.2784 57.6285 72.4557 54.6835 71.5333 51.0275C70.6109 47.3715 69.9632 44.3188 70.0265 44.304C70.0898 44.2892 70.9125 47.2342 71.8349 50.8902C72.7721 54.6095 73.4683 57.5841 73.3417 57.6137Z" fill="#455A64"/>
<path d="M141.657 38.8888C141.594 38.9036 140.83 36.2117 139.982 32.8722C139.134 29.5326 138.56 26.7964 138.623 26.7815C138.687 26.7667 139.45 29.4586 140.298 32.7981C141.083 36.1525 141.72 38.874 141.657 38.8888Z" fill="#455A64"/>
<path d="M138.843 42.5515C138.857 42.6147 124.312 46.3527 106.396 50.8124C88.4181 55.287 73.9059 58.8836 73.8763 58.757C73.8614 58.6937 88.4073 54.9557 106.322 50.496C124.238 46.0363 138.813 42.4249 138.843 42.5515Z" fill="#455A64"/>
<g opacity="0.3">
<path d="M141.424 28.1956L146.677 36.3789L147.762 40.7311L144.423 41.5794L141.424 28.1956Z" fill="black"/>
</g>
<path d="M71.4572 74.7644L73.5456 83.6882L71.0647 84.2689L68.9762 75.345L71.4572 74.7644ZM83.857 81.2751L81.3761 81.8557L76.9052 77.6416L78.0723 82.6289L75.5914 83.2095L73.5029 74.2856L75.9839 73.705L80.4696 77.9823L79.2876 72.9318L81.7686 72.3512L83.857 81.2751ZM89.2909 80.0968C88.253 80.3397 87.3434 80.2945 86.5622 79.961C85.779 79.6192 85.2545 78.9943 84.9886 78.0863L87.6341 77.4672C87.7325 77.7735 87.8787 77.9796 88.0726 78.0855C88.2665 78.1915 88.49 78.2148 88.7432 78.1556C88.971 78.1022 89.1438 78.0039 89.2616 77.8607C89.3858 77.707 89.4243 77.5289 89.3769 77.3263C89.3157 77.0647 89.1459 76.8908 88.8676 76.8047C88.5893 76.7185 88.1552 76.651 87.5652 76.6021C86.9375 76.5443 86.4215 76.4692 86.0171 76.377C85.6193 76.2743 85.2448 76.0815 84.8938 75.7987C84.5493 75.5055 84.3108 75.0762 84.1785 74.5108C84.0442 73.937 84.0731 73.414 84.2653 72.9418C84.4554 72.4611 84.779 72.0561 85.2359 71.7266C85.6928 71.3972 86.242 71.1574 86.8833 71.0073C87.9213 70.7644 88.8055 70.8156 89.5361 71.1608C90.2731 71.4957 90.7654 72.097 91.013 72.9648L88.3169 73.5957C88.2452 73.3277 88.1135 73.1449 87.9215 73.0474C87.738 72.9479 87.5239 72.9268 87.2792 72.9841C87.0936 73.0275 86.9545 73.1179 86.862 73.2553C86.7696 73.3927 86.747 73.5626 86.7944 73.7651C86.8339 73.9339 86.9318 74.0668 87.088 74.1637C87.2506 74.2503 87.4399 74.3172 87.6557 74.3646C87.8695 74.4036 88.1821 74.4461 88.5935 74.4923C89.2043 74.5541 89.7138 74.6395 90.1221 74.7487C90.5369 74.8475 90.9155 75.0392 91.2581 75.324C91.6071 75.5983 91.8429 75.9971 91.9653 76.5203C92.0897 77.0519 92.0663 77.5603 91.895 78.0454C91.7321 78.5286 91.4262 78.9518 90.9771 79.315C90.5365 79.6762 89.9745 79.9368 89.2909 80.0968ZM94.7274 69.3184L95.939 74.4955C96.0515 74.9765 96.2481 75.3222 96.5288 75.5324C96.8178 75.7407 97.1902 75.7915 97.6459 75.6849C98.1016 75.5782 98.4127 75.3674 98.5794 75.0525C98.7524 74.7272 98.7837 74.3282 98.6731 73.8557L97.4615 68.6785L99.9425 68.0979L101.154 73.275C101.346 74.0936 101.337 74.8345 101.127 75.4977C100.915 76.1525 100.544 76.6977 100.014 77.1333C99.4907 77.5584 98.8661 77.8559 98.1403 78.0258C97.4146 78.1956 96.7313 78.2042 96.0903 78.0516C95.4558 77.8886 94.9068 77.5587 94.4434 77.0618C93.9885 76.5631 93.6642 75.9002 93.4707 75.0732L92.2591 69.8961L94.7274 69.3184ZM108.549 75.4964L106.006 72.6201L105.741 72.6823L106.511 75.9734L104.03 76.554L101.941 67.6301L105.853 66.7148C106.57 66.5469 107.207 66.5313 107.764 66.6679C108.319 66.7961 108.775 67.05 109.131 67.4296C109.485 67.8007 109.725 68.2563 109.851 68.7964C109.993 69.4039 109.95 69.9793 109.721 70.5224C109.499 71.0551 109.089 71.4936 108.494 71.8377L111.321 74.8477L108.549 75.4964ZM105.344 70.9861L106.571 70.6988C106.909 70.6198 107.143 70.4804 107.275 70.2805C107.406 70.0807 107.436 69.8289 107.365 69.5251C107.298 69.2382 107.157 69.0353 106.942 68.9164C106.734 68.7872 106.465 68.761 106.136 68.8381L104.908 69.1254L105.344 70.9861ZM118.336 71.6705L115.172 72.4111L115.031 73.9793L112.424 74.5896L113.588 64.9044L116.449 64.2349L121.778 72.4004L119.158 73.0136L118.336 71.6705ZM117.271 69.9169L115.634 67.2561L115.36 70.3643L117.271 69.9169ZM131.485 70.1286L129.004 70.7092L124.533 66.4951L125.7 71.4824L123.219 72.063L121.131 63.1391L123.612 62.5585L128.098 66.8359L126.916 61.7853L129.397 61.2047L131.485 70.1286ZM132.179 65.2399C131.973 64.3623 131.972 63.5392 132.175 62.7708C132.384 61.9919 132.782 61.3336 133.368 60.7959C133.953 60.2497 134.684 59.8739 135.561 59.6685C136.675 59.4079 137.682 59.4882 138.582 59.9096C139.479 60.3226 140.157 61.0139 140.616 61.9837L137.945 62.6087C137.706 62.3087 137.422 62.1037 137.093 61.9936C136.773 61.8815 136.428 61.869 136.057 61.9559C135.483 62.0902 135.071 62.4045 134.822 62.899C134.579 63.3831 134.538 63.9669 134.698 64.6504C134.86 65.3424 135.158 65.8556 135.592 66.1901C136.033 66.5142 136.54 66.6091 137.114 66.4748C137.485 66.3879 137.79 66.2232 138.027 65.9809C138.272 65.7365 138.435 65.4268 138.517 65.0517L141.188 64.4267C141.207 65.4991 140.907 66.4237 140.288 67.2006C139.667 67.9691 138.799 68.4836 137.685 68.7443C136.808 68.9497 135.987 68.9415 135.223 68.7198C134.457 68.4896 133.808 68.0762 133.277 67.4796C132.752 66.8725 132.386 66.126 132.179 65.2399ZM144.614 59.7395L144.955 61.1952L147.803 60.5286L148.244 62.4147L145.396 63.0812L145.772 64.6888L149 63.9334L149.465 65.9207L143.757 67.2567L141.668 58.3328L147.377 56.9968L147.842 58.9841L144.614 59.7395ZM90.9054 89.2774C90.7 88.3998 90.6988 87.5768 90.9017 86.8083C91.1111 86.0295 91.5088 85.3712 92.0951 84.8334C92.6793 84.2873 93.4102 83.9115 94.2879 83.7061C95.4018 83.4454 96.4086 83.5258 97.3083 83.9472C98.206 84.3601 98.884 85.0515 99.3424 86.0212L96.6716 86.6463C96.4322 86.3462 96.1484 86.1412 95.82 86.0311C95.5 85.9191 95.1544 85.9065 94.7831 85.9934C94.2093 86.1277 93.7978 86.4421 93.5486 86.9366C93.3058 87.4206 93.2644 88.0044 93.4244 88.6879C93.5863 89.3799 93.8844 89.8931 94.3188 90.2276C94.7595 90.5517 95.2668 90.6466 95.8407 90.5123C96.212 90.4254 96.5161 90.2608 96.7531 90.0184C96.9986 89.774 97.162 89.4643 97.2433 89.0893L99.9141 88.4642C99.9337 89.5366 99.6338 90.4613 99.0146 91.2382C98.3933 92.0066 97.5258 92.5212 96.4119 92.7819C95.5343 92.9873 94.7135 92.9791 93.9495 92.7573C93.1836 92.5272 92.535 92.1137 92.0037 91.5171C91.4789 90.9101 91.1128 90.1635 90.9054 89.2774ZM104.52 88.8149L107.292 88.1662L107.736 90.0649L102.483 91.2942L100.395 82.3704L102.876 81.7897L104.52 88.8149ZM114.639 86.9141L111.474 87.6547L111.334 89.2229L108.726 89.8332L109.891 80.148L112.752 79.4785L118.08 87.644L115.46 88.2572L114.639 86.9141ZM113.574 85.1606L111.937 82.4997L111.663 85.6079L113.574 85.1606ZM119.915 77.8021L122.003 86.726L119.522 87.3066L117.434 78.3827L119.915 77.8021ZM132.378 74.8853L134.466 83.8092L131.985 84.3898L130.833 79.4659L130.302 84.7838L128.226 85.2696L125.368 80.7047L126.53 85.6666L124.049 86.2472L121.96 77.3234L124.96 76.6213L128.557 81.8943L129.39 75.5844L132.378 74.8853Z" fill="#FF725E"/>
<path d="M72.3426 174.481L141.291 158.345C141.336 158.334 141.37 158.278 141.36 158.233L141 156.694C140.989 156.649 140.933 156.614 140.888 156.625L71.94 172.761C71.8947 172.771 71.86 172.827 71.8706 172.873L72.2273 174.397C72.2414 174.457 72.2973 174.492 72.3426 174.481Z" fill="#E0E0E0"/>
<path d="M73.4514 179.219L148.92 161.557C148.965 161.546 149 161.49 148.989 161.445L148.633 159.921C148.622 159.876 148.566 159.841 148.521 159.852L73.0523 177.514C73.007 177.524 72.9724 177.58 72.983 177.625L73.3396 179.149C73.3537 179.21 73.4061 179.229 73.4514 179.219Z" fill="#E0E0E0"/>
<path d="M74.5638 183.972L150.032 166.31C150.077 166.299 150.112 166.243 150.102 166.198L149.745 164.674C149.734 164.629 149.678 164.594 149.633 164.605L74.1648 182.267C74.1195 182.277 74.0848 182.333 74.0954 182.379L74.452 183.902C74.4626 183.948 74.5185 183.982 74.5638 183.972Z" fill="#E0E0E0"/>
<path d="M75.6761 188.725L151.145 171.063C151.19 171.052 151.224 170.996 151.214 170.951L150.857 169.427C150.847 169.382 150.791 169.347 150.745 169.358L75.2771 187.02C75.2318 187.03 75.1971 187.086 75.2077 187.132L75.5643 188.656C75.5749 188.701 75.6308 188.735 75.6761 188.725Z" fill="#E0E0E0"/>
<path d="M76.7885 193.478L152.257 175.816C152.302 175.805 152.337 175.749 152.326 175.704L151.97 174.18C151.959 174.135 151.903 174.1 151.858 174.111L76.3895 191.773C76.3442 191.783 76.3095 191.839 76.3201 191.885L76.6768 193.409C76.6874 193.454 76.7432 193.488 76.7885 193.478Z" fill="#E0E0E0"/>
<path d="M77.9008 198.231L153.369 180.569C153.415 180.558 153.449 180.502 153.439 180.457L153.082 178.933C153.071 178.888 153.015 178.853 152.97 178.864L77.5018 196.526C77.4565 196.536 77.4218 196.592 77.4324 196.638L77.7891 198.162C77.7997 198.207 77.8555 198.241 77.9008 198.231Z" fill="#E0E0E0"/>
<g opacity="0.3">
<path d="M150.105 98.7619L155.691 98.5467C155.691 98.5467 158.38 115.89 158.622 123.999L162.05 123.307L154.235 142.167L150.255 119.099L150.105 98.7619Z" fill="black"/>
</g>
<path d="M154.044 95.5007L139.117 96.6046C142.341 107.041 144.838 117.911 145.895 130.696L158.53 129.792C157.614 118.3 156.37 106.789 154.044 95.5007Z" fill="#FF725E"/>
<path d="M151.486 126.014L141.836 127.341L147.891 135.202L153.901 143.069L157.541 133.875L161.135 124.687L151.486 126.014Z" fill="#FF725E"/>
<path d="M107.327 233.512C105.244 233.808 103.063 232.86 101.851 230.986L84.6959 203.364C83.8921 202.14 83.6724 200.598 84.0256 199.209C84.3679 197.744 85.2169 196.521 86.4514 195.794L170.684 143.425C173.285 141.795 176.712 142.645 178.254 145.181L195.409 172.803C197.039 175.404 196.189 178.83 193.654 180.372L109.421 232.741C108.77 233.149 108.021 233.413 107.327 233.512ZM172.998 144.198C172.458 144.274 171.929 144.428 171.499 144.726L87.2662 197.095C85.4586 198.218 84.8624 200.664 85.9856 202.472L103.141 230.094C104.264 231.902 106.71 232.498 108.518 231.375L192.751 179.005C194.558 177.882 195.154 175.436 194.031 173.628L176.876 146.006C176.05 144.629 174.541 143.978 172.998 144.198Z" fill="#DD436B"/>
<path d="M116.866 216.491C115.809 215.697 114.817 214.815 113.881 213.768L113.044 212.864C110.632 210.296 109.244 208.841 108.815 208.587L108.451 208.796C108.847 209.369 109.167 209.953 109.398 210.471L110.422 212.136C112.151 214.88 113.615 216.876 114.981 218.176L115.135 219.256L114.264 219.774L113.603 219.553L112.359 217.448C111.236 215.64 109.419 212.83 106.864 209.258C104.188 205.389 102.382 202.656 101.446 201.057C100.83 200.043 100.896 199.404 101.535 198.92C102.616 198.215 103.762 197.973 104.798 198.062C105.844 198.227 106.715 198.812 107.331 199.826L108.663 201.997C108.862 202.284 108.994 202.659 109.148 203.188C109.291 203.639 109.346 204.025 109.39 204.334L109.521 205.81L109.62 207.056L110.259 207.673L112.032 209.624C113.332 211.013 114.356 212.127 115.259 212.942C116.162 213.758 117.044 214.42 117.914 215.004L118.343 215.258C118.773 215.511 119.126 215.776 119.247 216.074C119.357 216.294 119.39 216.526 119.423 216.757C119.378 216.999 119.246 217.176 119.103 217.275C118.574 217.429 117.836 217.219 116.866 216.491ZM107.626 204.663C107.296 203.451 106.911 202.404 106.317 201.544C105.909 200.894 105.436 200.332 104.896 199.858C104.621 199.582 104.29 199.472 103.893 199.45C103.574 199.417 103.199 199.549 102.835 199.758L102.857 199.912L102.978 200.21L105.302 203.814C105.996 204.817 106.711 205.974 107.526 207.275C107.923 206.746 107.879 205.887 107.626 204.663Z" fill="#DD436B"/>
<path d="M123.137 214.103C122.818 214.07 122.553 213.871 122.366 213.662L121.86 212.868L121.463 212.295C121.364 212.152 121.177 211.942 121.056 211.645C120.758 211.215 120.351 210.565 119.756 209.705L118.457 207.765C117.84 206.751 116.915 205.23 115.759 203.191C114.713 201.372 113.866 199.84 113.062 198.616C112.864 198.33 112.566 197.9 112.181 197.404C111.784 196.831 111.487 196.401 111.3 196.191C110.386 194.747 110.397 193.723 111.268 193.205C111.918 192.798 112.811 192.434 113.869 192.126C114.927 191.818 115.566 191.885 115.775 192.249C115.885 192.469 115.918 192.7 115.874 192.943C115.83 193.185 115.72 193.516 115.521 193.78C114.452 194.011 113.549 194.297 112.81 194.638C113.008 194.925 113.306 195.355 113.625 195.939C114.131 196.733 114.561 197.537 114.968 198.188C115.508 199.213 115.926 199.94 116.234 200.447L116.609 200.866L117.116 200.558C117.259 200.459 117.469 200.271 117.689 200.161C118.703 199.545 119.331 199.534 119.728 200.107C119.838 200.327 119.871 200.559 119.838 200.878C119.716 201.132 119.595 201.385 119.297 201.506C118.934 201.715 118.647 201.914 118.416 201.947L117.622 202.453C118.007 202.949 118.514 203.743 119.131 204.757C119.747 205.771 120.353 206.708 120.782 207.512C121.52 208.824 122.048 209.772 122.445 210.345C123.161 211.502 123.557 212.076 123.546 211.999L124.549 211.305C124.913 211.096 125.266 210.809 125.773 210.501C126.566 209.994 127.117 209.995 127.425 210.502C127.624 210.788 127.59 211.108 127.469 211.361C127.282 211.703 127.083 211.967 126.642 212.187L124.041 213.817C123.765 214.092 123.457 214.136 123.137 214.103Z" fill="#DD436B"/>
<path d="M130.73 212.707L130.62 212.487C130.609 212.409 130.51 212.266 130.499 212.189C130.488 212.112 130.543 211.947 130.731 211.605C131.546 210.702 131.988 209.931 132.065 209.369C132.242 208.399 131.813 207.044 130.789 205.379C129.963 204.001 128.256 201.411 125.745 197.597C123.532 194.213 121.836 191.7 120.713 189.893L120.614 189.749C120.537 189.76 120.471 189.848 120.316 189.87C120.173 189.969 120.019 189.991 119.875 190.091C119.512 190.3 119.137 190.432 118.906 190.465C118.531 190.597 118.299 190.63 118.057 190.586C117.969 190.519 117.881 190.453 117.87 190.376C117.76 190.156 117.738 190.001 117.848 189.671C117.969 189.418 118.168 189.153 118.388 189.043C119.402 188.426 120.648 187.777 122.048 187.105C123.447 186.434 124.197 186.17 124.307 186.39C124.417 186.611 124.45 186.842 124.395 187.007C124.351 187.25 124.141 187.437 123.921 187.547L122.333 188.56C123.038 189.64 124.371 191.812 126.551 194.964C128.137 197.257 129.546 199.417 130.68 201.302L132.717 204.554C133.136 205.281 133.466 205.942 133.697 206.46C134.049 207.276 134.17 208.125 134.049 208.929C134.015 209.799 133.596 210.725 132.846 211.54C132.516 211.981 132.02 212.366 131.369 212.773C131.083 212.972 130.917 212.916 130.73 212.707Z" fill="#DD436B"/>
<path d="M139.693 203.796C139.373 203.763 139.109 203.565 138.922 203.355L138.415 202.562L138.019 201.988C137.92 201.845 137.732 201.636 137.611 201.338C137.314 200.908 136.907 200.258 136.312 199.398L135.013 197.458C134.396 196.444 133.471 194.923 132.315 192.884C131.269 191.065 130.421 189.533 129.617 188.31C129.419 188.023 129.122 187.593 128.736 187.097C128.34 186.524 127.965 186.105 127.855 185.885C126.941 184.441 126.953 183.416 127.824 182.899C128.474 182.491 129.367 182.128 130.425 181.82C131.483 181.512 132.122 181.578 132.331 181.942C132.441 182.162 132.474 182.394 132.43 182.636C132.386 182.879 132.275 183.209 132.077 183.473C131.008 183.704 130.104 183.99 129.366 184.332C129.564 184.618 129.861 185.048 130.18 185.632C130.687 186.426 131.116 187.231 131.524 187.881C132.063 188.906 132.482 189.633 132.79 190.14L133.164 190.559L133.672 190.251C133.815 190.152 134.024 189.965 134.245 189.855C135.259 189.238 135.887 189.227 136.283 189.8C136.393 190.021 136.426 190.252 136.393 190.572C136.272 190.825 136.15 191.079 135.853 191.2C135.489 191.409 135.203 191.607 134.971 191.64L134.178 192.147C134.563 192.643 135.07 193.436 135.686 194.45C136.303 195.464 136.908 196.401 137.338 197.206C138.075 198.517 138.604 199.465 139 200.039C139.716 201.196 140.113 201.769 140.102 201.692L141.105 200.998C141.468 200.789 141.821 200.503 142.328 200.194C143.122 199.688 143.673 199.688 143.981 200.195C144.179 200.482 144.146 200.801 144.025 201.055C143.837 201.396 143.639 201.66 143.198 201.881L140.597 203.51C140.321 203.786 140.012 203.83 139.693 203.796Z" fill="#DD436B"/>
<path d="M150.406 197.234C149.8 197.399 149.338 197.465 148.952 197.52C147.057 197.475 144.887 195.501 142.442 191.599L141.936 190.806L141.33 189.869L140.912 189.141C140.405 188.348 139.987 187.62 139.568 186.893C139.161 186.243 138.82 185.504 138.39 184.7C137.961 183.895 137.62 183.157 137.454 182.55C137.289 181.944 137.114 181.261 137.004 180.49C136.894 179.718 136.883 179.09 137.038 178.517C137.192 177.944 137.512 177.426 137.898 176.821C138.295 176.292 138.846 175.741 139.573 175.323C139.86 175.124 140.169 175.081 140.411 175.125C140.653 175.169 140.83 175.301 141.017 175.511C141.127 175.731 141.16 175.963 141.193 176.194C141.149 176.436 141.094 176.602 140.884 176.789L139.44 177.703C138.999 177.923 138.834 178.419 138.856 179.124C138.877 179.829 139.064 180.59 139.438 181.56C140.154 183.268 140.726 184.524 141.332 185.461L141.431 185.605L143.193 188.58C143.71 189.451 144.327 190.465 144.966 191.634C145.472 192.427 145.868 193 146.254 193.496C146.827 194.202 147.366 194.676 147.884 194.996C148.49 195.382 149.14 195.525 149.911 195.415C150.297 195.361 150.672 195.228 151.025 194.942C151.245 194.832 151.444 194.568 151.554 194.237C151.84 194.039 152.072 194.006 152.303 193.973C152.535 193.94 152.711 194.072 152.898 194.282C153.405 195.075 153.118 195.825 151.961 196.54C151.531 196.838 151.013 197.069 150.406 197.234Z" fill="#DD436B"/>
<path d="M157.583 191.805L156.79 190.658C156.581 190.294 156.294 189.942 155.997 189.512L155.369 188.421C155.182 188.211 153.618 186.073 150.755 181.994C147.892 177.916 146.02 175.27 145.216 174.047C143.982 174.774 143.166 175.126 142.692 175.115C142.373 175.082 142.119 174.96 142.009 174.74C141.91 174.596 141.954 174.354 142.076 174.101C142.197 173.847 142.406 173.66 142.616 173.473C143.2 173.154 143.927 172.735 144.809 172.295C145.625 171.942 146.352 171.524 147.002 171.117L147.223 171.007L147.443 170.896C148.094 170.489 148.578 170.577 148.876 171.007C148.986 171.228 149.03 171.536 148.908 171.79C148.787 172.043 148.589 172.307 148.368 172.418C148.148 172.528 147.927 172.638 147.486 172.858L146.814 173.111L146.913 173.254L147.012 173.398C148.136 175.205 150.107 177.994 152.926 181.764C155.558 185.324 157.529 188.113 158.851 190.207C158.961 190.428 159.005 190.736 158.894 191.067C158.784 191.397 158.585 191.662 158.365 191.772L157.583 191.805Z" fill="#DD436B"/>
<path d="M164.78 188.183C164.46 188.149 164.196 187.951 164.009 187.741L163.502 186.948L163.106 186.375C163.007 186.231 162.819 186.022 162.698 185.724C162.401 185.294 161.994 184.644 161.399 183.784L160.099 181.844C159.483 180.83 158.558 179.309 157.402 177.27C156.356 175.452 155.508 173.919 154.704 172.696C154.506 172.409 154.209 171.98 153.823 171.483C153.427 170.91 153.052 170.491 152.942 170.271C152.028 168.827 152.04 167.802 152.911 167.285C153.561 166.877 154.454 166.514 155.512 166.206C156.57 165.898 157.209 165.964 157.418 166.328C157.528 166.549 157.561 166.78 157.517 167.022C157.473 167.265 157.362 167.595 157.164 167.86C156.095 168.091 155.191 168.377 154.453 168.718C154.651 169.005 154.948 169.434 155.267 170.019C155.774 170.812 156.203 171.617 156.611 172.267C157.15 173.292 157.569 174.02 157.877 174.527L158.251 174.946L158.758 174.637C158.902 174.538 159.111 174.351 159.332 174.241C160.346 173.624 160.974 173.613 161.37 174.187C161.48 174.407 161.513 174.638 161.48 174.958C161.359 175.211 161.237 175.465 160.94 175.586C160.576 175.795 160.289 175.993 160.058 176.026L159.264 176.533C159.65 177.029 160.156 177.822 160.773 178.836C161.39 179.85 161.995 180.787 162.425 181.592C163.162 182.904 163.691 183.852 164.087 184.425C164.803 185.582 165.199 186.155 165.188 186.078L166.191 185.384C166.555 185.175 166.908 184.889 167.415 184.58C168.209 184.074 168.76 184.074 169.068 184.581C169.266 184.868 169.233 185.187 169.112 185.441C168.924 185.782 168.726 186.047 168.285 186.267L165.683 187.896C165.408 188.172 165.099 188.216 164.78 188.183Z" fill="#DD436B"/>
<path d="M170.569 179.094L167.596 174.244C166.759 172.79 165.746 171.202 164.623 169.395C164.216 168.744 163.522 167.741 162.553 166.463C161.484 165.041 160.89 164.181 160.681 163.817C160.482 163.531 160.516 163.211 160.549 162.891C160.659 162.561 160.858 162.297 161.067 162.109C161.794 161.691 162.544 161.427 163.47 161.295C164.318 161.174 165.2 161.285 166.103 161.55C167.998 162.146 169.54 163.028 170.829 164.34C171.468 164.957 172.041 165.662 172.459 166.39C172.657 166.677 172.767 166.897 172.877 167.117L173.395 167.988L174.419 169.652C175.234 170.953 175.861 172.044 176.214 172.86C176.764 173.962 177.072 175.02 177.215 176.023C177.369 177.103 177.225 178.304 176.839 179.461C176.673 179.957 176.375 180.629 175.989 181.234L173.741 182.578C173.322 182.952 172.21 181.773 170.569 179.094ZM175.153 179.229C175.406 178.799 175.495 178.314 175.495 177.763C175.506 177.289 175.429 176.749 175.264 176.143C175.099 175.537 174.945 175.008 174.703 174.413C174.318 173.366 173.856 172.33 173.25 171.393C173.129 171.095 172.92 170.732 172.622 170.302C168.758 164.162 165.563 161.627 162.984 162.859C163.446 163.896 163.997 164.998 164.713 166.155C165.527 167.456 167.014 169.605 169.194 172.758C171.077 175.48 172.575 177.707 173.61 179.448L174.028 180.176C174.635 180.011 174.976 179.647 175.153 179.229Z" fill="#DD436B"/>
<path d="M248.058 242.888C248.727 232.302 240.688 223.179 230.102 222.51C219.516 221.841 210.393 229.881 209.725 240.466C209.056 251.052 217.095 260.175 227.681 260.844C238.266 261.512 247.39 253.473 248.058 242.888Z" fill="#FCD936"/>
<path d="M232.65 257.439C231.925 257.609 231.13 257.736 230.322 257.807C225.992 258.173 221.799 256.858 218.503 254.097C211.679 248.334 210.762 238.128 216.525 231.304C222.287 224.479 232.494 223.563 239.318 229.325C242.614 232.087 244.654 236.025 245.063 240.286C245.428 244.616 244.114 248.81 241.352 252.106C239.032 254.768 235.999 256.655 232.65 257.439ZM225.618 227.645C222.66 228.337 219.966 229.909 217.843 232.408C212.731 238.491 213.511 247.611 219.65 252.71C222.588 255.202 226.339 256.385 230.197 256.012C234.011 255.708 237.529 253.883 240.008 250.889C242.5 247.951 243.682 244.201 243.31 240.343C242.993 236.473 241.181 233.01 238.187 230.532C234.56 227.613 229.861 226.652 225.618 227.645Z" fill="#F89520"/>
<path d="M221.428 248.231C221.839 247.723 221.85 247.014 221.384 246.534C220.906 245.998 220.44 245.519 220.073 244.957C219.745 244.563 219.473 244.155 219.27 243.791C218.985 243.327 219.022 242.73 219.39 242.291L220.777 240.671C221.244 240.149 222.052 240.078 222.573 240.545L224.469 242.103C224.839 242.428 225.013 242.918 224.894 243.416C224.864 243.541 224.821 243.61 224.848 243.722C224.857 244.014 225.103 244.31 225.473 244.635C225.831 244.905 226.106 245.076 226.412 245.122C226.648 245.126 226.871 245.073 227.055 244.854C227.197 244.703 227.213 244.522 227.204 244.23C227.152 244.007 227.004 243.629 226.788 243.209C225.907 241.707 225.327 240.489 224.994 239.566C224.66 238.643 224.507 237.737 224.603 236.89C224.699 236.044 225.101 235.243 225.837 234.364C226.8 233.197 227.894 232.587 229.105 232.481C230.08 232.37 231.216 232.693 232.512 233.45C233.05 233.736 233.732 233.635 234.156 233.183L234.199 233.114C234.666 232.592 235.474 232.521 235.995 232.988L236.215 233.172C236.736 233.639 236.807 234.446 236.341 234.968C235.93 235.476 235.919 236.185 236.384 236.665C236.863 237.2 237.342 237.736 237.709 238.298C237.994 238.761 238.266 239.168 238.469 239.533C238.698 240.009 238.648 240.551 238.323 240.921L237.175 242.309C236.709 242.83 235.901 242.901 235.38 242.434L233.635 241.018C233.278 240.748 233.048 240.272 233.111 239.786C233.2 239.412 233.01 239.103 232.627 238.722C232.256 238.396 231.981 238.225 231.744 238.222C231.495 238.162 231.285 238.27 231.101 238.49C230.959 238.641 230.9 238.89 230.995 239.045C231.047 239.268 231.237 239.577 231.522 240.04C232.282 241.275 232.878 242.313 233.199 243.18C233.576 244.034 233.729 244.94 233.659 245.899C233.576 246.801 233.144 247.727 232.408 248.605C231.346 249.855 230.154 250.546 228.818 250.623C227.718 250.704 226.583 250.381 225.369 249.723C224.831 249.437 224.148 249.538 223.724 249.99L223.583 250.141C223.116 250.662 222.308 250.734 221.787 250.267L221.567 250.083C221.046 249.616 220.975 248.808 221.441 248.287L221.428 248.231Z" fill="#F89520"/>
<path d="M217.528 234.863C217.845 224.262 209.508 215.41 198.907 215.093C188.305 214.776 179.454 223.112 179.137 233.714C178.819 244.315 187.156 253.167 197.758 253.484C208.359 253.802 217.21 245.465 217.528 234.863Z" fill="#FCD936"/>
<path d="M202.049 250.012C200.486 250.378 198.871 250.52 197.26 250.426C192.953 250.139 189.02 248.175 186.135 244.905C183.306 241.622 181.867 237.484 182.154 233.178C182.775 224.26 190.497 217.507 199.416 218.128C208.334 218.749 215.087 226.472 214.465 235.39C214.178 239.696 212.213 243.63 209 246.501C206.929 248.222 204.561 249.424 202.049 250.012ZM195.018 220.217C188.989 221.628 184.322 226.842 183.89 233.302C183.61 237.135 184.889 240.84 187.403 243.784C189.96 246.659 193.438 248.436 197.327 248.703C201.161 248.984 204.865 247.704 207.81 245.19C210.685 242.633 212.462 239.156 212.729 235.266C213.28 227.307 207.252 220.416 199.305 219.92C197.848 219.732 196.413 219.891 195.018 220.217Z" fill="#F89520"/>
<path d="M196.161 243.972C196.185 243.318 195.749 242.714 195.139 242.621C194.459 242.486 193.78 242.35 193.143 242.146C192.631 241.971 192.188 241.84 191.801 241.695C191.289 241.52 190.978 240.945 190.972 240.417L191.129 238.319C191.196 237.597 191.774 237.05 192.496 237.116L194.954 237.306C195.44 237.369 195.922 237.669 196.083 238.102C196.109 238.214 196.191 238.312 196.204 238.368C196.368 238.565 196.755 238.71 197.228 238.717C197.7 238.725 198.048 238.702 198.259 238.594C198.469 238.486 198.597 238.279 198.643 237.974C198.66 237.793 198.552 237.583 198.388 237.386C198.224 237.189 197.893 237.031 197.424 236.787C195.849 236.096 194.635 235.438 193.808 234.925C192.982 234.412 192.352 233.735 191.946 233.006C191.54 232.277 191.387 231.37 191.474 230.232C191.594 228.732 192.097 227.613 193.014 226.751C193.747 226.108 194.88 225.666 196.314 225.507C196.942 225.419 197.421 224.954 197.445 224.3L197.419 224.189C197.486 223.467 198.064 222.919 198.786 222.986L199.078 222.976C199.8 223.043 200.348 223.621 200.281 224.343C200.258 224.996 200.68 225.545 201.304 225.694C202.039 225.816 202.731 226.007 203.312 226.225C203.824 226.399 204.28 226.587 204.611 226.745C205.081 226.988 205.366 227.451 205.316 227.993L205.205 229.785C205.139 230.507 204.56 231.055 203.838 230.988L201.56 230.815C201.088 230.808 200.618 230.564 200.458 230.131C200.324 229.809 199.98 229.595 199.438 229.545C198.965 229.538 198.617 229.561 198.407 229.669C198.197 229.777 198.069 229.983 198.022 230.289C198.019 230.525 198.114 230.679 198.265 230.821C198.471 230.949 198.803 231.107 199.314 231.281C200.67 231.789 201.732 232.305 202.559 232.818C203.386 233.331 204.002 233.953 204.477 234.725C204.952 235.497 205.187 236.501 205.101 237.64C205.02 239.308 204.431 240.564 203.389 241.397C202.545 242.065 201.468 242.494 200.102 242.696C199.475 242.784 198.995 243.249 198.971 243.903L198.967 244.139C198.901 244.861 198.323 245.409 197.6 245.342L197.308 245.352C196.586 245.285 196.039 244.707 196.105 243.985L196.161 243.972Z" fill="#F89520"/>
<path d="M87.7806 276.47C95.4415 283.806 107.599 283.543 114.935 275.882C122.271 268.221 122.007 256.064 114.346 248.728C106.685 241.392 94.5282 241.655 87.1922 249.316C79.8563 256.977 80.1198 269.135 87.7806 276.47Z" fill="#FCD936"/>
<path d="M85.7543 257.35C87.9014 251.056 93.807 246.529 100.824 246.379C105.158 246.282 109.261 247.924 112.359 250.919C115.456 253.914 117.222 257.969 117.319 262.303C117.415 266.636 115.773 270.74 112.778 273.837C109.783 276.935 105.728 278.701 101.395 278.798C97.0611 278.894 92.9573 277.252 89.86 274.257C86.7628 271.262 84.9964 267.207 84.8998 262.873C84.841 260.915 85.1621 259.086 85.7543 257.35ZM114.728 267.234C115.265 265.66 115.53 263.994 115.506 262.29C115.424 258.446 113.872 254.828 111.081 252.179C108.308 249.477 104.674 248.055 100.83 248.137C92.8521 248.263 86.533 254.89 86.6769 262.813C86.7588 266.657 88.3107 270.276 91.1021 272.924C93.8751 275.627 97.5091 277.048 101.353 276.966C105.197 276.884 108.816 275.333 111.464 272.541C112.943 271.047 114.062 269.187 114.728 267.234Z" fill="#F89520"/>
<path d="M99.7533 272.423C99.7399 271.752 99.2541 271.223 98.6017 271.182C97.8951 271.123 97.207 271.009 96.5916 270.86C96.0848 270.747 95.6322 270.654 95.2524 270.524C94.7098 270.339 94.3326 269.847 94.3364 269.303L94.2788 267.163C94.2839 266.438 94.8501 265.844 95.5752 265.849L98.0232 265.775C98.5128 265.761 99.0183 266.054 99.1786 266.472C99.2143 266.545 99.3043 266.636 99.3401 266.709C99.5201 266.892 99.8999 267.021 100.389 267.007C100.879 266.992 101.206 266.922 101.388 266.742C101.625 266.58 101.699 266.363 101.683 266.055C101.685 265.874 101.577 265.655 101.379 265.527C101.199 265.344 100.892 265.179 100.403 265.013C98.7757 264.457 97.5105 263.905 96.6437 263.427C95.7768 262.95 95.074 262.346 94.6438 261.655C94.1593 260.944 93.9116 260.072 93.9192 258.985C93.8936 257.461 94.3008 256.268 95.1408 255.404C95.8167 254.665 96.8897 254.183 98.324 253.885C98.9234 253.726 99.3983 253.222 99.3664 252.605L99.3491 252.478C99.3542 251.753 99.9204 251.158 100.645 251.164L100.954 251.148C101.679 251.153 102.273 251.719 102.268 252.444C102.282 253.115 102.767 253.644 103.42 253.685C104.181 253.763 104.869 253.876 105.484 254.026C105.991 254.138 106.479 254.305 106.859 254.434C107.347 254.601 107.67 255.074 107.667 255.618L107.708 257.449C107.703 258.175 107.137 258.769 106.412 258.764L104.164 258.784C103.674 258.799 103.204 258.578 102.971 258.196C102.774 257.886 102.413 257.702 101.923 257.717C101.433 257.732 101.107 257.802 100.888 257.909C100.67 258.017 100.596 258.234 100.612 258.542C100.592 258.777 100.718 258.941 100.916 259.07C101.115 259.198 101.441 259.309 102.002 259.44C103.377 259.848 104.497 260.291 105.329 260.696C106.214 261.119 106.862 261.704 107.456 262.451C107.994 263.18 108.278 264.125 108.287 265.34C108.33 266.99 107.832 268.273 106.9 269.228C106.152 270.002 105.079 270.484 103.699 270.801C103.099 270.96 102.624 271.464 102.656 272.081L102.637 272.316C102.632 273.041 102.065 273.636 101.34 273.63L101.032 273.646C100.307 273.641 99.7125 273.075 99.7175 272.35L99.7533 272.423Z" fill="#F89520"/>
<path d="M71.175 149.39C70.5768 138.8 61.5072 130.7 50.9174 131.298C40.3276 131.897 32.2278 140.966 32.826 151.556C33.4241 162.146 42.4938 170.246 53.0836 169.647C63.6734 169.049 71.7732 159.98 71.175 149.39Z" fill="#FCD936"/>
<path d="M55.6803 166.229C54.7314 166.451 53.7694 166.617 52.824 166.603C48.5235 166.844 44.3465 165.349 41.1363 162.45C34.4962 156.467 33.9833 146.225 39.9656 139.585C45.9478 132.945 56.1902 132.432 62.8303 138.414C66.0405 141.313 67.9134 145.291 68.1544 149.591C68.3955 153.892 66.9002 158.069 64.0011 161.279C61.7659 163.804 58.862 165.484 55.6803 166.229ZM48.6485 136.434C45.8575 137.087 43.2625 138.578 41.2541 140.814C35.9227 146.713 36.4107 155.843 42.3098 161.174C48.2088 166.505 57.3383 166.017 62.6697 160.118C65.2434 157.279 66.551 153.558 66.3587 149.717C66.1663 145.876 64.4538 142.332 61.6141 139.758C58.0203 136.478 53.1141 135.389 48.6485 136.434Z" fill="#F89520"/>
<path d="M58.2766 158.203C57.8241 157.779 57.0592 157.781 56.5663 158.191C56.0307 158.669 55.482 159.092 54.976 159.446C54.5129 159.731 54.1613 159.99 53.7967 160.193C53.3335 160.478 52.7231 160.386 52.2836 160.017L50.7195 158.617C50.1981 158.15 50.1269 157.343 50.6495 156.808L52.2766 154.956C52.602 154.585 53.1471 154.399 53.6032 154.586C53.7279 154.616 53.7968 154.659 53.9084 154.633C54.2006 154.623 54.5094 154.433 54.8348 154.063C55.1602 153.692 55.3312 153.416 55.3348 153.18C55.3942 152.931 55.2861 152.72 55.0533 152.481C54.9025 152.339 54.7089 152.267 54.4856 152.319C54.2493 152.315 53.8716 152.463 53.4642 152.735C51.95 153.56 50.7184 154.084 49.7397 154.431C48.7611 154.777 47.8977 154.862 47.0378 154.71C46.2338 154.545 45.3775 154.156 44.5545 153.407C43.4428 152.431 42.8763 151.268 42.7694 150.056C42.7148 149.068 43.0937 147.92 43.8075 146.693C44.1495 146.142 44.0486 145.459 43.5961 145.035L43.5272 144.992C43.0059 144.526 42.9346 143.718 43.4572 143.183L43.6413 142.964C44.108 142.442 44.9156 142.371 45.4501 142.894C45.9584 143.305 46.6674 143.315 47.1603 142.906C47.6959 142.427 48.3004 141.991 48.8622 141.624C49.3254 141.339 49.7458 141.123 50.1104 140.92C50.5867 140.691 51.1413 140.796 51.5119 141.122L52.8563 142.338C53.3776 142.805 53.4489 143.612 52.9263 144.147L51.4275 145.793C51.1021 146.163 50.6686 146.324 50.1828 146.261C49.8087 146.172 49.4869 146.306 49.1187 146.745C48.7933 147.116 48.6222 147.391 48.5628 147.641C48.5035 147.89 48.6115 148.1 48.8312 148.285C48.9821 148.426 49.1757 148.498 49.399 148.446C49.6222 148.394 49.931 148.204 50.3942 147.919C51.6424 147.214 52.6935 146.674 53.6163 146.34C54.5391 146.007 55.4026 145.922 56.3052 146.005C57.2078 146.089 58.0902 146.589 58.9691 147.325C60.1757 148.456 60.8111 149.661 60.8883 150.997C60.9002 152.054 60.5771 153.19 59.8633 154.416C59.5213 154.968 59.6222 155.65 60.0747 156.074L60.2255 156.216C60.7469 156.683 60.8181 157.49 60.2956 158.025L60.1115 158.244C59.6447 158.766 58.8371 158.837 58.3027 158.314L58.2766 158.203Z" fill="#F89520"/>
<path d="M243.879 75.6425L233.603 64.5667L242.587 53.1218L228.312 53.5525L225.912 41.3076L217.482 50.6605L207.206 43.2151L207.821 57.2444L194.407 58.1058L203.822 67.8279L194.592 78.4729L208.991 80.1958L209.852 92.4407L221.912 84.0723L232.065 94.2867L229.727 79.642L243.879 75.6425Z" fill="white"/>
<path d="M243.879 75.6425C243.264 75.8271 238.71 77.1193 229.727 79.7651L229.788 79.6421C230.465 83.7032 231.265 88.6257 232.188 94.2867L232.25 94.6559L232.003 94.4098C228.927 91.3332 225.543 87.8874 221.851 84.1954H222.035C218.282 86.7798 214.282 89.6103 210.037 92.5638L209.79 92.7484V92.5023C209.483 88.6257 209.175 84.5031 208.867 80.2574L208.991 80.3805C204.437 79.8267 199.576 79.2729 194.654 78.6576L194.346 78.596L194.531 78.3499C197.484 74.9656 200.561 71.3968 203.76 67.7049V67.951C201.176 65.3051 198.407 62.4131 195.638 59.5827L194.284 58.229L194.038 57.9828H194.407C198.961 57.6752 203.453 57.429 207.821 57.1214L207.637 57.306C207.391 52.5065 207.206 47.83 207.022 43.3382V42.969L207.329 43.1536C210.836 45.6764 214.282 48.1992 217.605 50.599H217.359C220.312 47.3993 223.081 44.2612 225.85 41.2461L226.035 41L226.096 41.3077C226.896 45.6149 227.696 49.676 228.435 53.5525L228.312 53.4295C233.542 53.3064 238.28 53.1218 242.649 52.9987H242.895L242.71 53.1833C239.203 57.6136 236.188 61.4286 233.665 64.6283V64.5052C240.187 71.6429 243.448 75.1502 243.879 75.6425C243.448 75.2118 240.126 71.6429 233.542 64.6283L233.48 64.5667L233.542 64.5052C236.065 61.3055 239.018 57.4906 242.525 53.0603L242.649 53.2449C238.341 53.3679 233.542 53.5525 228.312 53.7371H228.188V53.6141C227.45 49.7375 226.65 45.6764 225.789 41.3692L226.035 41.4307C223.327 44.4458 220.497 47.5224 217.605 50.7836L217.482 50.9066L217.359 50.8451C214.036 48.4454 210.59 45.9841 207.083 43.3997L207.329 43.2767C207.514 47.83 207.76 52.5065 207.944 57.2444V57.429H207.76C203.391 57.6752 198.899 57.9828 194.346 58.2905L194.469 57.9828L195.823 59.3365C198.592 62.2285 201.361 65.059 203.945 67.7049L204.068 67.8279L203.945 67.951C200.745 71.5814 197.669 75.2118 194.715 78.596L194.592 78.2884C199.576 78.9037 204.376 79.4575 208.929 80.0113H209.052V80.1343C209.36 84.38 209.667 88.5027 209.975 92.3792L209.729 92.2561C213.975 89.3026 218.036 86.4721 221.728 83.8878L221.851 83.8263L221.912 83.8878C225.604 87.6412 229.05 91.087 232.065 94.1636L231.88 94.2867C230.957 88.6257 230.219 83.7032 229.542 79.6421V79.5805H229.604C238.649 77.0577 243.264 75.8271 243.879 75.6425Z" fill="#263238"/>
<path d="M218.573 80.3567C220.599 80.4411 222.118 79.0062 222.203 77.1493C222.287 75.2924 220.852 73.7732 218.827 73.6888C216.717 73.6044 215.197 75.0392 215.113 76.8961C215.028 78.6686 216.463 80.2723 218.573 80.3567ZM217.054 70.0594L221.106 70.2282L222.709 54.6134L216.632 54.3602L217.054 70.0594Z" fill="#FF725E"/>
<path d="M244.956 283.266L245.448 295.572C245.448 295.572 233.08 300.187 232.957 302.464L256.832 302.403L256.893 283.205L244.956 283.266Z" fill="#263238"/>
<path d="M252.77 294.526C253.263 294.65 253.57 295.142 253.447 295.634C253.324 296.126 252.832 296.434 252.34 296.311C251.848 296.188 251.478 295.572 251.601 295.142C251.786 294.711 252.401 294.342 252.832 294.588" fill="#E0E0E0"/>
<path d="M256.832 302.403L256.77 300.495L233.88 301.295C233.88 301.295 232.834 301.787 232.957 302.526L256.832 302.403Z" fill="#455A64"/>
<path d="M245.017 295.449C245.017 295.573 245.633 295.634 246.187 296.003C246.802 296.372 247.048 296.865 247.171 296.803C247.294 296.803 247.109 296.065 246.371 295.634C245.694 295.203 245.017 295.326 245.017 295.449Z" fill="white"/>
<path d="M242.495 296.495C242.495 296.619 242.987 296.803 243.356 297.295C243.787 297.788 243.848 298.28 243.971 298.28C244.094 298.28 244.156 297.603 243.664 296.988C243.171 296.434 242.495 296.372 242.495 296.495Z" fill="white"/>
<path d="M241.079 299.449C241.202 299.449 241.326 298.895 241.018 298.28C240.71 297.665 240.156 297.418 240.095 297.48C240.033 297.603 240.403 297.911 240.649 298.464C240.956 298.957 240.956 299.449 241.079 299.449Z" fill="white"/>
<path d="M245.202 292.619C245.264 292.742 245.756 292.557 246.433 292.619C247.11 292.619 247.602 292.865 247.663 292.742C247.725 292.681 247.233 292.25 246.433 292.188C245.694 292.127 245.141 292.496 245.202 292.619Z" fill="white"/>
<path d="M275.784 282.036L277.076 296.865L274.738 308.925C274.553 309.786 275.168 310.648 276.03 310.709C276.522 310.771 277.014 310.586 277.322 310.217C279.476 307.879 287.229 299.326 287.105 298.218C286.921 296.988 286.798 282.466 286.798 282.466L275.784 282.036Z" fill="#263238"/>
<path d="M276.03 310.709L287.044 297.234L287.105 297.849C287.167 298.403 286.982 298.957 286.675 299.387C285.813 300.556 283.29 303.756 277.445 310.217C277.014 310.648 276.522 310.771 276.03 310.709Z" fill="#455A64"/>
<g opacity="0.6">
<path d="M283.66 292.68C283.29 292.988 283.229 293.542 283.475 293.911C283.721 294.28 284.336 294.342 284.706 294.096C285.075 293.85 285.198 293.111 284.89 292.803C284.583 292.496 283.906 292.373 283.598 292.742" fill="white"/>
</g>
<path d="M278.983 304.002C278.922 304.064 278.491 303.264 277.629 302.956C276.706 302.587 275.907 302.833 275.907 302.71C275.907 302.649 276.091 302.526 276.399 302.464C276.768 302.403 277.26 302.403 277.753 302.587C278.245 302.772 278.614 303.141 278.799 303.449C278.983 303.756 279.045 304.002 278.983 304.002Z" fill="white"/>
<path d="M278.06 306.094C277.999 306.156 277.506 305.725 276.706 305.541C275.907 305.356 275.291 305.541 275.23 305.418C275.168 305.356 275.907 304.987 276.768 305.171C277.691 305.418 278.122 306.033 278.06 306.094Z" fill="white"/>
<path d="M280.829 301.356C280.768 301.418 279.968 300.741 278.799 300.372C277.629 300.003 276.583 300.126 276.583 300.003C276.583 299.941 277.629 299.634 278.922 300.064C280.152 300.433 280.891 301.295 280.829 301.356Z" fill="white"/>
<path d="M280.768 296.803C280.706 296.865 279.906 296.619 278.799 296.619C277.752 296.619 276.891 296.988 276.829 296.865C276.768 296.803 277.629 296.311 278.737 296.311C279.968 296.249 280.829 296.68 280.768 296.803Z" fill="white"/>
<path d="M280.521 292.434C280.46 292.496 279.598 292.065 278.491 292.188C277.383 292.311 276.583 292.865 276.522 292.803C276.522 292.803 276.645 292.557 276.953 292.373C277.26 292.127 277.814 291.942 278.429 291.881C279.045 291.819 279.598 291.942 279.968 292.065C280.337 292.188 280.521 292.373 280.521 292.434Z" fill="white"/>
<path d="M278.491 291.327C278.491 291.327 278.429 291.142 278.429 290.773C278.429 290.404 278.491 289.85 278.799 289.296C278.922 288.989 279.106 288.619 279.475 288.435C279.66 288.312 279.968 288.312 280.152 288.496C280.337 288.681 280.398 288.927 280.46 289.173C280.521 290.096 279.783 291.081 278.675 291.265C277.629 291.45 276.583 290.896 276.153 290.096C276.03 289.912 275.968 289.665 276.091 289.358C276.214 289.112 276.46 288.989 276.706 288.989C277.137 289.05 277.445 289.235 277.691 289.419C278.245 289.788 278.552 290.219 278.799 290.527C278.983 290.835 279.106 291.019 279.045 291.019C278.983 291.081 278.614 290.342 277.568 289.604C277.322 289.419 277.014 289.235 276.706 289.235C276.522 289.235 276.399 289.296 276.399 289.419C276.337 289.542 276.399 289.727 276.46 289.912C276.83 290.527 277.753 291.081 278.675 290.896C279.537 290.711 280.214 289.912 280.214 289.112C280.214 288.927 280.152 288.742 280.029 288.619C279.906 288.496 279.783 288.496 279.66 288.558C279.352 288.681 279.229 288.989 279.045 289.296C278.429 290.527 278.552 291.388 278.491 291.327Z" fill="white"/>
<path d="M235.234 186.169C235.357 184.384 235.48 182.354 235.726 180.815C237.326 181.308 237.449 182.046 239.172 182.354C243.602 183.092 248.156 183.153 252.709 182.784H253.017C262.308 181.984 269.446 179.892 279.106 177.062L282.983 187.461L286.49 239.948L289.074 293.419H273.138C273.138 293.419 267.538 252.315 267.108 246.593C266.615 240.255 259.047 200.936 259.047 200.936L257.693 200.567L258.555 292.742H242.064C242.064 292.742 235.419 193.491 235.296 189.984C235.172 188.691 235.172 187.399 235.234 186.169Z" fill="#263238"/>
<path d="M236.957 114.607C236.957 114.607 231.419 112.146 231.419 111.961L224.897 102.977C224.897 102.977 217.267 108.269 213.575 111.776C212.283 113.007 211.544 115.038 211.852 116.884C211.79 120.145 216.651 123.652 218.62 124.821C221.758 126.667 233.019 130.544 233.634 131.959C233.696 132.143 237.695 128.821 238.126 122.975C238.557 117.068 236.957 114.607 236.957 114.607Z" fill="#F3CBA5"/>
<path d="M294.489 127.529C294.489 127.529 305.196 137.558 305.196 139.835C305.196 145.557 292.274 167.647 292.274 167.647L286.49 163.279L293.012 143.465L286.49 137.189L294.489 127.529Z" fill="#F3CBA5"/>
<path d="M240.956 110.792C240.956 110.792 240.157 110.853 243.295 110.607C244.895 110.484 248.648 110.607 248.648 110.607L264.831 111.407C264.831 111.407 281.814 112.207 282.983 114.484C284.213 116.761 280.029 162.294 280.029 162.294L279.599 173.924C279.599 173.924 282.675 184.999 282.429 185.184C282.183 185.369 267.846 188.015 257.816 188.322C248.463 188.63 234.434 184.63 234.434 184.63L236.218 154.664L236.034 130.544L240.956 110.792Z" fill="#FF725E"/>
<path d="M280.337 113.192C280.337 113.192 285.69 114.915 288.521 118.053C289.69 119.345 299.473 131.59 299.473 131.59C299.473 131.59 288.582 142.604 287.905 142.85C287.536 142.973 281.568 135.159 281.568 135.159C281.568 135.159 282.121 123.898 282.244 123.529C282.368 123.16 280.337 113.192 280.337 113.192Z" fill="#FF725E"/>
<path d="M286.429 162.725C286.306 162.848 285.013 165.432 285.013 165.432L279.783 167.894L280.091 171.893C280.091 171.893 276.83 176.877 277.137 177.985C277.445 179.092 278.429 178.231 278.429 178.231L281.198 174.785C281.198 174.785 278.799 179.708 278.491 180.323C278.06 181.123 278.429 181.738 279.168 181.492C279.968 181.246 282.552 177.246 282.86 176.939C283.167 176.631 281.752 179.892 281.26 180.508C280.768 181.123 279.845 182.907 280.583 183.277C281.26 183.646 281.998 183.154 282.491 182.538C282.983 181.923 285.26 177.431 285.936 176.754C286.613 176.077 289.136 175.216 289.997 173.616C290.859 172.016 292.274 167.647 292.274 167.647L286.429 162.725Z" fill="#F3CBA5"/>
<path d="M219.543 125.252C219.543 125.252 223.604 123.591 226.066 120.268C228.527 116.945 232.527 112.146 232.527 112.146L241.203 110.853L242.249 116.576L239.664 134.912L236.342 137.681L235.911 132.943C235.911 132.943 222.928 128.328 220.589 127.036C218.62 125.929 219.543 125.252 219.543 125.252Z" fill="#FF725E"/>
<path d="M235.726 118.545C235.665 118.545 235.542 122.052 235.542 126.298C235.542 130.605 235.603 134.051 235.726 134.051C235.849 134.051 235.911 130.544 235.911 126.298C235.911 122.052 235.849 118.545 235.726 118.545Z" fill="#263238"/>
<path d="M282.86 123.037C282.798 123.037 282.798 123.837 282.675 125.19C282.614 126.483 282.429 128.328 282.244 130.359C282.06 132.39 281.937 134.236 281.937 135.528C281.937 136.205 281.937 136.758 281.937 137.128C281.937 137.497 281.998 137.681 281.998 137.681C282.06 137.681 282.06 136.881 282.183 135.528C282.244 134.236 282.429 132.39 282.614 130.359C282.798 128.328 282.921 126.483 282.921 125.19C282.921 124.514 282.921 123.96 282.921 123.591C282.921 123.221 282.921 123.037 282.86 123.037Z" fill="#263238"/>
<path d="M296.828 141.619C296.828 141.558 295.658 141.619 294.428 142.296C293.197 142.973 292.52 143.958 292.582 143.958C292.643 144.019 293.382 143.219 294.551 142.542C295.781 141.927 296.889 141.742 296.828 141.619Z" fill="#6F4439"/>
<path d="M273.568 171.401C273.568 171.401 273.261 171.339 272.707 171.216C272.092 171.093 271.292 170.97 270.307 170.786C268.277 170.416 265.569 169.863 262.554 169.063C259.539 168.263 256.893 167.401 254.924 166.724C254.001 166.417 253.263 166.109 252.647 165.925C252.094 165.74 251.786 165.617 251.786 165.678C251.786 165.678 252.032 165.863 252.586 166.048C253.078 166.294 253.878 166.601 254.801 166.971C256.709 167.709 259.354 168.632 262.37 169.432C265.385 170.232 268.154 170.786 270.184 171.093C271.169 171.278 272.03 171.339 272.584 171.401C273.199 171.401 273.568 171.462 273.568 171.401Z" fill="#263238"/>
<path d="M249.817 82.0565C248.402 82.1181 246.987 81.0105 246.74 79.5953C246.494 78.18 247.479 76.6417 248.894 76.2725C248.033 75.288 247.91 73.8113 248.586 72.7037C249.263 71.5961 250.617 70.9808 251.909 71.2884C253.078 70.7347 256.586 67.9042 257.632 68.581C259.108 67.4735 260.898 66.2694 262.313 67.5C263.544 67.3154 265.262 69.3194 265.815 70.4885C266.308 71.5961 266 73.0729 265.077 73.9343" fill="#263238"/>
<path d="M263.108 71.6575L262.431 71.596C255.909 71.2268 250.186 75.9648 249.325 82.4256C248.525 88.4557 247.663 95.1012 247.54 98.3624C247.233 105.069 253.878 106.485 253.878 106.485L253.201 111.653C255.909 116.084 261.939 117.007 265.877 113.622L268.277 111.53L272.215 85.7483C273.261 78.8568 270.061 72.4574 263.108 71.6575Z" fill="#F3CBA5"/>
<path d="M253.94 106.485C253.94 106.485 258.185 106.977 262.8 104.393C262.8 104.393 260.401 109.131 253.694 108.146L253.94 106.485Z" fill="#6F4439"/>
<path d="M250.186 79.4106C250.186 79.4106 252.217 75.288 254.247 74.4265C256.77 73.3805 257.693 76.1494 260.031 75.5957C262.431 75.0419 264.831 74.0574 267.108 76.0264C269.63 78.18 268.338 79.4722 268.277 82.4257C268.277 94.5475 270.307 98.0548 271.23 92.3939C271.353 91.7786 273.076 91.3478 273.507 88.7635C273.999 85.3792 274.368 81.2566 273.753 78.7953C273.199 76.7032 272.153 75.2265 270.123 73.5651C266.984 70.9192 262.431 70.6116 259.355 70.7346C256.278 70.9192 250.186 74.1189 250.186 79.4106Z" fill="#263238"/>
<path d="M270.861 92.2092C270.984 91.1631 271.907 90.4248 272.953 90.5478C274.184 90.7324 275.537 91.5323 275.353 94.1167C274.922 98.67 270.43 97.3779 270.43 97.1933C270.369 97.1317 270.676 94.1782 270.861 92.2092Z" fill="#F3CBA5"/>
<path d="M271.538 95.5935C271.538 95.5935 271.599 95.655 271.722 95.7165C271.846 95.7781 272.092 95.8396 272.338 95.7781C272.83 95.655 273.322 94.9166 273.384 94.1167C273.445 93.686 273.384 93.3168 273.261 92.9476C273.138 92.5784 272.953 92.3323 272.707 92.2707C272.461 92.2092 272.276 92.3323 272.215 92.4553C272.153 92.5784 272.153 92.7015 272.153 92.7015C272.153 92.7015 272.092 92.6399 272.092 92.4553C272.092 92.3938 272.153 92.2707 272.276 92.2092C272.399 92.1477 272.584 92.0861 272.707 92.1477C273.076 92.2092 273.322 92.5784 273.507 92.9476C273.63 93.3168 273.753 93.809 273.692 94.2398C273.568 95.1627 273.015 95.9627 272.338 96.0857C272.03 96.1473 271.722 96.0242 271.599 95.9011C271.538 95.7165 271.476 95.5935 271.538 95.5935Z" fill="#6F4439"/>
<path d="M271.23 83.3487C270.615 83.7179 269.938 84.0871 269.261 84.1486C268.523 84.2101 267.723 83.7179 267.661 82.9795C267.6 82.6718 267.723 82.3026 267.538 82.0565C267.292 81.7488 266.861 81.8104 266.431 81.8104C265.077 81.8719 263.6 80.3336 263.354 78.9799C262.985 79.4722 262.247 79.5952 261.754 79.226C261.262 78.8568 261.077 78.6722 260.708 78.18C260.339 77.6877 259.785 77.257 259.17 77.3185C258.801 77.3185 258.493 77.5031 258.185 77.5031C257.57 77.4416 257.324 76.7032 257.262 76.0879C257.201 75.4726 257.201 74.7957 256.709 74.4265C256.278 74.1189 255.601 74.2419 255.047 74.3035C254.494 74.365 253.755 74.1804 253.694 73.6266C253.632 73.319 253.755 73.0728 253.94 72.8267C254.74 71.7191 256.278 71.3499 257.509 71.9037C258.062 70.427 259.539 69.3194 261.077 69.2578C262.677 69.1963 264.137 69.5848 264.814 71C265.86 70.2001 267.083 69.6308 268.314 69.9999C269.544 70.3691 269.261 70.4999 269.261 70.4999C270.369 70.2538 273.938 74.0931 274.623 74.5354C271.314 77.5 274.553 73.1086 273.938 74.0931C274.738 74.5854 276.088 75.1034 275.814 79.226C275.752 80.149 274.861 82.0565 273.938 81.7488C274.245 82.4872 273.938 83.4717 273.199 83.8409C272.461 84.2101 271.476 83.9025 271.046 83.2256" fill="#263238"/>
<path d="M257.016 73.1959C257.016 73.1959 257.016 73.1959 257.016 73.2575C257.016 73.319 257.016 73.3805 257.016 73.5036C257.016 73.6882 257.139 74.0574 257.324 74.4266C257.509 74.7958 257.816 75.2265 258.309 75.5957C258.739 75.9649 259.416 76.211 260.155 76.211L260.093 76.0879C259.908 76.4571 259.97 76.9494 260.093 77.3801C260.278 77.8108 260.524 78.18 260.831 78.5492C260.954 78.7338 261.077 78.9184 261.324 79.103C261.508 79.2876 261.754 79.3491 262.062 79.4107C262.554 79.5337 263.17 79.3491 263.539 78.9799L263.354 78.9184C263.416 79.8414 263.908 80.7644 264.708 81.3797C265.139 81.7489 265.631 81.9335 266.185 81.9335C266.738 81.9335 267.231 81.8104 267.661 81.6873L267.538 81.6258C267.723 82.1796 268.092 82.7334 268.523 83.1026C268.954 83.4718 269.569 83.7179 270.123 83.6564C271.23 83.4718 271.969 82.6103 272.153 81.8104L272.03 81.8719C272.522 82.1796 273.138 82.2411 273.568 82.1796C274.061 82.1181 274.43 81.9335 274.676 81.7489C274.922 81.5643 275.107 81.3797 275.23 81.1951C275.353 81.072 275.353 80.949 275.353 80.949C275.353 80.949 275.168 81.3181 274.615 81.6258C274.368 81.8104 273.999 81.9335 273.507 81.995C273.076 82.0565 272.522 81.995 272.03 81.6873L271.969 81.6258V81.7489C271.784 82.5488 271.046 83.3487 270 83.4718C269.507 83.5333 268.954 83.3487 268.584 82.9795C268.154 82.6103 267.846 82.1181 267.661 81.5643L267.6 81.5027H267.538C267.046 81.6258 266.615 81.7489 266.123 81.7489C265.631 81.7489 265.139 81.5643 264.769 81.1951C264.031 80.6413 263.6 79.7183 263.539 78.8569V78.6107L263.416 78.7953C263.108 79.1645 262.554 79.2876 262.062 79.1645C261.816 79.103 261.631 79.0415 261.447 78.9184C261.262 78.7953 261.139 78.5492 261.016 78.4261C260.708 78.0569 260.462 77.6878 260.278 77.3186C260.093 76.9494 260.093 76.5187 260.216 76.1495L260.278 76.0264H260.155C259.478 76.0264 258.862 75.7803 258.37 75.4111C257.939 75.1034 257.632 74.6727 257.386 74.3035C257.016 73.6882 257.078 73.1959 257.016 73.1959Z" fill="#455A64"/>
<path d="M250.371 89.1328C250.309 89.6251 250.74 90.1173 251.232 90.1173C251.786 90.1788 252.217 89.8096 252.278 89.3174C252.34 88.8251 251.909 88.3329 251.417 88.3329C250.863 88.2713 250.432 88.6405 250.371 89.1328Z" fill="#151B1F"/>
<path d="M250.002 85.687C250.125 85.8101 250.863 85.3178 251.909 85.3794C252.955 85.4409 253.694 85.9947 253.817 85.8716C253.878 85.8101 253.755 85.564 253.447 85.3178C253.14 85.0717 252.586 84.8256 251.971 84.764C251.355 84.764 250.802 84.9486 250.432 85.1948C250.063 85.4409 249.94 85.6255 250.002 85.687Z" fill="#151B1F"/>
<path d="M254.955 99.1934C255.078 99.3165 255.693 98.5781 256.678 98.332C257.662 98.0859 258.524 98.3935 258.585 98.2705C258.647 98.2089 258.462 98.0243 258.093 97.8397C257.724 97.6551 257.108 97.5936 256.493 97.7782C255.878 97.9628 255.385 98.2705 255.139 98.5781C254.955 98.9473 254.893 99.1934 254.955 99.1934Z" fill="#151B1F"/>
<path d="M259.539 89.5635C259.478 90.0557 259.908 90.548 260.401 90.548C260.954 90.6095 261.385 90.2403 261.447 89.7481C261.508 89.2558 261.077 88.7635 260.585 88.7635C260.093 88.702 259.601 89.0712 259.539 89.5635Z" fill="#151B1F"/>
<path d="M260.093 86.4254C260.216 86.5485 260.954 86.0562 262 86.1178C263.046 86.1793 263.785 86.7331 263.908 86.61C263.969 86.5485 263.846 86.3024 263.539 86.0562C263.231 85.8101 262.677 85.564 262.062 85.5024C261.447 85.5024 260.893 85.687 260.524 85.9332C260.154 86.1178 260.031 86.3639 260.093 86.4254Z" fill="#151B1F"/>
<path d="M256.032 94.1169C256.032 94.0554 255.416 93.9323 254.37 93.7477C254.124 93.6862 253.878 93.6247 253.817 93.4401C253.755 93.2555 253.878 92.9478 254.001 92.6402C254.247 92.0248 254.555 91.348 254.863 90.6711C256.093 87.8407 256.955 85.564 256.832 85.5024C256.709 85.4409 255.663 87.7176 254.432 90.4865C254.124 91.1634 253.878 91.8402 253.57 92.4556C253.447 92.7632 253.263 93.0709 253.386 93.5016C253.447 93.6862 253.632 93.8708 253.817 93.9323C254.001 93.9938 254.124 93.9939 254.247 93.9939C255.416 94.1784 256.032 94.1784 256.032 94.1169Z" fill="#151B1F"/>
<path d="M264.769 84.0256C264.708 83.718 263.723 83.6565 262.554 83.2257C261.385 82.8565 260.524 82.3028 260.339 82.4873C260.216 82.6104 260.339 82.8565 260.647 83.2257C260.954 83.5949 261.508 83.9641 262.185 84.2102C262.862 84.4564 263.539 84.4564 264.031 84.3948C264.523 84.3333 264.769 84.2102 264.769 84.0256Z" fill="#151B1F"/>
<path d="M253.94 81.6258C253.694 81.5027 253.078 81.995 252.217 82.3026C251.355 82.6718 250.617 82.7334 250.494 83.041C250.432 83.1641 250.678 83.3487 251.048 83.4718C251.417 83.5333 252.032 83.5333 252.586 83.2872C253.14 83.041 253.57 82.6718 253.817 82.3026C254.063 81.995 254.063 81.6873 253.94 81.6258Z" fill="#151B1F"/>
<path d="M241.079 92.3323C241.079 92.3323 246.987 80.8259 247.602 80.2721C247.602 80.2721 253.94 77.7493 254.124 77.9339C254.309 78.1184 254.432 79.0414 254.001 79.5952L257.262 79.226C257.262 79.226 257.878 80.149 257.139 81.0105C256.339 81.8719 252.894 82.4257 252.955 82.4257C253.017 82.4257 258.185 81.8104 258.185 81.8104C258.185 81.8104 258.493 83.5333 257.078 83.7794C257.078 83.7794 257.632 84.887 256.647 85.5638C255.663 86.2407 250.125 87.8405 250.125 87.8405L249.079 89.2557C249.079 89.2557 247.971 94.8551 247.048 95.6551C246.187 96.455 231.173 112.453 231.173 112.453L224.897 102.854L241.079 92.3323Z" fill="#F3CBA5"/>
<path d="M225.573 118.483C225.573 118.483 225.635 118.422 225.696 118.36C225.82 118.237 225.943 118.114 226.066 117.991C226.435 117.622 226.927 117.13 227.542 116.453C228.835 115.099 230.742 113.068 233.08 110.669C235.419 108.207 238.249 105.254 241.387 101.931C242.987 100.27 244.648 98.5469 246.371 96.701C246.617 96.4548 246.802 96.2702 247.048 96.0241C247.294 95.778 247.479 95.4703 247.602 95.1627C247.848 94.5473 248.033 93.932 248.279 93.3167C248.648 92.0861 248.956 90.7324 249.202 89.4402V89.5017C249.509 89.071 249.879 88.5788 250.248 88.0865L250.186 88.148C251.601 87.7173 253.017 87.2866 254.493 86.7943C255.17 86.5482 255.909 86.3021 256.586 85.9329C256.955 85.7483 257.262 85.4406 257.324 85.0099C257.447 84.5792 257.385 84.21 257.201 83.8408L257.078 84.0869C257.509 84.0254 257.939 83.6562 258.124 83.2255C258.308 82.7947 258.308 82.364 258.247 81.9333V81.8102H258.062C257.016 81.9333 256.032 82.0564 255.047 82.1794C254.555 82.241 254.063 82.3025 253.57 82.364L253.201 82.4256H253.017H252.955H252.894C252.832 82.5486 252.955 82.1794 253.017 82.6717C252.894 82.7332 252.955 82.6717 252.955 82.6717L253.694 82.5486C254.678 82.364 255.601 82.1179 256.462 81.6872C256.709 81.5641 256.893 81.441 257.078 81.318C257.262 81.1334 257.447 80.9488 257.509 80.7027C257.693 80.2104 257.632 79.6566 257.324 79.2259L257.262 79.1644H257.201C256.093 79.2874 254.986 79.4105 253.94 79.5336L254.063 79.7797C254.37 79.4105 254.432 78.9798 254.37 78.549C254.37 78.426 254.309 78.3644 254.309 78.2414C254.309 78.1798 254.247 78.1183 254.247 78.1183L254.186 78.0568C254.124 77.9952 254.186 77.9953 254.063 77.9337C253.94 77.8722 253.878 77.9337 253.817 77.9337C253.755 77.9337 253.694 77.9337 253.694 77.9953L253.386 78.0568C252.647 78.3029 251.971 78.549 251.294 78.7952C249.94 79.2874 248.648 79.7797 247.417 80.2719C247.048 80.7027 246.863 81.1949 246.556 81.6256C246.31 82.0564 246.064 82.4871 245.817 82.9178C245.387 83.7793 244.956 84.5792 244.525 85.3176C243.725 86.7943 243.11 88.0865 242.556 89.1325C242.002 90.1786 241.633 90.9785 241.326 91.5938C241.203 91.8399 241.079 92.0861 241.018 92.2091C240.956 92.3322 240.895 92.4553 240.895 92.4553C240.895 92.4553 240.956 92.3937 241.018 92.2707C241.079 92.0861 241.203 91.9015 241.387 91.6553C241.695 91.1016 242.126 90.3016 242.679 89.2556C243.233 88.2096 243.91 86.9174 244.71 85.4406C245.141 84.7022 245.571 83.9023 246.002 83.0409C246.248 82.6101 246.494 82.1794 246.74 81.7487C246.987 81.318 247.233 80.8257 247.54 80.4565H247.479C248.709 79.9643 250.002 79.472 251.355 78.9798C252.032 78.7336 252.709 78.4875 253.447 78.2414L253.694 78.1798C253.755 78.1798 253.755 78.1798 253.817 78.1798H253.878V78.1183C253.878 78.1183 253.878 78.0568 253.94 78.0568C253.878 78.0568 254.063 77.9952 253.878 78.1183V78.1798C253.878 78.2414 253.878 78.2414 253.94 78.3029C253.94 78.3644 254.001 78.4875 254.001 78.549C254.063 78.9182 254.001 79.2874 253.755 79.5951L253.57 79.8412L253.878 79.7797C254.924 79.6566 256.032 79.5336 257.139 79.4105L257.016 79.349C257.201 79.7181 257.324 80.1489 257.139 80.5181C257.016 80.8873 256.647 81.1949 256.216 81.3795C255.355 81.7487 254.432 81.9948 253.509 82.1794L252.771 82.3025C252.771 82.3025 252.832 82.3025 252.709 82.364C252.771 82.8563 252.832 82.5486 252.832 82.6101H252.894H252.955H253.14L253.509 82.5486C254.001 82.4871 254.493 82.4256 254.986 82.364C255.97 82.241 257.016 82.1179 258.001 81.9948L257.816 81.8718C257.878 82.241 257.816 82.6717 257.693 83.0409C257.57 83.4101 257.262 83.6562 256.832 83.7177L256.647 83.7793L256.709 83.9639C256.832 84.2715 256.893 84.6407 256.77 84.8868C256.709 85.1945 256.462 85.4406 256.155 85.6252C255.539 85.9329 254.801 86.179 254.124 86.4251C252.647 86.9174 251.171 87.4096 249.817 87.7788H249.755L249.694 87.8404C249.325 88.3326 248.956 88.8249 248.648 89.2556V89.3171C248.402 90.6093 248.094 91.9015 247.725 93.1936C247.54 93.809 247.356 94.4243 247.11 94.9781C246.987 95.2857 246.863 95.5319 246.617 95.7165C246.371 95.9626 246.187 96.1472 245.94 96.3933C244.218 98.2393 242.556 99.9622 240.956 101.624C237.818 104.946 235.049 107.961 232.711 110.423C230.373 112.884 228.527 114.914 227.235 116.33C226.619 117.007 226.127 117.56 225.758 117.929C225.573 118.114 225.45 118.237 225.389 118.36C225.635 118.422 225.573 118.483 225.573 118.483Z" fill="#8A706A"/>
<path d="M251.663 85.2561C251.663 85.3176 252.894 85.0715 254.37 84.7023C255.847 84.2716 257.016 83.9024 257.016 83.8408C257.016 83.7793 255.786 84.0254 254.309 84.3946C252.832 84.8254 251.663 85.1945 251.663 85.2561Z" fill="#8A706A"/>
<path d="M249.263 83.8408C249.325 83.9024 250.002 83.2255 251.171 82.9794C252.34 82.7333 253.263 82.4871 253.263 82.3641C253.263 82.3025 252.278 82.4256 251.109 82.6717C250.494 82.7948 250.002 83.1025 249.694 83.3486C249.386 83.5947 249.263 83.8408 249.263 83.8408Z" fill="#8A706A"/>
<path d="M249.079 81.2565C249.14 81.318 250.186 80.8873 251.54 80.4566C252.894 80.0258 254.001 79.6566 254.001 79.5951C254.001 79.5336 252.832 79.7797 251.478 80.1489C250.063 80.5796 249.017 81.195 249.079 81.2565Z" fill="#8A706A"/>
<path d="M33.345 284.451C33.345 284.451 29.965 261.116 30.225 247.596C30.485 234.011 30.225 218.736 30.225 218.736H31.785C31.785 218.736 30.745 245.646 31.85 261.896C33.02 278.146 36.01 284.451 36.01 284.451H33.345Z" fill="#263238"/>
<path d="M43.4201 192.476C43.0951 191.696 42.7051 190.851 41.9901 190.396C41.0151 189.746 39.7151 190.006 38.6101 190.396C33.8651 192.086 29.7051 200.861 27.8201 205.476L34.0601 226.601C45.3701 216.136 47.3201 202.356 43.4201 192.476Z" fill="#455A64"/>
<path d="M41.6001 191.241C41.6001 191.241 41.6001 191.371 41.5351 191.501C41.4701 191.696 41.3401 191.956 41.2101 192.281C40.9501 192.931 40.5601 193.906 40.1051 195.141C39.1951 197.546 38.0251 200.926 36.9851 204.696C35.9451 208.466 35.2301 211.976 34.7751 214.511C34.5801 215.746 34.3851 216.786 34.2551 217.501C34.1901 217.826 34.1251 218.086 34.1251 218.346C34.0601 218.541 34.0601 218.606 34.0601 218.606C34.0601 218.606 34.0601 218.476 34.0601 218.346C34.0601 218.151 34.1251 217.826 34.1251 217.501C34.1901 216.786 34.3201 215.746 34.5151 214.511C34.9051 211.976 35.6201 208.466 36.6601 204.696C37.7001 200.926 38.9351 197.546 39.9101 195.141C40.3651 193.971 40.8201 192.996 41.0801 192.346C41.2101 192.021 41.3401 191.761 41.4051 191.566C41.6001 191.306 41.6001 191.241 41.6001 191.241Z" fill="#263238"/>
<path d="M31.265 231.736C25.415 228.486 21.905 222.376 21.58 215.681C21.385 211.001 22.815 206.386 24.44 201.966C24.57 201.576 24.765 201.186 25.09 200.991C25.61 200.731 26.195 200.991 26.715 201.251C31.005 203.656 33.54 208.336 34.97 213.016C35.88 216.136 36.335 219.451 35.945 222.701C35.49 225.951 33.605 229.461 31.265 231.736Z" fill="#455A64"/>
<path d="M31.265 231.736C31.265 231.736 31.265 231.606 31.265 231.476C31.265 231.281 31.265 231.021 31.265 230.696C31.265 229.981 31.265 229.006 31.2 227.706C31.07 225.171 30.745 221.726 30.095 217.956C29.445 214.186 28.665 210.806 28.08 208.336C27.82 207.166 27.56 206.126 27.365 205.411C27.3 205.086 27.235 204.826 27.17 204.631C27.105 204.436 27.105 204.371 27.105 204.371C27.105 204.371 27.17 204.436 27.17 204.631C27.235 204.826 27.3 205.086 27.43 205.411C27.625 206.061 27.885 207.101 28.21 208.271C28.86 210.741 29.64 214.121 30.29 217.891C30.94 221.661 31.265 225.171 31.33 227.706C31.395 228.941 31.395 229.981 31.33 230.696C31.33 231.021 31.33 231.281 31.265 231.476C31.265 231.606 31.265 231.736 31.265 231.736Z" fill="#263238"/>
<g opacity="0.3">
<path d="M31.265 231.736C25.415 228.486 21.905 222.376 21.58 215.681C21.385 211.001 22.815 206.386 24.44 201.966C24.57 201.576 24.765 201.186 25.09 200.991C25.61 200.731 26.195 200.991 26.715 201.251C31.005 203.656 33.54 208.336 34.97 213.016C35.88 216.136 36.335 219.451 35.945 222.701C35.49 225.951 33.605 229.461 31.265 231.736Z" fill="black"/>
</g>
<path d="M37.895 267.421C43.68 268.721 48.425 272.751 54.015 274.766C57.72 276.066 61.88 276.521 64.805 279.121C64.09 277.366 62.4 276.131 60.775 275.156C56.16 272.296 51.285 269.956 46.15 268.201C43.55 267.291 40.69 266.511 38.025 267.291" fill="#455A64"/>
<path d="M29.51 272.556C22.295 272.426 14.625 266.251 7.41003 265.926C15.015 263.456 25.805 265.471 29.51 272.556Z" fill="#455A64"/>
<path d="M32.37 255.201C36.075 253.901 40.105 253.836 43.94 254.421C47.775 255.006 51.545 256.241 55.25 257.476C54.86 254.941 52.845 253.056 50.96 251.431C49.53 250.196 48.1 248.896 46.41 247.921C44.785 246.946 42.9 246.296 40.95 246.361C38.675 246.491 36.465 247.661 34.97 249.416C33.41 251.106 32.63 252.861 32.37 255.201Z" fill="#455A64"/>
<path d="M17.485 247.141C12.935 243.241 6.045 243.631 0 243.761C9.23 248.181 19.11 254.226 27.105 260.661C27.365 256.436 23.27 252.081 17.485 247.141Z" fill="#455A64"/>
<g opacity="0.3">
<path d="M17.485 247.141C12.935 243.241 6.045 243.631 0 243.761C9.23 248.181 19.11 254.226 27.105 260.661C27.365 256.436 23.27 252.081 17.485 247.141Z" fill="black"/>
</g>
<path d="M34.385 241.811C36.66 240.251 39.0001 238.821 41.4051 237.716C43.8101 236.611 46.02 234.921 48.36 233.621C51.35 231.996 53.9501 229.721 56.7451 227.706C59.4751 225.691 62.53 223.871 65.91 223.351C63.18 222.766 60.255 223.091 57.59 223.806C54.86 224.521 52.325 225.691 49.725 226.861C46.15 228.486 42.575 230.111 39.65 232.711C36.725 235.376 34.125 237.911 34.385 241.811Z" fill="#455A64"/>
<path d="M53.885 272.556C53.885 272.556 53.82 272.556 53.625 272.426C53.43 272.361 53.235 272.231 52.975 272.101C52.455 271.841 51.675 271.386 50.635 270.866C50.115 270.606 49.595 270.346 49.01 270.086C48.425 269.826 47.775 269.501 47.125 269.241C45.76 268.656 44.265 268.071 42.64 267.681C41.015 267.291 39.39 267.226 38.025 267.551C37.31 267.746 36.66 267.876 36.075 268.136C35.49 268.396 34.97 268.656 34.515 268.981C33.605 269.566 32.955 270.216 32.5 270.606C32.11 271.061 31.85 271.321 31.85 271.321C31.85 271.321 31.915 271.256 31.98 271.126C32.045 270.996 32.24 270.801 32.435 270.541C32.825 270.086 33.475 269.436 34.385 268.786C34.84 268.461 35.36 268.201 36.01 267.941C36.595 267.681 37.31 267.486 38.025 267.291C39.455 266.901 41.145 266.966 42.77 267.356C44.395 267.746 45.955 268.331 47.255 268.916C47.905 269.241 48.555 269.501 49.14 269.826C49.725 270.086 50.245 270.411 50.765 270.671C51.74 271.191 52.52 271.646 53.04 271.971C53.3 272.101 53.495 272.231 53.625 272.361C53.82 272.491 53.885 272.556 53.885 272.556Z" fill="#263238"/>
<path d="M24.115 268.981C24.115 268.981 24.31 268.981 24.57 269.111C24.83 269.176 25.285 269.371 25.74 269.631C26.715 270.086 28.015 270.931 29.185 272.101C30.355 273.271 31.265 274.506 31.785 275.481C32.045 275.936 32.24 276.326 32.37 276.651C32.5 276.911 32.565 277.106 32.5 277.106C32.435 277.106 32.175 276.521 31.655 275.611C31.07 274.701 30.225 273.466 29.055 272.361C27.885 271.256 26.65 270.411 25.675 269.891C24.765 269.241 24.115 268.981 24.115 268.981Z" fill="#263238"/>
<path d="M8.125 246.816C8.125 246.816 8.255 246.816 8.45 246.881C8.645 246.946 8.97001 247.076 9.29501 247.206C9.68501 247.336 10.14 247.531 10.66 247.726C11.18 247.921 11.765 248.246 12.415 248.506C15.015 249.676 18.525 251.691 21.84 254.486C23.465 255.916 24.96 257.411 26.26 258.841C27.495 260.271 28.535 261.636 29.38 262.806C30.225 263.976 30.81 264.951 31.265 265.601C31.46 265.926 31.655 266.186 31.785 266.381C31.915 266.576 31.98 266.641 31.915 266.641C31.915 266.641 31.85 266.576 31.72 266.381C31.59 266.186 31.395 265.991 31.2 265.601C30.745 264.951 30.095 263.976 29.25 262.806C28.405 261.636 27.365 260.336 26.13 258.906C24.895 257.476 23.4 256.046 21.775 254.616C18.46 251.821 15.015 249.806 12.415 248.571C11.765 248.246 11.18 247.986 10.66 247.726C10.14 247.531 9.68501 247.336 9.29501 247.206C8.97001 247.076 8.645 246.946 8.45 246.881C8.19 246.881 8.125 246.816 8.125 246.816Z" fill="#263238"/>
<path d="M43.225 251.106C43.225 251.106 43.03 251.106 42.64 251.041C42.445 250.976 42.25 250.976 41.99 250.911C41.73 250.846 41.405 250.846 41.08 250.846C39.78 250.781 37.895 250.846 36.075 251.821C35.165 252.276 34.45 252.861 33.8 253.511C33.15 254.096 32.695 254.746 32.37 255.331C31.655 256.436 31.395 257.216 31.395 257.216C31.395 257.216 31.395 257.021 31.525 256.631C31.655 256.306 31.85 255.786 32.24 255.201C32.565 254.616 33.02 253.966 33.67 253.316C34.32 252.666 35.035 252.016 36.01 251.561C37.83 250.586 39.78 250.456 41.145 250.651C41.47 250.716 41.795 250.716 42.055 250.781C42.315 250.846 42.51 250.911 42.705 250.976C43.03 251.041 43.225 251.106 43.225 251.106Z" fill="#263238"/>
<path d="M50.505 228.486C50.505 228.486 50.44 228.551 50.245 228.681C50.05 228.811 49.79 228.941 49.465 229.136C48.75 229.526 47.775 230.046 46.54 230.826C45.305 231.541 43.875 232.451 42.315 233.556C40.755 234.661 39.13 235.961 37.635 237.456C36.92 238.236 36.205 239.081 35.75 239.926C35.295 240.836 34.84 241.746 34.385 242.591C33.54 244.281 32.89 245.841 32.37 247.141C31.85 248.506 31.59 249.611 31.395 250.391C31.2 251.171 31.135 251.626 31.135 251.626C31.135 251.626 31.135 251.496 31.135 251.301C31.135 251.106 31.2 250.781 31.265 250.391C31.395 249.611 31.72 248.506 32.175 247.141C32.63 245.776 33.345 244.216 34.125 242.526C34.515 241.681 34.97 240.771 35.49 239.861C36.01 238.951 36.66 238.106 37.44 237.326C39 235.766 40.625 234.466 42.185 233.361C43.745 232.256 45.175 231.411 46.41 230.696C47.645 229.981 48.685 229.461 49.4 229.071C49.725 228.876 49.985 228.746 50.245 228.681C50.375 228.551 50.505 228.486 50.505 228.486Z" fill="#263238"/>
<path d="M30.225 250.456C30.225 250.456 30.16 250.261 30.095 249.871C30.03 249.416 29.9 248.896 29.77 248.181C29.51 246.751 29.055 244.801 28.405 242.721C27.755 240.641 26.91 238.821 26.325 237.521C26.065 236.936 25.805 236.416 25.61 235.961C25.415 235.571 25.35 235.376 25.35 235.376C25.35 235.376 25.48 235.571 25.675 235.896C25.87 236.221 26.13 236.741 26.455 237.391C27.105 238.691 27.95 240.511 28.6 242.591C29.25 244.671 29.705 246.621 29.9 248.051C30.03 248.766 30.095 249.351 30.16 249.741C30.225 250.196 30.225 250.456 30.225 250.456Z" fill="#263238"/>
<path d="M29.6401 233.946C29.4451 231.216 28.5351 228.551 27.3001 226.146C23.7901 219.516 17.1601 214.576 9.81506 213.081C15.2101 221.141 20.6051 229.201 26.0001 237.196L28.0801 241.486C29.5101 239.211 29.8351 236.676 29.6401 233.946Z" fill="#455A64"/>
<path d="M52.9594 282.751L45.7307 308.914C45.7307 309.734 39.8611 310.413 32.6207 310.413C25.3803 310.413 19.5107 309.745 19.5107 308.914L12.282 282.751H52.9594Z" fill="#A9D0C9"/>
<path d="M40.9594 282.751L35.7307 308.914C35.7307 309.734 36.8611 310.413 29.6207 310.413C22.3803 310.413 19.5107 309.745 19.5107 308.914L12.282 282.751H40.9594Z" fill="#749F98" fill-opacity="0.5"/>
<path d="M50.5 290.68C50.5 290.745 42.4337 290.81 32.52 290.81C22.6064 290.81 14.54 290.745 14.54 290.68C14.54 290.615 22.6064 290.55 32.52 290.55C42.4337 290.55 50.5 290.615 50.5 290.68Z" fill="#263238"/>
<path d="M295.675 310.715C295.675 310.78 231.715 310.91 152.87 310.91C73.96 310.91 10 310.845 10 310.715C10 310.65 73.96 310.52 152.87 310.52C231.78 310.585 295.675 310.65 295.675 310.715Z" fill="#263238"/>
</svg>
