<svg width="299" height="276" viewBox="0 0 299 276" fill="none" xmlns="http://www.w3.org/2000/svg">
<path d="M255.064 5.90422V115.992C255.064 119.262 252.429 121.897 249.158 121.897H180.006C176.735 121.897 174.1 119.262 174.1 115.992V5.90422C174.1 2.63443 176.735 0 180.006 0H249.158C252.413 0 255.064 2.63443 255.064 5.90422Z" fill="white"/>
<path d="M250.724 44.9557H214.791C214.667 44.9557 214.574 44.8627 214.574 44.7387V14.8302C214.574 14.7063 214.667 14.6133 214.791 14.6133H250.724C250.848 14.6133 250.941 14.7063 250.941 14.8302V44.7387C250.941 44.8627 250.848 44.9557 250.724 44.9557Z" fill="#C1D7D3"/>
<path d="M249.546 16.5968V42.9721C249.546 43.282 249.282 43.5455 248.972 43.5455H216.589C216.264 43.5455 216.016 43.282 216.016 42.9721V16.5968C216.016 16.2714 216.264 16.0234 216.589 16.0234H248.972C249.267 16.0234 249.546 16.2714 249.546 16.5968Z" fill="#C1D7D3"/>
<path d="M249.546 16.5968V35.6887L242.151 27.4755L234.912 36.8044L225.58 23.1674L215.985 35.3323V16.5968C215.985 16.2714 216.233 16.0234 216.558 16.0234H248.941C249.267 16.0234 249.546 16.2714 249.546 16.5968Z" fill="white"/>
<path d="M241.764 24.5312C242.988 24.5312 243.98 23.539 243.98 22.3151C243.98 21.0913 242.988 20.0991 241.764 20.0991C240.539 20.0991 239.547 21.0913 239.547 22.3151C239.547 23.539 240.539 24.5312 241.764 24.5312Z" fill="#C1D7D3"/>
<path d="M210.389 19.6342H186.268C186.206 19.6342 186.16 19.5877 186.16 19.5257V17.7436C186.16 17.6816 186.206 17.6351 186.268 17.6351H210.389C210.451 17.6351 210.497 17.6816 210.497 17.7436V19.5257C210.497 19.5722 210.451 19.6342 210.389 19.6342Z" fill="#E0E0E0"/>
<path d="M210.389 25.1664H180.114C180.052 25.1664 180.006 25.1199 180.006 25.0579V23.2758C180.006 23.2138 180.052 23.1674 180.114 23.1674H210.389C210.451 23.1674 210.497 23.2138 210.497 23.2758V25.0579C210.497 25.1199 210.451 25.1664 210.389 25.1664Z" fill="#E0E0E0"/>
<path d="M210.389 30.7143H180.114C180.052 30.7143 180.006 30.6678 180.006 30.6058V28.8237C180.006 28.7617 180.052 28.7152 180.114 28.7152H210.389C210.451 28.7152 210.497 28.7617 210.497 28.8237V30.6058C210.497 30.6678 210.451 30.7143 210.389 30.7143Z" fill="#E0E0E0"/>
<path d="M210.389 36.262H180.114C180.052 36.262 180.006 36.2155 180.006 36.1535V34.3714C180.006 34.3094 180.052 34.2629 180.114 34.2629H210.389C210.451 34.2629 210.497 34.3094 210.497 34.3714V36.1535C210.497 36.2155 210.451 36.262 210.389 36.262Z" fill="#E0E0E0"/>
<path d="M210.389 41.8099H180.114C180.052 41.8099 180.006 41.7634 180.006 41.7014V39.9193C180.006 39.8573 180.052 39.8108 180.114 39.8108H210.389C210.451 39.8108 210.497 39.8573 210.497 39.9193V41.7014C210.497 41.7479 210.451 41.8099 210.389 41.8099Z" fill="#E0E0E0"/>
<path d="M210.389 47.3422H180.114C180.052 47.3422 180.006 47.2957 180.006 47.2337V45.4516C180.006 45.3896 180.052 45.3431 180.114 45.3431H210.389C210.451 45.3431 210.497 45.3896 210.497 45.4516V47.2337C210.497 47.2957 210.451 47.3422 210.389 47.3422Z" fill="#E0E0E0"/>
<path d="M251.328 55.3229H186.268C186.206 55.3229 186.16 55.2764 186.16 55.2144V53.4323C186.16 53.3703 186.206 53.3239 186.268 53.3239H251.328C251.39 53.3239 251.437 53.3703 251.437 53.4323V55.2144C251.452 55.2609 251.39 55.3229 251.328 55.3229Z" fill="#D3D0C9"/>
<path d="M251.328 60.8553H180.114C180.052 60.8553 180.006 60.8088 180.006 60.7468V58.9647C180.006 58.9027 180.052 58.8562 180.114 58.8562H251.328C251.39 58.8562 251.437 58.9027 251.437 58.9647V60.7468C251.452 60.8088 251.39 60.8553 251.328 60.8553Z" fill="#D3D0C9"/>
<path d="M251.328 66.4031H180.114C180.052 66.4031 180.006 66.3566 180.006 66.2946V64.5125C180.006 64.4505 180.052 64.4041 180.114 64.4041H251.328C251.39 64.4041 251.437 64.4505 251.437 64.5125V66.2946C251.452 66.3566 251.39 66.4031 251.328 66.4031Z" fill="#D3D0C9"/>
<path d="M251.328 71.9509H180.114C180.052 71.9509 180.006 71.9044 180.006 71.8424V70.0603C180.006 69.9983 180.052 69.9518 180.114 69.9518H251.328C251.39 69.9518 251.437 69.9983 251.437 70.0603V71.8424C251.452 71.9044 251.39 71.9509 251.328 71.9509Z" fill="#D3D0C9"/>
<path d="M251.328 77.4987H180.114C180.052 77.4987 180.006 77.4522 180.006 77.3902V75.6081C180.006 75.5461 180.052 75.4996 180.114 75.4996H251.328C251.39 75.4996 251.437 75.5461 251.437 75.6081V77.3902C251.452 77.4367 251.39 77.4987 251.328 77.4987Z" fill="#D3D0C9"/>
<path d="M251.328 83.0309H180.114C180.052 83.0309 180.006 82.9844 180.006 82.9225V81.1403C180.006 81.0784 180.052 81.0319 180.114 81.0319H251.328C251.39 81.0319 251.437 81.0784 251.437 81.1403V82.9225C251.452 82.9844 251.39 83.0309 251.328 83.0309Z" fill="#D3D0C9"/>
<path d="M255.064 2.71191V9.77838H174.1V2.71191C174.1 1.20874 175.324 0 176.812 0H252.351C253.839 0 255.064 1.22423 255.064 2.71191Z" fill="#CAE0DC"/>
<path d="M131.995 161.102L116.042 146.229C113.859 144.187 111.131 143 108.612 143H83.8314C79.1856 143 76.5688 146.945 77.9681 151.798L94.2404 239.202C95.6398 244.055 100.551 248 105.183 248H252.351C256.997 248 259.614 244.055 258.214 239.202L239.113 173.112C237.714 168.259 232.802 164.314 228.17 164.314H139.453C136.907 164.314 134.178 163.127 131.995 161.102Z" fill="#C2B7C2"/>
<path d="M197.026 34.7171V162.285C197.026 166.067 193.957 169.119 190.19 169.119H110.047C106.265 169.119 103.211 166.051 103.211 162.285V34.7171C103.211 30.9359 106.28 27.8831 110.047 27.8831H190.19C193.957 27.8831 197.026 30.9359 197.026 34.7171Z" fill="url(#paint0_linear_1068_7872)"/>
<path d="M145.267 50.6166H117.287C117.225 50.6166 117.178 50.5701 117.178 50.5081V48.4161C117.178 48.3541 117.225 48.3076 117.287 48.3076H145.267C145.329 48.3076 145.375 48.3541 145.375 48.4161V50.5081C145.375 50.5701 145.329 50.6166 145.267 50.6166Z" fill="#E0E0E0"/>
<path d="M145.267 57.0478H110.156C110.094 57.0478 110.047 57.0013 110.047 56.9393V54.8472C110.047 54.7853 110.094 54.7388 110.156 54.7388H145.267C145.329 54.7388 145.375 54.7853 145.375 54.8472V56.9393C145.375 57.0013 145.329 57.0478 145.267 57.0478Z" fill="#E0E0E0"/>
<path d="M145.267 63.4634H110.156C110.094 63.4634 110.047 63.4169 110.047 63.3549V61.2629C110.047 61.2009 110.094 61.1544 110.156 61.1544H145.267C145.329 61.1544 145.375 61.2009 145.375 61.2629V63.3549C145.375 63.4169 145.329 63.4634 145.267 63.4634Z" fill="#E0E0E0"/>
<path d="M145.267 69.8945H110.156C110.094 69.8945 110.047 69.848 110.047 69.786V67.6939C110.047 67.6319 110.094 67.5854 110.156 67.5854H145.267C145.329 67.5854 145.375 67.6319 145.375 67.6939V69.786C145.375 69.848 145.329 69.8945 145.267 69.8945Z" fill="#E0E0E0"/>
<path d="M145.267 76.3255H110.156C110.094 76.3255 110.047 76.279 110.047 76.217V74.125C110.047 74.063 110.094 74.0165 110.156 74.0165H145.267C145.329 74.0165 145.375 74.063 145.375 74.125V76.217C145.375 76.2635 145.329 76.3255 145.267 76.3255Z" fill="#E0E0E0"/>
<path d="M145.267 82.7411H110.156C110.094 82.7411 110.047 82.6946 110.047 82.6326V80.5406C110.047 80.4786 110.094 80.4321 110.156 80.4321H145.267C145.329 80.4321 145.375 80.4786 145.375 80.5406V82.6326C145.375 82.6946 145.329 82.7411 145.267 82.7411Z" fill="#E0E0E0"/>
<path d="M192.717 91.9772H117.287C117.225 91.9772 117.178 91.9307 117.178 91.8687V89.7767C117.178 89.7147 117.225 89.6682 117.287 89.6682H192.717C192.779 89.6682 192.826 89.7147 192.826 89.7767V91.8687C192.826 91.9307 192.779 91.9772 192.717 91.9772Z" fill="#E0E0E0"/>
<path d="M192.717 98.4084H110.156C110.094 98.4084 110.047 98.3619 110.047 98.2999V96.2078C110.047 96.1459 110.094 96.0994 110.156 96.0994H192.717C192.779 96.0994 192.826 96.1459 192.826 96.2078V98.2999C192.826 98.3619 192.779 98.4084 192.717 98.4084Z" fill="#E0E0E0"/>
<path d="M192.717 104.824H110.156C110.094 104.824 110.047 104.777 110.047 104.715V102.623C110.047 102.561 110.094 102.515 110.156 102.515H192.717C192.779 102.515 192.826 102.561 192.826 102.623V104.715C192.826 104.777 192.779 104.824 192.717 104.824Z" fill="#E0E0E0"/>
<path d="M192.717 111.255H110.156C110.094 111.255 110.047 111.209 110.047 111.147V109.039C110.047 108.977 110.094 108.931 110.156 108.931H192.717C192.779 108.931 192.826 108.977 192.826 109.039V111.131C192.826 111.209 192.779 111.255 192.717 111.255Z" fill="#E0E0E0"/>
<path d="M192.717 117.671H110.156C110.094 117.671 110.047 117.624 110.047 117.562V115.47C110.047 115.408 110.094 115.362 110.156 115.362H192.717C192.779 115.362 192.826 115.408 192.826 115.47V117.562C192.826 117.624 192.779 117.671 192.717 117.671Z" fill="#E0E0E0"/>
<path d="M192.717 124.102H110.156C110.094 124.102 110.047 124.055 110.047 123.993V121.901C110.047 121.839 110.094 121.793 110.156 121.793H192.717C192.779 121.793 192.826 121.839 192.826 121.901V123.993C192.826 124.055 192.779 124.102 192.717 124.102Z" fill="#E0E0E0"/>
<path d="M197.026 30.44V39.2266H103.196V30.7809C103.196 29.1693 104.498 27.8676 106.11 27.8676H194.469C195.864 27.8831 197.026 29.0298 197.026 30.44Z" fill="#C2CDE7"/>
<path d="M165.279 69.2591L161.931 77.2089H157.622L168.581 51.9493H173.604L184.61 77.2089H180.161L176.719 69.2591H165.279ZM175.867 66.7021L172.705 59.4342C171.991 57.7916 171.511 56.2884 171.03 54.8317H170.937C170.457 56.3349 169.93 57.8691 169.31 59.4032L166.147 66.7176H175.867V66.7021Z" fill="#C2CDE7"/>
<path d="M189.57 84.5853H151.901V46.9285H189.57V84.5853ZM152.956 83.5315H188.501V47.9822H152.956V83.5315Z" fill="#C2CDE7"/>
<path d="M263.699 67.6901V177.778C263.699 181.048 260.428 183.682 256.397 183.682H170.922C166.892 183.682 163.621 181.048 163.621 177.778V67.6901C163.621 64.4203 166.892 61.7859 170.922 61.7859H256.397C260.443 61.8014 263.699 64.4358 263.699 67.6901Z" fill="white"/>
<path d="M258.847 115.203H167.543V152.457H258.847V115.203Z" fill="white"/>
<path d="M258.847 73.9662H167.543V111.654H258.847V73.9662Z" fill="white"/>
<path d="M253.638 80.0253H229.285C229.223 80.0253 229.177 79.9789 229.177 79.9169V78.2432C229.177 78.1812 229.223 78.1348 229.285 78.1348H253.638C253.7 78.1348 253.747 78.1812 253.747 78.2432V79.9169C253.747 79.9789 253.7 80.0253 253.638 80.0253Z" fill="#E2E0DC"/>
<path d="M253.638 85.2478H223.069C223.007 85.2478 222.961 85.2013 222.961 85.1393V83.4657C222.961 83.4037 223.007 83.3572 223.069 83.3572H253.638C253.7 83.3572 253.747 83.4037 253.747 83.4657V85.1393C253.747 85.2013 253.7 85.2478 253.638 85.2478Z" fill="#E2E0DC"/>
<path d="M253.638 90.4856H223.069C223.007 90.4856 222.961 90.4391 222.961 90.3771V88.7034C222.961 88.6415 223.007 88.595 223.069 88.595H253.638C253.7 88.595 253.747 88.6415 253.747 88.7034V90.3771C253.747 90.4391 253.7 90.4856 253.638 90.4856Z" fill="#E2E0DC"/>
<path d="M253.638 95.708H223.069C223.007 95.708 222.961 95.6615 222.961 95.5995V93.9259C222.961 93.8639 223.007 93.8174 223.069 93.8174H253.638C253.7 93.8174 253.747 93.8639 253.747 93.9259V95.5995C253.747 95.6615 253.7 95.708 253.638 95.708Z" fill="#E2E0DC"/>
<path d="M253.638 100.946H223.069C223.007 100.946 222.961 100.899 222.961 100.837V99.1636C222.961 99.1017 223.007 99.0552 223.069 99.0552H253.638C253.7 99.0552 253.747 99.1017 253.747 99.1636V100.837C253.747 100.899 253.7 100.946 253.638 100.946Z" fill="#E2E0DC"/>
<path d="M253.638 106.168H223.069C223.007 106.168 222.961 106.122 222.961 106.06V104.386C222.961 104.324 223.007 104.278 223.069 104.278H253.638C253.7 104.278 253.747 104.324 253.747 104.386V106.06C253.747 106.122 253.7 106.168 253.638 106.168Z" fill="#E2E0DC"/>
<path d="M251.034 122.13H180.223C180.176 122.13 180.13 122.083 180.13 122.037V120.456C180.13 120.41 180.176 120.363 180.223 120.363H251.034C251.08 120.363 251.127 120.41 251.127 120.456V122.021C251.127 122.083 251.08 122.13 251.034 122.13Z" fill="#E0E0E0"/>
<path d="M251.034 126.996H173.526C173.48 126.996 173.433 126.949 173.433 126.903V125.338C173.433 125.291 173.48 125.245 173.526 125.245H251.034C251.08 125.245 251.127 125.291 251.127 125.338V126.903C251.127 126.965 251.08 126.996 251.034 126.996Z" fill="#E0E0E0"/>
<path d="M251.034 131.877H173.526C173.48 131.877 173.433 131.831 173.433 131.784V130.219C173.433 130.172 173.48 130.126 173.526 130.126H251.034C251.08 130.126 251.127 130.172 251.127 130.219V131.784C251.127 131.831 251.08 131.877 251.034 131.877Z" fill="#E0E0E0"/>
<path d="M251.034 136.759H173.526C173.48 136.759 173.433 136.712 173.433 136.666V135.1C173.433 135.054 173.48 135.007 173.526 135.007H251.034C251.08 135.007 251.127 135.054 251.127 135.1V136.666C251.127 136.712 251.08 136.759 251.034 136.759Z" fill="#E0E0E0"/>
<path d="M251.034 141.64H173.526C173.48 141.64 173.433 141.594 173.433 141.547V139.982C173.433 139.935 173.48 139.889 173.526 139.889H251.034C251.08 139.889 251.127 139.935 251.127 139.982V141.547C251.127 141.594 251.08 141.64 251.034 141.64Z" fill="#E0E0E0"/>
<path d="M251.034 146.521H173.526C173.48 146.521 173.433 146.475 173.433 146.428V144.863C173.433 144.817 173.48 144.77 173.526 144.77H251.034C251.08 144.77 251.127 144.817 251.127 144.863V146.428C251.127 146.475 251.08 146.521 251.034 146.521Z" fill="#E0E0E0"/>
<path d="M263.699 63.0411V71.5798H163.621V63.0411C163.621 62.3593 164.318 61.7859 165.171 61.7859H262.164C263.017 61.8014 263.699 62.3593 263.699 63.0411Z" fill="#C1CAB5"/>
<path d="M182.393 92.4227H173.387V104.231H182.393V92.4227Z" fill="#C1CAB5"/>
<path d="M193.771 86.751H184.765V104.231H193.771V86.751Z" fill="#C1CAB5"/>
<path d="M205.149 83.0782H196.143V104.324H205.149V83.0782Z" fill="#C1CAB5"/>
<path d="M216.527 76.5077H207.521V104.324H216.527V76.5077Z" fill="#C1CAB5"/>
<path d="M184.902 136.146L172.843 121.234C171.191 119.187 168.713 118 166.104 118H110.302C105.49 118 101.591 121.939 101.591 126.824V231.176C101.591 236.044 105.49 240 110.302 240H269.88C274.692 240 278.591 236.061 278.591 231.176V148.186C278.591 143.318 274.692 139.362 269.88 139.362H191.628C189.033 139.38 186.555 138.193 184.902 136.146Z" fill="#E0D9E0"/>
<path d="M88.0061 76.2901H54.6611C53.8811 76.2901 53.1661 75.7051 53.1661 75.0551V33.0651C53.1661 32.3501 53.8161 31.8301 54.6611 31.8301H88.0061C88.7861 31.8301 89.5011 32.4151 89.5011 33.0651V75.0551C89.4361 75.7701 88.7861 76.2901 88.0061 76.2901Z" fill="#E0E0E0"/>
<path d="M88.0061 76.2901C88.0061 76.2901 88.0711 76.2901 88.1361 76.2901C88.2011 76.2901 88.3311 76.2901 88.4611 76.2251C88.5911 76.1601 88.7861 76.0951 88.9161 76.0301C89.1111 75.9001 89.2411 75.7701 89.3711 75.5101C89.4361 75.3801 89.4361 75.2501 89.4361 75.1201C89.4361 74.9901 89.4361 74.8601 89.4361 74.6651C89.4361 74.3401 89.4361 74.0151 89.4361 73.6251C89.4361 72.9101 89.4361 72.0651 89.4361 71.0901C89.4361 67.3201 89.4361 61.7951 89.4361 55.0351C89.4361 51.6551 89.4361 47.9501 89.4361 43.9851C89.4361 41.9701 89.4361 39.9551 89.4361 37.8101C89.4361 36.7701 89.4361 35.6651 89.4361 34.5601C89.4361 34.0401 89.4361 33.4551 89.4361 32.9351C89.4361 32.6751 89.3061 32.4151 89.1111 32.1551C88.9161 31.9601 88.6561 31.7651 88.3311 31.7651C88.2011 31.7651 88.0061 31.7001 87.8761 31.7651C87.7462 31.7651 87.5511 31.7651 87.4211 31.7651C87.0961 31.7651 86.7711 31.7651 86.4461 31.7651C85.7961 31.7651 85.1461 31.7651 84.4961 31.7651C83.1961 31.7651 81.8311 31.7651 80.4661 31.7651C77.7361 31.7651 75.0061 31.7651 72.2111 31.7651C66.5561 31.7651 60.7711 31.7651 54.7911 31.7651C54.4011 31.7651 54.0761 31.8951 53.8161 32.0901C53.5561 32.2851 53.3611 32.6101 53.3611 32.9351C53.3611 33.5851 53.3611 34.2351 53.3611 34.8851C53.3611 36.1851 53.3611 37.4201 53.3611 38.6551C53.3611 41.1901 53.3611 43.6601 53.3611 46.0651C53.3611 50.9401 53.3611 55.6201 53.3611 60.1051C53.3611 64.5901 53.3611 68.8151 53.3611 72.8451C53.3611 73.3651 53.3611 73.8201 53.3611 74.3401C53.3611 74.6001 53.3611 74.8601 53.3611 75.0551C53.3611 75.3151 53.4911 75.5101 53.6211 75.7051C53.7511 75.9001 54.0111 76.0301 54.2711 76.1601C54.4011 76.2251 54.5311 76.2251 54.6611 76.2251C54.7911 76.2251 54.9212 76.2251 55.0512 76.2251C55.5712 76.2251 56.1562 76.2251 56.6762 76.2251C58.8212 76.2251 60.8361 76.2251 62.7861 76.2251C70.5861 76.2251 76.9561 76.2251 81.3111 76.2251C83.5211 76.2251 85.2111 76.2251 86.3161 76.2251C86.9011 76.2251 87.3561 76.2251 87.6161 76.2251C87.8111 76.2901 88.0061 76.2901 88.0061 76.2901C88.0061 76.2901 87.8761 76.2901 87.5511 76.2901C87.2262 76.2901 86.8362 76.2901 86.2511 76.2901C85.0812 76.2901 83.3911 76.2901 81.2461 76.2901C76.8911 76.2901 70.5211 76.2901 62.7211 76.2901C60.7711 76.2901 58.6911 76.2901 56.6111 76.2901C56.0911 76.2901 55.5061 76.2901 54.9861 76.2901C54.8561 76.2901 54.7261 76.2901 54.5961 76.2901C54.4661 76.2901 54.3361 76.2251 54.2061 76.2251C53.9461 76.1601 53.6861 75.9651 53.5561 75.7701C53.3611 75.5751 53.2961 75.3151 53.2961 75.0551C53.2961 74.7951 53.2961 74.6001 53.2961 74.3401C53.2961 73.8201 53.2961 73.3651 53.2961 72.8451C53.2961 68.8801 53.2961 64.5901 53.2961 60.1051C53.2961 55.6201 53.2961 50.9401 53.2961 46.0651C53.2961 43.6601 53.2961 41.1251 53.2961 38.6551C53.2961 37.4201 53.2961 36.1201 53.2961 34.8851C53.2961 34.2351 53.2961 33.5851 53.2961 32.9351C53.2961 32.6101 53.4912 32.2851 53.7512 32.0901C54.0112 31.8301 54.4011 31.7001 54.7911 31.7001C60.7711 31.7001 66.5561 31.7001 72.2111 31.7001C75.0061 31.7001 77.8011 31.7001 80.4661 31.7001C81.8311 31.7001 83.1311 31.7001 84.4961 31.7001C85.1461 31.7001 85.7961 31.7001 86.4461 31.7001C86.7711 31.7001 87.0961 31.7001 87.4211 31.7001C87.6161 31.7001 87.7462 31.7001 87.8761 31.7001C88.0061 31.7001 88.2011 31.7001 88.3961 31.7651C88.7211 31.8301 88.9811 31.9601 89.2411 32.2201C89.4361 32.4151 89.5661 32.7401 89.5661 33.0001C89.5661 33.5851 89.5661 34.1051 89.5661 34.6251C89.5661 35.7301 89.5661 36.7701 89.5661 37.8751C89.5661 40.0201 89.5661 42.0351 89.5661 44.0501C89.5661 48.0151 89.5661 51.7201 89.5661 55.1001C89.5661 61.8601 89.5661 67.3201 89.5661 71.1551C89.5661 72.1301 89.5661 72.9101 89.5661 73.6901C89.5661 74.0801 89.5661 74.4051 89.5661 74.7301C89.5661 74.8601 89.5661 75.0551 89.5661 75.1851C89.5661 75.3151 89.5011 75.4451 89.4361 75.5751C89.3061 75.8351 89.1761 75.9651 88.9811 76.0951C88.7861 76.2251 88.6562 76.2901 88.5261 76.2901C88.3961 76.3551 88.2661 76.3551 88.2011 76.3551C88.0061 76.2901 88.0061 76.2901 88.0061 76.2901Z" fill="#263238"/>
<g opacity="0.3">
<path d="M56.6111 75.185L87.0311 75.0551L87.4211 69.985L86.4461 66.9301L56.3511 70.96L56.6111 75.185Z" fill="black"/>
</g>
<path d="M88.0061 76.2901C88.0061 76.2901 88.0711 76.2901 88.1361 76.2901C88.2011 76.2901 88.3311 76.2901 88.4611 76.2251C88.5911 76.1601 88.7861 76.0951 88.9161 76.0301C89.1111 75.9001 89.2411 75.7701 89.3711 75.5101C89.4361 75.3801 89.4361 75.2501 89.4361 75.1201C89.4361 74.9901 89.4361 74.8601 89.4361 74.6651C89.4361 74.3401 89.4361 74.0151 89.4361 73.6251C89.4361 72.9101 89.4361 72.0651 89.4361 71.0901C89.4361 67.3201 89.4361 61.7951 89.4361 55.0351C89.4361 51.6551 89.4361 47.9501 89.4361 43.9851C89.4361 41.9701 89.4361 39.9551 89.4361 37.8101C89.4361 36.7701 89.4361 35.6651 89.4361 34.5601C89.4361 34.0401 89.4361 33.4551 89.4361 32.9351C89.4361 32.6751 89.3061 32.4151 89.1111 32.1551C88.9161 31.9601 88.6561 31.7651 88.3311 31.7651C88.2011 31.7651 88.0061 31.7001 87.8761 31.7651C87.7462 31.7651 87.5511 31.7651 87.4211 31.7651C87.0961 31.7651 86.7711 31.7651 86.4461 31.7651C85.7961 31.7651 85.1461 31.7651 84.4961 31.7651C83.1961 31.7651 81.8311 31.7651 80.4661 31.7651C77.7361 31.7651 75.0061 31.7651 72.2111 31.7651C66.5561 31.7651 60.7711 31.7651 54.7911 31.7651C54.4011 31.7651 54.0761 31.8951 53.8161 32.0901C53.5561 32.2851 53.3611 32.6101 53.3611 32.9351C53.3611 33.5851 53.3611 34.2351 53.3611 34.8851C53.3611 36.1851 53.3611 37.4201 53.3611 38.6551C53.3611 41.1901 53.3611 43.6601 53.3611 46.0651C53.3611 50.9401 53.3611 55.6201 53.3611 60.1051C53.3611 64.5901 53.3611 68.8151 53.3611 72.8451C53.3611 73.3651 53.3611 73.8201 53.3611 74.3401C53.3611 74.6001 53.3611 74.8601 53.3611 75.0551C53.3611 75.3151 53.4911 75.5101 53.6211 75.7051C53.7511 75.9001 54.0111 76.0301 54.2711 76.1601C54.4011 76.2251 54.5311 76.2251 54.6611 76.2251C54.7911 76.2251 54.9212 76.2251 55.0512 76.2251C55.5712 76.2251 56.1562 76.2251 56.6762 76.2251C58.8212 76.2251 60.8361 76.2251 62.7861 76.2251C70.5861 76.2251 76.9561 76.2251 81.3111 76.2251C83.5211 76.2251 85.2111 76.2251 86.3161 76.2251C86.9011 76.2251 87.3561 76.2251 87.6161 76.2251C87.8111 76.2901 88.0061 76.2901 88.0061 76.2901C88.0061 76.2901 87.8761 76.2901 87.5511 76.2901C87.2262 76.2901 86.8362 76.2901 86.2511 76.2901C85.0812 76.2901 83.3911 76.2901 81.2461 76.2901C76.8911 76.2901 70.5211 76.2901 62.7211 76.2901C60.7711 76.2901 58.6911 76.2901 56.6111 76.2901C56.0911 76.2901 55.5061 76.2901 54.9861 76.2901C54.8561 76.2901 54.7261 76.2901 54.5961 76.2901C54.4661 76.2901 54.3361 76.2251 54.2061 76.2251C53.9461 76.1601 53.6861 75.9651 53.5561 75.7701C53.3611 75.5751 53.2961 75.3151 53.2961 75.0551C53.2961 74.7951 53.2961 74.6001 53.2961 74.3401C53.2961 73.8201 53.2961 73.3651 53.2961 72.8451C53.2961 68.8801 53.2961 64.5901 53.2961 60.1051C53.2961 55.6201 53.2961 50.9401 53.2961 46.0651C53.2961 43.6601 53.2961 41.1251 53.2961 38.6551C53.2961 37.4201 53.2961 36.1201 53.2961 34.8851C53.2961 34.2351 53.2961 33.5851 53.2961 32.9351C53.2961 32.6101 53.4912 32.2851 53.7512 32.0901C54.0112 31.8301 54.4011 31.7001 54.7911 31.7001C60.7711 31.7001 66.5561 31.7001 72.2111 31.7001C75.0061 31.7001 77.8011 31.7001 80.4661 31.7001C81.8311 31.7001 83.1311 31.7001 84.4961 31.7001C85.1461 31.7001 85.7961 31.7001 86.4461 31.7001C86.7711 31.7001 87.0961 31.7001 87.4211 31.7001C87.6161 31.7001 87.7462 31.7001 87.8761 31.7001C88.0061 31.7001 88.2011 31.7001 88.3961 31.7651C88.7211 31.8301 88.9811 31.9601 89.2411 32.2201C89.4361 32.4151 89.5661 32.7401 89.5661 33.0001C89.5661 33.5851 89.5661 34.1051 89.5661 34.6251C89.5661 35.7301 89.5661 36.7701 89.5661 37.8751C89.5661 40.0201 89.5661 42.0351 89.5661 44.0501C89.5661 48.0151 89.5661 51.7201 89.5661 55.1001C89.5661 61.8601 89.5661 67.3201 89.5661 71.1551C89.5661 72.1301 89.5661 72.9101 89.5661 73.6901C89.5661 74.0801 89.5661 74.4051 89.5661 74.7301C89.5661 74.8601 89.5661 75.0551 89.5661 75.1851C89.5661 75.3151 89.5011 75.4451 89.4361 75.5751C89.3061 75.8351 89.1761 75.9651 88.9811 76.0951C88.7861 76.2251 88.6562 76.2901 88.5261 76.2901C88.3961 76.3551 88.2661 76.3551 88.2011 76.3551C88.0061 76.2901 88.0061 76.2901 88.0061 76.2901Z" fill="#263238"/>
<g opacity="0.3">
<path d="M56.6111 75.185L87.0311 75.0551L87.4211 69.985L86.4461 66.9301L56.3511 70.96L56.6111 75.185Z" fill="black"/>
</g>
<path d="M87.6161 33.5851H55.0511V74.2101H87.6161V33.5851Z" fill="white"/>
<path d="M87.6161 74.2101C87.6161 73.9501 87.6161 57.5701 87.6161 33.5851C77.7361 33.5851 66.6861 33.5851 55.0511 33.5851H55.1161C55.1161 48.8601 55.1161 62.9651 55.1161 74.2101C74.8761 74.2101 87.4211 74.2101 87.6161 74.2101C87.4211 74.2101 74.8761 74.2101 55.0511 74.2101C55.0511 62.9651 55.0511 48.8601 55.0511 33.5851H55.1161C66.7511 33.5851 77.8011 33.5851 87.6811 33.5851C87.6161 57.5701 87.6161 73.9501 87.6161 74.2101Z" fill="#263238"/>
<path d="M64.0212 44.5701H56.8712V46.0001H64.0212V44.5701Z" fill="#E0E0E0"/>
<path d="M78.5912 38.4501H59.8661V43H78.5912V38.4501Z" fill="#E0E0E0"/>
<path d="M63.6312 41.4501H56.8062V42.8801H63.6312V41.4501Z" fill="#F5F5F5"/>
<path d="M66.0362 65.1101H56.8712V66.7351H66.0362V65.1101Z" fill="#E0E0E0"/>
<path d="M85.0812 48.1451H56.8712V49.7701H85.0812V48.1451Z" fill="#E0E0E0"/>
<path d="M84.5611 51.85C84.5611 51.915 78.5161 52.045 70.9761 52.045C63.5011 52.045 57.3911 51.98 57.3911 51.85C57.3911 51.72 63.4361 51.655 70.9761 51.655C78.4511 51.655 84.5611 51.72 84.5611 51.85Z" fill="#263238"/>
<path d="M84.5611 53.2151C84.5611 53.2801 78.5161 53.4101 70.9761 53.4101C63.5011 53.4101 57.3911 53.3451 57.3911 53.2151C57.3911 53.1501 63.4361 53.0201 70.9761 53.0201C78.4511 53.0851 84.5611 53.1501 84.5611 53.2151Z" fill="#263238"/>
<path d="M84.5611 54.6451C84.5611 54.7101 78.5161 54.8401 70.9761 54.8401C63.5011 54.8401 57.3911 54.7751 57.3911 54.6451C57.3911 54.5801 63.4361 54.4501 70.9761 54.4501C78.4511 54.4501 84.5611 54.5151 84.5611 54.6451Z" fill="#263238"/>
<path d="M69.4811 56.0101C69.4811 56.0751 66.7511 56.2051 63.4361 56.2051C60.1211 56.2051 57.3911 56.1401 57.3911 56.0101C57.3911 55.9451 60.1211 55.8151 63.4361 55.8151C66.8161 55.8801 69.4811 55.9451 69.4811 56.0101Z" fill="#263238"/>
<path d="M84.5611 57.4401C84.5611 57.5051 78.5161 57.6351 70.9761 57.6351C63.5011 57.6351 57.3911 57.5701 57.3911 57.4401C57.3911 57.3101 63.4361 57.2451 70.9761 57.2451C78.4511 57.2451 84.5611 57.3751 84.5611 57.4401Z" fill="#263238"/>
<path d="M84.5611 58.87C84.5611 58.935 78.5161 59.0651 70.9761 59.0651C63.5011 59.0651 57.3911 59 57.3911 58.87C57.3911 58.805 63.4361 58.675 70.9761 58.675C78.4511 58.675 84.5611 58.74 84.5611 58.87Z" fill="#263238"/>
<path d="M79.1661 60.235C79.1661 60.3 74.2911 60.43 68.3111 60.43C62.3311 60.43 57.4561 60.365 57.4561 60.235C57.4561 60.17 62.3311 60.04 68.3111 60.04C74.2911 60.105 79.1661 60.17 79.1661 60.235Z" fill="#263238"/>
<path d="M84.5611 61.6651C84.5611 61.7301 78.5161 61.8601 70.9761 61.8601C63.5011 61.8601 57.3911 61.7951 57.3911 61.6651C57.3911 61.6001 63.4361 61.4701 70.9761 61.4701C78.4511 61.4701 84.5611 61.5351 84.5611 61.6651Z" fill="#263238"/>
<path d="M84.5611 63.0951C84.5611 63.1601 78.5161 63.2902 70.9761 63.2902C63.5011 63.2902 57.3911 63.2251 57.3911 63.0951C57.3911 62.9651 63.4361 62.9001 70.9761 62.9001C78.4511 62.9001 84.5611 62.9651 84.5611 63.0951Z" fill="#263238"/>
<path d="M80.4661 34.1451H63.7611V31.0251C63.7611 30.2451 64.4111 29.5951 65.1911 29.5951H78.9711C79.7511 29.5951 80.4011 30.2451 80.4011 31.0251V34.1451H80.4661Z" fill="#263238"/>
<path d="M74.2261 27.8401H70.0011L70.5211 31.2851H73.7061L74.2261 27.8401Z" fill="#263238"/>
<path d="M79.4261 29.595C79.4261 29.595 76.1761 29.66 72.1461 29.66C68.1161 29.66 64.8661 29.66 64.8661 29.595C64.8661 29.595 68.1161 29.53 72.1461 29.53C76.1761 29.53 79.4261 29.595 79.4261 29.595Z" fill="#455A64"/>
<path d="M64.1511 33.4301C64.1511 33.4301 64.0861 32.7801 64.0861 32.0001C64.0861 31.2201 64.0861 30.5701 64.1511 30.5701C64.2161 30.5701 64.2161 31.2201 64.2161 32.0001C64.1511 32.7801 64.1511 33.4301 64.1511 33.4301Z" fill="#455A64"/>
<path d="M79.9461 33.1051C79.9461 33.1051 79.8811 32.5201 79.8811 31.8051C79.8811 31.0901 79.8811 30.5051 79.9461 30.5051C80.0111 30.5051 80.0111 31.0901 80.0111 31.8051C79.9461 32.4551 79.9461 33.1051 79.9461 33.1051Z" fill="#455A64"/>
<path d="M79.1011 33.6901C79.1011 33.6901 75.7861 33.7551 71.6261 33.7551C67.4661 33.7551 64.1511 33.7551 64.1511 33.6901C64.1511 33.6901 67.4661 33.6251 71.6261 33.6251C75.7861 33.6251 79.1011 33.6901 79.1011 33.6901Z" fill="#455A64"/>
<g opacity="0.3">
<path d="M80.4661 30.8951L81.1811 32.8451V33.7551H80.4011L80.4661 30.8951Z" fill="black"/>
</g>
<path d="M63.4089 47.9562C63.4089 47.9562 64.216 53.4728 63.1288 54.5432C62.0416 55.63 63.5242 58.907 63.2112 60.8996C62.8982 62.9086 60.8556 68.7874 59.2578 68.9521C57.6764 69.1168 55.3044 68.5075 54.909 69.1168C54.5302 69.7425 54.6619 71.9162 54.6619 71.9162L40.545 72.9537L42.2087 54.7408L50.6756 43.9053L63.4089 47.9562Z" fill="#F5C3C3"/>
<path d="M54.5462 69.01C54.5462 69.01 50.1262 69.4 45.3812 66.54C45.3812 66.54 47.6562 71.48 54.5462 70.7V69.01Z" fill="#CDA7A7"/>
<path d="M68.5483 145.937C68.5483 145.937 71.9252 206.57 70.9039 209.88C69.8826 213.19 64.9243 230.003 64.7267 240.163C64.529 250.307 63.2441 261.785 63.2441 261.785C63.2441 261.785 62.0746 263.925 57.7753 263.925C53.4759 263.925 51.9275 262.559 51.9275 262.559C51.9275 262.559 48.9954 253.452 48.7977 234.334C48.6001 215.215 54.2337 210.868 53.5748 205.598C52.8994 200.329 47.2493 172.63 44.5149 172.63C41.7804 172.63 42.5711 210.209 41.2039 212.103C39.8367 213.996 34.9608 231.172 33.9889 241.316C33.017 251.46 32.6217 262.394 32.6217 262.394C32.6217 262.394 29.1131 264.535 24.4184 263.958C19.7402 263.366 20.2179 263.168 20.2179 263.168C20.2179 263.168 17.2693 236.853 19.8061 226.116C22.3428 215.38 25.0608 208.068 25.0608 208.068C25.0608 208.068 21.1239 182.791 21.6839 173.042C22.2605 163.294 27.367 141.293 27.367 141.293L68.5483 145.937Z" fill="#111623"/>
<path d="M25.9483 150.692C25.9483 150.692 26.4426 150.813 27.6891 151.016C28.9356 151.22 30.6836 151.479 32.6823 151.766C36.9376 152.303 43.2274 152.804 49.5746 152.789C55.9217 152.773 60.5567 152.175 63.4079 151.641C64.7117 151.328 65.7576 151.051 66.5385 150.876C67.0686 150.674 67.3408 150.508 67.3408 150.508C67.0901 150.48 65.7719 150.922 62.9208 151.456C60.0696 151.99 55.4489 152.459 49.3525 152.502C43.2561 152.546 37.217 152.073 32.9545 151.6C28.6992 151.063 25.9555 150.628 25.9483 150.692Z" fill="#5A7886"/>
<path d="M35.9656 71.0105C35.9656 71.0105 55.848 70.4177 56.441 71.0105C57.034 71.6033 60.1802 75.7037 60.1802 75.7037C60.1802 75.7037 69.8331 77.6798 72.7982 80.4133C75.7632 83.1634 85.482 103.089 85.482 103.089L91.2145 87.4449C91.2145 87.4449 93.01 86.1934 96.881 86.8027C100.752 87.412 102.416 89.0258 102.416 89.0258C102.416 89.0258 95.975 122.01 87.607 124.151C79.2389 126.291 68.5483 100.289 68.5483 100.289L71.085 145.739C71.085 145.739 59.9167 149.807 42.6535 149.543C25.3902 149.28 25.0114 143.335 25.0114 143.335V92.8133C25.0114 92.8133 2.06514 94.0812 0.121382 87.4449C-1.8059 80.8086 19.8555 47.1823 19.8555 47.1823C19.8555 47.1823 24.5007 51.085 26.428 52.1225C28.3553 53.1599 30.4144 53.4069 30.4144 53.4069C30.4144 53.4069 18.06 75.8354 19.3284 76.3624C20.5803 76.8893 33.2476 75.4896 33.2476 75.4896L35.9656 71.0105Z" fill="#8191B5"/>
<path d="M29.9335 99.0015C29.9335 99.0015 29.9319 99.0354 29.9286 99.1031C29.9253 99.1708 29.9204 99.2723 29.9155 99.3738C29.9025 99.6446 29.8196 100.014 29.7984 100.454C29.6877 101.398 29.5559 102.783 29.4093 104.472C29.1163 107.85 28.8244 112.551 28.7029 117.769C28.6479 122.956 28.7456 127.676 28.9703 131.113C29.0835 132.815 29.1464 134.209 29.2305 135.163C29.2726 135.64 29.3196 136.015 29.3081 136.252C29.3032 136.353 29.3633 136.458 29.36 136.526C29.3567 136.594 29.3551 136.627 29.3551 136.627C29.3551 136.627 29.3567 136.594 29.36 136.526C29.3633 136.458 29.3682 136.357 29.3731 136.255C29.3861 135.984 29.3391 135.609 29.3604 135.169C29.3411 134.218 29.2782 132.824 29.1651 131.123C29.0686 127.726 28.906 123.003 29.0259 117.819C29.1458 112.634 29.3727 107.93 29.6025 104.515C29.749 102.826 29.816 101.438 29.9266 100.494C29.9494 100.02 29.9674 99.6477 29.9788 99.4108C29.9837 99.3093 29.9886 99.2077 29.9919 99.14C29.9968 99.0385 29.9984 99.0047 29.9335 99.0015Z" fill="#263238"/>
<path d="M33.686 77.1404C33.686 77.1404 33.7098 77.1381 33.7576 77.1337C33.8053 77.1292 33.8769 77.1225 33.9485 77.1158C34.1395 77.0979 34.396 77.0086 34.7063 76.9795C35.3685 76.8521 36.341 76.6957 37.5284 76.5192C39.9031 76.1661 43.2148 75.7904 46.9026 75.5754C50.5727 75.4273 53.9207 75.44 56.3678 75.6024C57.5794 75.6847 58.5702 75.7224 59.2506 75.7892C59.5908 75.8226 59.8594 75.8627 60.0265 75.8471C60.0981 75.8404 60.1758 75.8984 60.2235 75.8939C60.2713 75.8894 60.2951 75.8872 60.2951 75.8872C60.2951 75.8872 60.2713 75.8894 60.2235 75.8939C60.1758 75.8984 60.1042 75.9051 60.0326 75.9118C59.8416 75.9297 59.573 75.8896 59.2627 75.9187C58.5883 75.9166 57.5976 75.8788 56.386 75.7965C53.9749 75.7613 50.6208 75.684 46.9568 75.8967C43.2928 76.1095 39.9751 76.4204 37.5705 76.7111C36.3831 76.8876 35.4045 76.9793 34.7423 77.1067C34.4081 77.138 34.1455 77.1626 33.9785 77.1783C33.9069 77.185 33.8353 77.1917 33.7875 77.1962C33.7159 77.2029 33.692 77.2051 33.686 77.1404Z" fill="#263238"/>
<path d="M68.1755 101.075C68.1755 101.075 68.1741 101.095 68.1713 101.136C68.1684 101.177 68.1642 101.238 68.1599 101.298C68.1486 101.461 68.1978 101.689 68.1793 101.953C68.2044 102.527 68.2111 103.364 68.205 104.385C68.1927 106.426 68.0602 109.255 67.712 112.375C67.3003 115.47 66.7788 118.272 66.2464 120.297C65.9809 121.3 65.793 122.124 65.6235 122.684C65.5388 122.964 65.4584 123.183 65.4484 123.325C65.4442 123.386 65.3751 123.442 65.3722 123.483C65.3694 123.524 65.368 123.544 65.368 123.544C65.368 123.544 65.3694 123.524 65.3722 123.483C65.3751 123.442 65.3793 123.381 65.3836 123.32C65.395 123.158 65.4754 122.939 65.4939 122.675C65.5985 122.11 65.7863 121.286 66.0518 120.284C66.4531 118.27 67.0395 115.473 67.3863 112.373C67.7332 109.273 67.9305 106.448 68.009 104.392C68.0151 103.371 68.0733 102.538 68.0482 101.964C68.0681 101.68 68.0837 101.457 68.0937 101.314C68.0979 101.253 68.1022 101.192 68.105 101.152C68.1093 101.091 68.1107 101.07 68.1755 101.075Z" fill="#263238"/>
<path d="M67.7246 41.7151C67.7246 41.7151 64.9408 50.5581 60.6085 50.5581C56.2762 50.5746 59.1424 55.8441 56.9516 56.7169C54.7608 57.6061 56.7375 52.2378 54.2666 52.2378C51.7957 52.2542 53.5253 60.3232 49.2919 60.7349C45.042 61.1631 42.0769 61.1301 40.3308 59.9115C38.5847 58.7094 35.2738 47.5281 36.8057 43.0161C38.3376 38.5205 39.0624 38.5863 39.0624 38.5863C39.0624 38.5863 39.3589 34.0249 48.32 36.0174C57.2975 38.0429 67.7246 41.7151 67.7246 41.7151Z" fill="#272643"/>
<path d="M67.7246 41.7151C67.7246 41.7151 64.9408 50.5581 60.6085 50.5581C56.2762 50.5746 59.1424 55.8441 56.9516 56.7169C54.7608 57.6061 56.7375 52.2378 54.2666 52.2378C51.7957 52.2542 53.5253 60.3232 49.2919 60.7349C45.042 61.1631 42.0769 61.1301 40.3308 59.9115C38.5847 58.7094 35.2738 47.5281 36.8057 43.0161C38.3376 38.5205 39.0624 38.5863 39.0624 38.5863C39.0624 38.5863 39.3589 34.0249 48.32 36.0174C57.2975 38.0429 67.7246 41.7151 67.7246 41.7151Z" fill="#272643"/>
<path d="M28.6683 53.0118C28.6683 53.0118 34.8455 51.3157 37.3988 49.0596C39.952 46.8036 40.578 44.5641 40.578 44.5641C40.578 44.5641 39.079 43.329 37.4647 45.5356C35.8503 47.7422 33.9066 47.1824 33.9066 47.1824C33.9066 47.1824 36.7069 41.4023 38.8978 39.9367C41.0721 38.4547 43.0653 36.8409 42.1923 35.8528C41.3192 34.8483 37.0528 37.9771 36.1139 39.4098C35.175 40.8424 33.3959 42.0116 33.083 42.1433C32.77 42.2751 41.3028 33.7615 40.8745 32.4111C40.4462 31.0608 32.9018 38.2241 32.9018 38.2241C32.9018 38.2241 38.5024 31.7689 37.7612 31.0444C37.0199 30.3198 29.6073 38.7181 29.1625 38.29C28.7342 37.8618 32.5888 33.0863 32.0287 32.4111C31.4687 31.7524 27.3505 36.5444 26.0492 38.537C24.7479 40.5295 23.5618 44.0865 22.8041 45.0745C22.0628 46.079 21.2722 48.368 21.2722 48.368C21.2722 48.368 25.6538 53.1271 28.6683 53.0118Z" fill="#FFD9D9"/>
<path d="M100.357 87.7744C100.357 87.7744 99.879 74.9134 98.5777 73.3325C97.2599 71.7517 89.7814 66.2351 89.7814 66.2351V77.0048C89.7814 77.0048 88.1506 72.5586 86.8822 71.6364C85.6303 70.7142 84.6913 71.6858 84.6913 71.6858C84.6913 71.6858 87.2611 79.5407 88.0847 80.4794C88.9083 81.4015 92.2687 86.984 92.2687 86.984C92.2687 86.984 98.0011 86.3253 100.357 87.7744Z" fill="#F7CCCC"/>
<path d="M62.2558 262.773C62.2558 262.773 67.4776 267.812 71.6616 268.421C75.8457 269.014 78.4977 271.072 78.1518 273.213C77.8059 275.354 75.335 275.782 69.8661 275.354C64.3972 274.926 62.1735 273.641 57.9894 274.662C53.8054 275.683 48.9295 274.926 49.3578 272.011C49.7861 269.096 51.9275 262.575 51.9275 262.575C51.9275 262.575 58.4836 263.876 62.2558 262.773Z" fill="#111623"/>
<path d="M52.4161 261.962C52.6378 261.565 54.8449 262.795 57.717 262.832C60.5892 262.87 62.8003 262.017 62.9101 262.339C63.3515 262.585 61.1384 264.479 57.8249 264.196C54.4004 264.111 52.0845 262.038 52.4161 261.962Z" fill="white"/>
<path d="M31.0568 262.773C31.0568 262.773 36.2786 267.812 40.4626 268.421C44.6466 269.014 47.2987 271.072 46.9528 273.213C46.6069 275.354 44.136 275.782 38.6671 275.354C33.1982 274.926 30.9744 273.641 26.7904 274.662C22.6064 275.683 17.7305 274.926 18.1588 272.011C18.5871 269.113 20.7285 262.575 20.7285 262.575C20.7285 262.575 27.2846 263.876 31.0568 262.773Z" fill="#111623"/>
<path d="M20.4047 263.236C20.6053 262.827 22.8737 263.94 25.7439 263.827C28.6141 263.714 30.7775 262.747 30.904 263.063C31.3577 263.285 29.2468 265.293 25.9229 265.183C22.4987 265.278 20.0775 263.329 20.4047 263.236Z" fill="white"/>
<path opacity="0.3" d="M137.591 131C148.085 131 156.591 122.493 156.591 112C156.591 101.507 148.085 93 137.591 93C127.098 93 118.591 101.507 118.591 112C118.591 122.493 127.098 131 137.591 131Z" fill="black"/>
<path d="M134.986 130.432C145.814 130.432 154.591 121.658 154.591 110.834C154.591 100.009 145.814 91.2349 134.986 91.2349C124.159 91.2349 115.381 100.009 115.381 110.834C115.381 121.658 124.159 130.432 134.986 130.432Z" fill="#FF725E"/>
<path d="M135.85 113.502C135.475 113.639 135.135 113.624 134.83 113.457C134.525 113.291 134.299 113.006 134.152 112.603C134.01 112.214 133.923 111.838 133.888 111.475C133.863 111.092 133.891 110.699 133.973 110.294C134.063 109.869 134.218 109.421 134.438 108.95C134.579 108.621 134.681 108.339 134.742 108.105C134.818 107.865 134.856 107.655 134.856 107.476C134.851 107.282 134.817 107.099 134.754 106.926C134.633 106.594 134.419 106.387 134.111 106.303C133.803 106.219 133.419 106.261 132.957 106.429C132.496 106.597 132.082 106.805 131.716 107.052C131.349 107.3 131.015 107.593 130.714 107.931C130.365 108.319 130.012 108.537 129.655 108.586C129.292 108.62 128.97 108.541 128.688 108.35C128.406 108.159 128.188 107.896 128.033 107.56C127.893 107.22 127.864 106.847 127.945 106.442C128.04 106.032 128.272 105.638 128.64 105.259C129.126 104.756 129.677 104.319 130.292 103.948C130.902 103.563 131.496 103.265 132.072 103.055C133.066 102.693 133.996 102.535 134.86 102.579C135.739 102.618 136.493 102.85 137.12 103.274C137.743 103.684 138.193 104.271 138.471 105.034C138.628 105.466 138.713 105.901 138.725 106.337C138.737 106.773 138.667 107.231 138.515 107.711C138.358 108.176 138.088 108.69 137.706 109.253C137.38 109.747 137.141 110.169 136.991 110.517C136.835 110.851 136.741 111.154 136.71 111.427C136.693 111.694 136.706 111.975 136.748 112.27C136.774 112.521 136.722 112.761 136.593 112.987C136.458 113.199 136.21 113.371 135.85 113.502ZM137.665 118.691C137.003 118.933 136.406 118.929 135.875 118.682C135.359 118.429 134.985 117.986 134.755 117.352C134.529 116.732 134.536 116.167 134.774 115.656C135.021 115.126 135.476 114.74 136.139 114.498C136.802 114.257 137.392 114.263 137.908 114.516C138.419 114.754 138.787 115.183 139.012 115.802C139.243 116.436 139.242 117.016 139.009 117.541C138.776 118.067 138.328 118.45 137.665 118.691Z" fill="white"/>
<path d="M287.039 237.051L279.811 274.214C279.811 275.034 273.941 275.713 266.701 275.713C259.46 275.713 253.591 275.045 253.591 274.214L246.362 237.051H287.039Z" fill="#BFCCDB"/>
<path d="M267.039 237.051L276 275C276 275.82 271.941 275.713 264.701 275.713C257.46 275.713 253.591 275.045 253.591 274.214L246.362 237.051H267.039Z" fill="#9698AB"/>
<path d="M285.581 244.98C285.581 245.045 277.066 245.11 266.601 245.11C256.136 245.11 247.621 245.045 247.621 244.98C247.621 244.915 256.136 244.85 266.601 244.85C277.066 244.85 285.581 244.915 285.581 244.98Z" fill="#263238"/>
<path d="M266.701 239.37C277.933 239.37 287.039 238.332 287.039 237.051C287.039 235.77 277.933 234.732 266.701 234.732C255.468 234.732 246.362 235.77 246.362 237.051C246.362 238.332 255.468 239.37 266.701 239.37Z" fill="url(#paint1_linear_1068_7872)"/>
<path d="M218.127 207.15C218.127 207.15 235.853 207.138 245.39 219.19C255.289 231.699 255.114 238.984 255.114 238.984L261.909 239.37C261.909 239.37 266.783 235.646 261.909 227.365C257.035 219.085 237.751 201.552 218.127 207.15Z" fill="#303F46"/>
<path d="M266.701 239.37C266.701 239.37 266.443 219.998 251.025 210.019C235.595 200.041 218.127 207.15 218.127 207.15C218.127 207.15 235.021 205.264 246.936 213.428C258.839 221.591 261.909 239.382 261.909 239.382H266.701V239.37Z" fill="#455A64"/>
<path d="M265.201 239.37L270.426 239.265L275.324 239.159C275.324 239.159 276.073 231.441 281.873 223.5C287.684 215.559 298.591 207.993 298.591 207.993C298.591 207.993 288.223 207.15 276.167 216.871C264.123 226.569 265.201 239.37 265.201 239.37Z" fill="#303F46"/>
<path d="M265.201 239.37L270.426 239.265C271.247 235.341 273.226 229.415 277.866 222.727C286.208 210.687 298.591 207.982 298.591 207.982C298.591 207.982 288.223 207.138 276.167 216.859C264.123 226.569 265.201 239.37 265.201 239.37Z" fill="#455A64"/>
<path d="M258.992 239.195L262.296 239.23L269.313 239.323C269.313 239.323 270.333 220.584 276.425 206.049C282.505 191.503 289.066 189.371 289.066 189.371C289.066 189.371 289.008 189.371 288.891 189.371C287.239 189.371 273.929 189.875 265.189 206.073C255.864 223.348 258.992 239.195 258.992 239.195Z" fill="#303F46"/>
<path d="M258.992 239.195L262.296 239.23C262.413 232.062 263.737 220.069 270.04 207.97C279.213 190.366 287.578 189.406 288.879 189.371C287.227 189.371 273.918 189.875 265.178 206.073C255.864 223.348 258.992 239.195 258.992 239.195Z" fill="#455A64"/>
<path d="M261.124 239.323C261.124 239.323 258.875 224.753 243.937 221.568C228.999 218.394 222.532 228.981 222.532 228.981C222.532 228.981 232.069 225.807 240.645 228.033C249.221 230.258 251.458 238.585 251.458 238.585L261.124 239.323Z" fill="#455A64"/>
<path d="M270.426 239.265C270.426 239.265 272.898 230.973 280.853 227.693C288.809 224.414 295.182 227.693 295.182 227.693C295.182 227.693 288.621 227.787 283.443 231.277C278.276 234.756 276.976 239.241 276.976 239.241L270.426 239.265Z" fill="#455A64"/>
<path d="M54.6061 60.2451C54.6061 60.2451 54.5411 60.3101 54.4111 60.3751C54.2811 60.4401 54.0211 60.5051 53.7611 60.4401C53.2411 60.3101 52.7861 59.5301 52.7211 58.6851C52.6561 58.2301 52.7211 57.8401 52.9161 57.5151C53.0461 57.1901 53.2411 56.9301 53.5011 56.8651C53.7611 56.8001 53.9561 56.9301 54.0211 57.0601C54.0861 57.1901 54.0861 57.2551 54.0861 57.3201C54.0861 57.3201 54.2161 57.2551 54.1511 57.0601C54.1511 56.9951 54.0861 56.8651 53.9561 56.8001C53.8261 56.7351 53.6961 56.6701 53.5011 56.7351C53.1111 56.8001 52.8511 57.1251 52.6561 57.5151C52.4611 57.9051 52.3961 58.3601 52.4611 58.8801C52.5261 59.8551 53.1111 60.7001 53.7611 60.8951C54.0861 60.9601 54.3461 60.8301 54.5411 60.7001C54.6061 60.3101 54.6711 60.2451 54.6061 60.2451Z" fill="#A28B8B"/>
<path d="M290.225 275.715C290.225 275.78 226.265 275.91 147.42 275.91C68.51 275.91 4.54999 275.845 4.54999 275.715C4.54999 275.65 68.51 275.52 147.42 275.52C226.33 275.585 290.225 275.65 290.225 275.715Z" fill="#263238"/>
<defs>
<linearGradient id="paint0_linear_1068_7872" x1="140.53" y1="32.3949" x2="153.637" y2="122.953" gradientUnits="userSpaceOnUse">
<stop stop-color="#FAFAF8"/>
<stop offset="0.9764" stop-color="#FCFCFA"/>
</linearGradient>
<linearGradient id="paint1_linear_1068_7872" x1="287.036" y1="237.052" x2="246.366" y2="237.052" gradientUnits="userSpaceOnUse">
<stop stop-color="#3C3B63"/>
<stop offset="1" stop-color="#111623"/>
</linearGradient>
</defs>
</svg>
