<svg width="13" height="17" viewBox="0 0 13 17" fill="none" xmlns="http://www.w3.org/2000/svg">
<path opacity="0.6" d="M5.93119 4.40987L7.18859 1.29608C7.33358 0.93722 7.77363 0.787813 8.14782 0.971525L10.4455 2.09905C11.1293 2.43433 11.5344 3.14131 11.4478 3.8491C10.9366 8.09506 9.00658 12.044 5.9706 15.056C5.46526 15.5583 4.65904 15.6717 3.97527 15.3364L1.65608 14.1984C1.28046 14.0145 1.12836 13.5726 1.32535 13.2372L3.02669 10.3423C3.20463 10.0394 3.60599 9.93353 3.9455 10.1003L5.07197 10.6528C5.13033 10.6831 5.19701 10.6934 5.26179 10.6821C5.32656 10.6708 5.38584 10.6386 5.43054 10.5904C6.53093 9.33126 7.27795 7.80296 7.59551 6.16117C7.60621 6.09618 7.59529 6.02948 7.56443 5.9713C7.53357 5.91312 7.48448 5.86667 7.42469 5.83907L6.30173 5.28876C5.96118 5.121 5.79889 4.73758 5.93119 4.40987Z" stroke="black" stroke-width="1.5" stroke-linecap="round" stroke-linejoin="round"/>
</svg>
