<svg width="32" height="28" viewBox="0 0 32 28" fill="none" xmlns="http://www.w3.org/2000/svg">
<path d="M26.0538 6.4375C26.9334 6.4375 27.3733 6.4375 27.7361 6.52544C28.8734 6.80109 29.7614 7.68906 30.037 8.82636C30.125 9.18917 30.125 9.629 30.125 10.5087V20.5C30.125 23.4462 30.125 24.9194 29.2097 25.8347C28.2944 26.75 26.8213 26.75 23.875 26.75H22.3125H9.8125H8.25C5.30372 26.75 3.83058 26.75 2.9153 25.8347C2 24.9194 2 23.4462 2 20.5V10.5087C2 9.629 2 9.18917 2.08794 8.82636C2.36361 7.68906 3.25158 6.80109 4.38886 6.52544C4.75167 6.4375 5.19152 6.4375 6.07117 6.4375C6.56403 6.4375 6.81045 6.4375 7.04078 6.40297C7.75367 6.29613 8.40769 5.94609 8.89203 5.41222C9.04852 5.23972 9.1852 5.03469 9.45859 4.62461L9.8125 4.09375C10.4318 3.16475 10.7415 2.70025 11.1648 2.38073C11.4233 2.18561 11.7106 2.03186 12.0164 1.925C12.5171 1.75 13.0753 1.75 14.1919 1.75H17.9331C19.0497 1.75 19.608 1.75 20.1086 1.925C20.4144 2.03186 20.7017 2.18561 20.9602 2.38073C21.3834 2.70025 21.6931 3.16475 22.3125 4.09375L22.6664 4.62461C22.9398 5.03469 23.0764 5.23972 23.233 5.41222C23.7173 5.94609 24.3714 6.29613 25.0842 6.40297C25.3145 6.4375 25.5609 6.4375 26.0538 6.4375Z" stroke="#6B80B0" stroke-width="2.5" stroke-linejoin="round"/>
<path d="M20.75 15.8125C20.75 18.4014 18.6514 20.5 16.0625 20.5C13.4736 20.5 11.375 18.4014 11.375 15.8125C11.375 13.2236 13.4736 11.125 16.0625 11.125C18.6514 11.125 20.75 13.2236 20.75 15.8125Z" stroke="#6B80B0" stroke-width="2.5"/>
<circle cx="15.9889" cy="15.7389" r="4.21346" fill="#6B80B0"/>
</svg>
