<svg width="12" height="13" viewBox="0 0 12 13" fill="none" xmlns="http://www.w3.org/2000/svg">
<path d="M10.5773 0H0.590909C0.43419 0 0.28389 0.0622563 0.173073 0.173073C0.0622563 0.28389 0 0.43419 0 0.590909V12.4091C0 12.5658 0.0622563 12.7161 0.173073 12.8269C0.28389 12.9377 0.43419 13 0.590909 13H8.21364C8.29132 12.9997 8.36819 12.9842 8.43995 12.9545C8.51178 12.9248 8.57704 12.8812 8.632 12.8263L10.9956 10.4626C11.0998 10.3478 11.1608 10.2003 11.1682 10.0455V0.590909C11.1682 0.43419 11.1059 0.28389 10.9951 0.173073C10.8843 0.0622563 10.734 0 10.5773 0ZM7.62273 10.0455V11.8182H1.18182V1.18182H9.98636V9.45455H8.21364C8.05692 9.45455 7.90662 9.5168 7.7958 9.62762C7.68498 9.73843 7.62273 9.88874 7.62273 10.0455ZM8.21364 5.31818C8.21364 5.4749 8.15138 5.6252 8.04056 5.73602C7.92975 5.84683 7.77945 5.90909 7.62273 5.90909H3.54545C3.38874 5.90909 3.23844 5.84683 3.12762 5.73602C3.0168 5.6252 2.95455 5.4749 2.95455 5.31818C2.95455 5.16146 3.0168 5.01116 3.12762 4.90035C3.23844 4.78953 3.38874 4.72727 3.54545 4.72727H7.62273C7.77945 4.72727 7.92975 4.78953 8.04056 4.90035C8.15138 5.01116 8.21364 5.16146 8.21364 5.31818ZM5.85 7.68182C5.85 7.83854 5.78774 7.98884 5.67693 8.09965C5.56611 8.21047 5.41581 8.27273 5.25909 8.27273H3.54545C3.38874 8.27273 3.23844 8.21047 3.12762 8.09965C3.0168 7.98884 2.95455 7.83854 2.95455 7.68182C2.95455 7.5251 3.0168 7.3748 3.12762 7.26398C3.23844 7.15317 3.38874 7.09091 3.54545 7.09091H5.25909C5.41581 7.09091 5.56611 7.15317 5.67693 7.26398C5.78774 7.3748 5.85 7.5251 5.85 7.68182Z" fill="#333333"/>
</svg>
