<svg width="13" height="14" viewBox="0 0 13 14" fill="none" xmlns="http://www.w3.org/2000/svg">
<path opacity="0.6" d="M10.8182 11.4545H3.81818C3.46818 11.4545 3.16867 11.33 2.91964 11.081C2.67018 10.8315 2.54545 10.5318 2.54545 10.1818V1.27273C2.54545 0.922727 2.67018 0.623 2.91964 0.373545C3.16867 0.124515 3.46818 0 3.81818 0H8.27273L12.0909 3.81818V10.1818C12.0909 10.5318 11.9664 10.8315 11.7174 11.081C11.4679 11.33 11.1682 11.4545 10.8182 11.4545ZM7.63636 4.45455V1.27273H3.81818V10.1818H10.8182V4.45455H7.63636ZM1.27273 14C0.922727 14 0.623212 13.8755 0.374182 13.6265C0.124727 13.377 0 13.0773 0 12.7273V3.81818H1.27273V12.7273H8.27273V14H1.27273ZM3.81818 1.27273V4.45455V1.27273V10.1818V1.27273Z" fill="black"/>
</svg>
