<svg width="15" height="18" viewBox="0 0 15 18" fill="none" xmlns="http://www.w3.org/2000/svg">
<path d="M13.3636 14.0909H5.36364C4.96364 14.0909 4.62133 13.9486 4.33673 13.664C4.05164 13.3789 3.90909 13.0364 3.90909 12.6364V2.45455C3.90909 2.05455 4.05164 1.712 4.33673 1.42691C4.62133 1.1423 4.96364 1 5.36364 1H10.4545L14.8182 5.36364V12.6364C14.8182 13.0364 14.6759 13.3789 14.3913 13.664C14.1062 13.9486 13.7636 14.0909 13.3636 14.0909ZM9.72727 6.09091V2.45455H5.36364V12.6364H13.3636V6.09091H9.72727ZM2.45455 17C2.05455 17 1.71224 16.8577 1.42764 16.5731C1.14255 16.288 1 15.9455 1 15.5455V5.36364H2.45455V15.5455H10.4545V17H2.45455Z" fill="black"/>
<path d="M5.36364 2.45455H9.72727V6.09091H13.3636V12.6364H5.36364V2.45455ZM5.36364 2.45455V6.09091M13.3636 14.0909H5.36364C4.96364 14.0909 4.62133 13.9486 4.33673 13.664C4.05164 13.3789 3.90909 13.0364 3.90909 12.6364V2.45455C3.90909 2.05455 4.05164 1.712 4.33673 1.42691C4.62133 1.1423 4.96364 1 5.36364 1H10.4545L14.8182 5.36364V12.6364C14.8182 13.0364 14.6759 13.3789 14.3913 13.664C14.1062 13.9486 13.7636 14.0909 13.3636 14.0909ZM2.45455 17C2.05455 17 1.71224 16.8577 1.42764 16.5731C1.14255 16.288 1 15.9455 1 15.5455V5.36364H2.45455V15.5455H10.4545V17H2.45455Z" stroke="black" stroke-width="0.3"/>
</svg>
