<svg width="19" height="16" viewBox="0 0 19 16" fill="none" xmlns="http://www.w3.org/2000/svg">
<path d="M3.7998 9.96875C3.62576 9.96875 3.45884 10.0379 3.33577 10.161C3.2127 10.284 3.14355 10.451 3.14355 10.625C3.14355 10.799 3.2127 10.966 3.33577 11.089C3.45884 11.2121 3.62576 11.2812 3.7998 11.2812H9.0498C9.22385 11.2812 9.39077 11.2121 9.51384 11.089C9.63691 10.966 9.70605 10.799 9.70605 10.625C9.70605 10.451 9.63691 10.284 9.51384 10.161C9.39077 10.0379 9.22385 9.96875 9.0498 9.96875H3.7998Z" fill="black" stroke="black" stroke-width="0.5"/>
<path fill-rule="evenodd" clip-rule="evenodd" d="M2.9248 1C2.22861 1 1.56093 1.27656 1.06865 1.76884C0.576366 2.26113 0.299805 2.92881 0.299805 3.625V12.375C0.299805 13.0712 0.576366 13.7389 1.06865 14.2312C1.56093 14.7234 2.22861 15 2.9248 15H15.1748C15.871 15 16.5387 14.7234 17.031 14.2312C17.5232 13.7389 17.7998 13.0712 17.7998 12.375V3.625C17.7998 2.92881 17.5232 2.26113 17.031 1.76884C16.5387 1.27656 15.871 1 15.1748 1H2.9248ZM15.1748 2.3125H2.9248C2.57671 2.3125 2.24287 2.45078 1.99673 2.69692C1.75059 2.94306 1.6123 3.2769 1.6123 3.625V4.71875H16.4873V3.625C16.4873 3.2769 16.349 2.94306 16.1029 2.69692C15.8567 2.45078 15.5229 2.3125 15.1748 2.3125ZM1.6123 12.375V6.03125H16.4873V12.375C16.4873 12.7231 16.349 13.0569 16.1029 13.3031C15.8567 13.5492 15.5229 13.6875 15.1748 13.6875H2.9248C2.57671 13.6875 2.24287 13.5492 1.99673 13.3031C1.75059 13.0569 1.6123 12.7231 1.6123 12.375Z" fill="black" stroke="black" stroke-width="0.5"/>
</svg>
