<svg width="18" height="16" viewBox="0 0 18 16" fill="none" xmlns="http://www.w3.org/2000/svg">
<path d="M7.11443 9.78267H10.6718V4.44667H13.3398L8.8931 0L4.44643 4.44667H7.11443V9.78267ZM17.1977 11.1451C17.0109 10.9459 15.765 9.61281 15.4092 9.26508C15.16 9.02612 14.8279 8.8929 14.4826 8.89334H12.92L15.6449 11.556H12.4931C12.4503 11.5552 12.408 11.5657 12.3705 11.5865C12.3331 11.6073 12.3017 11.6375 12.2797 11.6743L11.554 13.34H6.23221L5.50652 11.6743C5.48434 11.6377 5.45298 11.6075 5.41554 11.5867C5.3781 11.566 5.33588 11.5554 5.29308 11.556H2.14128L4.86531 8.89334H3.30364C2.95057 8.89334 2.61352 9.03474 2.37695 9.26508C2.02122 9.6137 0.775265 10.9468 0.588505 11.1451C0.153621 11.6085 -0.0856101 11.9775 0.0282246 12.4338L0.527141 15.1676C0.640975 15.6247 1.14167 16 1.64059 16H16.1474C16.6463 16 17.147 15.6247 17.2608 15.1676L17.7598 12.4338C17.8718 11.9775 17.6335 11.6085 17.1977 11.1451Z" fill="#8B9FCD"/>
</svg>
