<svg width="16" height="16" viewBox="0 0 16 16" fill="none" xmlns="http://www.w3.org/2000/svg">
<path d="M8.00002 12C7.86841 12.0008 7.73795 11.9756 7.61611 11.9258C7.49427 11.876 7.38346 11.8027 7.29002 11.71L3.29002 7.71003C3.12619 7.51873 3.04059 7.27265 3.05031 7.02097C3.06003 6.7693 3.16436 6.53056 3.34245 6.35246C3.52055 6.17437 3.75929 6.07004 4.01096 6.06032C4.26264 6.05059 4.50872 6.1362 4.70002 6.30003L8.00002 9.59003L11.29 6.30003C11.4813 6.1362 11.7274 6.05059 11.9791 6.06032C12.2307 6.07004 12.4695 6.17437 12.6476 6.35246C12.8257 6.53056 12.93 6.7693 12.9397 7.02097C12.9494 7.27265 12.8638 7.51873 12.7 7.71003L8.70002 11.71C8.51376 11.8948 8.26236 11.9989 8.00002 12Z" fill="black"/>
<path d="M8 12C7.73478 12 7.48043 11.8946 7.29289 11.7071C7.10536 11.5196 7 11.2652 7 11V1C7 0.734784 7.10536 0.48043 7.29289 0.292893C7.48043 0.105357 7.73478 0 8 0C8.26522 0 8.51957 0.105357 8.70711 0.292893C8.89464 0.48043 9 0.734784 9 1V11C9 11.2652 8.89464 11.5196 8.70711 11.7071C8.51957 11.8946 8.26522 12 8 12ZM15 16H1C0.734784 16 0.48043 15.8946 0.292893 15.7071C0.105357 15.5196 0 15.2652 0 15C0 14.7348 0.105357 14.4804 0.292893 14.2929C0.48043 14.1054 0.734784 14 1 14H15C15.2652 14 15.5196 14.1054 15.7071 14.2929C15.8946 14.4804 16 14.7348 16 15C16 15.2652 15.8946 15.5196 15.7071 15.7071C15.5196 15.8946 15.2652 16 15 16Z" fill="black"/>
</svg>
