<svg width="18" height="14" viewBox="0 0 18 14" fill="none" xmlns="http://www.w3.org/2000/svg">
<path d="M16.9397 6.72133C15.629 3.874 12.667 1 9.00033 1C5.33366 1 2.37166 3.874 1.06099 6.72133C1.02112 6.80882 1.00049 6.90385 1.00049 7C1.00049 7.09615 1.02112 7.19118 1.06099 7.27867C2.37166 10.126 5.33366 13 9.00033 13C12.667 13 15.629 10.126 16.9397 7.27867C16.9795 7.19118 17.0002 7.09615 17.0002 7C17.0002 6.90385 16.9795 6.80882 16.9397 6.72133ZM9.00033 11.6667C6.05966 11.6667 3.56966 9.29867 2.40699 7C3.56966 4.70133 6.05966 2.33333 9.00033 2.33333C11.941 2.33333 14.431 4.70133 15.5937 7C14.431 9.29867 11.941 11.6667 9.00033 11.6667Z" fill="black" stroke="black" stroke-width="0.5"/>
<path d="M9.00082 3.66663C8.34154 3.66663 7.69708 3.86212 7.14891 4.22839C6.60075 4.59467 6.17351 5.11526 5.92122 5.72435C5.66892 6.33344 5.60291 7.00366 5.73153 7.65026C5.86015 8.29686 6.17762 8.89081 6.64379 9.35698C7.10997 9.82316 7.70391 10.1406 8.35051 10.2692C8.99712 10.3979 9.66734 10.3319 10.2764 10.0796C10.8855 9.82727 11.4061 9.40002 11.7724 8.85186C12.1387 8.3037 12.3341 7.65923 12.3341 6.99996C12.3331 6.11623 11.9816 5.269 11.3567 4.64411C10.7318 4.01921 9.88455 3.66768 9.00082 3.66663ZM9.00082 8.99996C8.60525 8.99996 8.21857 8.88266 7.88967 8.6629C7.56078 8.44314 7.30443 8.13078 7.15306 7.76533C7.00168 7.39987 6.96207 6.99774 7.03924 6.60978C7.11642 6.22182 7.3069 5.86545 7.5866 5.58575C7.86631 5.30604 8.22267 5.11556 8.61063 5.03839C8.9986 4.96122 9.40073 5.00082 9.76618 5.1522C10.1316 5.30358 10.444 5.55992 10.6638 5.88882C10.8835 6.21772 11.0008 6.6044 11.0008 6.99996C11.0008 7.53039 10.7901 8.0391 10.415 8.41417C10.04 8.78925 9.53125 8.99996 9.00082 8.99996Z" fill="black" stroke="black" stroke-width="0.5"/>
</svg>
