<svg width="30" height="28" viewBox="0 0 30 28" fill="none" xmlns="http://www.w3.org/2000/svg">
<path d="M28.8475 3.18505C28.723 3.00716 28.5607 2.85905 28.3722 2.75133C28.1837 2.64362 27.9737 2.579 27.7573 2.56209L5.72322 0.0141867C5.29783 -0.0424749 4.86735 0.0719941 4.5263 0.332459C4.18524 0.592923 3.96149 0.978091 3.90418 1.40339L3.52417 4.55556H22.8359C23.7231 4.57723 24.5686 4.93682 25.1996 5.56089C25.8306 6.18495 26.1996 7.02639 26.231 7.91331V22.1853C26.231 22.1043 26.5986 22.0233 26.7606 21.8614C26.9251 21.7302 27.0578 21.5633 27.1484 21.3734C27.2391 21.1835 27.2854 20.9754 27.2838 20.765L29.215 4.3749C29.2374 4.16203 29.2164 3.94682 29.1532 3.7423C29.0901 3.53778 28.986 3.34821 28.8475 3.18505Z" fill="#82A393"/>
<path d="M9.56484 15.589C7.59541 15.4453 1.67017 20.483 1.67017 20.483V25.5363L5.07249 26.4989H21.1166L22.721 25.5363V21.3648C22.721 21.3648 19.3975 17.5472 17.9078 17.5142C16.4181 17.4813 14.699 19.7604 14.699 19.7604C14.699 19.7604 11.5343 15.7326 9.56484 15.589Z" fill="#82A393"/>
<path d="M1.1 15.3954C1.1 13.2165 1.10234 11.693 1.257 10.5427C1.4074 9.42397 1.68349 8.82424 2.11226 8.39547C2.54104 7.96669 3.14077 7.69061 4.25947 7.5402C5.40982 7.38554 6.9333 7.3832 9.11216 7.3832H15.111C17.2898 7.3832 18.8133 7.38554 19.9637 7.5402C21.0824 7.69061 21.6821 7.96669 22.1109 8.39546C22.5397 8.82424 22.8157 9.42397 22.9662 10.5427C23.1208 11.693 23.1231 13.2165 23.1231 15.3954V18.8884C23.1231 21.0672 23.1208 22.5907 22.9662 23.741C22.8157 24.8597 22.5397 25.4595 22.1109 25.8882C21.6821 26.317 21.0824 26.5931 19.9637 26.7435C18.8133 26.8982 17.2898 26.9005 15.111 26.9005H9.11216C6.9333 26.9005 5.40982 26.8982 4.25947 26.7435C3.14077 26.5931 2.54104 26.317 2.11226 25.8882C1.68349 25.4595 1.4074 24.8597 1.257 23.741C1.10234 22.5907 1.1 21.0672 1.1 18.8884V15.3954Z" stroke="#82A393" stroke-width="2.2"/>
<path d="M14.1436 10.9233C14.4127 10.7434 14.7291 10.6475 15.0528 10.6475C15.4868 10.6475 15.903 10.8199 16.2099 11.1268C16.5168 11.4337 16.6893 11.8499 16.6893 12.284C16.6893 12.6076 16.5933 12.924 16.4135 13.1932C16.2336 13.4623 15.9781 13.672 15.679 13.7959C15.38 13.9198 15.0509 13.9522 14.7335 13.889C14.416 13.8259 14.1244 13.67 13.8956 13.4411C13.6667 13.2123 13.5109 12.9207 13.4477 12.6032C13.3846 12.2858 13.417 11.9567 13.5408 11.6577C13.6647 11.3587 13.8744 11.1031 14.1436 10.9233Z" fill="#82A393"/>
</svg>
