<svg width="17" height="17" viewBox="0 0 17 17" fill="none" xmlns="http://www.w3.org/2000/svg">
<path opacity="0.6" d="M8.39934 0.400391C3.98041 0.400391 0.398926 3.98187 0.398926 8.39997C0.398816 9.45063 0.605679 10.491 1.0077 11.4617C1.40972 12.4324 1.99902 13.3144 2.74195 14.0574C3.48488 14.8003 4.36688 15.3896 5.33759 15.7916C6.30829 16.1936 7.34868 16.4005 8.39934 16.4004C12.8166 16.4004 16.3989 12.8189 16.3989 8.39997C16.3989 3.98187 12.8166 0.400391 8.39934 0.400391ZM9.14597 3.28857C9.92593 3.28857 10.1551 3.74105 10.1551 4.25852C10.1551 4.90432 9.63844 5.50179 8.75599 5.50179C8.0177 5.50179 7.66605 5.13098 7.68771 4.51684C7.68771 3.99937 8.12019 3.28857 9.14597 3.28857ZM7.14774 13.1914C6.61444 13.1914 6.22529 12.8672 6.59777 11.4465L7.20857 8.92578C7.3144 8.52247 7.3319 8.36081 7.20857 8.36081C7.04941 8.36081 6.35695 8.63913 5.94864 8.91411L5.68282 8.4783C6.97858 7.39586 8.4685 6.76089 9.10597 6.76089C9.63928 6.76089 9.72761 7.39086 9.46179 8.36081L8.76182 11.0107C8.63766 11.479 8.69099 11.6406 8.81515 11.6406C8.97514 11.6406 9.49845 11.4473 10.0134 11.0415L10.3151 11.4465C9.05431 12.7064 7.68021 13.1914 7.14774 13.1914Z" fill="#4967AA"/>
</svg>
