<svg width="11" height="10" viewBox="0 0 11 10" fill="none" xmlns="http://www.w3.org/2000/svg">
<path fill-rule="evenodd" clip-rule="evenodd" d="M7.95646 6.32421C7.90682 6.31153 7.85484 6.31109 7.80499 6.32293C7.75514 6.33477 7.70891 6.35854 7.67028 6.39219C7.20835 6.78673 6.57038 7.2071 6.29519 7.25044C4.44956 6.34826 3.41883 4.61663 3.37994 4.28829C3.35738 4.10364 3.78042 3.45528 4.26698 2.92804C4.32844 2.86125 4.35961 2.77041 4.351 2.67986C4.2272 1.25668 2.74257 0.558446 2.67993 0.529946C2.62118 0.502349 2.55535 0.493538 2.49142 0.504713C0.777303 0.789112 0.519325 1.78659 0.509232 1.82815C0.494982 1.88634 0.497357 1.9466 0.515466 2.003C2.55999 8.34588 6.80877 9.52178 8.20523 9.9083C8.313 9.93828 8.40146 9.96203 8.46885 9.98429C8.54578 10.0092 8.62927 10.0043 8.70278 9.97064C8.74553 9.95105 9.75488 9.47576 10.0016 7.92492C10.0126 7.85753 10.0016 7.78747 9.97041 7.72661C9.94844 7.68387 9.42061 6.67927 7.95646 6.32421Z" fill="#5E6964"/>
</svg>
