<svg width="40" height="40" viewBox="0 0 40 40" fill="none" xmlns="http://www.w3.org/2000/svg">
<path d="M22.9997 37.0018C19.0615 37.6966 15.0042 37.0027 11.5208 35.0386C8.03732 33.0745 5.34373 29.9621 3.90001 26.2328C2.45628 22.5035 2.35198 18.3886 3.6049 14.5909C4.85783 10.7933 7.39027 7.54832 10.7697 5.41027C14.1492 3.27223 18.1661 2.37368 22.1345 2.86809C26.1028 3.3625 29.7764 5.2192 32.528 8.1211C35.2795 11.023 36.9384 14.7901 37.2211 18.7791C37.5039 22.7681 36.3932 26.7316 34.0785 29.9927C33.9786 30.1496 33.8478 30.2845 33.6941 30.3893C33.5404 30.4942 33.3671 30.5667 33.1845 30.6025C33.002 30.6383 32.8141 30.6366 32.6322 30.5976C32.4503 30.5586 32.2782 30.4831 32.1264 30.3756C31.9746 30.2681 31.8462 30.1309 31.749 29.9722C31.6518 29.8136 31.5879 29.6369 31.5611 29.4528C31.5342 29.2688 31.5451 29.0811 31.5929 28.9014C31.6408 28.7216 31.7247 28.5535 31.8395 28.4071C33.7871 25.6657 34.7226 22.3331 34.4862 18.9786C34.2498 15.6241 32.8561 12.4557 30.5433 10.0146C28.2305 7.57339 25.1419 6.01085 21.805 5.59381C18.4682 5.17677 15.09 5.93109 12.2475 7.72795C9.405 9.52481 7.27446 12.2527 6.21973 15.4459C5.16501 18.639 5.25153 22.0993 6.46452 25.2357C7.67751 28.3721 9.94172 30.9902 12.8705 32.6427C15.7992 34.2953 19.2109 34.8799 22.5227 34.2966C23.8489 34.0632 25.1367 33.6484 26.3498 33.0639C26.5122 32.9853 26.6886 32.9396 26.8687 32.9291C27.0488 32.9187 27.2292 32.9439 27.3996 33.0032C27.57 33.0625 27.7271 33.1548 27.8618 33.2748C27.9965 33.3948 28.1063 33.5402 28.1848 33.7026C28.2634 33.8651 28.3092 34.0414 28.3196 34.2215C28.33 34.4016 28.3048 34.582 28.2455 34.7524C28.1862 34.9228 28.0939 35.0799 27.9739 35.2146C27.8539 35.3493 27.7085 35.4591 27.5461 35.5376C26.1051 36.2322 24.5752 36.7249 22.9997 37.0018Z" fill="white"/>
<path d="M15.7369 28.6803C15.4956 28.6799 15.2588 28.6159 15.0501 28.4949C14.8415 28.3745 14.6683 28.2013 14.5478 27.9928C14.4272 27.7843 14.3637 27.5477 14.3634 27.3069V12.6933C14.3637 12.4523 14.4273 12.2156 14.5479 12.007C14.6686 11.7984 14.842 11.6253 15.0507 11.5049C15.2595 11.3845 15.4962 11.3212 15.7372 11.3212C15.9782 11.3213 16.2149 11.3847 16.4236 11.5052L29.0731 18.812C29.2813 18.9328 29.454 19.1061 29.5741 19.3146C29.6942 19.5231 29.7574 19.7595 29.7574 20.0001C29.7574 20.2407 29.6942 20.4771 29.5741 20.6856C29.454 20.8941 29.2813 21.0674 29.0731 21.1881L16.4236 28.4949C16.2149 28.6159 15.9781 28.6799 15.7369 28.6803ZM17.1103 15.0694V24.9308L25.6395 20.0001L17.1103 15.0694Z" fill="white"/>
</svg>
