<svg width="16" height="17" viewBox="0 0 16 17" fill="none" xmlns="http://www.w3.org/2000/svg">
<path d="M3.66235 11.0484C4.32623 11.0446 4.96476 10.7884 5.45273 10.3301L10.2018 13.0953C10.1413 13.3087 10.1107 13.5297 10.1108 13.7518C10.1059 14.3787 10.3133 14.9881 10.6981 15.4774C11.0829 15.9668 11.6215 16.3062 12.2233 16.4385C12.8251 16.5709 13.4534 16.488 14.0022 16.204C14.551 15.9199 14.987 15.452 15.2366 14.879C15.4863 14.306 15.5344 13.6629 15.3728 13.058C15.2113 12.4531 14.8499 11.9234 14.3497 11.558C13.8494 11.1926 13.2408 11.0138 12.6262 11.0519C12.0116 11.0899 11.4287 11.3424 10.9756 11.7668L6.22654 9.00157C6.28386 8.81123 6.3145 8.61361 6.31758 8.41455L10.9832 5.6957C11.4339 6.11035 12.0109 6.35462 12.6175 6.38754C13.224 6.42045 13.8233 6.24001 14.3147 5.87648C14.8061 5.51295 15.1598 4.98843 15.3165 4.3909C15.4731 3.79337 15.4232 3.15916 15.1751 2.59465C14.927 2.03013 14.4958 1.56965 13.9538 1.29041C13.4118 1.01118 12.792 0.930181 12.1983 1.06101C11.6046 1.19183 11.0732 1.52652 10.6931 2.00895C10.313 2.49137 10.1074 3.09219 10.1108 3.71063C10.1133 3.93255 10.1439 4.1532 10.2018 4.36717L5.88516 6.87747C5.63504 6.48351 5.28854 6.1626 4.87972 5.94627C4.4709 5.72994 4.01383 5.62564 3.55343 5.64363C3.09303 5.66161 2.64515 5.80126 2.25381 6.04885C1.86247 6.29644 1.54115 6.64345 1.32141 7.05576C1.10168 7.46807 0.991107 7.9315 1.00056 8.4005C1.01001 8.8695 1.13916 9.32792 1.37532 9.73071C1.61148 10.1335 1.94651 10.4668 2.3475 10.6978C2.74848 10.9289 3.20161 11.0497 3.66235 11.0484ZM12.766 12.5932C12.9911 12.5932 13.2111 12.6612 13.3982 12.7885C13.5853 12.9158 13.7312 13.0968 13.8173 13.3085C13.9035 13.5202 13.926 13.7531 13.8821 13.9779C13.8382 14.2026 13.7298 14.4091 13.5707 14.5711C13.4115 14.7331 13.2087 14.8435 12.988 14.8882C12.7673 14.9329 12.5385 14.9099 12.3305 14.8222C12.1226 14.7346 11.9449 14.5861 11.8198 14.3955C11.6948 14.205 11.628 13.981 11.628 13.7518C11.628 13.4446 11.7479 13.1499 11.9613 12.9326C12.1748 12.7153 12.4642 12.5932 12.766 12.5932ZM12.766 2.55203C12.9911 2.55203 13.2111 2.61998 13.3982 2.74729C13.5853 2.8746 13.7312 3.05555 13.8173 3.26725C13.9035 3.47896 13.926 3.71192 13.8821 3.93666C13.8382 4.16141 13.7298 4.36785 13.5707 4.52988C13.4115 4.69192 13.2087 4.80226 12.988 4.84697C12.7673 4.89167 12.5385 4.86873 12.3305 4.78104C12.1226 4.69335 11.9449 4.54485 11.8198 4.35431C11.6948 4.16378 11.628 3.93978 11.628 3.71063C11.628 3.40335 11.7479 3.10866 11.9613 2.89138C12.1748 2.6741 12.4642 2.55203 12.766 2.55203ZM3.66235 7.18643C3.88741 7.18643 4.10743 7.25438 4.29456 7.38169C4.4817 7.509 4.62755 7.68995 4.71368 7.90166C4.79981 8.11336 4.82235 8.34632 4.77844 8.57107C4.73453 8.79581 4.62615 9.00225 4.467 9.16429C4.30786 9.32632 4.10509 9.43667 3.88435 9.48137C3.66361 9.52608 3.4348 9.50313 3.22687 9.41544C3.01894 9.32775 2.84121 9.17925 2.71617 8.98872C2.59113 8.79819 2.52439 8.57418 2.52439 8.34503C2.52439 8.03775 2.64428 7.74306 2.85769 7.52578C3.0711 7.3085 3.36054 7.18643 3.66235 7.18643Z" fill="black" stroke="black" stroke-width="0.3"/>
</svg>
