<svg width="18" height="17" viewBox="0 0 18 17" fill="none" xmlns="http://www.w3.org/2000/svg">
<path d="M14.0941 10.5695V14.2781C14.0941 15.3588 13.2146 16.2383 12.1339 16.2383H2.96019C1.87947 16.2383 1 15.3588 1 14.2781V2.19847C1 1.11775 1.87947 0.238281 2.96019 0.238281H12.1339C13.2146 0.238281 14.0941 1.11775 14.0941 2.19847V6.03102L14.9461 5.59324C15.2649 5.42728 15.6602 5.55535 15.8256 5.87616L17.0735 8.30745C17.1526 8.461 17.167 8.64068 17.114 8.80534C17.0611 8.97065 16.9448 9.10786 16.79 9.18692L14.0941 10.5695ZM12.7873 6.70206V2.19847C12.7873 1.83845 12.4945 1.54507 12.1339 1.54507H2.96019C2.59951 1.54507 2.30679 1.83845 2.30679 2.19847V14.2781C2.30679 14.6381 2.59951 14.9315 2.96019 14.9315H12.1339C12.4945 14.9315 12.7873 14.6381 12.7873 14.2781V11.2497L9.12563 13.1262C9.05114 13.1648 8.97339 13.1877 8.89498 13.1955L8.89433 13.1962L6.30884 13.534C6.25592 13.5412 6.20365 13.5444 6.15137 13.5444C5.71687 13.5444 5.32221 13.3066 5.11835 12.91C4.88967 12.4657 4.96285 11.9429 5.30392 11.5777L7.06482 9.69592C7.0903 9.66586 7.11905 9.63776 7.14976 9.61294C7.19485 9.57569 7.24385 9.54564 7.29482 9.52277L12.7873 6.70206ZM6.52185 12.188L7.80316 12.02L7.40393 11.2451L6.52185 12.188ZM13.8242 7.63772C13.7974 7.65732 13.7693 7.67496 13.7393 7.69065L8.46047 10.4035L9.10603 11.6587L15.6125 8.32248L14.9605 7.05424L13.8242 7.63772ZM10.4612 6.82816H4.63288C4.27155 6.82816 3.97949 6.53544 3.97949 6.17477C3.97949 5.81409 4.27155 5.52137 4.63288 5.52137H10.4612C10.8225 5.52137 11.1146 5.81409 11.1146 6.17477C11.1146 6.53544 10.8225 6.82816 10.4612 6.82816ZM10.0678 4.56415H5.02688C4.66555 4.56415 4.37348 4.27142 4.37348 3.91075C4.37348 3.55007 4.66555 3.25735 5.02688 3.25735H10.0678C10.4292 3.25735 10.7212 3.55007 10.7212 3.91075C10.7212 4.27142 10.4292 4.56415 10.0678 4.56415Z" fill="black" stroke="black" stroke-width="0.3"/>
</svg>
