<svg width="32" height="32" viewBox="0 0 32 32" fill="none" xmlns="http://www.w3.org/2000/svg">
<path d="M16 32C24.8366 32 32 24.8366 32 16C32 7.16344 24.8366 0 16 0C7.16344 0 0 7.16344 0 16C0 24.8366 7.16344 32 16 32Z" fill="#F1F5FD"/>
<path d="M16.6156 10.6449C13.3389 12.5367 10.681 17.1375 10.6917 20.9055C10.7023 24.6707 13.3777 26.1954 16.6543 24.3036C19.9336 22.4103 22.5915 17.8065 22.5808 14.0413C22.5702 10.2732 19.8949 8.75164 16.6156 10.6449ZM21.0388 12.1054L20.8938 11.9047L21.4282 11.2317L21.5757 11.4281L21.0388 12.1054ZM11.8416 23.6693L11.6967 23.4686L12.2336 22.7941L12.3785 22.9918L11.8416 23.6693ZM19.4052 21.5451L19.0842 21.1113L19.3309 20.803L19.6492 21.2383L19.4052 21.5451ZM13.9415 14.0936L13.6206 13.6628L13.8672 13.3515L14.1856 13.7868L13.9415 14.0936ZM19.0607 10.9752L18.8054 10.9715L19.0893 10.1676L19.3446 10.1713L19.0607 10.9752ZM21.609 17.7131L21.0521 17.7058L21.1825 17.3372L21.7394 17.3474L21.609 17.7131ZM11.6634 17.1835L12.2177 17.1923L12.0873 17.5609L11.5329 17.5521L11.6634 17.1835ZM14.1805 24.7305L13.9278 24.7253L14.2117 23.9244L14.4669 23.9281L14.1805 24.7305ZM22.2972 14.0156L22.2981 14.3439L21.6726 14.705L21.6717 14.3767L22.2972 14.0156ZM11.6006 20.5201L10.9752 20.8812L10.9742 20.5529L11.5997 20.1917L11.6006 20.5201ZM16.5118 24.0363L16.5097 23.3175L16.7955 23.1526L16.7975 23.8713L16.5118 24.0363ZM16.7606 10.8603L16.7626 11.579L16.4769 11.744L16.4749 11.0253L16.7606 10.8603Z" fill="white"/>
<path d="M16.6127 9.586C20.4041 7.39699 23.4875 9.1541 23.4998 13.5107C23.5122 17.8675 20.4488 23.1704 16.6574 25.3594C12.8685 27.5469 9.78517 25.7928 9.77282 21.436C9.76048 17.0794 12.8238 11.7735 16.6127 9.586ZM16.6544 24.3036C19.9336 22.4103 22.5916 17.8065 22.5809 14.0413C22.5702 10.2733 19.8949 8.75164 16.6157 10.6449C13.339 12.5367 10.681 17.1375 10.6917 20.9055C10.7024 24.6707 13.3777 26.1954 16.6544 24.3036Z" fill="#D9AE6D"/>
<path d="M7.49996 20.1158C7.50397 22.2808 8.26995 23.8007 9.49959 24.5182L11.7734 25.8365C10.5437 25.1229 9.77775 23.5991 9.77373 21.4341C9.76164 17.0802 12.8216 11.7746 16.6112 9.58545C18.5221 8.48485 20.2476 8.38407 21.4973 9.10572L19.2236 7.78744C17.9738 7.06185 16.2483 7.16264 14.3374 8.26324C10.5518 10.4522 7.48786 15.7577 7.49996 20.1158Z" fill="#FECD82"/>
<path d="M21.1827 17.3372L21.0524 17.706L21.609 17.7131L21.7397 17.3473L21.1827 17.3372Z" fill="#485F69"/>
<path d="M21.4282 11.2317L20.8936 11.9046L21.0387 12.1055L21.5758 11.4284L21.4282 11.2317Z" fill="#485F69"/>
<path d="M16.5096 23.3174L16.5117 24.0364L16.7976 23.8715L16.7955 23.1525L16.5096 23.3174Z" fill="#485F69"/>
<path d="M19.3308 20.8031L19.0842 21.1114L19.4052 21.5449L19.6492 21.2383L19.3308 20.8031Z" fill="#485F69"/>
<path d="M21.6718 14.3767L21.6726 14.7053L22.2982 14.3441L22.2973 14.0155L21.6718 14.3767Z" fill="#485F69"/>
<path d="M14.2119 23.9243L13.9281 24.7254L14.1806 24.7304L14.4669 23.9281L14.2119 23.9243Z" fill="#485F69"/>
<path d="M12.2338 22.7942L11.6967 23.4683L11.8417 23.6692L12.3788 22.9917L12.2338 22.7942Z" fill="#485F69"/>
<path d="M19.0893 10.1676L18.8055 10.9716L19.0605 10.9754L19.3443 10.1714L19.0893 10.1676Z" fill="#485F69"/>
<path d="M10.9742 20.5528L10.975 20.8814L11.6005 20.5202L11.5997 20.192L10.9742 20.5528Z" fill="#485F69"/>
<path d="M16.4749 11.0253L16.477 11.7439L16.7625 11.5789L16.7608 10.8604L16.4749 11.0253Z" fill="#485F69"/>
<path d="M11.6635 17.1836L11.5329 17.552L12.0873 17.5608L12.2176 17.1921L11.6635 17.1836Z" fill="#485F69"/>
<path d="M13.867 13.3514L13.6204 13.6627L13.9414 14.0937L14.1854 13.7871L13.867 13.3514Z" fill="#485F69"/>
<path d="M15.6827 8.33949L15.6857 8.53492C15.6861 8.65136 15.7626 8.76758 15.9155 8.85648C16.2234 9.03534 16.7236 9.03534 17.0335 8.85648C17.1894 8.76644 17.2672 8.64835 17.2669 8.5304L17.2639 8.33496C17.2642 8.45287 17.1863 8.571 17.0304 8.661C16.7206 8.83986 16.2203 8.8399 15.9125 8.661C15.7596 8.57214 15.683 8.45588 15.6827 8.33949Z" fill="#485F69"/>
<path d="M15.9163 8.01342C15.6065 8.19227 15.6049 8.48211 15.9127 8.66097C16.2205 8.83987 16.7208 8.83983 17.0306 8.66097C17.3404 8.48211 17.3421 8.19232 17.0342 8.01342C16.7265 7.83456 16.2261 7.83456 15.9163 8.01342Z" fill="#56707B"/>
<path d="M16.0452 6.97511L16.0468 8.14955C16.047 8.21274 16.0886 8.27584 16.1715 8.3241C16.3386 8.42116 16.6102 8.42116 16.7783 8.32405C16.8629 8.27521 16.9052 8.21113 16.905 8.1471L16.9034 6.97266C16.9035 7.03669 16.8613 7.10076 16.7767 7.14961C16.6085 7.24672 16.3369 7.24672 16.1699 7.14961C16.0869 7.1014 16.0453 7.0383 16.0452 6.97511Z" fill="#B0B8BC"/>
<path d="M15.7899 6.72593C15.4099 6.94531 15.408 7.30074 15.7855 7.52012C16.163 7.73953 16.7766 7.73949 17.1566 7.52012C17.5365 7.30074 17.5386 6.94531 17.1611 6.72593C16.7835 6.50656 16.1699 6.50656 15.7899 6.72593Z" fill="#DDE4E7"/>
<path d="M15.0383 6.83458L15.0439 7.18904C15.0445 7.40017 15.1833 7.611 15.4606 7.77218C16.0188 8.09657 16.9262 8.09657 17.4881 7.77218C17.7708 7.60893 17.912 7.39475 17.9114 7.18088L17.9059 6.82642C17.9065 7.04025 17.7653 7.25447 17.4825 7.41772C16.9207 7.74211 16.0133 7.74211 15.4551 7.41772C15.1778 7.25654 15.0389 7.04571 15.0383 6.83458Z" fill="#CB4844"/>
<path d="M15.4617 6.24327C14.8999 6.56766 14.897 7.09328 15.4552 7.41771C16.0134 7.7421 16.9208 7.7421 17.4826 7.41771C18.0445 7.09332 18.0475 6.5677 17.4893 6.24331C16.9311 5.91892 16.0236 5.91888 15.4617 6.24327Z" fill="#EE5550"/>
<path d="M13.0022 10.8746L13.142 10.979C13.2244 11.0422 13.3483 11.0515 13.4944 10.9919C13.7886 10.8719 14.0612 10.5184 14.1037 10.202C14.1251 10.0428 14.0841 9.92342 14.0006 9.85938L13.8608 9.755C13.9443 9.81904 13.9853 9.93843 13.9639 10.0976C13.9215 10.414 13.6488 10.7675 13.3547 10.8875C13.2085 10.9471 13.0847 10.9379 13.0022 10.8746Z" fill="#485F69"/>
<path d="M12.8991 10.5321C12.8567 10.8484 13.0606 11.0076 13.3547 10.8876C13.6488 10.7676 13.9215 10.4141 13.964 10.0977C14.0065 9.78126 13.8026 9.62215 13.5085 9.74214C13.2143 9.86213 12.9416 10.2157 12.8991 10.5321Z" fill="#56707B"/>
<path d="M12.4745 10.348L13.025 10.7697C13.0964 10.8244 13.2037 10.8325 13.3302 10.7808C13.5849 10.6769 13.8211 10.3708 13.8578 10.0968C13.8763 9.95894 13.8408 9.85557 13.7685 9.80012L13.218 9.37842C13.2903 9.43386 13.3258 9.53727 13.3073 9.67515C13.2705 9.94912 13.0344 10.2552 12.7797 10.3592C12.6531 10.4108 12.5459 10.4027 12.4745 10.348Z" fill="#6B993F"/>
<path d="M12.385 10.0513C12.3482 10.3253 12.5248 10.463 12.7796 10.3592C13.0342 10.2552 13.2704 9.94913 13.3072 9.67515C13.344 9.40117 13.1674 9.26338 12.9127 9.36725C12.658 9.47117 12.4218 9.77733 12.385 10.0513Z" fill="#7EB442"/>
<path d="M16.6156 10.6449C13.3389 12.5367 10.681 17.1375 10.6917 20.9055C10.7023 24.6707 13.3777 26.1954 16.6543 24.3036C19.9336 22.4103 22.5915 17.8065 22.5808 14.0413C22.5702 10.2732 19.8949 8.75164 16.6156 10.6449ZM21.0388 12.1054L20.8938 11.9047L21.4282 11.2317L21.5757 11.4281L21.0388 12.1054ZM11.8416 23.6693L11.6967 23.4686L12.2336 22.7941L12.3785 22.9918L11.8416 23.6693ZM19.4052 21.5451L19.0842 21.1113L19.3309 20.803L19.6492 21.2383L19.4052 21.5451ZM13.9415 14.0936L13.6206 13.6628L13.8672 13.3515L14.1856 13.7868L13.9415 14.0936ZM19.0607 10.9752L18.8054 10.9715L19.0893 10.1676L19.3446 10.1713L19.0607 10.9752ZM21.609 17.7131L21.0521 17.7058L21.1825 17.3372L21.7394 17.3474L21.609 17.7131ZM11.6634 17.1835L12.2177 17.1923L12.0873 17.5609L11.5329 17.5521L11.6634 17.1835ZM14.1805 24.7305L13.9278 24.7253L14.2117 23.9244L14.4669 23.9281L14.1805 24.7305ZM22.2972 14.0156L22.2981 14.3439L21.6726 14.705L21.6717 14.3767L22.2972 14.0156ZM11.6006 20.5201L10.9752 20.8812L10.9742 20.5529L11.5997 20.1917L11.6006 20.5201ZM16.5118 24.0363L16.5097 23.3175L16.7955 23.1526L16.7975 23.8713L16.5118 24.0363ZM16.7606 10.8603L16.7626 11.579L16.4769 11.744L16.4749 11.0253L16.7606 10.8603Z" fill="white"/>
<path d="M16.6127 9.586C20.4041 7.39699 23.4875 9.1541 23.4998 13.5107C23.5122 17.8675 20.4488 23.1704 16.6574 25.3594C12.8685 27.5469 9.78517 25.7928 9.77282 21.436C9.76048 17.0794 12.8238 11.7735 16.6127 9.586ZM16.6544 24.3036C19.9336 22.4103 22.5916 17.8065 22.5809 14.0413C22.5702 10.2733 19.8949 8.75164 16.6157 10.6449C13.339 12.5367 10.681 17.1375 10.6917 20.9055C10.7024 24.6707 13.3777 26.1954 16.6544 24.3036Z" fill="#8FA2CD"/>
<path d="M7.49996 20.1158C7.50397 22.2808 8.26995 23.8007 9.49959 24.5182L11.7734 25.8365C10.5437 25.1229 9.77775 23.5991 9.77373 21.4341C9.76164 17.0802 12.8216 11.7746 16.6112 9.58545C18.5221 8.48485 20.2476 8.38407 21.4973 9.10572L19.2236 7.78744C17.9738 7.06185 16.2483 7.16264 14.3374 8.26324C10.5518 10.4522 7.48786 15.7577 7.49996 20.1158Z" fill="#B4C7F2"/>
<path d="M21.1826 17.3372L21.0524 17.706L21.6089 17.7131L21.7396 17.3473L21.1826 17.3372Z" fill="#485F69"/>
<path d="M21.4281 11.2317L20.8936 11.9046L21.0386 12.1055L21.5757 11.4284L21.4281 11.2317Z" fill="#485F69"/>
<path d="M16.5093 23.3174L16.5114 24.0364L16.7973 23.8715L16.7952 23.1525L16.5093 23.3174Z" fill="#485F69"/>
<path d="M19.3309 20.8031L19.0844 21.1114L19.4054 21.5449L19.6494 21.2383L19.3309 20.8031Z" fill="#485F69"/>
<path d="M21.6718 14.3767L21.6726 14.7053L22.2982 14.3441L22.2973 14.0155L21.6718 14.3767Z" fill="#485F69"/>
<path d="M14.2116 23.9243L13.9278 24.7254L14.1803 24.7304L14.4666 23.9281L14.2116 23.9243Z" fill="#485F69"/>
<path d="M12.2337 22.7943L11.6966 23.4685L11.8417 23.6694L12.3788 22.9918L12.2337 22.7943Z" fill="#485F69"/>
<path d="M19.0895 10.1676L18.8057 10.9716L19.0607 10.9754L19.3445 10.1714L19.0895 10.1676Z" fill="#485F69"/>
<path d="M10.9743 20.5528L10.9752 20.8814L11.6007 20.5202L11.5999 20.192L10.9743 20.5528Z" fill="#485F69"/>
<path d="M16.4746 11.0253L16.4767 11.7439L16.7622 11.5789L16.7605 10.8604L16.4746 11.0253Z" fill="#485F69"/>
<path d="M11.6635 17.1836L11.5328 17.552L12.0873 17.5608L12.2175 17.1921L11.6635 17.1836Z" fill="#485F69"/>
<path d="M13.8671 13.3514L13.6206 13.6627L13.9416 14.0937L14.1856 13.7871L13.8671 13.3514Z" fill="#485F69"/>
<path d="M15.6826 8.33949L15.6857 8.53492C15.686 8.65136 15.7626 8.76758 15.9155 8.85648C16.2233 9.03534 16.7236 9.03534 17.0334 8.85648C17.1893 8.76644 17.2672 8.64835 17.2668 8.5304L17.2638 8.33496C17.2641 8.45287 17.1863 8.571 17.0304 8.661C16.7206 8.83986 16.2203 8.8399 15.9124 8.661C15.7595 8.57214 15.683 8.45588 15.6826 8.33949Z" fill="#485F69"/>
<path d="M15.9162 8.01342C15.6064 8.19227 15.6048 8.48211 15.9126 8.66097C16.2204 8.83987 16.7208 8.83983 17.0306 8.66097C17.3403 8.48211 17.342 8.19232 17.0342 8.01342C16.7264 7.83456 16.226 7.83456 15.9162 8.01342Z" fill="#56707B"/>
<path d="M16.0451 6.97511L16.0468 8.14955C16.0469 8.21274 16.0885 8.27584 16.1715 8.3241C16.3385 8.42116 16.6101 8.42116 16.7783 8.32405C16.8629 8.27521 16.9051 8.21113 16.905 8.1471L16.9033 6.97266C16.9035 7.03669 16.8612 7.10076 16.7766 7.14961C16.6084 7.24672 16.3369 7.24672 16.1698 7.14961C16.0868 7.1014 16.0453 7.0383 16.0451 6.97511Z" fill="white"/>
<path d="M15.7898 6.72593C15.4099 6.94531 15.4079 7.30074 15.7854 7.52012C16.1629 7.73953 16.7765 7.73949 17.1565 7.52012C17.5365 7.30074 17.5385 6.94531 17.161 6.72593C16.7835 6.50656 16.1698 6.50656 15.7898 6.72593Z" fill="#DDE4E7"/>
<path d="M15.0383 6.83458L15.0439 7.18904C15.0445 7.40017 15.1833 7.611 15.4606 7.77218C16.0188 8.09657 16.9262 8.09657 17.4881 7.77218C17.7708 7.60893 17.912 7.39475 17.9114 7.18088L17.9059 6.82642C17.9065 7.04025 17.7653 7.25447 17.4825 7.41772C16.9207 7.74211 16.0133 7.74211 15.4551 7.41772C15.1778 7.25654 15.0389 7.04571 15.0383 6.83458Z" fill="#CB4844"/>
<path d="M15.4616 6.24327C14.8998 6.56766 14.8968 7.09328 15.4551 7.41771C16.0133 7.7421 16.9207 7.7421 17.4825 7.41771C18.0444 7.09332 18.0474 6.5677 17.4892 6.24331C16.9309 5.91892 16.0235 5.91888 15.4616 6.24327Z" fill="#EE5550"/>
<path d="M13.0022 10.8748L13.142 10.9791C13.2244 11.0424 13.3483 11.0516 13.4944 10.992C13.7886 10.8721 14.0612 10.5185 14.1037 10.2021C14.1251 10.0429 14.0841 9.92354 14.0006 9.85951L13.8608 9.75513C13.9443 9.81916 13.9853 9.93855 13.9639 10.0977C13.9215 10.4141 13.6488 10.7677 13.3547 10.8877C13.2085 10.9472 13.0847 10.938 13.0022 10.8748Z" fill="#485F69"/>
<path d="M12.8992 10.5321C12.8567 10.8484 13.0606 11.0076 13.3548 10.8876C13.6489 10.7676 13.9216 10.4141 13.9641 10.0977C14.0065 9.78126 13.8027 9.62215 13.5085 9.74214C13.2144 9.86213 12.9417 10.2157 12.8992 10.5321Z" fill="#56707B"/>
<path d="M12.4745 10.348L13.0251 10.7697C13.0965 10.8244 13.2037 10.8325 13.3303 10.7808C13.585 10.6769 13.8211 10.3708 13.8579 10.0968C13.8764 9.95894 13.8409 9.85557 13.7686 9.80012L13.218 9.37842C13.2903 9.43386 13.3259 9.53727 13.3073 9.67515C13.2706 9.94912 13.0344 10.2552 12.7797 10.3592C12.6532 10.4108 12.5459 10.4027 12.4745 10.348Z" fill="white"/>
<path d="M12.3853 10.0513C12.3486 10.3253 12.5251 10.463 12.7799 10.3592C13.0345 10.2552 13.2707 9.94913 13.3075 9.67515C13.3443 9.40117 13.1677 9.26338 12.913 9.36725C12.6583 9.47117 12.4221 9.77733 12.3853 10.0513Z" fill="#5F6C9A"/>
<path d="M16.7605 17.5683C16.6448 17.6351 16.554 17.7924 16.5543 17.9254C16.5547 18.0583 16.6462 18.1143 16.7618 18.0475C16.8775 17.9807 16.9718 17.8175 16.9714 17.6846C16.9711 17.5515 16.8761 17.5015 16.7605 17.5683Z" fill="#B0B8BC"/>
<path d="M16.5104 17.3776C16.3284 17.5836 16.2029 17.8779 16.2036 18.1277C16.2043 18.3772 16.3241 18.5219 16.5031 18.5275C16.5037 18.7167 16.5042 18.9182 16.5048 19.1317L17.0236 18.8322C17.023 18.6187 17.0224 18.4172 17.0219 18.228C17.2003 18.0202 17.3224 17.7317 17.3217 17.4822C17.3209 17.2283 17.1942 17.0837 17.0081 17.0902C16.9949 16.1419 16.9651 15.5458 16.9205 14.664L16.7387 12.657L16.584 14.8582C16.5445 15.7886 16.5217 16.415 16.5104 17.3776ZM16.5026 18.3221C16.4112 18.2861 16.3547 18.1897 16.3543 18.0407C16.3539 17.8917 16.4131 17.7242 16.5075 17.585C16.5774 17.4801 16.6649 17.3932 16.7596 17.3386C16.8542 17.2839 16.9419 17.2696 17.0122 17.2936C17.1071 17.3235 17.167 17.4222 17.1675 17.5712C17.1679 17.7203 17.1122 17.8813 17.0213 18.0227C16.9514 18.1276 16.8568 18.2224 16.7622 18.2771C16.6676 18.3317 16.5728 18.3461 16.5026 18.3221Z" fill="#40545D"/>
</svg>
