<svg width="16" height="16" viewBox="0 0 16 16" fill="none" xmlns="http://www.w3.org/2000/svg">
<path d="M8.00002 3.99997C7.86841 3.99921 7.73795 4.02444 7.61611 4.0742C7.49427 4.12397 7.38346 4.19729 7.29002 4.28997L3.29002 8.28997C3.12619 8.48127 3.04059 8.72735 3.05031 8.97903C3.06003 9.2307 3.16436 9.46944 3.34245 9.64754C3.52055 9.82563 3.75929 9.92996 4.01096 9.93968C4.26264 9.94941 4.50872 9.8638 4.70002 9.69997L8.00002 6.40997L11.29 9.69997C11.4813 9.8638 11.7274 9.94941 11.9791 9.93968C12.2307 9.92996 12.4695 9.82563 12.6476 9.64754C12.8257 9.46944 12.93 9.2307 12.9397 8.97903C12.9494 8.72735 12.8638 8.48127 12.7 8.28997L8.70002 4.28997C8.51376 4.10523 8.26236 4.00108 8.00002 3.99997Z" fill="black"/>
<path d="M8 4C7.73478 4 7.48043 4.10536 7.29289 4.29289C7.10536 4.48043 7 4.73478 7 5V15C7 15.2652 7.10536 15.5196 7.29289 15.7071C7.48043 15.8946 7.73478 16 8 16C8.26522 16 8.51957 15.8946 8.70711 15.7071C8.89464 15.5196 9 15.2652 9 15V5C9 4.73478 8.89464 4.48043 8.70711 4.29289C8.51957 4.10536 8.26522 4 8 4ZM15 0H1C0.734784 0 0.48043 0.105356 0.292893 0.292892C0.105357 0.480429 0 0.734783 0 1C0 1.26522 0.105357 1.51957 0.292893 1.70711C0.48043 1.89464 0.734784 2 1 2H15C15.2652 2 15.5196 1.89464 15.7071 1.70711C15.8946 1.51957 16 1.26522 16 1C16 0.734783 15.8946 0.480429 15.7071 0.292892C15.5196 0.105356 15.2652 0 15 0Z" fill="black"/>
</svg>
